<svg id="Layer_1" data-name="Layer 1" xmlns="http://www.w3.org/2000/svg" width="1386.04" height="606.39" viewBox="0 0 1386.04 606.39"><defs><style>.cls-1{fill:#a0a0a0;}.cls-2{fill:#e0b0e2;stroke:#fff;}.cls-12,.cls-13,.cls-2,.cls-3,.cls-5{stroke-miterlimit:10;}.cls-3{fill:#f9f7f9;}.cls-13,.cls-3,.cls-5{stroke:#000;}.cls-12,.cls-3,.cls-5{stroke-width:0.25px;}.cls-4{fill:#f4f2f4;}.cls-12,.cls-13,.cls-5{fill:none;}.cls-6{fill:#9b9a9b;}.cls-7{fill:#bfbebf;}.cls-8{fill:#848384;}.cls-9{fill:#b2b2b2;}.cls-10{fill:#f8def9;}.cls-11{fill:#f23bc3;}.cls-12{stroke:#070607;}</style></defs><title>afraidbunny</title><polygon class="cls-1" points="1093.86 219.69 1089.33 222.01 1092.57 225.94 1087.94 228.04 1090.97 232.12 1086.23 233.97 1089.03 238.21 1084.18 239.76 1086.67 244.19 1081.73 245.35 1083.79 250 1078.75 250.58 1080.09 255.49 1075.06 254.95 1074.54 260 1071.05 256.61 1066.59 258.56 1067.87 253.64 1062.97 252.38 1065.95 248.26 1061.43 245.95 1064.99 242.32 1060.76 239.5 1064.65 236.23 1060.66 233.08 1064.76 230.09 1060.97 226.7 1065.24 223.94 1061.64 220.35 1066.04 217.8 1062.62 214.04 1067.15 211.71 1063.91 207.79 1068.54 205.69 1065.51 201.6 1070.25 199.76 1067.45 195.51 1072.3 193.96 1069.81 189.53 1074.75 188.37 1072.68 183.72 1077.73 183.15 1076.39 178.24 1081.42 178.77 1081.94 173.72 1085.43 177.11 1089.89 175.16 1088.61 180.08 1093.5 181.34 1090.53 185.47 1095.05 187.78 1091.49 191.4 1095.72 194.22 1091.83 197.5 1095.82 200.64 1091.72 203.64 1095.51 207.03 1091.24 209.79 1094.84 213.38 1090.44 215.92 1093.86 219.69"/><ellipse class="cls-2" cx="1072.14" cy="212.61" rx="26.78" ry="5.75" transform="translate(672.06 1229.78) rotate(-79.75)"/><rect class="cls-3" x="1040.28" y="329.57" width="4.43" height="8.11" transform="translate(2085 667.25) rotate(-180)"/><path class="cls-4" d="M1181.86,426.06c0,1.52-4.1,2.67-4.36,4.12s3.19,4,2.68,5.37-4.76,1.09-5.51,2.39,1.69,4.79.74,6-4.86-.52-6,.48.12,5.07-1.15,5.89-4.48-2-5.85-1.34-1.37,4.88-2.83,5.3-3.72-3.18-5.22-3-2.68,4.29-4.2,4.29-2.74-4.09-4.2-4.29-3.8,3.38-5.23,3-1.48-4.68-2.83-5.3-4.61,2.15-5.85,1.34,0-4.9-1.15-5.89-5,.67-6-.48,1.48-4.66.74-6-5-1-5.51-2.39,2.95-3.88,2.68-5.37-4.36-2.6-4.36-4.12,4.1-2.67,4.36-4.12-3.19-4-2.68-5.37,4.76-1.09,5.51-2.39-1.69-4.79-.74-6,4.86.52,6-.48-.12-5.07,1.15-5.89,4.48,2,5.85,1.34,1.37-4.88,2.83-5.3,3.72,3.18,5.22,3,2.68-4.29,4.2-4.29,2.74,4.09,4.2,4.29,3.8-3.38,5.23-3,1.48,4.68,2.83,5.3,4.61-2.15,5.85-1.34,0,4.9,1.15,5.89,5-.67,6,.48-1.48,4.66-.74,6,5,1,5.51,2.39-2.95,3.88-2.68,5.37S1181.86,424.53,1181.86,426.06Z"/><path class="cls-5" d="M1181.86,426.06c0,1.52-4.1,2.67-4.36,4.12s3.19,4,2.68,5.37-4.76,1.09-5.51,2.39,1.69,4.79.74,6-4.86-.52-6,.48.12,5.07-1.15,5.89-4.48-2-5.85-1.34-1.37,4.88-2.83,5.3-3.72-3.18-5.22-3-2.68,4.29-4.2,4.29-2.74-4.09-4.2-4.29-3.8,3.38-5.23,3-1.48-4.68-2.83-5.3-4.61,2.15-5.85,1.34,0-4.9-1.15-5.89-5,.67-6-.48,1.48-4.66.74-6-5-1-5.51-2.39,2.95-3.88,2.68-5.37-4.36-2.6-4.36-4.12,4.1-2.67,4.36-4.12-3.19-4-2.68-5.37,4.76-1.09,5.51-2.39-1.69-4.79-.74-6,4.86.52,6-.48-.12-5.07,1.15-5.89,4.48,2,5.85,1.34,1.37-4.88,2.83-5.3,3.72,3.18,5.22,3,2.68-4.29,4.2-4.29,2.74,4.09,4.2,4.29,3.8-3.38,5.23-3,1.48,4.68,2.83,5.3,4.61-2.15,5.85-1.34,0,4.9,1.15,5.89,5-.67,6,.48-1.48,4.66-.74,6,5,1,5.51,2.39-2.95,3.88-2.68,5.37S1181.86,424.53,1181.86,426.06Z"/><rect class="cls-6" x="1021.64" y="371.6" width="21.75" height="67.9" rx="10.87" ry="10.87" transform="translate(1633.51 1337.94) rotate(-144.25)"/><path class="cls-7" d="M1143.65,403.2c0,.58-6,1.08-6,1.65s6,1.39,5.93,2-6.05.76-6.1,1.33,5.88,1.7,5.82,2.27-6.09.44-6.16,1,5.78,2,5.69,2.58-6.1.11-6.21.68,5.66,2.32,5.54,2.88-6.1-.22-6.23.34,5.53,2.62,5.38,3.17-6.08-.54-6.24,0,5.38,2.91,5.2,3.46-6-.87-6.23-.33,5.21,3.2,5,3.73-6-1.2-6.21-.67,5,3.48,4.79,4-5.91-1.52-6.16-1,4.84,3.74,4.57,4.25-5.82-1.84-6.1-1.34,4.63,4,4.33,4.5-5.71-2.16-6-1.67,4.4,4.25,4.08,4.73-5.58-2.47-5.91-2,4.16,4.48,3.81,4.94-5.44-2.77-5.8-2.32,3.91,4.71,3.53,5.15-5.27-3.07-5.66-2.64,3.64,4.92,3.24,5.33-5.1-3.35-5.5-2.95,3.36,5.11,2.94,5.51-4.9-3.63-5.33-3.25,3.07,5.29,2.63,5.66-4.69-3.9-5.14-3.55,2.76,5.46,2.3,5.8-4.46-4.16-4.93-3.83,2.45,5.61,2,5.92-4.21-4.41-4.7-4.11,2.12,5.74,1.63,6-4-4.65-4.46-4.37,1.79,5.85,1.27,6.11-3.68-4.87-4.2-4.62,1.44,5.94.92,6.18-3.38-5.08-3.92-4.86,1.09,6,.55,6.22-3.08-5.27-3.63-5.08.74,6.07.18,6.24-2.76-5.44-3.32-5.29.38,6.11-.19,6.24-2.44-5.59-3-5.48,0,6.12-.55,6.22-2.1-5.73-2.67-5.64-.35,6.11-.92,6.17-1.76-5.84-2.33-5.79-.71,6.08-1.28,6.11-1.41-5.93-2-5.92-1.06,6-1.64,6-1.07-6-1.64-6-1.41,6-2,5.92-.71-6.06-1.28-6.11-1.76,5.86-2.33,5.79-.35-6.09-.92-6.17-2.1,5.74-2.67,5.64,0-6.1-.56-6.22-2.44,5.61-3,5.47.37-6.09-.19-6.24-2.77,5.45-3.32,5.29.73-6.06.18-6.24-3.09,5.28-3.63,5.08,1.09-6,.55-6.22-3.39,5.09-3.92,4.86,1.44-5.93.92-6.18-3.68,4.88-4.2,4.62,1.78-5.84,1.28-6.11-4,4.66-4.46,4.37,2.12-5.72,1.63-6-4.22,4.43-4.7,4.11,2.44-5.59,2-5.92-4.47,4.18-4.93,3.83,2.75-5.44,2.3-5.8-4.7,3.92-5.14,3.54,3.06-5.28,2.63-5.66-4.91,3.65-5.33,3.25,3.35-5.1,2.94-5.51-5.11,3.37-5.5,2.95,3.63-4.9,3.24-5.33-5.29,3.08-5.66,2.64,3.89-4.7,3.53-5.15-5.45,2.78-5.8,2.32,4.15-4.47,3.81-4.94-5.59,2.48-5.91,2,4.39-4.24,4.08-4.73-5.72,2.17-6,1.67,4.61-4,4.33-4.5-5.83,1.85-6.1,1.34,4.82-3.74,4.57-4.25-5.92,1.53-6.16,1,5-3.47,4.79-4-6,1.21-6.21.67,5.2-3.19,5-3.73-6.05.88-6.23.33,5.37-2.9,5.2-3.46-6.09.55-6.24,0,5.51-2.61,5.38-3.17-6.11.22-6.23-.34,5.65-2.31,5.54-2.88-6.12-.11-6.21-.68,5.76-2,5.69-2.58-6.1-.43-6.16-1,5.86-1.7,5.82-2.27-6.07-.75-6.1-1.33,5.94-1.38,5.93-2-6-1.07-6-1.65,6-1.08,6-1.65-6-1.39-5.93-2,6.05-.76,6.1-1.33-5.88-1.7-5.82-2.27,6.09-.44,6.16-1-5.78-2-5.69-2.58,6.1-.11,6.21-.68-5.66-2.32-5.54-2.88,6.1.22,6.23-.34-5.53-2.62-5.38-3.17,6.08.54,6.24,0-5.38-2.91-5.2-3.46,6,.87,6.23.33-5.21-3.2-5-3.73,6,1.2,6.21.67-5-3.48-4.79-4,5.91,1.52,6.16,1-4.84-3.74-4.57-4.25,5.82,1.84,6.1,1.34-4.63-4-4.33-4.5,5.71,2.16,6,1.67-4.4-4.25-4.08-4.73,5.58,2.47,5.91,2-4.16-4.48-3.81-4.94,5.44,2.77,5.8,2.32-3.91-4.71-3.53-5.15,5.27,3.07,5.66,2.64-3.64-4.92-3.24-5.33,5.1,3.35,5.5,2.95-3.36-5.11-2.94-5.51,4.9,3.63,5.33,3.25-3.07-5.29-2.63-5.66,4.69,3.9,5.14,3.55-2.76-5.46-2.3-5.8,4.46,4.16,4.93,3.83-2.45-5.61-2-5.92,4.21,4.41,4.7,4.11-2.12-5.74-1.63-6,4,4.65,4.46,4.37-1.79-5.85-1.27-6.11,3.68,4.87,4.2,4.62-1.44-5.94-.92-6.18,3.38,5.08,3.92,4.86-1.09-6-.55-6.22,3.08,5.27,3.63,5.08-.74-6.07-.18-6.24,2.76,5.44,3.32,5.29-.38-6.11.19-6.24,2.44,5.59,3,5.48,0-6.12.55-6.22,2.1,5.73,2.67,5.64.35-6.11.92-6.17,1.76,5.84,2.33,5.79.71-6.08,1.28-6.11,1.41,5.93,2,5.92,1.06-6,1.64-6,1.07,6,1.64,6,1.41-6,2-5.92.71,6.06,1.28,6.11,1.76-5.86,2.33-5.79.35,6.09.92,6.17,2.1-5.74,2.67-5.64,0,6.1.56,6.22,2.44-5.61,3-5.47-.37,6.09.19,6.24,2.77-5.45,3.32-5.29-.73,6.06-.18,6.24,3.09-5.28,3.63-5.08-1.09,6-.55,6.22,3.39-5.09,3.92-4.86-1.44,5.93-.92,6.18,3.68-4.88,4.2-4.62-1.78,5.84-1.28,6.11,4-4.66,4.46-4.37-2.12,5.72-1.63,6,4.22-4.43,4.7-4.11-2.44,5.59-2,5.92,4.47-4.18,4.93-3.83-2.75,5.44-2.3,5.8,4.7-3.92,5.14-3.54-3.06,5.28-2.63,5.66,4.91-3.65,5.33-3.25-3.35,5.1-2.94,5.51,5.11-3.37,5.5-2.95-3.63,4.9-3.24,5.33,5.29-3.08,5.66-2.64-3.89,4.7-3.53,5.15,5.45-2.78,5.8-2.32-4.15,4.47-3.81,4.94,5.59-2.48,5.91-2-4.39,4.24-4.08,4.73,5.72-2.17,6-1.67-4.61,4-4.33,4.5,5.83-1.85,6.1-1.34-4.82,3.74-4.57,4.25,5.92-1.53,6.16-1-5,3.47-4.79,4,6-1.21,6.21-.67-5.2,3.19-5,3.73,6.05-.88,6.23-.33-5.37,2.9-5.2,3.46,6.09-.55,6.24,0-5.51,2.61-5.38,3.17,6.11-.22,6.23.34-5.65,2.31-5.54,2.88,6.12.11,6.21.68-5.76,2-5.69,2.58,6.1.43,6.16,1-5.86,1.7-5.82,2.27,6.07.75,6.1,1.33-5.94,1.38-5.93,2S1143.65,402.62,1143.65,403.2Z"/><ellipse class="cls-6" cx="1095.05" cy="441.39" rx="48.42" ry="39.74"/><path class="cls-8" d="M1058.46,513c3.15,1.63,7.45.45,12.14-2.87,6.8-4.82,14.41-14.13,20.52-25.91,10.33-19.89,12.46-39.27,4.75-43.27s-22.33,8.88-32.66,28.78S1050.76,509,1058.46,513Z"/><rect class="cls-9" x="1032.29" y="391.72" width="21.75" height="57.59" rx="10.87" ry="10.87" transform="translate(1796.7 1255.5) rotate(-154.02)"/><path class="cls-10" d="M1044.66,399.54c1.46-1.39,4,1.89,5.7.84s-.28-3.7,1.2-5.07,4,.84,5.16-.8-1.82-3.83-.64-5.47,4.21.53,5.4-1.12-1.89-4-.58-5.59c1-1.2,3.85,1.48,5,.39s-1.46-3.49-.46-4.7c1.15-1.4,4,.7,5-.82s-1.35-2.17-1.43-4,2.24-2.7,1.12-4.22-5.17.32-5.57-1.52c-.48-2.19,4-2.35,4.3-4.57s-1.92-1.86-2.9-3.87c-.88-1.79.65-3.35-1.16-4.19s-3,2.39-4.94,1.81c-2.19-.67-1.39-4-3.64-4.43s-3.75,3.79-5.75,2.67.7-4.64-.89-6.4-3.42.53-5.49-.63c-1.68-.94-.79-3.7-2.7-3.91s-2,3.17-3.92,3.29-2.33-3.24-4.1-2.8-.59,3.45-2.18,4.33-3.45-1.74-4.69-.52,1.38,3.67.25,5-3.85-1-4.78.26,2.12,3.78,1,4.94c-1.48,1.58-4.22-1.26-5.84.17s.39,2.71-.22,4.78-3,2-2.36,4.08,4.29,1,4.82,3.06-3.19,2.89-2.75,4.91,5,2.1,4.51,4.11c-.59,2.3-4.73.29-6.17,2.17s.43,2.5.47,4.87c0,2.21-1.74,2.93-.24,4.55s5.32-.75,6.12,1.32-3.68,2.68-3.75,4.74,2.64,1.56,3.45,3.47-1.44,3.46.07,4.78,3-1.2,4.89-.51,1.4,3.58,3.4,3.54,2.07-3.94,4.07-3.82,1.62,4,3.6,4.27,1.64-2.18,3.47-3,4.33.82,4.89-1.15C1046.09,402.38,1043.17,401,1044.66,399.54Z"/><circle class="cls-7" cx="1083.32" cy="296.6" r="53.24"/><path class="cls-11" d="M1028.81,308.48l-2.66-6.39a3.52,3.52,0,0,1,3.66-4.85l6.71.77a3.52,3.52,0,0,1,2.45,5.56l-4,5.62A3.52,3.52,0,0,1,1028.81,308.48Z"/><circle class="cls-7" cx="1040.28" cy="320.06" r="10.21"/><polygon class="cls-7" points="1136.51 221.15 1131.88 223.98 1134.98 228.44 1130.2 231.01 1133.03 235.63 1128.11 237.9 1130.63 242.7 1125.55 244.61 1127.68 249.6 1122.46 251.04 1124.05 256.23 1118.68 256.97 1119.35 262.35 1113.99 261.77 1112.56 267 1108.68 263.42 1103.79 265.41 1104.28 260.01 1099.06 258.68 1101.58 253.87 1096.81 251.3 1100.12 247 1095.72 243.82 1099.47 239.89 1095.38 236.33 1099.43 232.71 1095.61 228.87 1099.88 225.52 1096.31 221.44 1100.77 218.35 1097.43 214.07 1102.06 211.24 1098.96 206.78 1103.74 204.21 1100.9 199.59 1105.83 197.32 1103.31 192.52 1108.39 190.61 1106.25 185.62 1111.48 184.18 1109.89 178.99 1115.26 178.25 1114.59 172.87 1119.95 173.45 1121.38 168.22 1125.26 171.8 1130.14 169.81 1129.65 175.21 1134.88 176.54 1132.36 181.35 1137.13 183.92 1133.82 188.22 1138.21 191.4 1134.47 195.33 1138.55 198.89 1134.51 202.51 1138.33 206.35 1134.05 209.7 1137.63 213.78 1133.17 216.87 1136.51 221.15"/><ellipse class="cls-2" cx="1111.44" cy="217.41" rx="26.78" ry="5.75" transform="translate(699.66 1272.4) rotate(-79.75)"/><polygon class="cls-1" points="890.8 124.92 885.78 125.7 887.61 130.44 882.55 130.97 884.13 135.8 879.05 136.05 880.36 140.97 875.28 140.9 876.24 145.9 871.18 145.43 871.67 150.49 866.7 149.45 866.42 154.53 861.82 152.43 859.73 157.06 857.49 152.74 852.64 153.18 855.41 148.91 851.17 146.17 855.29 143.2 851.73 139.58 856.26 137.26 853.14 133.25 857.87 131.37 855.07 127.13 859.91 125.58 857.39 121.17 862.31 119.9 860.03 115.36 865.01 114.34 862.96 109.68 867.99 108.91 866.16 104.16 871.22 103.63 869.63 98.8 874.71 98.55 873.4 93.63 878.49 93.7 877.52 88.7 882.58 89.17 882.09 84.11 887.06 85.15 887.34 80.08 891.94 82.17 894.04 77.54 896.27 81.86 901.12 81.42 898.35 85.69 902.6 88.43 898.47 91.4 902.03 95.03 897.5 97.34 900.62 101.35 895.9 103.23 898.69 107.47 893.85 109.02 896.37 113.43 891.45 114.7 893.73 119.25 888.75 120.27 890.8 124.92"/><ellipse class="cls-2" cx="872.44" cy="111.34" rx="26.78" ry="5.75" transform="translate(355.92 823.21) rotate(-61.31)"/><rect class="cls-3" x="838.93" y="230.01" width="4.43" height="8.11" transform="translate(1682.29 468.13) rotate(-180)"/><path class="cls-4" d="M980.5,326.49c0,1.52-4.1,2.67-4.36,4.12s3.19,4,2.68,5.37-4.76,1.09-5.51,2.39,1.69,4.79.74,6-4.86-.52-6,.48.12,5.07-1.15,5.89-4.48-2-5.85-1.34-1.37,4.88-2.83,5.3-3.72-3.18-5.22-3-2.68,4.29-4.2,4.29-2.74-4.09-4.2-4.29-3.8,3.38-5.23,3-1.48-4.68-2.83-5.3-4.61,2.15-5.85,1.34,0-4.9-1.15-5.89-5,.67-6-.48,1.48-4.66.74-6-5-1-5.51-2.39,2.95-3.88,2.68-5.37-4.36-2.6-4.36-4.12,4.1-2.67,4.36-4.12-3.19-4-2.68-5.37,4.76-1.09,5.51-2.39-1.69-4.79-.74-6,4.86.52,6-.48-.12-5.07,1.15-5.89,4.48,2,5.85,1.34,1.37-4.88,2.83-5.3,3.72,3.18,5.22,3,2.68-4.29,4.2-4.29,2.74,4.09,4.2,4.29,3.8-3.38,5.23-3,1.48,4.68,2.83,5.3,4.61-2.15,5.85-1.34,0,4.9,1.15,5.89,5-.67,6,.48-1.48,4.66-.74,6,5,1,5.51,2.39-2.95,3.88-2.68,5.37S980.5,325,980.5,326.49Z"/><path class="cls-5" d="M980.5,326.49c0,1.52-4.1,2.67-4.36,4.12s3.19,4,2.68,5.37-4.76,1.09-5.51,2.39,1.69,4.79.74,6-4.86-.52-6,.48.12,5.07-1.15,5.89-4.48-2-5.85-1.34-1.37,4.88-2.83,5.3-3.72-3.18-5.22-3-2.68,4.29-4.2,4.29-2.74-4.09-4.2-4.29-3.8,3.38-5.23,3-1.48-4.68-2.83-5.3-4.61,2.15-5.85,1.34,0-4.9-1.15-5.89-5,.67-6-.48,1.48-4.66.74-6-5-1-5.51-2.39,2.95-3.88,2.68-5.37-4.36-2.6-4.36-4.12,4.1-2.67,4.36-4.12-3.19-4-2.68-5.37,4.76-1.09,5.51-2.39-1.69-4.79-.74-6,4.86.52,6-.48-.12-5.07,1.15-5.89,4.48,2,5.85,1.34,1.37-4.88,2.83-5.3,3.72,3.18,5.22,3,2.68-4.29,4.2-4.29,2.74,4.09,4.2,4.29,3.8-3.38,5.23-3,1.48,4.68,2.83,5.3,4.61-2.15,5.85-1.34,0,4.9,1.15,5.89,5-.67,6,.48-1.48,4.66-.74,6,5,1,5.51,2.39-2.95,3.88-2.68,5.37S980.5,325,980.5,326.49Z"/><rect class="cls-6" x="820.28" y="272.04" width="21.75" height="67.9" rx="10.87" ry="10.87" transform="translate(1326.91 1039.93) rotate(-144.25)"/><path class="cls-7" d="M942.29,303.64c0,.58-6,1.08-6,1.65s6,1.39,5.93,2-6.05.76-6.1,1.33,5.88,1.7,5.82,2.27-6.09.44-6.16,1,5.78,2,5.69,2.58-6.1.11-6.21.68,5.66,2.32,5.54,2.88-6.1-.22-6.23.34,5.53,2.62,5.38,3.17-6.08-.54-6.24,0,5.38,2.91,5.2,3.46-6-.87-6.23-.33,5.21,3.2,5,3.73-6-1.2-6.21-.67,5,3.48,4.79,4-5.91-1.52-6.16-1,4.84,3.74,4.57,4.25-5.82-1.84-6.1-1.34,4.63,4,4.33,4.5-5.71-2.16-6-1.67,4.4,4.25,4.08,4.73-5.58-2.47-5.91-2,4.16,4.48,3.81,4.94-5.44-2.77-5.8-2.32,3.91,4.71,3.53,5.15-5.27-3.07-5.66-2.64,3.64,4.92,3.24,5.33-5.1-3.35-5.5-2.95,3.36,5.11,2.94,5.51-4.9-3.63-5.33-3.25,3.07,5.29,2.63,5.66-4.69-3.9-5.14-3.55,2.76,5.46,2.3,5.8-4.46-4.16-4.93-3.83,2.45,5.61,2,5.92-4.21-4.41-4.7-4.11,2.12,5.74,1.63,6-4-4.65-4.46-4.37,1.79,5.85,1.27,6.11-3.68-4.87-4.2-4.62,1.44,5.94.92,6.18-3.38-5.08-3.92-4.86,1.09,6,.55,6.22-3.08-5.27-3.63-5.08.74,6.07.18,6.24-2.76-5.44-3.32-5.29.38,6.11-.19,6.24-2.44-5.59-3-5.48,0,6.12-.55,6.22-2.1-5.73-2.67-5.64-.35,6.11-.92,6.17-1.76-5.84-2.33-5.79-.71,6.08-1.28,6.11-1.41-5.93-2-5.92-1.06,6-1.64,6-1.07-6-1.64-6-1.41,6-2,5.92-.71-6.06-1.28-6.11-1.76,5.86-2.33,5.79-.35-6.09-.92-6.17-2.1,5.74-2.67,5.64,0-6.1-.56-6.22-2.44,5.61-3,5.47.37-6.09-.19-6.24-2.77,5.45-3.32,5.29.73-6.06.18-6.24-3.09,5.28-3.63,5.08,1.09-6,.55-6.22-3.39,5.09-3.92,4.86,1.44-5.93.92-6.18-3.68,4.88-4.2,4.62,1.78-5.84,1.28-6.11-4,4.66-4.46,4.37,2.12-5.72,1.63-6-4.22,4.43-4.7,4.11,2.44-5.59,2-5.92-4.47,4.18-4.93,3.83,2.75-5.44,2.3-5.8-4.7,3.92-5.14,3.54,3.06-5.28,2.63-5.66-4.91,3.65-5.33,3.25,3.35-5.1,2.94-5.51-5.11,3.37-5.5,2.95,3.63-4.9,3.24-5.33-5.29,3.08-5.66,2.64,3.89-4.7,3.53-5.15-5.45,2.78-5.8,2.32,4.15-4.47,3.81-4.94-5.59,2.48-5.91,2,4.39-4.24,4.08-4.73-5.72,2.17-6,1.67,4.61-4,4.33-4.5-5.83,1.85-6.1,1.34,4.82-3.74,4.57-4.25-5.92,1.53-6.16,1,5-3.47,4.79-4-6,1.21-6.21.67,5.2-3.19,5-3.73-6.05.88-6.23.33,5.37-2.9,5.2-3.46-6.09.55-6.24,0,5.51-2.61,5.38-3.17-6.11.22-6.23-.34,5.65-2.31,5.54-2.88-6.12-.11-6.21-.68,5.76-2,5.69-2.58-6.1-.43-6.16-1,5.86-1.7,5.82-2.27-6.07-.75-6.1-1.33,5.94-1.38,5.93-2-6-1.07-6-1.65,6-1.08,6-1.65-6-1.39-5.93-2,6.05-.76,6.1-1.33-5.88-1.7-5.82-2.27,6.09-.44,6.16-1-5.78-2-5.69-2.58,6.1-.11,6.21-.68-5.66-2.32-5.54-2.88,6.1.22,6.23-.34-5.53-2.62-5.38-3.17,6.08.54,6.24,0-5.38-2.91-5.2-3.46,6,.87,6.23.33-5.21-3.2-5-3.73,6,1.2,6.21.67-5-3.48-4.79-4,5.91,1.52,6.16,1-4.84-3.74-4.57-4.25,5.82,1.84,6.1,1.34-4.63-4-4.33-4.5,5.71,2.16,6,1.67-4.4-4.25-4.08-4.73,5.58,2.47,5.91,2-4.16-4.48-3.81-4.94,5.44,2.77,5.8,2.32-3.91-4.71-3.53-5.15,5.27,3.07,5.66,2.64-3.64-4.92-3.24-5.33,5.1,3.35,5.5,2.95-3.36-5.11-2.94-5.51,4.9,3.63,5.33,3.25-3.07-5.29-2.63-5.66,4.69,3.9,5.14,3.55-2.76-5.46-2.3-5.8,4.46,4.16,4.93,3.83-2.45-5.61-2-5.92,4.21,4.41,4.7,4.11-2.12-5.74-1.63-6,4,4.65,4.46,4.37-1.79-5.85-1.27-6.11,3.68,4.87,4.2,4.62-1.44-5.94-.92-6.18,3.38,5.08,3.92,4.86-1.09-6-.55-6.22,3.08,5.27,3.63,5.08-.74-6.07-.18-6.24,2.76,5.44,3.32,5.29-.38-6.11.19-6.24,2.44,5.59,3,5.48,0-6.12.55-6.22,2.1,5.73,2.67,5.64.35-6.11.92-6.17,1.76,5.84,2.33,5.79.71-6.08,1.28-6.11,1.41,5.93,2,5.92,1.06-6,1.64-6,1.07,6,1.64,6,1.41-6,2-5.92.71,6.06,1.28,6.11,1.76-5.86,2.33-5.79.35,6.09.92,6.17,2.1-5.74,2.67-5.64,0,6.1.56,6.22,2.44-5.61,3-5.47-.37,6.09.19,6.24,2.77-5.45,3.32-5.29-.73,6.06-.18,6.24,3.09-5.28,3.63-5.08-1.09,6-.55,6.22,3.39-5.09,3.92-4.86-1.44,5.93-.92,6.18,3.68-4.88,4.2-4.62-1.78,5.84-1.28,6.11,4-4.66,4.46-4.37-2.12,5.72-1.63,6,4.22-4.43,4.7-4.11-2.44,5.59-2,5.92,4.47-4.18,4.93-3.83-2.75,5.44-2.3,5.8,4.7-3.92,5.14-3.54-3.06,5.28-2.63,5.66,4.91-3.65,5.33-3.25-3.35,5.1-2.94,5.51,5.11-3.37,5.5-2.95-3.63,4.9-3.24,5.33,5.29-3.08,5.66-2.64-3.89,4.7-3.53,5.15,5.45-2.78,5.8-2.32-4.15,4.47-3.81,4.94,5.59-2.48,5.91-2-4.39,4.24-4.08,4.73,5.72-2.17,6-1.67-4.61,4-4.33,4.5,5.83-1.85,6.1-1.34-4.82,3.74-4.57,4.25,5.92-1.53,6.16-1-5,3.47-4.79,4,6-1.21,6.21-.67-5.2,3.19-5,3.73,6.05-.88,6.23-.33-5.37,2.9-5.2,3.46,6.09-.55,6.24,0-5.51,2.61-5.38,3.17,6.11-.22,6.23.34-5.65,2.31-5.54,2.88,6.12.11,6.21.68-5.76,2-5.69,2.58,6.1.43,6.16,1-5.86,1.7-5.82,2.27,6.07.75,6.1,1.33-5.94,1.38-5.93,2S942.29,303.06,942.29,303.64Z"/><ellipse class="cls-6" cx="893.69" cy="341.83" rx="48.42" ry="39.74"/><path class="cls-8" d="M888.62,415.93c3.36-1.12,5.51-5,6.39-10.71,1.28-8.23-.1-20.18-4.29-32.77-7.08-21.27-19.49-36.29-27.73-33.55s-9.18,22.21-2.1,43.48S880.38,418.67,888.62,415.93Z"/><rect class="cls-9" x="830.93" y="292.16" width="21.75" height="57.59" rx="10.87" ry="10.87" transform="translate(1457.95 978.24) rotate(-154.02)"/><path class="cls-10" d="M843.12,299.46c1.8-1.36,3.82,2.89,6,2.35s1-2.94,2.66-4.42,3.88.12,4.69-1.94-3.1-4.53-1.6-6.14,4.11,2.23,6,1.38.2-3.9,1.92-5.07,3.87,1.56,5.28.14-1.2-3.36-.25-5.12,4-.64,4.45-2.62-2.78-2.17-3-4.19,2.94-2.74,2.17-4.56-4.45-.34-5.14-2.19,3.06-3.12,2.46-5-3.32-.36-4.54-1.86.78-3.86-.9-4.83-3.25,2.27-5,1.55c-2.08-.84-.95-4.25-3.11-4.83s-3.49,3.34-5.57,2.5-.24-4.56-2.16-5.65-3.88,2.3-5.78,1.18c-1.69-1,.35-4.35-1.32-5.38s-2.5,1.61-4.46,1.5-2.51-2.82-4.28-2,0,3.93-1.6,5c-1.42,1-3.68-1.76-4.9-.56s1.5,3.92.3,5.15-3.89-1.52-5-.35,1.68,3.31.84,4.68-4-.1-4.61,1.47,3.08,2.9,2.5,4.47c-.71,1.94-4.35.59-5.08,2.52s2.76,3,2.24,5S812.27,273,812,275s3.52,2.53,3.24,4.5-4.1,1.44-4.37,3.4,2.89,1.87,3.28,3.82-2.56,3.12-1.54,4.91,4.94.06,5.56,2-3.56,2.87-3.34,4.95,2,1.13,3.61,2.49,1,3.43,3.25,3.44,3.23-4.58,5.3-3.68-.8,4.65.62,6.23,3.1-.75,5,.1,1.36,3.64,3.43,3.57,1.28-2.6,3-3.71,4.69.28,5-1.86C844.57,302.33,841.39,300.77,843.12,299.46Z"/><circle class="cls-7" cx="881.96" cy="197.04" r="53.24"/><path class="cls-11" d="M827.45,208.91l-2.66-6.39a3.52,3.52,0,0,1,3.66-4.85l6.71.77A3.52,3.52,0,0,1,837.6,204l-4,5.62A3.52,3.52,0,0,1,827.45,208.91Z"/><circle class="cls-7" cx="838.93" cy="220.5" r="10.21"/><polygon class="cls-7" points="932.89 127.83 927.59 128.98 929.04 134.21 923.68 135.06 924.83 140.36 919.43 140.88 920.23 146.24 914.81 146.37 915.18 151.78 909.77 151.42 909.56 156.84 904.25 155.77 903.1 161.07 898.24 158.76 895.16 163.22 892.68 158.56 887.41 158.83 889.65 153.89 885.16 150.92 889.12 147.21 885.47 143.21 890.01 140.23 886.91 135.78 891.74 133.32 889.06 128.6 894.07 126.52 891.73 121.63 896.87 119.88 894.84 114.85 900.07 113.41 898.33 108.27 903.63 107.12 902.18 101.89 907.54 101.04 906.39 95.74 911.79 95.22 910.99 89.85 916.41 89.73 916.04 84.31 921.46 84.68 921.66 79.25 926.97 80.33 928.12 75.02 932.98 77.34 936.06 72.88 938.54 77.53 943.81 77.27 941.57 82.2 946.06 85.18 942.1 88.89 945.75 92.89 941.21 95.86 944.31 100.31 939.48 102.78 942.16 107.5 937.15 109.57 939.49 114.47 934.35 116.21 936.38 121.25 931.15 122.69 932.89 127.83"/><ellipse class="cls-2" cx="910.46" cy="116.03" rx="26.78" ry="5.75" transform="translate(361.03 851.24) rotate(-60.49)"/><polygon class="cls-1" points="706.67 54.47 701.71 53.34 701.67 58.43 696.77 57.06 696.47 62.14 691.66 60.51 691.07 65.56 686.36 63.63 685.42 68.63 680.89 66.34 679.49 71.22 675.25 68.43 673.12 73.05 669.61 69.41 665.96 72.94 665.47 68.1 660.8 66.73 664.94 63.78 662 59.67 666.93 58.42 664.95 53.75 670.01 53.26 668.58 48.38 673.67 48.37 672.63 43.4 677.7 43.73 676.97 38.7 682.02 39.33 681.56 34.27 686.57 35.15 686.37 30.07 691.33 31.19 691.37 26.1 696.27 27.47 696.57 22.39 701.39 24.02 701.98 18.97 706.68 20.9 707.62 15.9 712.16 18.2 713.56 13.31 717.8 16.1 719.93 11.48 723.43 15.12 727.08 11.59 727.58 16.43 732.25 17.8 728.11 20.75 731.04 24.86 726.11 26.11 728.09 30.78 723.03 31.27 724.46 36.15 719.38 36.16 720.42 41.13 715.34 40.8 716.07 45.83 711.02 45.2 711.48 50.26 706.47 49.38 706.67 54.47"/><ellipse class="cls-2" cx="694.58" cy="35.09" rx="26.78" ry="5.75" transform="translate(138.21 452.37) rotate(-39.76)"/><rect class="cls-3" x="642.24" y="147.21" width="4.43" height="8.11" transform="translate(1288.92 302.54) rotate(-180)"/><path class="cls-4" d="M783.82,243.7c0,1.52-4.1,2.67-4.36,4.12s3.19,4,2.68,5.37-4.76,1.09-5.51,2.39,1.69,4.79.74,6-4.86-.52-6,.48.12,5.07-1.15,5.89-4.48-2-5.85-1.34-1.37,4.88-2.83,5.3-3.72-3.18-5.22-3-2.68,4.29-4.2,4.29-2.74-4.09-4.2-4.29-3.8,3.38-5.23,3-1.48-4.68-2.83-5.3-4.61,2.15-5.85,1.34,0-4.9-1.15-5.89-5,.67-6-.48,1.48-4.66.74-6-5-1-5.51-2.39,2.95-3.88,2.68-5.37-4.36-2.6-4.36-4.12,4.1-2.67,4.36-4.12-3.19-4-2.68-5.37,4.76-1.09,5.51-2.39-1.69-4.79-.74-6,4.86.52,6-.48-.12-5.07,1.15-5.89,4.48,2,5.85,1.34,1.37-4.88,2.83-5.3,3.72,3.18,5.22,3,2.68-4.29,4.2-4.29,2.74,4.09,4.2,4.29,3.8-3.38,5.23-3,1.48,4.68,2.83,5.3,4.61-2.15,5.85-1.34,0,4.9,1.15,5.89,5-.67,6,.48-1.48,4.66-.74,6,5,1,5.51,2.39-2.95,3.88-2.68,5.37S783.82,242.18,783.82,243.7Z"/><path class="cls-5" d="M783.82,243.7c0,1.52-4.1,2.67-4.36,4.12s3.19,4,2.68,5.37-4.76,1.09-5.51,2.39,1.69,4.79.74,6-4.86-.52-6,.48.12,5.07-1.15,5.89-4.48-2-5.85-1.34-1.37,4.88-2.83,5.3-3.72-3.18-5.22-3-2.68,4.29-4.2,4.29-2.74-4.09-4.2-4.29-3.8,3.38-5.23,3-1.48-4.68-2.83-5.3-4.61,2.15-5.85,1.34,0-4.9-1.15-5.89-5,.67-6-.48,1.48-4.66.74-6-5-1-5.51-2.39,2.95-3.88,2.68-5.37-4.36-2.6-4.36-4.12,4.1-2.67,4.36-4.12-3.19-4-2.68-5.37,4.76-1.09,5.51-2.39-1.69-4.79-.74-6,4.86.52,6-.48-.12-5.07,1.15-5.89,4.48,2,5.85,1.34,1.37-4.88,2.83-5.3,3.72,3.18,5.22,3,2.68-4.29,4.2-4.29,2.74,4.09,4.2,4.29,3.8-3.38,5.23-3,1.48,4.68,2.83,5.3,4.61-2.15,5.85-1.34,0,4.9,1.15,5.89,5-.67,6,.48-1.48,4.66-.74,6,5,1,5.51,2.39-2.95,3.88-2.68,5.37S783.82,242.18,783.82,243.7Z"/><rect class="cls-6" x="623.6" y="189.24" width="21.75" height="67.9" rx="10.87" ry="10.87" transform="translate(1018.98 775.03) rotate(-144.25)"/><path class="cls-7" d="M745.61,220.84c0,.58-6,1.08-6,1.65s6,1.39,5.93,2-6.05.76-6.1,1.33,5.88,1.7,5.82,2.27-6.09.44-6.16,1,5.78,2,5.69,2.58-6.1.11-6.21.68,5.66,2.32,5.54,2.88-6.1-.22-6.23.34,5.53,2.62,5.38,3.17-6.08-.54-6.24,0,5.38,2.91,5.2,3.46-6-.87-6.23-.33,5.21,3.2,5,3.73-6-1.2-6.21-.67,5,3.48,4.79,4-5.91-1.52-6.16-1,4.84,3.74,4.57,4.25-5.82-1.84-6.1-1.34,4.63,4,4.33,4.5-5.71-2.16-6-1.67,4.4,4.25,4.08,4.73-5.58-2.47-5.91-2,4.16,4.48,3.81,4.94-5.44-2.77-5.8-2.32,3.91,4.71,3.53,5.15-5.27-3.07-5.66-2.64,3.64,4.92,3.24,5.33-5.1-3.35-5.5-2.95,3.36,5.11,2.94,5.51-4.9-3.63-5.33-3.25,3.07,5.29,2.63,5.66-4.69-3.9-5.14-3.55,2.76,5.46,2.3,5.8-4.46-4.16-4.93-3.83,2.45,5.61,2,5.92-4.21-4.41-4.7-4.11,2.12,5.74,1.63,6-4-4.65-4.46-4.37,1.79,5.85,1.27,6.11-3.68-4.87-4.2-4.62,1.44,5.94.92,6.18-3.38-5.08-3.92-4.86,1.09,6,.55,6.22-3.08-5.27-3.63-5.08.74,6.07.18,6.24-2.76-5.44-3.32-5.29.38,6.11-.19,6.24-2.44-5.59-3-5.48,0,6.12-.55,6.22-2.1-5.73-2.67-5.64-.35,6.11-.92,6.17-1.76-5.84-2.33-5.79-.71,6.08-1.28,6.11-1.41-5.93-2-5.92-1.06,6-1.64,6-1.07-6-1.64-6-1.41,6-2,5.92-.71-6.06-1.28-6.11-1.76,5.86-2.33,5.79-.35-6.09-.92-6.17-2.1,5.74-2.67,5.64,0-6.1-.56-6.22-2.44,5.61-3,5.47.37-6.09-.19-6.24-2.77,5.45-3.32,5.29.73-6.06.18-6.24-3.09,5.28-3.63,5.08,1.09-6,.55-6.22-3.39,5.09-3.92,4.86,1.44-5.93.92-6.18-3.68,4.88-4.2,4.62,1.78-5.84,1.28-6.11-4,4.66-4.46,4.37,2.12-5.72,1.63-6-4.22,4.43-4.7,4.11,2.44-5.59,2-5.92-4.47,4.18-4.93,3.83,2.75-5.44,2.3-5.8-4.7,3.92-5.14,3.54,3.06-5.28,2.63-5.66-4.91,3.65-5.33,3.25,3.35-5.1,2.94-5.51-5.11,3.37-5.5,2.95,3.63-4.9,3.24-5.33-5.29,3.08-5.66,2.64,3.89-4.7,3.53-5.15-5.45,2.78-5.8,2.32,4.15-4.47,3.81-4.94-5.59,2.48-5.91,2,4.39-4.24,4.08-4.73-5.72,2.17-6,1.67,4.61-4,4.33-4.5-5.83,1.85-6.1,1.34,4.82-3.74,4.57-4.25-5.92,1.53-6.16,1,5-3.47,4.79-4-6,1.21-6.21.67,5.2-3.19,5-3.73-6.05.88-6.23.33,5.37-2.9,5.2-3.46-6.09.55-6.24,0,5.51-2.61,5.38-3.17-6.11.22-6.23-.34,5.65-2.31,5.54-2.88-6.12-.11-6.21-.68,5.76-2,5.69-2.58-6.1-.43-6.16-1,5.86-1.7,5.82-2.27-6.07-.75-6.1-1.33,5.94-1.38,5.93-2-6-1.07-6-1.65,6-1.08,6-1.65-6-1.39-5.93-2,6.05-.76,6.1-1.33-5.88-1.7-5.82-2.27,6.09-.44,6.16-1-5.78-2-5.69-2.58,6.1-.11,6.21-.68-5.66-2.32-5.54-2.88,6.1.22,6.23-.34-5.53-2.62-5.38-3.17,6.08.54,6.24,0-5.38-2.91-5.2-3.46,6,.87,6.23.33-5.21-3.2-5-3.73,6,1.2,6.21.67-5-3.48-4.79-4,5.91,1.52,6.16,1-4.84-3.74-4.57-4.25,5.82,1.84,6.1,1.34-4.63-4-4.33-4.5,5.71,2.16,6,1.67-4.4-4.25-4.08-4.73,5.58,2.47,5.91,2-4.16-4.48-3.81-4.94,5.44,2.77,5.8,2.32-3.91-4.71-3.53-5.15,5.27,3.07,5.66,2.64-3.64-4.92-3.24-5.33,5.1,3.35,5.5,2.95-3.36-5.11-2.94-5.51,4.9,3.63,5.33,3.25-3.07-5.29-2.63-5.66,4.69,3.9,5.14,3.55-2.76-5.46-2.3-5.8,4.46,4.16,4.93,3.83-2.45-5.61-2-5.92,4.21,4.41,4.7,4.11-2.12-5.74-1.63-6,4,4.65,4.46,4.37-1.79-5.85-1.27-6.11,3.68,4.87,4.2,4.62-1.44-5.94-.92-6.18,3.38,5.08,3.92,4.86-1.09-6-.55-6.22,3.08,5.27,3.63,5.08-.74-6.07-.18-6.24,2.76,5.44,3.32,5.29-.38-6.11.19-6.24,2.44,5.59,3,5.48,0-6.12.55-6.22,2.1,5.73,2.67,5.64.35-6.11.92-6.17,1.76,5.84,2.33,5.79.71-6.08,1.28-6.11,1.41,5.93,2,5.92,1.06-6,1.64-6,1.07,6,1.64,6,1.41-6,2-5.92.71,6.06,1.28,6.11,1.76-5.86,2.33-5.79.35,6.09.92,6.17,2.1-5.74,2.67-5.64,0,6.1.56,6.22,2.44-5.61,3-5.47-.37,6.09.19,6.24,2.77-5.45,3.32-5.29-.73,6.06-.18,6.24,3.09-5.28,3.63-5.08-1.09,6-.55,6.22,3.39-5.09,3.92-4.86-1.44,5.93-.92,6.18,3.68-4.88,4.2-4.62-1.78,5.84-1.28,6.11,4-4.66,4.46-4.37-2.12,5.72-1.63,6,4.22-4.43,4.7-4.11-2.44,5.59-2,5.92,4.47-4.18,4.93-3.83-2.75,5.44-2.3,5.8,4.7-3.92,5.14-3.54-3.06,5.28-2.63,5.66,4.91-3.65,5.33-3.25-3.35,5.1-2.94,5.51,5.11-3.37,5.5-2.95-3.63,4.9-3.24,5.33,5.29-3.08,5.66-2.64-3.89,4.7-3.53,5.15,5.45-2.78,5.8-2.32-4.15,4.47-3.81,4.94,5.59-2.48,5.91-2-4.39,4.24-4.08,4.73,5.72-2.17,6-1.67-4.61,4-4.33,4.5,5.83-1.85,6.1-1.34-4.82,3.74-4.57,4.25,5.92-1.53,6.16-1-5,3.47-4.79,4,6-1.21,6.21-.67-5.2,3.19-5,3.73,6.05-.88,6.23-.33-5.37,2.9-5.2,3.46,6.09-.55,6.24,0-5.51,2.61-5.38,3.17,6.11-.22,6.23.34-5.65,2.31-5.54,2.88,6.12.11,6.21.68-5.76,2-5.69,2.58,6.1.43,6.16,1-5.86,1.7-5.82,2.27,6.07.75,6.1,1.33-5.94,1.38-5.93,2S745.61,220.27,745.61,220.84Z"/><ellipse class="cls-6" cx="697" cy="259.03" rx="48.42" ry="39.74"/><path class="cls-8" d="M671.06,334.4c3.47.7,7.28-1.61,10.88-6.1,5.21-6.5,10-17.55,12.6-30.55,4.46-22,1.17-41.18-7.34-42.9s-19,14.68-23.48,36.65S662.55,332.67,671.06,334.4Z"/><rect class="cls-9" x="634.25" y="209.37" width="21.75" height="57.59" rx="10.87" ry="10.87" transform="translate(1120.72 734.86) rotate(-154.02)"/><path class="cls-10" d="M645.7,215.89c1.59-1.21,3.76,1.72,5.38.56s-.47-4,1.13-5.23,3.74,1.65,5.32.44-.61-3.65.77-5.09,3.93.62,5.11-1-1.82-4.63-.16-5.81,3.64,2.52,5.68,1.87.78-2.6,2.21-4.2,3.38-.5,3.65-2.45-2.88-2-3-4,2.94-2.47,2.37-4.25-3.86-.64-4.52-2.39,2.59-3,1.85-4.72-2.94-.08-4.31-1.3-.05-3.6-1.82-4.15-3,3-4.7,2.3c-2.07-.78-.68-4.21-2.7-5.09s-3.94,2.61-5.77,1.38.59-4.39-1.08-6-3.49.79-5.49-.38c-1.6-.93-.49-3.71-2.29-4.13s-1.83,2.3-3.64,2.67-2.94-2.11-4.46-1,.46,4.5-1.25,5.29c-1.51.7-2.76-3-4.39-2.67s-.51,3.13-1.93,4-3.4-1.38-4.49-.08,1.59,3.12.78,4.61-3.8.26-4.3,1.9,2.74,2.39,2.48,4.08c-.3,2-3.62,1.67-3.67,3.65s3.79,2.35,3.47,4.31-4.09,1.12-4.69,3.07,2.31,2.39,2.31,4.42-2.93,2.53-2.34,4.56,4.15,1.08,4.65,3.14c.38,1.55-3.23,2.31-2.94,3.89s3.67.82,4.07,2.37-2.9,2.6-2.37,4.18,3.53.25,4.34,1.7c.9,1.62-1.82,3.44-.67,4.9s2.67-.57,4.39.13,1.4,3.22,3.27,3,1.45-3.79,3.32-4c1.6-.18,2,3.39,3.61,3.21s.83-3.17,2.31-3.79,3.93,1.91,4.73.51C646.82,218.58,644.43,216.86,645.7,215.89Z"/><circle class="cls-7" cx="685.28" cy="114.25" r="53.24"/><path class="cls-11" d="M630.76,126.12l-2.66-6.39a3.52,3.52,0,0,1,3.66-4.85l6.71.77a3.52,3.52,0,0,1,2.45,5.56l-4,5.62A3.52,3.52,0,0,1,630.76,126.12Z"/><circle class="cls-7" cx="642.24" cy="137.71" r="10.21"/><polygon class="cls-7" points="736.93 58.26 731.62 57.14 730.8 62.51 725.57 61.09 724.45 66.4 719.31 64.66 717.84 69.88 712.84 67.78 710.96 72.87 706.17 70.32 703.76 75.19 699.36 72.03 696.14 76.41 692.65 72.3 688.02 75.11 687.66 69.85 682.74 67.93 686.81 64.35 683.93 59.8 689.06 58.03 687.36 52.89 692.72 52.03 691.72 46.7 697.14 46.43 696.62 41.03 702.04 41.18 701.91 35.76 707.31 36.27 707.52 30.85 712.88 31.67 713.4 26.27 718.71 27.39 719.52 22.02 724.75 23.44 725.88 18.13 731.01 19.87 732.48 14.65 737.48 16.75 739.36 11.66 744.15 14.21 746.56 9.35 750.97 12.5 754.18 8.12 757.67 12.23 762.3 9.42 762.66 14.68 767.58 16.6 763.51 20.18 766.39 24.74 761.26 26.5 762.96 31.64 757.6 32.5 758.6 37.83 753.18 38.1 753.71 43.5 748.28 43.35 748.41 48.77 743.01 48.26 742.8 53.68 737.44 52.86 736.93 58.26"/><ellipse class="cls-2" cx="721.29" cy="38.32" rx="26.78" ry="5.75" transform="translate(117.55 434.83) rotate(-36.34)"/><polygon class="cls-1" points="490.38 132.09 485.55 133.71 488.16 138.08 483.27 139.45 485.65 143.95 480.69 145.06 482.81 149.68 477.79 150.48 479.58 155.24 474.51 155.63 475.86 160.54 470.79 160.35 471.37 165.4 466.48 164.12 465.2 169.04 462.26 165.16 457.56 166.41 459.56 161.74 454.92 159.76 458.48 156.13 454.36 153.16 458.43 150.11 454.67 146.69 459.01 144.04 455.54 140.33 460.05 137.98 456.81 134.06 461.45 131.98 458.43 127.89 463.17 126.03 460.35 121.8 465.17 120.18 462.57 115.81 467.46 114.43 465.08 109.94 470.04 108.83 467.92 104.21 472.94 103.41 471.15 98.65 476.21 98.25 474.87 93.35 479.94 93.54 479.36 88.48 484.25 89.77 485.53 84.85 488.47 88.73 493.17 87.48 491.17 92.15 495.81 94.13 492.25 97.76 496.37 100.73 492.3 103.78 496.06 107.2 491.72 109.85 495.19 113.56 490.68 115.9 493.92 119.82 489.28 121.91 492.3 126 487.56 127.85 490.38 132.09"/><ellipse class="cls-2" cx="469.97" cy="121.82" rx="26.78" ry="5.75" transform="translate(202.29 526.87) rotate(-71.07)"/><rect class="cls-3" x="437.41" y="239.65" width="4.43" height="8.11" transform="translate(879.25 487.41) rotate(-180)"/><path class="cls-4" d="M579,336.14c0,1.52-4.1,2.67-4.36,4.12s3.19,4,2.68,5.37-4.76,1.09-5.51,2.39,1.69,4.79.74,6-4.86-.52-6,.48.12,5.07-1.15,5.89-4.48-2-5.85-1.34-1.37,4.88-2.83,5.3-3.72-3.18-5.22-3-2.68,4.29-4.2,4.29-2.74-4.09-4.2-4.29-3.8,3.38-5.23,3-1.48-4.68-2.83-5.3-4.61,2.15-5.85,1.34,0-4.9-1.15-5.89-5,.67-6-.48,1.48-4.66.74-6-5-1-5.51-2.39,2.95-3.88,2.68-5.37-4.36-2.6-4.36-4.12,4.1-2.67,4.36-4.12-3.19-4-2.68-5.37,4.76-1.09,5.51-2.39-1.69-4.79-.74-6,4.86.52,6-.48-.12-5.07,1.15-5.89,4.48,2,5.85,1.34,1.37-4.88,2.83-5.3,3.72,3.18,5.22,3,2.68-4.29,4.2-4.29,2.74,4.09,4.2,4.29,3.8-3.38,5.23-3,1.48,4.68,2.83,5.3,4.61-2.15,5.85-1.34,0,4.9,1.15,5.89,5-.67,6,.48-1.48,4.66-.74,6,5,1,5.51,2.39-2.95,3.88-2.68,5.37S579,334.62,579,336.14Z"/><path class="cls-5" d="M579,336.14c0,1.52-4.1,2.67-4.36,4.12s3.19,4,2.68,5.37-4.76,1.09-5.51,2.39,1.69,4.79.74,6-4.86-.52-6,.48.12,5.07-1.15,5.89-4.48-2-5.85-1.34-1.37,4.88-2.83,5.3-3.72-3.18-5.22-3-2.68,4.29-4.2,4.29-2.74-4.09-4.2-4.29-3.8,3.38-5.23,3-1.48-4.68-2.83-5.3-4.61,2.15-5.85,1.34,0-4.9-1.15-5.89-5,.67-6-.48,1.48-4.66.74-6-5-1-5.51-2.39,2.95-3.88,2.68-5.37-4.36-2.6-4.36-4.12,4.1-2.67,4.36-4.12-3.19-4-2.68-5.37,4.76-1.09,5.51-2.39-1.69-4.79-.74-6,4.86.52,6-.48-.12-5.07,1.15-5.89,4.48,2,5.85,1.34,1.37-4.88,2.83-5.3,3.72,3.18,5.22,3,2.68-4.29,4.2-4.29,2.74,4.09,4.2,4.29,3.8-3.38,5.23-3,1.48,4.68,2.83,5.3,4.61-2.15,5.85-1.34,0,4.9,1.15,5.89,5-.67,6,.48-1.48,4.66-.74,6,5,1,5.51,2.39-2.95,3.88-2.68,5.37S579,334.62,579,336.14Z"/><rect class="cls-6" x="418.76" y="281.68" width="21.75" height="67.9" rx="10.87" ry="10.87" transform="translate(593.9 822.81) rotate(-144.25)"/><path class="cls-7" d="M540.78,313.28c0,.58-6,1.08-6,1.65s6,1.39,5.93,2-6.05.76-6.1,1.33,5.88,1.7,5.82,2.27-6.09.44-6.16,1,5.78,2,5.69,2.58-6.1.11-6.21.68,5.66,2.32,5.54,2.88-6.1-.22-6.23.34,5.53,2.62,5.38,3.17-6.08-.54-6.24,0,5.38,2.91,5.2,3.46-6-.87-6.23-.33,5.21,3.2,5,3.73-6-1.2-6.21-.67,5,3.48,4.79,4-5.91-1.52-6.16-1,4.84,3.74,4.57,4.25-5.82-1.84-6.1-1.34,4.63,4,4.33,4.5-5.71-2.16-6-1.67,4.4,4.25,4.08,4.73-5.58-2.47-5.91-2,4.16,4.48,3.81,4.94-5.44-2.77-5.8-2.32,3.91,4.71,3.53,5.15-5.27-3.07-5.66-2.64,3.64,4.92,3.24,5.33-5.1-3.35-5.5-2.95,3.36,5.11,2.94,5.51-4.9-3.63-5.33-3.25,3.07,5.29,2.63,5.66-4.69-3.9-5.14-3.55,2.76,5.46,2.3,5.8-4.46-4.16-4.93-3.83,2.45,5.61,2,5.92-4.21-4.41-4.7-4.11,2.12,5.74,1.63,6-4-4.65-4.46-4.37,1.79,5.85,1.27,6.11-3.68-4.87-4.2-4.62,1.44,5.94.92,6.18-3.38-5.08-3.92-4.86,1.09,6,.55,6.22-3.08-5.27-3.63-5.08.74,6.07.18,6.24-2.76-5.44-3.32-5.29.38,6.11-.19,6.24-2.44-5.59-3-5.48,0,6.12-.55,6.22-2.1-5.73-2.67-5.64-.35,6.11-.92,6.17-1.76-5.84-2.33-5.79-.71,6.08-1.28,6.11-1.41-5.93-2-5.92-1.06,6-1.64,6-1.07-6-1.64-6-1.41,6-2,5.92-.71-6.06-1.28-6.11-1.76,5.86-2.33,5.79-.35-6.09-.92-6.17-2.1,5.74-2.67,5.64,0-6.1-.56-6.22-2.44,5.61-3,5.47.37-6.09-.19-6.24-2.77,5.45-3.32,5.29.73-6.06.18-6.24-3.09,5.28-3.63,5.08,1.09-6,.55-6.22-3.39,5.09-3.92,4.86,1.44-5.93.92-6.18-3.68,4.88-4.2,4.62,1.78-5.84,1.28-6.11-4,4.66-4.46,4.37,2.12-5.72,1.63-6-4.22,4.43-4.7,4.11,2.44-5.59,2-5.92-4.47,4.18-4.93,3.83,2.75-5.44,2.3-5.8-4.7,3.92-5.14,3.54,3.06-5.28,2.63-5.66-4.91,3.65-5.33,3.25,3.35-5.1,2.94-5.51-5.11,3.37-5.5,2.95,3.63-4.9,3.24-5.33-5.29,3.08-5.66,2.64,3.89-4.7,3.53-5.15-5.45,2.78-5.8,2.32,4.15-4.47,3.81-4.94-5.59,2.48-5.91,2,4.39-4.24,4.08-4.73-5.72,2.17-6,1.67,4.61-4,4.33-4.5-5.83,1.85-6.1,1.34,4.82-3.74,4.57-4.25-5.92,1.53-6.16,1,5-3.47,4.79-4-6,1.21-6.21.67,5.2-3.19,5-3.73-6.05.88-6.23.33,5.37-2.9,5.2-3.46-6.09.55-6.24,0,5.51-2.61,5.38-3.17-6.11.22-6.23-.34,5.65-2.31,5.54-2.88-6.12-.11-6.21-.68,5.76-2,5.69-2.58-6.1-.43-6.16-1,5.86-1.7,5.82-2.27-6.07-.75-6.1-1.33,5.94-1.38,5.93-2-6-1.07-6-1.65,6-1.08,6-1.65-6-1.39-5.93-2,6.05-.76,6.1-1.33-5.88-1.7-5.82-2.27,6.09-.44,6.16-1-5.78-2-5.69-2.58,6.1-.11,6.21-.68-5.66-2.32-5.54-2.88,6.1.22,6.23-.34-5.53-2.62-5.38-3.17,6.08.54,6.24,0-5.38-2.91-5.2-3.46,6,.87,6.23.33-5.21-3.2-5-3.73,6,1.2,6.21.67-5-3.48-4.79-4,5.91,1.52,6.16,1-4.84-3.74-4.57-4.25,5.82,1.84,6.1,1.34-4.63-4-4.33-4.5,5.71,2.16,6,1.67-4.4-4.25-4.08-4.73,5.58,2.47,5.91,2-4.16-4.48-3.81-4.94,5.44,2.77,5.8,2.32-3.91-4.71-3.53-5.15,5.27,3.07,5.66,2.64-3.64-4.92-3.24-5.33,5.1,3.35,5.5,2.95-3.36-5.11-2.94-5.51,4.9,3.63,5.33,3.25-3.07-5.29-2.63-5.66,4.69,3.9,5.14,3.55-2.76-5.46-2.3-5.8,4.46,4.16,4.93,3.83-2.45-5.61-2-5.92,4.21,4.41,4.7,4.11-2.12-5.74-1.63-6,4,4.65,4.46,4.37-1.79-5.85-1.27-6.11,3.68,4.87,4.2,4.62-1.44-5.94-.92-6.18,3.38,5.08,3.92,4.86-1.09-6-.55-6.22,3.08,5.27,3.63,5.08-.74-6.07-.18-6.24,2.76,5.44,3.32,5.29-.38-6.11.19-6.24,2.44,5.59,3,5.48,0-6.12.55-6.22,2.1,5.73,2.67,5.64.35-6.11.92-6.17,1.76,5.84,2.33,5.79.71-6.08,1.28-6.11,1.41,5.93,2,5.92,1.06-6,1.64-6,1.07,6,1.64,6,1.41-6,2-5.92.71,6.06,1.28,6.11S484,248,484.59,248s.35,6.09.92,6.17,2.1-5.74,2.67-5.64,0,6.1.56,6.22,2.44-5.61,3-5.47-.37,6.09.19,6.24,2.77-5.45,3.32-5.29-.73,6.06-.18,6.24,3.09-5.28,3.63-5.08-1.09,6-.55,6.22,3.39-5.09,3.92-4.86-1.44,5.93-.92,6.18,3.68-4.88,4.2-4.62-1.78,5.84-1.28,6.11,4-4.66,4.46-4.37-2.12,5.72-1.63,6,4.22-4.43,4.7-4.11-2.44,5.59-2,5.92,4.47-4.18,4.93-3.83-2.75,5.44-2.3,5.8,4.7-3.92,5.14-3.54-3.06,5.28-2.63,5.66,4.91-3.65,5.33-3.25-3.35,5.1-2.94,5.51,5.11-3.37,5.5-2.95-3.63,4.9-3.24,5.33,5.29-3.08,5.66-2.64-3.89,4.7-3.53,5.15,5.45-2.78,5.8-2.32-4.15,4.47-3.81,4.94,5.59-2.48,5.91-2S525,280,525.34,280.5s5.72-2.17,6-1.67-4.61,4-4.33,4.5,5.83-1.85,6.1-1.34-4.82,3.74-4.57,4.25,5.92-1.53,6.16-1-5,3.47-4.79,4,6-1.21,6.21-.67-5.2,3.19-5,3.73,6.05-.88,6.23-.33-5.37,2.9-5.2,3.46,6.09-.55,6.24,0-5.51,2.61-5.38,3.17,6.11-.22,6.23.34-5.65,2.31-5.54,2.88,6.12.11,6.21.68-5.76,2-5.69,2.58,6.1.43,6.16,1-5.86,1.7-5.82,2.27,6.07.75,6.1,1.33-5.94,1.38-5.93,2S540.78,312.7,540.78,313.28Z"/><ellipse class="cls-6" cx="492.17" cy="351.47" rx="48.42" ry="39.74"/><path class="cls-8" d="M461.58,425.61c3.37,1.11,7.42-.74,11.52-4.77,5.94-5.84,12-16.25,16.12-28.85,7-21.29,6-40.75-2.22-43.47s-20.62,12.34-27.64,33.62S453.34,422.89,461.58,425.61Z"/><rect class="cls-9" x="429.41" y="301.8" width="21.75" height="57.59" rx="10.87" ry="10.87" transform="translate(691.26 820.66) rotate(-154.02)"/><path class="cls-10" d="M444.17,311.78c1.85-1.21,3.41,0,4.21-2s-2.78-4-1.45-5.82c1.2-1.6,4.06,1.31,5.68.14s-.4-4.33,1.34-5.31,3.48,2.35,5.42,1.53.5-2.72,1.82-4.36,3.41-.6,3.71-2.57-3.63-3.23-2.72-5,4.28.58,5.74-.89-.61-2.7,0-4.69,3-1.81,2.51-3.71-3.16-.84-4.14-2.54,1.32-3.46-.08-4.74-3.72,1.31-5.14.06,1-3.78-.36-4.88-3.38,1.59-4.79.6c-1.81-1.28.06-4.11-1.83-5.27s-3.42,1.7-5.43.77-.85-4-3-4.64-3.26,2.72-5.36,2c-1.65-.58-.4-3.94-2-4.58s-2.31,2.28-4,2.13-1.91-3.14-3.63-2.8-.76,3.28-2.35,4-3.17-1.91-4.49-.84.9,3.3-.17,4.62-3.65-.48-4.36.95,2.42,2.91,1.76,4.36-3.82,0-4.41,1.46,2.54,2.46,2.16,4c-.48,1.93-3.72,1.31-4,3.28s3.28,2.49,3,4.45-3.84,1.36-4.21,3.32,3,2.53,2.74,4.51-3.72,1.52-3.94,3.49,2.94,2,3.07,4c.11,1.73-3,2.26-2.54,3.93s3.66.63,4.27,2.26-2.5,2.91-1.76,4.42,3.56-.13,4.51,1.26-1.53,3.52-.31,4.85,2.76-.85,4.43-.15,1.17,3.34,3,3.29,1.49-3.28,3.28-3.59c1.57-.27,2.39,2.87,3.9,2.34s.65-4.3,2.24-4.47c2.13-.23,2.24,3.7,4.38,3.79C442.56,314.81,442.38,313,444.17,311.78Z"/><circle class="cls-7" cx="480.44" cy="206.68" r="53.24"/><path class="cls-11" d="M425.93,218.56l-2.66-6.39a3.52,3.52,0,0,1,3.66-4.85l6.71.77a3.52,3.52,0,0,1,2.45,5.56l-4,5.62A3.52,3.52,0,0,1,425.93,218.56Z"/><circle class="cls-7" cx="437.41" cy="230.15" r="10.21"/><polygon class="cls-7" points="531.86 136.56 526.63 137.98 528.35 143.13 523.04 144.25 524.47 149.49 519.11 150.29 520.18 155.61 514.77 156.02 515.42 161.41 510 161.32 510.08 166.75 504.72 165.96 503.86 171.31 498.87 169.25 496.04 173.87 493.31 169.35 488.07 169.89 490.05 164.84 485.41 162.11 489.17 158.19 485.31 154.39 489.69 151.19 486.36 146.9 491.06 144.19 488.13 139.62 493.03 137.28 490.44 132.52 495.48 130.51 493.18 125.59 498.33 123.87 496.32 118.83 501.56 117.4 499.83 112.26 505.14 111.13 503.72 105.89 509.08 105.1 508 99.78 513.41 99.37 512.76 93.98 518.18 94.06 518.11 88.64 523.47 89.43 524.33 84.07 529.31 86.13 532.15 81.52 534.87 86.03 540.12 85.49 538.14 90.54 542.78 93.28 539.02 97.19 542.88 100.99 538.5 104.2 541.83 108.48 537.13 111.2 540.05 115.76 535.16 118.1 537.75 122.87 532.71 124.88 535 129.8 529.85 131.51 531.86 136.56"/><ellipse class="cls-2" cx="508.85" cy="125.95" rx="26.78" ry="5.75" transform="translate(169.02 525.08) rotate(-63.49)"/><polygon class="cls-1" points="294.47 218.52 289.57 219.87 291.93 224.37 286.97 225.47 289.1 230.09 284.08 230.93 285.95 235.66 280.89 236.18 282.42 241.03 277.34 241.15 278.41 246.12 273.36 245.65 273.66 250.73 268.85 249.18 267.3 254.02 264.58 249.98 259.81 250.98 262.08 246.43 257.55 244.19 261.3 240.76 257.35 237.57 261.58 234.75 258.02 231.13 262.5 228.72 259.23 224.82 263.87 222.73 260.85 218.64 265.6 216.81 262.8 212.56 267.64 210.97 265.06 206.58 269.96 205.23 267.6 200.73 272.57 199.62 270.44 195.01 275.45 194.17 273.59 189.44 278.64 188.92 277.11 184.07 282.19 183.95 281.12 178.98 286.18 179.44 285.87 174.37 290.68 175.92 292.23 171.08 294.95 175.12 299.72 174.12 297.46 178.67 301.99 180.91 298.23 184.34 302.18 187.53 297.95 190.35 301.51 193.97 297.04 196.38 300.3 200.28 295.67 202.37 298.69 206.46 293.94 208.29 296.73 212.54 291.9 214.13 294.47 218.52"/><ellipse class="cls-2" cx="274.67" cy="207.14" rx="26.78" ry="5.75" transform="translate(-20.53 383.79) rotate(-67.92)"/><rect class="cls-3" x="241.81" y="325.26" width="4.43" height="8.11" transform="translate(488.06 658.63) rotate(-180)"/><path class="cls-4" d="M383.39,421.74c0,1.52-4.1,2.67-4.36,4.12s3.19,4,2.68,5.37-4.76,1.09-5.51,2.39,1.69,4.79.74,6-4.86-.52-6,.48.12,5.07-1.15,5.89-4.48-2-5.85-1.34-1.37,4.88-2.83,5.3-3.72-3.18-5.22-3-2.68,4.29-4.2,4.29-2.74-4.09-4.2-4.29-3.8,3.38-5.23,3-1.48-4.68-2.83-5.3-4.61,2.15-5.85,1.34,0-4.9-1.15-5.89-5,.67-6-.48,1.48-4.66.74-6-5-1-5.51-2.39,2.95-3.88,2.68-5.37-4.36-2.6-4.36-4.12,4.1-2.67,4.36-4.12-3.19-4-2.68-5.37,4.76-1.09,5.51-2.39-1.69-4.79-.74-6,4.86.52,6-.48-.12-5.07,1.15-5.89,4.48,2,5.85,1.34,1.37-4.88,2.83-5.3,3.72,3.18,5.22,3,2.68-4.29,4.2-4.29,2.74,4.09,4.2,4.29,3.8-3.38,5.23-3,1.48,4.68,2.83,5.3,4.61-2.15,5.85-1.34,0,4.9,1.15,5.89,5-.67,6,.48-1.48,4.66-.74,6,5,1,5.51,2.39-2.95,3.88-2.68,5.37S383.39,420.22,383.39,421.74Z"/><path class="cls-5" d="M383.39,421.74c0,1.52-4.1,2.67-4.36,4.12s3.19,4,2.68,5.37-4.76,1.09-5.51,2.39,1.69,4.79.74,6-4.86-.52-6,.48.12,5.07-1.15,5.89-4.48-2-5.85-1.34-1.37,4.88-2.83,5.3-3.72-3.18-5.22-3-2.68,4.29-4.2,4.29-2.74-4.09-4.2-4.29-3.8,3.38-5.23,3-1.48-4.68-2.83-5.3-4.61,2.15-5.85,1.34,0-4.9-1.15-5.89-5,.67-6-.48,1.48-4.66.74-6-5-1-5.51-2.39,2.95-3.88,2.68-5.37-4.36-2.6-4.36-4.12,4.1-2.67,4.36-4.12-3.19-4-2.68-5.37,4.76-1.09,5.51-2.39-1.69-4.79-.74-6,4.86.52,6-.48-.12-5.07,1.15-5.89,4.48,2,5.85,1.34,1.37-4.88,2.83-5.3,3.72,3.18,5.22,3,2.68-4.29,4.2-4.29,2.74,4.09,4.2,4.29,3.8-3.38,5.23-3,1.48,4.68,2.83,5.3,4.61-2.15,5.85-1.34,0,4.9,1.15,5.89,5-.67,6,.48-1.48,4.66-.74,6,5,1,5.51,2.39-2.95,3.88-2.68,5.37S383.39,420.22,383.39,421.74Z"/><rect class="cls-6" x="223.17" y="367.29" width="21.75" height="67.9" rx="10.87" ry="10.87" transform="translate(189.55 863.61) rotate(-144.25)"/><path class="cls-7" d="M345.18,398.89c0,.58-6,1.08-6,1.65s6,1.39,5.93,2-6.05.76-6.1,1.33,5.88,1.7,5.82,2.27-6.09.44-6.16,1,5.78,2,5.69,2.58-6.1.11-6.21.68,5.66,2.32,5.54,2.88-6.1-.22-6.23.34,5.53,2.62,5.38,3.17-6.08-.54-6.24,0,5.38,2.91,5.2,3.46-6-.87-6.23-.33,5.21,3.2,5,3.73-6-1.2-6.21-.67,5,3.48,4.79,4-5.91-1.52-6.16-1,4.84,3.74,4.57,4.25-5.82-1.84-6.1-1.34,4.63,4,4.33,4.5-5.71-2.16-6-1.67,4.4,4.25,4.08,4.73-5.58-2.47-5.91-2,4.16,4.48,3.81,4.94-5.44-2.77-5.8-2.32,3.91,4.71,3.53,5.15-5.27-3.07-5.66-2.64,3.64,4.92,3.24,5.33-5.1-3.35-5.5-2.95,3.36,5.11,2.94,5.51-4.9-3.63-5.33-3.25,3.07,5.29,2.63,5.66-4.69-3.9-5.14-3.55,2.76,5.46,2.3,5.8-4.46-4.16-4.93-3.83,2.45,5.61,2,5.92-4.21-4.41-4.7-4.11,2.12,5.74,1.63,6-4-4.65-4.46-4.37,1.79,5.85,1.27,6.11-3.68-4.87-4.2-4.62,1.44,5.94.92,6.18-3.38-5.08-3.92-4.86,1.09,6,.55,6.22-3.08-5.27-3.63-5.08.74,6.07.18,6.24-2.76-5.44-3.32-5.29.38,6.11-.19,6.24-2.44-5.59-3-5.48,0,6.12-.55,6.22-2.1-5.73-2.67-5.64-.35,6.11-.92,6.17-1.76-5.84-2.33-5.79-.71,6.08-1.28,6.11-1.41-5.93-2-5.92-1.06,6-1.64,6-1.07-6-1.64-6-1.41,6-2,5.92-.71-6.06-1.28-6.11-1.76,5.86-2.33,5.79-.35-6.09-.92-6.17-2.1,5.74-2.67,5.64,0-6.1-.56-6.22-2.44,5.61-3,5.47.37-6.09-.19-6.24-2.77,5.45-3.32,5.29.73-6.06.18-6.24-3.09,5.28-3.63,5.08,1.09-6,.55-6.22-3.39,5.09-3.92,4.86,1.44-5.93.92-6.18-3.68,4.88-4.2,4.62,1.78-5.84,1.28-6.11-4,4.66-4.46,4.37,2.12-5.72,1.63-6-4.22,4.43-4.7,4.11,2.44-5.59,2-5.92-4.47,4.18-4.93,3.83,2.75-5.44,2.3-5.8-4.7,3.92-5.14,3.54,3.06-5.28,2.63-5.66-4.91,3.65-5.33,3.25,3.35-5.1,2.94-5.51-5.11,3.37-5.5,2.95,3.63-4.9,3.24-5.33-5.29,3.08-5.66,2.64,3.89-4.7,3.53-5.15-5.45,2.78-5.8,2.32,4.15-4.47,3.81-4.94-5.59,2.48-5.91,2,4.39-4.24,4.08-4.73-5.72,2.17-6,1.67,4.61-4,4.33-4.5-5.83,1.85-6.1,1.34,4.82-3.74,4.57-4.25-5.92,1.53-6.16,1,5-3.47,4.79-4-6,1.21-6.21.67,5.2-3.19,5-3.73-6.05.88-6.23.33,5.37-2.9,5.2-3.46-6.09.55-6.24,0,5.51-2.61,5.38-3.17-6.11.22-6.23-.34,5.65-2.31,5.54-2.88-6.12-.11-6.21-.68,5.76-2,5.69-2.58-6.1-.43-6.16-1,5.86-1.7,5.82-2.27-6.07-.75-6.1-1.33,5.94-1.38,5.93-2-6-1.07-6-1.65,6-1.08,6-1.65-6-1.39-5.93-2,6.05-.76,6.1-1.33-5.88-1.7-5.82-2.27,6.09-.44,6.16-1-5.78-2-5.69-2.58,6.1-.11,6.21-.68-5.66-2.32-5.54-2.88,6.1.22,6.23-.34-5.53-2.62-5.38-3.17,6.08.54,6.24,0-5.38-2.91-5.2-3.46,6,.87,6.23.33-5.21-3.2-5-3.73,6,1.2,6.21.67-5-3.48-4.79-4,5.91,1.52,6.16,1-4.84-3.74-4.57-4.25,5.82,1.84,6.1,1.34-4.63-4-4.33-4.5,5.71,2.16,6,1.67-4.4-4.25-4.08-4.73,5.58,2.47,5.91,2-4.16-4.48-3.81-4.94,5.44,2.77,5.8,2.32S233.67,356,234,355.6s5.27,3.07,5.66,2.64-3.64-4.92-3.24-5.33,5.1,3.35,5.5,2.95-3.36-5.11-2.94-5.51,4.9,3.63,5.33,3.25-3.07-5.29-2.63-5.66,4.69,3.9,5.14,3.55-2.76-5.46-2.3-5.8,4.46,4.16,4.93,3.83-2.45-5.61-2-5.92,4.21,4.41,4.7,4.11-2.12-5.74-1.63-6,4,4.65,4.46,4.37-1.79-5.85-1.27-6.11,3.68,4.87,4.2,4.62-1.44-5.94-.92-6.18,3.38,5.08,3.92,4.86-1.09-6-.55-6.22,3.08,5.27,3.63,5.08-.74-6.07-.18-6.24,2.76,5.44,3.32,5.29-.38-6.11.19-6.24,2.44,5.59,3,5.48,0-6.12.55-6.22,2.1,5.73,2.67,5.64.35-6.11.92-6.17,1.76,5.84,2.33,5.79.71-6.08,1.28-6.11,1.41,5.93,2,5.92,1.06-6,1.64-6,1.07,6,1.64,6,1.41-6,2-5.92.71,6.06,1.28,6.11,1.76-5.86,2.33-5.79.35,6.09.92,6.17,2.1-5.74,2.67-5.64,0,6.1.56,6.22,2.44-5.61,3-5.47-.37,6.09.19,6.24,2.77-5.45,3.32-5.29-.73,6.06-.18,6.24,3.09-5.28,3.63-5.08-1.09,6-.55,6.22,3.39-5.09,3.92-4.86-1.44,5.93-.92,6.18,3.68-4.88,4.2-4.62-1.78,5.84-1.28,6.11,4-4.66,4.46-4.37-2.12,5.72-1.63,6,4.22-4.43,4.7-4.11-2.44,5.59-2,5.92,4.47-4.18,4.93-3.83-2.75,5.44-2.3,5.8,4.7-3.92,5.14-3.54-3.06,5.28-2.63,5.66,4.91-3.65,5.33-3.25-3.35,5.1-2.94,5.51,5.11-3.37,5.5-2.95-3.63,4.9-3.24,5.33,5.29-3.08,5.66-2.64-3.89,4.7-3.53,5.15,5.45-2.78,5.8-2.32-4.15,4.47-3.81,4.94,5.59-2.48,5.91-2-4.39,4.24-4.08,4.73,5.72-2.17,6-1.67-4.61,4-4.33,4.5,5.83-1.85,6.1-1.34-4.82,3.74-4.57,4.25,5.92-1.53,6.16-1-5,3.47-4.79,4,6-1.21,6.21-.67-5.2,3.19-5,3.73,6.05-.88,6.23-.33-5.37,2.9-5.2,3.46,6.09-.55,6.24,0-5.51,2.61-5.38,3.17,6.11-.22,6.23.34-5.65,2.31-5.54,2.88,6.12.11,6.21.68-5.76,2-5.69,2.58,6.1.43,6.16,1-5.86,1.7-5.82,2.27,6.07.75,6.1,1.33-5.94,1.38-5.93,2S345.18,398.31,345.18,398.89Z"/><ellipse class="cls-6" cx="296.57" cy="437.08" rx="48.42" ry="39.74"/><path class="cls-8" d="M240.2,485.54c1.12,3.36,5,5.5,10.72,6.38,8.23,1.26,20.18-.13,32.76-4.34,21.26-7.11,36.26-19.55,33.51-27.78s-22.22-9.15-43.48-2S237.45,477.3,240.2,485.54Z"/><rect class="cls-9" x="233.82" y="387.41" width="21.75" height="57.59" rx="10.87" ry="10.87" transform="translate(282.33 897.54) rotate(-154.02)"/><path class="cls-10" d="M246.3,395.6c1.32-1.52,4,.73,5.28-.86s-1.68-4.42-.12-5.7,3.82,2.08,5.65,1.14.07-3.37,1.54-4.8,3.88.35,4.9-1.48-2.34-4.46-.8-5.88,3.77,2.22,5.57,1.44.21-3.12,1.6-4.52,3.75.18,4.54-1.65-2-2.41-1.92-4.4,2.79-2.49,2.06-4.33-4.16-.53-4.86-2.39,2.78-3.08,2.13-4.92-2.77-.42-4.23-1.73-.29-3.6-2.23-4.08-3,3.18-4.89,2.55c-2.09-.7-.75-4.26-2.78-5.12s-3.6,2.57-5.58,1.6-.21-4.31-2.13-5.4-3.22,1.82-5.32,1.12c-1.57-.52-1-3.64-2.62-3.74s-2.07,3.69-3.7,3.42c-1.8-.29-1-4-2.78-4.48s-1.72,2.06-3.47,2.59-3.09-1.6-4.29-.24,1.53,4,.22,5.23-3.74-1.65-5.09-.57.93,3.19,0,4.61-3.79.08-4.35,1.77,2.69,2.49,2.41,4.25c-.32,2-3.66,1.65-3.71,3.63s3.85,2.36,3.53,4.31-4.15,1.09-4.76,3,2.15,2.25,2.32,4.28c.19,2.26-2.52,3-1.56,5s4.55.62,5.28,2.77c.49,1.45-3.26,2.41-3,3.91s4.15,1.18,4.14,2.71c0,2.23-3.91,2-4.19,4.19s2,1.87,2.9,3.9c.84,1.83-.82,3.34.93,4.34s3.14-2,5-1.28.94,3.84,2.83,4.18,2.26-3,4.18-2.93,2,3.44,3.9,3.24,1.1-3,2.82-3.84,4.17,1.47,5-.2C247.6,398.48,245.06,397,246.3,395.6Z"/><circle class="cls-7" cx="284.84" cy="292.29" r="53.24"/><path class="cls-11" d="M230.33,304.16l-2.66-6.39a3.52,3.52,0,0,1,3.66-4.85l6.71.77a3.52,3.52,0,0,1,2.45,5.56l-4,5.62A3.52,3.52,0,0,1,230.33,304.16Z"/><circle class="cls-7" cx="241.81" cy="315.75" r="10.21"/><polygon class="cls-7" points="336.12 222.45 330.86 223.79 332.5 228.97 327.17 230.01 328.51 235.27 323.13 235.97 324.12 241.31 318.7 241.63 319.27 247.03 313.85 246.86 313.83 252.28 308.49 251.4 307.54 256.74 302.59 254.6 299.67 259.17 297.03 254.61 291.77 255.06 293.84 250.05 289.24 247.23 293.07 243.38 289.27 239.52 293.7 236.38 290.45 232.05 295.19 229.41 292.34 224.79 297.28 222.54 294.76 217.73 299.84 215.8 297.63 210.84 302.8 209.22 300.88 204.14 306.14 202.8 304.5 197.63 309.82 196.59 308.48 191.33 313.86 190.62 312.87 185.29 318.29 184.97 317.73 179.57 323.14 179.74 323.16 174.31 328.5 175.2 329.46 169.85 334.41 172 337.32 167.43 339.97 171.99 345.22 171.54 343.16 176.55 347.75 179.36 343.93 183.21 347.72 187.08 343.29 190.21 346.54 194.55 341.8 197.19 344.65 201.8 339.72 204.06 342.23 208.87 337.16 210.79 339.37 215.75 334.19 217.38 336.12 222.45"/><ellipse class="cls-2" cx="313.28" cy="211.47" rx="26.78" ry="5.75" transform="translate(-18.83 391.93) rotate(-62.54)"/><path class="cls-12" d="M243.28,325.18c7.2,0,22.27-5.39,23.2,9.24"/><polygon class="cls-1" points="1295.83 331.82 1291.31 334.15 1294.54 338.08 1289.91 340.18 1292.94 344.26 1288.2 346.1 1291 350.35 1286.15 351.9 1288.65 356.33 1283.7 357.49 1285.77 362.14 1280.72 362.71 1282.06 367.62 1277.04 367.09 1276.51 372.14 1273.02 368.75 1268.56 370.7 1269.84 365.78 1264.95 364.52 1267.92 360.39 1263.4 358.09 1266.96 354.46 1262.73 351.64 1266.62 348.36 1262.63 345.22 1266.73 342.22 1262.94 338.84 1267.21 336.07 1263.61 332.49 1268.02 329.94 1264.6 326.18 1269.12 323.85 1265.88 319.92 1270.51 317.82 1267.48 313.74 1272.22 311.9 1269.43 307.65 1274.27 306.1 1271.78 301.67 1276.72 300.51 1274.66 295.86 1279.7 295.29 1278.36 290.38 1283.39 290.91 1283.91 285.86 1287.4 289.25 1291.86 287.3 1290.58 292.22 1295.48 293.48 1292.5 297.61 1297.02 299.92 1293.46 303.54 1297.69 306.36 1293.8 309.64 1297.8 312.78 1293.69 315.78 1297.48 319.16 1293.21 321.93 1296.81 325.51 1292.41 328.06 1295.83 331.82"/><ellipse class="cls-2" cx="1274.11" cy="324.75" rx="26.78" ry="5.75" transform="translate(727.73 1520.7) rotate(-79.75)"/><rect class="cls-3" x="1242.26" y="441.71" width="4.43" height="8.11" transform="translate(2488.95 891.53) rotate(-180)"/><path class="cls-4" d="M1383.83,538.19c0,1.52-4.1,2.67-4.36,4.12s3.19,4,2.68,5.37-4.76,1.09-5.51,2.39,1.69,4.79.74,6-4.86-.52-6,.48.12,5.07-1.15,5.89-4.48-2-5.85-1.34-1.37,4.88-2.83,5.3-3.72-3.18-5.22-3-2.68,4.29-4.2,4.29-2.74-4.09-4.2-4.29-3.8,3.38-5.23,3-1.48-4.68-2.83-5.3-4.61,2.15-5.85,1.34,0-4.9-1.15-5.89-5,.67-6-.48,1.48-4.66.74-6-5-1-5.51-2.39,2.95-3.88,2.68-5.37-4.36-2.6-4.36-4.12,4.1-2.67,4.36-4.12-3.19-4-2.68-5.37,4.76-1.09,5.51-2.39-1.69-4.79-.74-6,4.86.52,6-.48-.12-5.07,1.15-5.89,4.48,2,5.85,1.34,1.37-4.88,2.83-5.3,3.72,3.18,5.22,3,2.68-4.29,4.2-4.29,2.74,4.09,4.2,4.29,3.8-3.38,5.23-3,1.48,4.68,2.83,5.3,4.61-2.15,5.85-1.34,0,4.9,1.15,5.89,5-.67,6,.48-1.48,4.66-.74,6,5,1,5.51,2.39-2.95,3.88-2.68,5.37S1383.83,536.67,1383.83,538.19Z"/><path class="cls-5" d="M1383.83,538.19c0,1.52-4.1,2.67-4.36,4.12s3.19,4,2.68,5.37-4.76,1.09-5.51,2.39,1.69,4.79.74,6-4.86-.52-6,.48.12,5.07-1.15,5.89-4.48-2-5.85-1.34-1.37,4.88-2.83,5.3-3.72-3.18-5.22-3-2.68,4.29-4.2,4.29-2.74-4.09-4.2-4.29-3.8,3.38-5.23,3-1.48-4.68-2.83-5.3-4.61,2.15-5.85,1.34,0-4.9-1.15-5.89-5,.67-6-.48,1.48-4.66.74-6-5-1-5.51-2.39,2.95-3.88,2.68-5.37-4.36-2.6-4.36-4.12,4.1-2.67,4.36-4.12-3.19-4-2.68-5.37,4.76-1.09,5.51-2.39-1.69-4.79-.74-6,4.86.52,6-.48-.12-5.07,1.15-5.89,4.48,2,5.85,1.34,1.37-4.88,2.83-5.3,3.72,3.18,5.22,3,2.68-4.29,4.2-4.29,2.74,4.09,4.2,4.29,3.8-3.38,5.23-3,1.48,4.68,2.83,5.3,4.61-2.15,5.85-1.34,0,4.9,1.15,5.89,5-.67,6,.48-1.48,4.66-.74,6,5,1,5.51,2.39-2.95,3.88-2.68,5.37S1383.83,536.67,1383.83,538.19Z"/><rect class="cls-6" x="1223.61" y="483.74" width="21.75" height="67.9" rx="10.87" ry="10.87" transform="translate(1933.87 1659.09) rotate(-144.25)"/><path class="cls-7" d="M1345.62,515.34c0,.58-6,1.08-6,1.65s6,1.39,5.93,2-6.05.76-6.1,1.33,5.88,1.7,5.82,2.27-6.09.44-6.16,1,5.78,2,5.69,2.58-6.1.11-6.21.68,5.66,2.32,5.54,2.88-6.1-.22-6.23.34,5.53,2.62,5.38,3.17-6.08-.54-6.24,0,5.38,2.91,5.2,3.46-6-.87-6.23-.33,5.21,3.2,5,3.73-6-1.2-6.21-.67,5,3.48,4.79,4-5.91-1.52-6.16-1,4.84,3.74,4.57,4.25-5.82-1.84-6.1-1.34,4.63,4,4.33,4.5-5.71-2.16-6-1.67,4.4,4.25,4.08,4.73-5.58-2.47-5.91-2,4.16,4.48,3.81,4.94-5.44-2.77-5.8-2.32,3.91,4.71,3.53,5.15-5.27-3.07-5.66-2.64,3.64,4.92,3.24,5.33-5.1-3.35-5.5-2.95,3.36,5.11,2.94,5.51-4.9-3.63-5.33-3.25,3.07,5.29,2.63,5.66-4.69-3.9-5.14-3.55,2.76,5.46,2.3,5.8-4.46-4.16-4.93-3.83,2.45,5.61,2,5.92-4.21-4.41-4.7-4.11,2.12,5.74,1.63,6-4-4.65-4.46-4.37,1.79,5.85,1.27,6.11-3.68-4.87-4.2-4.62,1.44,5.94.92,6.18-3.38-5.08-3.92-4.86,1.09,6,.55,6.22-3.08-5.27-3.63-5.08.74,6.07.18,6.24-2.76-5.44-3.32-5.29.38,6.11-.19,6.24-2.44-5.59-3-5.48,0,6.12-.55,6.22-2.1-5.73-2.67-5.64-.35,6.11-.92,6.17-1.76-5.84-2.33-5.79-.71,6.08-1.28,6.11-1.41-5.93-2-5.92-1.06,6-1.64,6-1.07-6-1.64-6-1.41,6-2,5.92-.71-6.06-1.28-6.11-1.76,5.86-2.33,5.79-.35-6.09-.92-6.17-2.1,5.74-2.67,5.64,0-6.1-.56-6.22-2.44,5.61-3,5.47.37-6.09-.19-6.24-2.77,5.45-3.32,5.29.73-6.06.18-6.24-3.09,5.28-3.63,5.08,1.09-6,.55-6.22-3.39,5.09-3.92,4.86,1.44-5.93.92-6.18-3.68,4.88-4.2,4.62,1.78-5.84,1.28-6.11-4,4.66-4.46,4.37,2.12-5.72,1.63-6-4.22,4.43-4.7,4.11,2.44-5.59,2-5.92-4.47,4.18-4.93,3.83,2.75-5.44,2.3-5.8-4.7,3.92-5.14,3.54,3.06-5.28,2.63-5.66-4.91,3.65-5.33,3.25,3.35-5.1,2.94-5.51-5.11,3.37-5.5,2.95,3.63-4.9,3.24-5.33-5.29,3.08-5.66,2.64,3.89-4.7,3.53-5.15-5.45,2.78-5.8,2.32,4.15-4.47,3.81-4.94-5.59,2.48-5.91,2,4.39-4.24,4.08-4.73-5.72,2.17-6,1.67,4.61-4,4.33-4.5-5.83,1.85-6.1,1.34,4.82-3.74,4.57-4.25-5.92,1.53-6.16,1,5-3.47,4.79-4-6,1.21-6.21.67,5.2-3.19,5-3.73-6.05.88-6.23.33,5.37-2.9,5.2-3.46-6.09.55-6.24,0,5.51-2.61,5.38-3.17-6.11.22-6.23-.34,5.65-2.31,5.54-2.88-6.12-.11-6.21-.68,5.76-2,5.69-2.58-6.1-.43-6.16-1,5.86-1.7,5.82-2.27-6.07-.75-6.1-1.33,5.94-1.38,5.93-2-6-1.07-6-1.65,6-1.08,6-1.65-6-1.39-5.93-2,6.05-.76,6.1-1.33-5.88-1.7-5.82-2.27,6.09-.44,6.16-1-5.78-2-5.69-2.58,6.1-.11,6.21-.68-5.66-2.32-5.54-2.88,6.1.22,6.23-.34-5.53-2.62-5.38-3.17,6.08.54,6.24,0-5.38-2.91-5.2-3.46,6,.87,6.23.33-5.21-3.2-5-3.73,6,1.2,6.21.67-5-3.48-4.79-4,5.91,1.52,6.16,1-4.84-3.74-4.57-4.25,5.82,1.84,6.1,1.34-4.63-4-4.33-4.5,5.71,2.16,6,1.67-4.4-4.25-4.08-4.73,5.58,2.47,5.91,2-4.16-4.48-3.81-4.94,5.44,2.77,5.8,2.32-3.91-4.71-3.53-5.15,5.27,3.07,5.66,2.64-3.64-4.92-3.24-5.33,5.1,3.35,5.5,2.95-3.36-5.11-2.94-5.51,4.9,3.63,5.33,3.25-3.07-5.29-2.63-5.66,4.69,3.9,5.14,3.55-2.76-5.46-2.3-5.8,4.46,4.16,4.93,3.83-2.45-5.61-2-5.92,4.21,4.41,4.7,4.11-2.12-5.74-1.63-6,4,4.65,4.46,4.37-1.79-5.85-1.27-6.11,3.68,4.87,4.2,4.62-1.44-5.94-.92-6.18,3.38,5.08,3.92,4.86-1.09-6-.55-6.22,3.08,5.27,3.63,5.08-.74-6.07-.18-6.24,2.76,5.44,3.32,5.29-.38-6.11.19-6.24,2.44,5.59,3,5.48,0-6.12.55-6.22,2.1,5.73,2.67,5.64.35-6.11.92-6.17,1.76,5.84,2.33,5.79.71-6.08,1.28-6.11,1.41,5.93,2,5.92,1.06-6,1.64-6,1.07,6,1.64,6,1.41-6,2-5.92.71,6.06,1.28,6.11,1.76-5.86,2.33-5.79.35,6.09.92,6.17,2.1-5.74,2.67-5.64,0,6.1.56,6.22,2.44-5.61,3-5.47-.37,6.09.19,6.24,2.77-5.45,3.32-5.29-.73,6.06-.18,6.24,3.09-5.28,3.63-5.08-1.09,6-.55,6.22,3.39-5.09,3.92-4.86-1.44,5.93-.92,6.18,3.68-4.88,4.2-4.62-1.78,5.84-1.28,6.11,4-4.66,4.46-4.37-2.12,5.72-1.63,6,4.22-4.43,4.7-4.11-2.44,5.59-2,5.92,4.47-4.18,4.93-3.83-2.75,5.44-2.3,5.8,4.7-3.92,5.14-3.54-3.06,5.28-2.63,5.66,4.91-3.65,5.33-3.25-3.35,5.1-2.94,5.51,5.11-3.37,5.5-2.95-3.63,4.9-3.24,5.33,5.29-3.08,5.66-2.64-3.89,4.7-3.53,5.15,5.45-2.78,5.8-2.32-4.15,4.47-3.81,4.94,5.59-2.48,5.91-2-4.39,4.24-4.08,4.73,5.72-2.17,6-1.67-4.61,4-4.33,4.5,5.83-1.85,6.1-1.34-4.82,3.74-4.57,4.25,5.92-1.53,6.16-1-5,3.47-4.79,4,6-1.21,6.21-.67-5.2,3.19-5,3.73,6.05-.88,6.23-.33-5.37,2.9-5.2,3.46,6.09-.55,6.24,0-5.51,2.61-5.38,3.17,6.11-.22,6.23.34-5.65,2.31-5.54,2.88,6.12.11,6.21.68-5.76,2-5.69,2.58,6.1.43,6.16,1-5.86,1.7-5.82,2.27,6.07.75,6.1,1.33-5.94,1.38-5.93,2S1345.62,514.76,1345.62,515.34Z"/><ellipse class="cls-6" cx="1297.02" cy="553.53" rx="48.42" ry="39.74"/><path class="cls-8" d="M1238.55,589.11c0,3.55,3,6.82,8.14,9.45,7.41,3.81,19.18,6.28,32.45,6.28,22.42,0,40.59-7,40.59-15.72s-18.17-15.72-40.59-15.72S1238.55,580.43,1238.55,589.11Z"/><rect class="cls-9" x="1234.26" y="503.86" width="21.75" height="57.59" rx="10.87" ry="10.87" transform="translate(2131.12 1556.92) rotate(-154.02)"/><path class="cls-10" d="M1249.27,514.25c1.69-1.26,3.84.57,4.82-1.29s-2.6-4.6-1.06-6,4,2.33,5.92,1.48.2-3.43,1.73-4.86,4,.44,5-1.43-2.54-4-1.31-5.75c1-1.46,4.2,1.2,5.47-.08s-1.28-2.9-.66-4.58,3.61-1.26,3.49-3.06-3.81-1.41-4.07-3.2c-.23-1.57,3.42-2.27,3.05-3.81s-4.26-.77-4.51-2.34c-.3-1.86,3.65-2.36,3.47-4.24s-3.07-1-4-2.65,1.42-3.59-.05-4.76-3.81,1.86-5.3.73c-1.79-1.35.49-4.42-1.32-5.74s-3.29,1.48-5.4.74-1.61-3.9-4-4.06-3.28,4.22-5.52,3.43c-1.89-.67.25-4.57-1.32-5.81s-2.84,1.38-4.79.92-1.89-3.36-3.82-3-.79,3.34-2.48,4.35-3.71-1.39-4.93.1,1.76,4.38.31,5.65-3.92-2.06-5.55-1,.45,3.17-.63,4.76-3.83.45-4.17,2.33,3.17,2.21,3.15,4.11-3.54,2.27-3.24,4.28,4.44,1.72,4.43,3.75-4.15,1.65-4.47,3.61,3.44,2.52,3.18,4.49-4,1.52-4.24,3.5,3.48,2.2,3.44,4.18c0,1.83-3.72,1.94-3.58,3.77s3.25,1.07,4,2.76-2,3.39-.77,4.73,4-1.25,5.26.06-1.52,3.94-.28,5.19,3.57-1.46,5-.42-.34,4.17,1.36,5.08,2.48-1.9,4.41-1.81,2.44,3,4.22,2.22.43-4.58,2.29-5.12,3.26,3.6,5.2,2.94C1248.75,517.77,1247.63,515.48,1249.27,514.25Z"/><circle class="cls-7" cx="1285.29" cy="408.74" r="53.24"/><path class="cls-11" d="M1230.78,420.61l-2.66-6.39a3.52,3.52,0,0,1,3.66-4.85l6.71.77a3.52,3.52,0,0,1,2.45,5.56l-4,5.62A3.52,3.52,0,0,1,1230.78,420.61Z"/><circle class="cls-7" cx="1242.26" cy="432.2" r="10.21"/><polygon class="cls-7" points="1338.48 333.28 1333.85 336.12 1336.95 340.57 1332.17 343.14 1335.01 347.77 1330.08 350.04 1332.6 354.84 1327.52 356.75 1329.66 361.74 1324.43 363.18 1326.02 368.37 1320.65 369.11 1321.32 374.49 1315.96 373.91 1314.53 379.13 1310.65 375.56 1305.77 377.55 1306.26 372.15 1301.03 370.82 1303.55 366.01 1298.78 363.44 1302.09 359.13 1297.7 355.95 1301.44 352.03 1297.36 348.47 1301.4 344.85 1297.58 341 1301.86 337.66 1298.28 333.58 1302.74 330.49 1299.4 326.21 1304.03 323.38 1300.93 318.92 1305.71 316.35 1302.88 311.73 1307.81 309.46 1305.28 304.65 1310.36 302.75 1308.23 297.76 1313.45 296.32 1311.86 291.13 1317.23 290.39 1316.56 285 1321.92 285.59 1323.35 280.36 1327.23 283.94 1332.12 281.95 1331.63 287.35 1336.85 288.68 1334.33 293.49 1339.1 296.06 1335.79 300.36 1340.19 303.54 1336.44 307.46 1340.53 311.03 1336.48 314.64 1340.3 318.49 1336.03 321.84 1339.6 325.92 1335.14 329 1338.48 333.28"/><ellipse class="cls-2" cx="1313.42" cy="329.54" rx="26.78" ry="5.75" transform="translate(755.33 1563.32) rotate(-79.75)"/><polygon class="cls-1" points="90.19 333.24 85.66 335.57 88.9 339.49 84.27 341.59 87.3 345.67 82.56 347.52 85.36 351.77 80.51 353.31 83 357.75 78.06 358.9 80.12 363.55 75.08 364.13 76.42 369.04 71.39 368.5 70.87 373.56 67.38 370.17 62.92 372.12 64.2 367.2 59.3 365.94 62.28 361.81 57.76 359.5 61.32 355.87 57.09 353.05 60.98 349.78 56.99 346.63 61.09 343.64 57.3 340.25 61.57 337.49 57.97 333.9 62.37 331.36 58.95 327.59 63.48 325.26 60.24 321.34 64.87 319.24 61.84 315.15 66.58 313.31 63.78 309.06 68.63 307.51 66.14 303.08 71.08 301.92 69.02 297.28 74.06 296.7 72.72 291.79 77.75 292.32 78.27 287.27 81.76 290.66 86.22 288.71 84.94 293.63 89.83 294.89 86.86 299.02 91.38 301.33 87.82 304.96 92.05 307.77 88.16 311.05 92.15 314.19 88.05 317.19 91.84 320.58 87.57 323.34 91.17 326.93 86.77 329.47 90.19 333.24"/><ellipse class="cls-2" cx="68.47" cy="326.17" rx="26.78" ry="5.75" transform="translate(-264.68 335.48) rotate(-79.75)"/><rect class="cls-3" x="36.61" y="443.12" width="4.43" height="8.11" transform="translate(77.66 894.35) rotate(-180)"/><path class="cls-4" d="M178.19,539.61c0,1.52-4.1,2.67-4.36,4.12s3.19,4,2.68,5.37-4.76,1.09-5.51,2.39,1.69,4.79.74,6-4.86-.52-6,.48.12,5.07-1.15,5.89-4.48-2-5.85-1.34-1.37,4.88-2.83,5.3-3.72-3.18-5.22-3-2.68,4.29-4.2,4.29-2.74-4.09-4.2-4.29-3.8,3.38-5.23,3-1.48-4.68-2.83-5.3-4.61,2.15-5.85,1.34,0-4.9-1.15-5.89-5,.67-6-.48,1.48-4.66.74-6-5-1-5.51-2.39,2.95-3.88,2.68-5.37-4.36-2.6-4.36-4.12,4.1-2.67,4.36-4.12-3.19-4-2.68-5.37,4.76-1.09,5.51-2.39-1.69-4.79-.74-6,4.86.52,6-.48-.12-5.07,1.15-5.89,4.48,2,5.85,1.34,1.37-4.88,2.83-5.3,3.72,3.18,5.22,3,2.68-4.29,4.2-4.29,2.74,4.09,4.2,4.29,3.8-3.38,5.23-3,1.48,4.68,2.83,5.3,4.61-2.15,5.85-1.34,0,4.9,1.15,5.89,5-.67,6,.48-1.48,4.66-.74,6,5,1,5.51,2.39-2.95,3.88-2.68,5.37S178.19,538.09,178.19,539.61Z"/><path class="cls-5" d="M178.19,539.61c0,1.52-4.1,2.67-4.36,4.12s3.19,4,2.68,5.37-4.76,1.09-5.51,2.39,1.69,4.79.74,6-4.86-.52-6,.48.12,5.07-1.15,5.89-4.48-2-5.85-1.34-1.37,4.88-2.83,5.3-3.72-3.18-5.22-3-2.68,4.29-4.2,4.29-2.74-4.09-4.2-4.29-3.8,3.38-5.23,3-1.48-4.68-2.83-5.3-4.61,2.15-5.85,1.34,0-4.9-1.15-5.89-5,.67-6-.48,1.48-4.66.74-6-5-1-5.51-2.39,2.95-3.88,2.68-5.37-4.36-2.6-4.36-4.12,4.1-2.67,4.36-4.12-3.19-4-2.68-5.37,4.76-1.09,5.51-2.39-1.69-4.79-.74-6,4.86.52,6-.48-.12-5.07,1.15-5.89,4.48,2,5.85,1.34,1.37-4.88,2.83-5.3,3.72,3.18,5.22,3,2.68-4.29,4.2-4.29,2.74,4.09,4.2,4.29,3.8-3.38,5.23-3,1.48,4.68,2.83,5.3,4.61-2.15,5.85-1.34,0,4.9,1.15,5.89,5-.67,6,.48-1.48,4.66-.74,6,5,1,5.51,2.39-2.95,3.88-2.68,5.37S178.19,538.09,178.19,539.61Z"/><rect class="cls-6" x="17.97" y="485.15" width="21.75" height="67.9" rx="10.87" ry="10.87" transform="translate(-251.04 957.23) rotate(-144.25)"/><path class="cls-7" d="M140,516.75c0,.58-6,1.08-6,1.65s6,1.39,5.93,2-6.05.76-6.1,1.33,5.88,1.7,5.82,2.27-6.09.44-6.16,1,5.78,2,5.69,2.58-6.1.11-6.21.68,5.66,2.32,5.54,2.88-6.1-.22-6.23.34,5.53,2.62,5.38,3.17-6.08-.54-6.24,0,5.38,2.91,5.2,3.46-6-.87-6.23-.33,5.21,3.2,5,3.73-6-1.2-6.21-.67,5,3.48,4.79,4-5.91-1.52-6.16-1,4.84,3.74,4.57,4.25-5.82-1.84-6.1-1.34,4.63,4,4.33,4.5-5.71-2.16-6-1.67,4.4,4.25,4.08,4.73-5.58-2.47-5.91-2,4.16,4.48,3.81,4.94-5.44-2.77-5.8-2.32,3.91,4.71,3.53,5.15S119,557,118.6,557.4s3.64,4.92,3.24,5.33-5.1-3.35-5.5-2.95,3.36,5.11,2.94,5.51-4.9-3.63-5.33-3.25,3.07,5.29,2.63,5.66-4.69-3.9-5.14-3.55,2.76,5.46,2.3,5.8-4.46-4.16-4.93-3.83,2.45,5.61,2,5.92-4.21-4.41-4.7-4.11,2.12,5.74,1.63,6-4-4.65-4.46-4.37,1.79,5.85,1.27,6.11-3.68-4.87-4.2-4.62,1.44,5.94.92,6.18-3.38-5.08-3.92-4.86,1.09,6,.55,6.22-3.08-5.27-3.63-5.08.74,6.07.18,6.24-2.76-5.44-3.32-5.29.38,6.11-.19,6.24-2.44-5.59-3-5.48,0,6.12-.55,6.22-2.1-5.73-2.67-5.64-.35,6.11-.92,6.17-1.76-5.84-2.33-5.79-.71,6.08-1.28,6.11-1.41-5.93-2-5.92-1.06,6-1.64,6-1.07-6-1.64-6-1.41,6-2,5.92-.71-6.06-1.28-6.11-1.76,5.86-2.33,5.79-.35-6.09-.92-6.17-2.1,5.74-2.67,5.64,0-6.1-.56-6.22-2.44,5.61-3,5.47.37-6.09-.19-6.24-2.77,5.45-3.32,5.29.73-6.06.18-6.24-3.09,5.28-3.63,5.08,1.09-6,.55-6.22-3.39,5.09-3.92,4.86,1.44-5.93.92-6.18-3.68,4.88-4.2,4.62,1.78-5.84,1.28-6.11-4,4.66-4.46,4.37,2.12-5.72,1.63-6-4.22,4.43-4.7,4.11,2.44-5.59,2-5.92-4.47,4.18-4.93,3.83,2.75-5.44,2.3-5.8-4.7,3.92-5.14,3.54,3.06-5.28,2.63-5.66-4.91,3.65-5.33,3.25,3.35-5.1,2.94-5.51-5.11,3.37-5.5,2.95,3.63-4.9,3.24-5.33-5.29,3.08-5.66,2.64,3.89-4.7,3.53-5.15-5.45,2.78-5.8,2.32,4.15-4.47,3.81-4.94-5.59,2.48-5.91,2,4.39-4.24,4.08-4.73-5.72,2.17-6,1.67,4.61-4,4.33-4.5-5.83,1.85-6.1,1.34,4.82-3.74,4.57-4.25-5.92,1.53-6.16,1,5-3.47,4.79-4-6,1.21-6.21.67,5.2-3.19,5-3.73-6.05.88-6.23.33,5.37-2.9,5.2-3.46-6.09.55-6.24,0S21,532,20.87,531.44s-6.11.22-6.23-.34,5.65-2.31,5.54-2.88-6.12-.11-6.21-.68,5.76-2,5.69-2.58-6.1-.43-6.16-1,5.86-1.7,5.82-2.27-6.07-.75-6.1-1.33,5.94-1.38,5.93-2-6-1.07-6-1.65,6-1.08,6-1.65-6-1.39-5.93-2,6.05-.76,6.1-1.33-5.88-1.7-5.82-2.27,6.09-.44,6.16-1-5.78-2-5.69-2.58,6.1-.11,6.21-.68-5.66-2.32-5.54-2.88,6.1.22,6.23-.34-5.53-2.62-5.38-3.17,6.08.54,6.24,0-5.38-2.91-5.2-3.46,6,.87,6.23.33-5.21-3.2-5-3.73,6,1.2,6.21.67-5-3.48-4.79-4,5.91,1.52,6.16,1-4.84-3.74-4.57-4.25,5.82,1.84,6.1,1.34-4.63-4-4.33-4.5,5.71,2.16,6,1.67-4.4-4.25-4.08-4.73,5.58,2.47,5.91,2-4.16-4.48-3.81-4.94,5.44,2.77,5.8,2.32-3.91-4.71-3.53-5.15,5.27,3.07,5.66,2.64-3.64-4.92-3.24-5.33,5.1,3.35,5.5,2.95-3.36-5.11-2.94-5.51,4.9,3.63,5.33,3.25-3.07-5.29-2.63-5.66,4.69,3.9,5.14,3.55-2.76-5.46-2.3-5.8,4.46,4.16,4.93,3.83-2.45-5.61-2-5.92,4.21,4.41,4.7,4.11-2.12-5.74-1.63-6,4,4.65,4.46,4.37-1.79-5.85-1.27-6.11,3.68,4.87,4.2,4.62-1.44-5.94-.92-6.18,3.38,5.08,3.92,4.86-1.09-6-.55-6.22,3.08,5.27,3.63,5.08-.74-6.07-.18-6.24S61.42,459.16,62,459s-.38-6.11.19-6.24,2.44,5.59,3,5.48,0-6.12.55-6.22,2.1,5.73,2.67,5.64.35-6.11.92-6.17,1.76,5.84,2.33,5.79.71-6.08,1.28-6.11,1.41,5.93,2,5.92,1.06-6,1.64-6,1.07,6,1.64,6,1.41-6,2-5.92.71,6.06,1.28,6.11,1.76-5.86,2.33-5.79.35,6.09.92,6.17,2.1-5.74,2.67-5.64,0,6.1.56,6.22,2.44-5.61,3-5.47-.37,6.09.19,6.24,2.77-5.45,3.32-5.29-.73,6.06-.18,6.24,3.09-5.28,3.63-5.08-1.09,6-.55,6.22,3.39-5.09,3.92-4.86-1.44,5.93-.92,6.18,3.68-4.88,4.2-4.62-1.78,5.84-1.28,6.11,4-4.66,4.46-4.37-2.12,5.72-1.63,6,4.22-4.43,4.7-4.11-2.44,5.59-2,5.92,4.47-4.18,4.93-3.83-2.75,5.44-2.3,5.8,4.7-3.92,5.14-3.54-3.06,5.28-2.63,5.66,4.91-3.65,5.33-3.25-3.35,5.1-2.94,5.51,5.11-3.37,5.5-2.95-3.63,4.9-3.24,5.33,5.29-3.08,5.66-2.64-3.89,4.7-3.53,5.15,5.45-2.78,5.8-2.32-4.15,4.47-3.81,4.94,5.59-2.48,5.91-2-4.39,4.24-4.08,4.73,5.72-2.17,6-1.67-4.61,4-4.33,4.5,5.83-1.85,6.1-1.34-4.82,3.74-4.57,4.25,5.92-1.53,6.16-1-5,3.47-4.79,4,6-1.21,6.21-.67-5.2,3.19-5,3.73,6.05-.88,6.23-.33-5.37,2.9-5.2,3.46,6.09-.55,6.24,0-5.51,2.61-5.38,3.17,6.11-.22,6.23.34-5.65,2.31-5.54,2.88,6.12.11,6.21.68-5.76,2-5.69,2.58,6.1.43,6.16,1-5.86,1.7-5.82,2.27,6.07.75,6.1,1.33-5.94,1.38-5.93,2S140,516.17,140,516.75Z"/><ellipse class="cls-6" cx="91.38" cy="554.94" rx="48.42" ry="39.74"/><path class="cls-8" d="M32.91,590.53c0,3.55,3,6.82,8.14,9.45,7.41,3.81,19.18,6.28,32.45,6.28,22.42,0,40.59-7,40.59-15.72S95.91,574.81,73.5,574.81,32.91,581.85,32.91,590.53Z"/><rect class="cls-9" x="28.62" y="505.27" width="21.75" height="57.59" rx="10.87" ry="10.87" transform="translate(-158.96 1031.47) rotate(-154.02)"/><path class="cls-10" d="M41,513.1c1.46-1.39,4,1.89,5.7.84s-.28-3.7,1.2-5.07,4,.84,5.16-.8-1.82-3.83-.64-5.47,4.21.53,5.4-1.12-1.89-4-.58-5.59c1-1.2,3.85,1.48,5,.39s-1.46-3.49-.46-4.7c1.15-1.4,4,.7,5-.82s-1.35-2.17-1.43-4,2.24-2.7,1.12-4.22-5.17.32-5.57-1.52c-.48-2.19,4-2.35,4.3-4.57s-1.92-1.86-2.9-3.87c-.88-1.79.65-3.35-1.16-4.19s-3,2.39-4.94,1.81c-2.19-.67-1.39-4-3.64-4.43s-3.75,3.79-5.75,2.67.7-4.64-.89-6.4-3.42.53-5.49-.63c-1.68-.94-.79-3.7-2.7-3.91s-2,3.17-3.92,3.29-2.33-3.24-4.1-2.8-.59,3.45-2.18,4.33-3.45-1.74-4.69-.52,1.38,3.67.25,5-3.85-1-4.78.26,2.12,3.78,1,4.94c-1.48,1.58-4.22-1.26-5.84.17s.39,2.71-.22,4.78-3,2-2.36,4.08,4.29,1,4.82,3.06S12.5,487,12.94,489s5,2.1,4.51,4.11c-.59,2.3-4.73.29-6.17,2.17s.43,2.5.47,4.87c0,2.21-1.74,2.93-.24,4.55s5.32-.75,6.12,1.32-3.68,2.68-3.75,4.74,2.64,1.56,3.45,3.47-1.44,3.46.07,4.78,3-1.2,4.89-.51,1.4,3.58,3.4,3.54,2.07-3.94,4.07-3.82,1.62,4,3.6,4.27,1.64-2.18,3.47-3,4.33.82,4.89-1.15C42.42,515.93,39.5,514.5,41,513.1Z"/><circle class="cls-7" cx="79.65" cy="410.16" r="53.24"/><path class="cls-11" d="M22.46,425.07l-2.66-6.39a3.52,3.52,0,0,1,3.66-4.85l6.71.77a3.52,3.52,0,0,1,2.45,5.56l-4,5.62A3.52,3.52,0,0,1,22.46,425.07Z"/><circle class="cls-7" cx="36.61" cy="433.62" r="10.21"/><polygon class="cls-7" points="132.84 334.7 128.21 337.53 131.31 341.99 126.53 344.56 129.36 349.19 124.44 351.45 126.96 356.26 121.88 358.17 124.01 363.15 118.79 364.59 120.38 369.78 115.01 370.52 115.68 375.91 110.32 375.32 108.89 380.55 105.01 376.97 100.12 378.96 100.61 373.56 95.39 372.23 97.91 367.42 93.14 364.85 96.45 360.55 92.05 357.37 95.8 353.45 91.71 349.88 95.76 346.26 91.94 342.42 96.21 339.07 92.64 334.99 97.1 331.91 93.76 327.63 98.39 324.79 95.29 320.33 100.07 317.77 97.23 313.14 102.16 310.87 99.64 306.07 104.72 304.16 102.58 299.17 107.81 297.73 106.22 292.54 111.59 291.81 110.92 286.42 116.28 287 117.71 281.78 121.59 285.35 126.47 283.37 125.98 288.76 131.21 290.09 128.69 294.9 133.46 297.47 130.15 301.78 134.54 304.96 130.8 308.88 134.88 312.44 130.84 316.06 134.66 319.91 130.38 323.25 133.96 327.33 129.5 330.42 132.84 334.7"/><ellipse class="cls-2" cx="107.77" cy="330.96" rx="26.78" ry="5.75" transform="translate(-237.08 378.09) rotate(-79.75)"/><path class="cls-12" d="M36.61,444.12c7.2,0,22.27-4,23.2,6.84"/><path class="cls-13" d="M43.89,411.15a18,18,0,0,1-9.54-23.64,14.42,14.42,0,0,1,18.91-7.64A11.54,11.54,0,0,1,59.37,395a9.23,9.23,0,0,1-12.1,4.89,7.38,7.38,0,0,1-3.91-9.68,5.91,5.91,0,0,1,7.75-3.13,4.73,4.73,0,0,1,2.5,6.2,3.78,3.78,0,0,1-5,2,3,3,0,0,1-1.6-4A2.42,2.42,0,0,1,50.22,390"/><path class="cls-13" d="M252.17,290.12a18,18,0,0,1-9.54-23.64,14.42,14.42,0,0,1,18.91-7.64A11.54,11.54,0,0,1,267.65,274a9.23,9.23,0,0,1-12.1,4.89,7.38,7.38,0,0,1-3.91-9.68,5.91,5.91,0,0,1,7.75-3.13,4.73,4.73,0,0,1,2.5,6.2,3.78,3.78,0,0,1-5,2,3,3,0,0,1-1.6-4A2.42,2.42,0,0,1,258.5,269"/><path class="cls-13" d="M447,206.72a18,18,0,0,1-9.54-23.64,14.42,14.42,0,0,1,18.91-7.64,11.54,11.54,0,0,1,6.11,15.13,9.23,9.23,0,0,1-12.1,4.89,7.38,7.38,0,0,1-3.91-9.68,5.91,5.91,0,0,1,7.75-3.13,4.73,4.73,0,0,1,2.5,6.2,3.78,3.78,0,0,1-5,2,3,3,0,0,1-1.6-4,2.42,2.42,0,0,1,3.17-1.28"/><path class="cls-13" d="M649.74,115.67A18,18,0,0,1,640.2,92a14.42,14.42,0,0,1,18.91-7.64,11.54,11.54,0,0,1,6.11,15.13,9.23,9.23,0,0,1-12.1,4.89,7.38,7.38,0,0,1-3.91-9.68A5.91,5.91,0,0,1,657,91.6a4.73,4.73,0,0,1,2.5,6.2,3.78,3.78,0,0,1-5,2,3,3,0,0,1-1.6-4,2.42,2.42,0,0,1,3.17-1.28"/><path class="cls-13" d="M846.43,198.91a18,18,0,0,1-9.54-23.64,14.42,14.42,0,0,1,18.91-7.64,11.54,11.54,0,0,1,6.11,15.13,9.23,9.23,0,0,1-12.1,4.89,7.38,7.38,0,0,1-3.91-9.68,5.91,5.91,0,0,1,7.75-3.13,4.73,4.73,0,0,1,2.5,6.2,3.78,3.78,0,0,1-5,2,3,3,0,0,1-1.6-4,2.42,2.42,0,0,1,3.17-1.28"/><path class="cls-13" d="M1047.79,301.12a18,18,0,0,1-9.54-23.64,14.42,14.42,0,0,1,18.91-7.64,11.54,11.54,0,0,1,6.11,15.13,9.23,9.23,0,0,1-12.1,4.89,7.38,7.38,0,0,1-3.91-9.68,5.91,5.91,0,0,1,7.75-3.13,4.73,4.73,0,0,1,2.5,6.2,3.78,3.78,0,0,1-5,2,3,3,0,0,1-1.6-4,2.42,2.42,0,0,1,3.17-1.28"/><path class="cls-13" d="M1249.76,409.64a18,18,0,0,1-9.54-23.64,14.42,14.42,0,0,1,18.91-7.64,11.54,11.54,0,0,1,6.11,15.13,9.23,9.23,0,0,1-12.1,4.89,7.38,7.38,0,0,1-3.91-9.68,5.91,5.91,0,0,1,7.75-3.13,4.73,4.73,0,0,1,2.5,6.2,3.78,3.78,0,0,1-5,2,3,3,0,0,1-1.6-4,2.42,2.42,0,0,1,3.17-1.28"/><path class="cls-12" d="M438.07,240.45c7.2,0,22.27-5.39,23.2,9.24"/><path class="cls-12" d="M641.7,147.64c7.2,0,22.27-5.39,23.2,9.24"/><path class="cls-12" d="M840.41,229.93c7.2,0,22.27-5.39,23.2,9.24"/><path class="cls-12" d="M1042.12,330.39c7.2,0,22.27-5.39,23.2,9.24"/><path class="cls-12" d="M1244.47,441.63c7.2,0,22.27-5.39,23.2,9.24"/></svg>
