<svg xmlns="http://www.w3.org/2000/svg" xmlns:xlink="http://www.w3.org/1999/xlink" width="1600" height="900" viewBox="0 0 1600 900"><defs><style>.cls-1{fill:#a0a0a0;}.cls-2{fill:#e0b0e2;}.cls-11,.cls-2{stroke:#fff;}.cls-11,.cls-13,.cls-15,.cls-2,.cls-3,.cls-5{stroke-miterlimit:10;}.cls-3{fill:#f9f7f9;}.cls-13,.cls-3,.cls-5{stroke:#000;}.cls-15,.cls-3,.cls-5{stroke-width:0.25px;}.cls-4{fill:#f4f2f4;}.cls-15,.cls-5{fill:none;}.cls-6{fill:#9b9a9b;}.cls-7{fill:#bfbebf;}.cls-8{fill:#848384;}.cls-9{fill:#b2b2b2;}.cls-10{fill:#f8def9;}.cls-11{fill:#fff;}.cls-12{fill:url(#linear-gradient);}.cls-13{fill:#050101;}.cls-14{fill:#f23bc3;}.cls-15{stroke:#070607;}</style><linearGradient id="linear-gradient" x1="716.84" y1="396.33" x2="735.99" y2="378.22" gradientTransform="translate(-163.29 36.2) scale(1.23 0.91)" gradientUnits="userSpaceOnUse"><stop offset="0.3" stop-color="#3ddeed"/><stop offset="1" stop-color="#3ddeed" stop-opacity="0"/></linearGradient></defs><title>bunnyside</title><g id="ear2"><polygon class="cls-1" points="682.87 331.3 679.53 335.14 684.11 337.36 680.98 341.36 685.66 343.34 682.74 347.5 687.53 349.2 684.88 353.54 689.78 354.91 687.47 359.44 692.47 360.35 690.71 365.12 695.78 365.25 695.11 370.3 699.82 368.65 702.45 372.87 703.44 367.99 708.43 367.88 706.03 363.39 710.73 361.49 707.41 357.64 711.77 355.04 708.03 351.6 712.13 348.61 708.13 345.48 712.02 342.21 707.83 339.33 711.52 335.84 707.18 333.19 710.7 329.51 706.23 327.07 709.56 323.22 704.98 321.01 708.12 317 703.43 315.03 706.35 310.87 701.56 309.16 704.21 304.82 699.32 303.45 701.62 298.92 696.62 298.02 698.38 293.25 693.32 293.11 693.99 288.07 689.27 289.72 686.64 285.5 685.66 290.37 680.66 290.49 683.06 294.97 678.36 296.87 681.68 300.72 677.32 303.32 681.06 306.76 676.96 309.75 680.96 312.89 677.07 316.16 681.26 319.03 677.57 322.53 681.91 325.18 678.4 328.86 682.87 331.3"/><ellipse class="cls-2" cx="700.65" cy="324.93" rx="5.75" ry="26.78" transform="translate(-46.65 129.92) rotate(-10.25)"/></g><g id="teeth"><rect class="cls-3" x="728.07" y="441.89" width="4.43" height="8.11"/></g><g id="tail"><path class="cls-4" d="M594.93,538.38c0,1.52-3.84,3.36-3.58,4.82s4.5,1.9,5,3.3-2.46,4.45-1.72,5.75,4.88.27,5.83,1.43-.9,5,.23,6,4.72-1.27,6-.45.64,5,2,5.65,4.14-2.61,5.6-2.18,2.05,4.63,3.56,4.84,3.23-3.67,4.76-3.67,3.3,3.87,4.76,3.67,2.14-4.43,3.56-4.84,4.25,2.8,5.6,2.18.78-4.85,2-5.65,4.88,1.44,6,.45-.72-4.84.23-6,5.09-.14,5.83-1.44-2.23-4.34-1.72-5.75,4.75-1.81,5-3.3-3.58-3.3-3.58-4.82,3.84-3.36,3.58-4.82-4.5-1.9-5-3.3,2.46-4.45,1.72-5.75-4.88-.27-5.83-1.43.9-5-.23-6-4.72,1.27-6,.45-.64-5-2-5.65-4.14,2.61-5.6,2.18-2.05-4.63-3.56-4.84-3.23,3.67-4.76,3.67-3.3-3.87-4.76-3.67-2.14,4.43-3.56,4.84-4.25-2.8-5.6-2.18-.78,4.85-2,5.65-4.88-1.44-6-.45.72,4.84-.23,6-5.09.14-5.83,1.44,2.23,4.34,1.72,5.75-4.75,1.81-5,3.3S594.93,536.85,594.93,538.38Z"/><path class="cls-5" d="M594.93,538.38c0,1.52-3.84,3.36-3.58,4.82s4.5,1.9,5,3.3-2.46,4.45-1.72,5.75,4.88.27,5.83,1.43-.9,5,.23,6,4.72-1.27,6-.45.64,5,2,5.65,4.14-2.61,5.6-2.18,2.05,4.63,3.56,4.84,3.23-3.67,4.76-3.67,3.3,3.87,4.76,3.67,2.14-4.43,3.56-4.84,4.25,2.8,5.6,2.18.78-4.85,2-5.65,4.88,1.44,6,.45-.72-4.84.23-6,5.09-.14,5.83-1.44-2.23-4.34-1.72-5.75,4.75-1.81,5-3.3-3.58-3.3-3.58-4.82,3.84-3.36,3.58-4.82-4.5-1.9-5-3.3,2.46-4.45,1.72-5.75-4.88-.27-5.83-1.43.9-5-.23-6-4.72,1.27-6,.45-.64-5-2-5.65-4.14,2.61-5.6,2.18-2.05-4.63-3.56-4.84-3.23,3.67-4.76,3.67-3.3-3.87-4.76-3.67-2.14,4.43-3.56,4.84-4.25-2.8-5.6-2.18-.78,4.85-2,5.65-4.88-1.44-6-.45.72,4.84-.23,6-5.09.14-5.83,1.44,2.23,4.34,1.72,5.75-4.75,1.81-5,3.3S594.93,536.85,594.93,538.38Z"/></g><g id="front_paws" data-name="front paws"><rect class="cls-6" x="729.4" y="483.92" width="21.75" height="67.9" rx="10.87" ry="10.87" transform="translate(-163.08 530.11) rotate(-35.75)"/></g><g id="body"><path class="cls-7" d="M635.13,515.52c0,.58-6,1.23-6,1.81s6,.92,6.06,1.49-5.92,1.54-5.87,2.12,6.07.6,6.13,1.17-5.83,1.85-5.75,2.42,6.1.27,6.19.84-5.72,2.16-5.62,2.73,6.1-.05,6.22.51-5.6,2.47-5.46,3,6.09-.38,6.24.17-5.46,2.76-5.29,3.31,6.06-.71,6.24-.16-5.3,3.06-5.1,3.6,6-1,6.22-.5-5.13,3.34-4.9,3.87,5.95-1.36,6.19-.84-4.94,3.61-4.68,4.13,5.86-1.68,6.13-1.17-4.73,3.88-4.45,4.38,5.76-2,6.06-1.51-4.51,4.13-4.21,4.61,5.65-2.31,6-1.84-4.28,4.37-3.95,4.84,5.51-2.62,5.86-2.16-4,4.6-3.67,5,5.36-2.92,5.73-2.48-3.77,4.81-3.39,5.24,5.19-3.21,5.58-2.79-3.5,5-3.09,5.42,5-3.5,5.42-3.1-3.22,5.2-2.79,5.59,4.8-3.77,5.24-3.4-2.92,5.38-2.47,5.73,4.58-4,5-3.69-2.61,5.53-2.14,5.87,4.34-4.29,4.82-4-2.29,5.67-1.8,6,4.08-4.53,4.58-4.24-2,5.8-1.45,6.07,3.82-4.76,4.33-4.5-1.62,5.9-1.1,6.15,3.53-5,4.06-4.74-1.27,6-.74,6.2,3.23-5.17,3.77-5-.92,6-.37,6.23,2.92-5.35,3.47-5.19-.56,6.09,0,6.24,2.6-5.52,3.16-5.38-.19,6.11.37,6.23,2.27-5.66,2.84-5.56.17,6.11.74,6.2,1.93-5.79,2.5-5.72.53,6.09,1.1,6.14,1.58-5.89,2.16-5.86.89,6.05,1.46,6.07,1.24-6,1.81-6,1.24,6,1.81,6,.89-6,1.46-6.07S697.43,581,698,581s.53-6.08,1.1-6.14,1.93,5.8,2.5,5.72.17-6.1.74-6.2,2.27,5.68,2.84,5.56-.19-6.1.37-6.23,2.61,5.53,3.16,5.38-.55-6.08,0-6.24,2.93,5.37,3.47,5.19-.91-6-.37-6.23,3.24,5.19,3.77,5-1.26-6-.74-6.2,3.54,5,4.06,4.74-1.61-5.88-1.1-6.15,3.82,4.77,4.33,4.5-1.95-5.78-1.45-6.07,4.09,4.54,4.58,4.24-2.28-5.66-1.8-6,4.35,4.3,4.82,4-2.6-5.52-2.14-5.87,4.59,4,5,3.69-2.91-5.36-2.47-5.73,4.81,3.78,5.24,3.4-3.21-5.19-2.79-5.59,5,3.51,5.42,3.1-3.49-5-3.09-5.42,5.2,3.22,5.58,2.79-3.76-4.8-3.39-5.24,5.37,2.93,5.73,2.48-4-4.59-3.68-5,5.52,2.63,5.86,2.16-4.27-4.36-3.95-4.84,5.66,2.32,6,1.83-4.5-4.12-4.21-4.61,5.78,2,6.06,1.51-4.72-3.87-4.45-4.38,5.88,1.69,6.13,1.17-4.92-3.6-4.68-4.13,6,1.37,6.19.84-5.11-3.33-4.9-3.87,6,1,6.22.5-5.29-3-5.1-3.59,6.07.71,6.24.16-5.44-2.76-5.29-3.31,6.1.39,6.24-.17-5.58-2.46-5.46-3,6.12.06,6.22-.51-5.71-2.16-5.62-2.73,6.11-.27,6.19-.84-5.81-1.85-5.75-2.42,6.09-.59,6.13-1.17-5.9-1.54-5.87-2.12,6-.91,6.06-1.49-6-1.23-6-1.81,6-1.23,6-1.81-6-.92-6.06-1.49,5.92-1.54,5.87-2.12-6.07-.6-6.13-1.17,5.83-1.85,5.75-2.42-6.1-.27-6.19-.84,5.72-2.16,5.62-2.73-6.1.05-6.22-.51,5.6-2.47,5.46-3-6.09.38-6.24-.17,5.46-2.76,5.29-3.31-6.06.71-6.24.16,5.3-3.06,5.1-3.6-6,1-6.22.5,5.13-3.34,4.9-3.87-5.95,1.36-6.19.84,4.94-3.61,4.68-4.13S743.3,487.51,743,487s4.73-3.88,4.45-4.38-5.76,2-6.06,1.51,4.51-4.13,4.21-4.61-5.65,2.31-6,1.84,4.28-4.37,3.95-4.84-5.51,2.62-5.86,2.16,4-4.6,3.67-5-5.36,2.92-5.73,2.48,3.77-4.81,3.39-5.24-5.19,3.21-5.58,2.79,3.5-5,3.09-5.42-5,3.5-5.42,3.1,3.22-5.2,2.79-5.59-4.8,3.77-5.24,3.4,2.92-5.38,2.47-5.73-4.58,4-5,3.69,2.61-5.53,2.14-5.87-4.34,4.29-4.82,4,2.29-5.67,1.8-6-4.08,4.53-4.58,4.24,2-5.8,1.45-6.07-3.82,4.76-4.33,4.5,1.62-5.9,1.1-6.15-3.53,5-4.06,4.74,1.27-6,.74-6.2-3.23,5.17-3.77,5,.92-6,.37-6.23-2.92,5.35-3.47,5.19.56-6.09,0-6.24-2.6,5.52-3.16,5.38.19-6.11-.37-6.23-2.27,5.66-2.84,5.56-.17-6.11-.74-6.2-1.93,5.79-2.5,5.72-.53-6.09-1.1-6.14-1.58,5.89-2.16,5.86-.89-6.05-1.46-6.07-1.24,6-1.81,6-1.24-6-1.81-6-.89,6-1.46,6.07-1.59-5.91-2.16-5.86-.53,6.08-1.1,6.14-1.93-5.8-2.5-5.72-.17,6.1-.74,6.2-2.27-5.68-2.84-5.56.19,6.1-.37,6.23-2.61-5.53-3.16-5.38.55,6.08,0,6.24-2.93-5.37-3.47-5.19.91,6,.37,6.23-3.24-5.19-3.77-5,1.26,6,.74,6.2-3.54-5-4.06-4.74,1.61,5.88,1.1,6.15-3.82-4.77-4.33-4.5,1.95,5.78,1.45,6.07-4.09-4.54-4.58-4.24,2.28,5.66,1.8,6-4.35-4.3-4.82-4,2.6,5.52,2.14,5.87-4.59-4-5-3.69,2.91,5.36,2.47,5.73-4.81-3.78-5.24-3.4,3.21,5.19,2.79,5.59-5-3.51-5.42-3.1,3.49,5,3.09,5.42-5.2-3.22-5.58-2.79,3.76,4.8,3.39,5.24-5.37-2.93-5.73-2.48,4,4.59,3.68,5-5.52-2.63-5.86-2.16,4.27,4.36,3.95,4.84-5.66-2.32-6-1.83,4.5,4.12,4.21,4.61-5.78-2-6.06-1.51,4.72,3.87,4.45,4.38-5.88-1.69-6.13-1.17,4.92,3.6,4.68,4.13-6-1.37-6.19-.84,5.11,3.33,4.9,3.87-6-1-6.22-.5,5.29,3,5.1,3.59-6.07-.71-6.24-.16,5.44,2.76,5.29,3.31-6.1-.39-6.24.17,5.58,2.46,5.46,3-6.12-.06-6.22.51,5.71,2.16,5.62,2.73-6.11.27-6.19.84,5.81,1.85,5.75,2.42-6.09.59-6.13,1.17,5.9,1.54,5.87,2.12-6,.91-6.06,1.49S635.13,514.94,635.13,515.52Z"/><ellipse class="cls-6" cx="677.74" cy="553.71" rx="48.42" ry="39.74"/><path class="cls-8" d="M736.21,589.3c0,3.55-3,6.82-8.14,9.45-7.41,3.81-19.18,6.28-32.45,6.28C673.2,605,655,598,655,589.3s18.17-15.72,40.59-15.72S736.21,580.61,736.21,589.3Z"/></g><g id="front_paws1" data-name="front paws1"><rect class="cls-9" x="718.75" y="504.04" width="21.75" height="57.59" rx="10.87" ry="10.87" transform="translate(-159.68 373.46) rotate(-25.98)"/></g><g id="chest"><path class="cls-10" d="M726,514.36c-1.59-1.24.46-4.12-1.23-5.21s-3.87,2.09-5.5.9.78-4.21-.74-5.48-4.51,1.59-5.72,0,2.22-3.87,1.28-5.79-3.79-.2-5.05-1.93c-.94-1.29,1.49-3.55.27-4.58s-4.27,1.74-5.17.42,2.72-3.26,2.15-4.82-4.4-.51-4.72-2.14,3.62-2.22,3.54-4-4.07-1.92-3.87-3.7c.22-2,4.16-1.28,4.65-3.23s-3.5-3.83-2.32-5.45,4.2,1.6,5.91.53-.12-4.78,1.78-5.47c2.16-.79,3.22,3.21,5.48,2.83s1.53-3.81,3.75-4.4,3.2,2.78,5.28,2,.69-4,2.67-5c1.66-.82,3.4,2.2,4.95,1.17s0-5.19,1.8-5.45,1.42,4.19,3.17,4.76,3.62-3.21,5.13-2.16-1.47,4.05-.41,5.43,3.25-.91,4.68.09c1.63,1.14.17,4,2,4.64s4.85-3.08,5.94-1.41-3.6,2.71-3.8,4.6,3.36,2.09,3.33,4-3.58,2.08-3.44,4.06,4,1.81,4,3.79-3.8,2-3.88,4,3.2,1.77,3.55,3.74-2.81,2.94-2,4.87,5.1,1.08,5.12,3.16c0,1.79-4.29.89-5,2.53s2.39,2.58,2.09,4.34c-.37,2.12-3.63,1.89-3.57,4s4.75,3.51,3.54,5.29-4-2.22-6-1.62-.78,4-2.69,4.74c-1.74.64-3.08-2.73-4.78-2s-.67,4.88-2.52,5-1.52-4.11-3.33-4.55-3.31,3.46-4.94,2.57.74-5-.86-5.79C728.77,512.83,727.4,515.45,726,514.36Z"/></g><g id="head"><circle class="cls-7" cx="689.47" cy="408.92" r="53.24"/><path class="cls-11" d="M700.94,398.16c-2.79,11.71,14.9,17.17,24.89,13.77s15.05-15.09,11.3-26.1-20.64-24.71-24.89-13.77C711.27,374.57,701.85,394.35,700.94,398.16Z"/><ellipse class="cls-12" cx="726.21" cy="390.74" rx="12.15" ry="12.93" transform="translate(-40.01 85.83) rotate(-6.58)"/><ellipse class="cls-13" cx="729.62" cy="387.89" rx="6.75" ry="6.34" transform="translate(-39.66 86.21) rotate(-6.58)"/></g><g id="nose"><path class="cls-14" d="M744,420.8l2.66-6.39a3.52,3.52,0,0,0-3.66-4.85l-6.71.77a3.52,3.52,0,0,0-2.45,5.56l4,5.62A3.52,3.52,0,0,0,744,420.8Z"/><circle class="cls-7" cx="732.5" cy="432.39" r="10.21"/></g><g id="ears"><polygon class="cls-7" points="640.22 332.75 636.99 337.12 641.7 339.83 638.73 344.37 643.58 346.79 640.89 351.51 645.9 353.6 643.56 358.5 648.71 360.19 646.82 365.28 652.12 366.41 650.92 371.7 656.32 371.9 656.45 377.33 661.47 375.51 664.82 379.68 666.49 374.6 671.83 374.55 670.05 369.42 675.04 367.34 672.06 362.8 676.63 359.88 673.08 355.78 677.31 352.39 673.4 348.63 677.35 344.91 673.19 341.44 676.88 337.47 672.51 334.25 675.97 330.07 671.42 327.11 674.64 322.74 669.94 320.03 672.91 315.49 668.05 313.07 670.74 308.36 665.74 306.26 668.08 301.36 662.93 299.67 664.82 294.58 659.51 293.45 660.72 288.16 655.31 287.96 655.18 282.53 650.16 284.35 646.82 280.18 645.14 285.26 639.8 285.32 641.58 290.44 636.59 292.52 639.57 297.06 635 299.98 638.56 304.08 634.32 307.47 638.23 311.23 634.28 314.95 638.45 318.42 634.75 322.39 639.12 325.61 635.66 329.79 640.22 332.75"/><ellipse class="cls-2" cx="661.34" cy="329.73" rx="5.75" ry="26.78" transform="translate(-48.13 123) rotate(-10.25)"/></g><g id="mouth"><path class="cls-15" d="M733.89,442.19c-7.2,0-22.27,5.72-23.2-9.8"/></g></svg>
