<svg xmlns="http://www.w3.org/2000/svg" xmlns:xlink="http://www.w3.org/1999/xlink" width="1400" height="900" viewBox="0 0 1400 900"><defs><style>.cls-1{fill:#a0a0a0;}.cls-2{fill:#e0b0e2;}.cls-11,.cls-2{stroke:#fff;}.cls-11,.cls-13,.cls-15,.cls-2,.cls-3,.cls-5{stroke-miterlimit:10;}.cls-3{fill:#f9f7f9;}.cls-13,.cls-3,.cls-5{stroke:#000;}.cls-15,.cls-3,.cls-5{stroke-width:0.25px;}.cls-4{fill:#f4f2f4;}.cls-15,.cls-5{fill:none;}.cls-6{fill:#9b9a9b;}.cls-7{fill:#bfbebf;}.cls-8{fill:#848384;}.cls-9{fill:#b2b2b2;}.cls-10{fill:#f8def9;}.cls-11{fill:#fff;}.cls-12{fill:url(#linear-gradient);}.cls-13{fill:#050101;}.cls-14{fill:#f23bc3;}.cls-15{stroke:#070607;}.cls-16{fill:url(#linear-gradient-2);}.cls-17{fill:url(#linear-gradient-3);}.cls-18{fill:url(#linear-gradient-4);}.cls-19{fill:url(#linear-gradient-5);}.cls-20{fill:url(#linear-gradient-6);}.cls-21{fill:url(#linear-gradient-7);}</style><linearGradient id="linear-gradient" x1="404.2" y1="317.48" x2="423.35" y2="299.37" gradientTransform="translate(-169.01 80.63) scale(1.23 0.91)" gradientUnits="userSpaceOnUse"><stop offset="0.3" stop-color="#3ddeed"/><stop offset="1" stop-color="#3ddeed" stop-opacity="0"/></linearGradient><linearGradient id="linear-gradient-2" x1="576.63" y1="234.45" x2="595.77" y2="216.33" gradientTransform="translate(-179.1 56.89) scale(1.23 0.91)" xlink:href="#linear-gradient"/><linearGradient id="linear-gradient-3" x1="743.69" y1="169.06" x2="762.84" y2="150.95" gradientTransform="translate(-187.29 33.79) scale(1.23 0.91)" xlink:href="#linear-gradient"/><linearGradient id="linear-gradient-4" x1="900.98" y1="295.35" x2="920.13" y2="277.24" gradientTransform="translate(-175.35 10.92) scale(1.23 0.91)" xlink:href="#linear-gradient"/><linearGradient id="linear-gradient-5" x1="1051.43" y1="413.05" x2="1070.57" y2="394.93" gradientTransform="translate(-164.24 -10.94) scale(1.23 0.91)" xlink:href="#linear-gradient"/><linearGradient id="linear-gradient-6" x1="230.1" y1="414.13" x2="249.25" y2="396.01" gradientTransform="translate(-157.49 104.52) scale(1.23 0.91)" xlink:href="#linear-gradient"/><linearGradient id="linear-gradient-7" x1="1206.64" y1="567.04" x2="1225.78" y2="548.93" gradientTransform="translate(-149.38 -33.69) scale(1.23 0.91)" xlink:href="#linear-gradient"/></defs><title>walkcyclebunny</title><g id="Layer_5" data-name="Layer 5"><polygon class="cls-1" points="293.74 303.73 290.41 307.57 294.99 309.79 291.85 313.79 296.54 315.77 293.62 319.93 298.41 321.64 295.76 325.98 300.65 327.35 298.35 331.88 303.35 332.78 301.59 337.55 306.66 337.69 305.99 342.73 310.7 341.08 313.33 345.3 314.31 340.43 319.31 340.31 316.91 335.83 321.61 333.93 318.29 330.08 322.65 327.48 318.91 324.04 323.01 321.04 319.01 317.91 322.9 314.64 318.71 311.77 322.4 308.27 318.06 305.62 321.57 301.94 317.11 299.5 320.44 295.66 315.86 293.44 319 289.44 314.31 287.46 317.23 283.3 312.44 281.6 315.09 277.26 310.2 275.89 312.5 271.36 307.5 270.45 309.26 265.68 304.19 265.55 304.87 260.5 300.15 262.15 297.52 257.93 296.54 262.81 291.54 262.92 293.94 267.41 289.24 269.31 292.56 273.16 288.2 275.76 291.94 279.2 287.84 282.19 291.84 285.32 287.95 288.59 292.14 291.47 288.45 294.96 292.79 297.61 289.28 301.29 293.74 303.73"/><ellipse class="cls-2" cx="311.53" cy="297.37" rx="5.75" ry="26.78" transform="translate(-47.96 60.21) rotate(-10.25)"/><rect class="cls-3" x="338.94" y="414.33" width="4.43" height="8.11"/><path class="cls-4" d="M205.8,510.81c0,1.52-3.84,3.36-3.58,4.82s4.5,1.9,5,3.3-2.46,4.45-1.72,5.75,4.88.27,5.83,1.43-.9,5,.23,6,4.72-1.27,6-.45.64,5,2,5.65,4.14-2.61,5.6-2.18,2.05,4.63,3.56,4.84,3.23-3.67,4.76-3.67,3.3,3.87,4.76,3.67,2.14-4.43,3.56-4.84,4.25,2.8,5.6,2.18.78-4.85,2-5.65,4.88,1.44,6,.45-.72-4.84.23-6,5.09-.14,5.83-1.44-2.23-4.34-1.72-5.75,4.75-1.81,5-3.3-3.58-3.3-3.58-4.82,3.84-3.36,3.58-4.82-4.5-1.9-5-3.3,2.46-4.45,1.72-5.75-4.88-.27-5.83-1.43.9-5-.23-6-4.72,1.27-6,.45-.64-5-2-5.65-4.14,2.61-5.6,2.18-2.05-4.63-3.56-4.84-3.23,3.67-4.76,3.67-3.3-3.87-4.76-3.67-2.14,4.43-3.56,4.84-4.25-2.8-5.6-2.18-.78,4.85-2,5.65-4.88-1.44-6-.45.72,4.84-.23,6-5.09.14-5.83,1.44,2.23,4.34,1.72,5.75-4.75,1.81-5,3.3S205.8,509.29,205.8,510.81Z"/><path class="cls-5" d="M205.8,510.81c0,1.52-3.84,3.36-3.58,4.82s4.5,1.9,5,3.3-2.46,4.45-1.72,5.75,4.88.27,5.83,1.43-.9,5,.23,6,4.72-1.27,6-.45.64,5,2,5.65,4.14-2.61,5.6-2.18,2.05,4.63,3.56,4.84,3.23-3.67,4.76-3.67,3.3,3.87,4.76,3.67,2.14-4.43,3.56-4.84,4.25,2.8,5.6,2.18.78-4.85,2-5.65,4.88,1.44,6,.45-.72-4.84.23-6,5.09-.14,5.83-1.44-2.23-4.34-1.72-5.75,4.75-1.81,5-3.3-3.58-3.3-3.58-4.82,3.84-3.36,3.58-4.82-4.5-1.9-5-3.3,2.46-4.45,1.72-5.75-4.88-.27-5.83-1.43.9-5-.23-6-4.72,1.27-6,.45-.64-5-2-5.65-4.14,2.61-5.6,2.18-2.05-4.63-3.56-4.84-3.23,3.67-4.76,3.67-3.3-3.87-4.76-3.67-2.14,4.43-3.56,4.84-4.25-2.8-5.6-2.18-.78,4.85-2,5.65-4.88-1.44-6-.45.72,4.84-.23,6-5.09.14-5.83,1.44,2.23,4.34,1.72,5.75-4.75,1.81-5,3.3S205.8,509.29,205.8,510.81Z"/><rect class="cls-6" x="340.28" y="456.35" width="21.75" height="67.9" rx="10.87" ry="10.87" transform="translate(-220.3 297.56) rotate(-35.75)"/><path class="cls-7" d="M246,488c0,.58-6,1.23-6,1.81s6,.92,6.06,1.49-5.92,1.54-5.87,2.12,6.07.6,6.13,1.17-5.83,1.85-5.75,2.42,6.1.27,6.19.84-5.72,2.16-5.62,2.73,6.1-.05,6.22.51-5.6,2.47-5.46,3,6.09-.38,6.24.17-5.46,2.76-5.29,3.31,6.06-.71,6.24-.16-5.3,3.06-5.1,3.6,6-1,6.22-.5-5.13,3.34-4.9,3.87,5.95-1.36,6.19-.84-4.94,3.61-4.68,4.13,5.86-1.68,6.13-1.17-4.73,3.88-4.45,4.38,5.76-2,6.06-1.51-4.51,4.13-4.21,4.61,5.65-2.31,6-1.84-4.28,4.37-3.95,4.84,5.51-2.62,5.86-2.16-4,4.6-3.67,5,5.36-2.92,5.73-2.48-3.77,4.81-3.39,5.24,5.19-3.21,5.58-2.79-3.5,5-3.09,5.42,5-3.5,5.42-3.1-3.22,5.2-2.79,5.59,4.8-3.77,5.24-3.4-2.92,5.38-2.47,5.73,4.58-4,5-3.69-2.61,5.53-2.14,5.87,4.34-4.29,4.82-4-2.29,5.67-1.8,6,4.08-4.53,4.58-4.24-2,5.8-1.45,6.07,3.82-4.76,4.33-4.5-1.62,5.9-1.1,6.15,3.53-5,4.06-4.74-1.27,6-.74,6.2,3.23-5.17,3.77-5-.92,6-.37,6.23,2.92-5.35,3.47-5.19-.56,6.09,0,6.24,2.6-5.52,3.16-5.38-.19,6.11.37,6.23,2.27-5.66,2.84-5.56.17,6.11.74,6.2,1.93-5.79,2.5-5.72.53,6.09,1.1,6.14,1.58-5.89,2.16-5.86.89,6.05,1.46,6.07,1.24-6,1.81-6,1.24,6,1.81,6,.89-6,1.46-6.07,1.59,5.91,2.16,5.86.53-6.08,1.1-6.14,1.93,5.8,2.5,5.72.17-6.1.74-6.2,2.27,5.68,2.84,5.56-.19-6.1.37-6.23,2.61,5.53,3.16,5.38-.55-6.08,0-6.24,2.93,5.37,3.47,5.19-.91-6-.37-6.23,3.24,5.19,3.77,5-1.26-6-.74-6.2,3.54,5,4.06,4.74-1.61-5.88-1.1-6.15,3.82,4.77,4.33,4.5-1.95-5.78-1.45-6.07,4.09,4.54,4.58,4.24-2.28-5.66-1.8-6,4.35,4.3,4.82,4-2.6-5.52-2.14-5.87,4.59,4,5,3.69-2.91-5.36-2.47-5.73,4.81,3.78,5.24,3.4-3.21-5.19-2.79-5.59,5,3.51,5.42,3.1-3.49-5-3.09-5.42,5.2,3.22,5.58,2.79-3.76-4.8-3.39-5.24,5.37,2.93,5.73,2.48-4-4.59-3.68-5,5.52,2.63,5.86,2.16-4.27-4.36-3.95-4.84,5.66,2.32,6,1.83-4.5-4.12-4.21-4.61,5.78,2,6.06,1.51-4.72-3.87-4.45-4.38,5.88,1.69,6.13,1.17-4.92-3.6-4.68-4.13,6,1.37,6.19.84-5.11-3.33-4.9-3.87,6,1,6.22.5-5.29-3-5.1-3.59,6.07.71,6.24.16-5.44-2.76-5.29-3.31,6.1.39,6.24-.17-5.58-2.46-5.46-3,6.12.06,6.22-.51-5.71-2.16-5.62-2.73,6.11-.27,6.19-.84-5.81-1.85-5.75-2.42,6.09-.59,6.13-1.17-5.9-1.54-5.87-2.12,6-.91,6.06-1.49-6-1.23-6-1.81,6-1.23,6-1.81-6-.92-6.06-1.49,5.92-1.54,5.87-2.12-6.07-.6-6.13-1.17,5.83-1.85,5.75-2.42-6.1-.27-6.19-.84,5.72-2.16,5.62-2.73-6.1.05-6.22-.51,5.6-2.47,5.46-3-6.09.38-6.24-.17,5.46-2.76,5.29-3.31-6.06.71-6.24.16,5.3-3.06,5.1-3.6-6,1-6.22.5,5.13-3.34,4.9-3.87-5.95,1.36-6.19.84,4.94-3.61,4.68-4.13-5.86,1.68-6.13,1.17,4.73-3.88,4.45-4.38-5.76,2-6.06,1.51,4.51-4.13,4.21-4.61-5.65,2.31-6,1.84,4.28-4.37,3.95-4.84-5.51,2.62-5.86,2.16,4-4.6,3.67-5-5.36,2.92-5.73,2.48,3.77-4.81,3.39-5.24-5.19,3.21-5.58,2.79,3.5-5,3.09-5.42-5,3.5-5.42,3.1,3.22-5.2,2.79-5.59-4.8,3.77-5.24,3.4,2.92-5.38,2.47-5.73-4.58,4-5,3.69,2.61-5.53,2.14-5.87-4.34,4.29-4.82,4,2.29-5.67,1.8-6-4.08,4.53-4.58,4.24,2-5.8,1.45-6.07-3.82,4.76-4.33,4.5,1.62-5.9,1.1-6.15-3.53,5-4.06,4.74,1.27-6,.74-6.2-3.23,5.17-3.77,5,.92-6,.37-6.23-2.92,5.35-3.47,5.19.56-6.09,0-6.24-2.6,5.52-3.16,5.38.19-6.11-.37-6.23-2.27,5.66-2.84,5.56-.17-6.11-.74-6.2-1.93,5.79-2.5,5.72-.53-6.09-1.1-6.14-1.58,5.89-2.16,5.86-.89-6.05-1.46-6.07-1.24,6-1.81,6-1.24-6-1.81-6-.89,6-1.46,6.07-1.59-5.91-2.16-5.86-.53,6.08-1.1,6.14-1.93-5.8-2.5-5.72-.17,6.1-.74,6.2-2.27-5.68-2.84-5.56.19,6.1-.37,6.23-2.61-5.53-3.16-5.38.55,6.08,0,6.24-2.93-5.37-3.47-5.19.91,6,.37,6.23-3.24-5.19-3.77-5,1.26,6,.74,6.2-3.54-5-4.06-4.74,1.61,5.88,1.1,6.15-3.82-4.77-4.33-4.5,1.95,5.78,1.45,6.07-4.09-4.54-4.58-4.24,2.28,5.66,1.8,6-4.35-4.3-4.82-4,2.6,5.52,2.14,5.87-4.59-4-5-3.69,2.91,5.36,2.47,5.73-4.81-3.78-5.24-3.4,3.21,5.19,2.79,5.59-5-3.51-5.42-3.1,3.49,5,3.09,5.42-5.2-3.22-5.58-2.79,3.76,4.8,3.39,5.24-5.37-2.93-5.73-2.48,4,4.59,3.68,5-5.52-2.63-5.86-2.16,4.27,4.36,3.95,4.84-5.66-2.32-6-1.83,4.5,4.12,4.21,4.61-5.78-2-6.06-1.51,4.72,3.87,4.45,4.38-5.88-1.69-6.13-1.17,4.92,3.6,4.68,4.13-6-1.37-6.19-.84,5.11,3.33,4.9,3.87-6-1-6.22-.5,5.29,3,5.1,3.59-6.07-.71-6.24-.16,5.44,2.76,5.29,3.31-6.1-.39-6.24.17,5.58,2.46,5.46,3-6.12-.06-6.22.51,5.71,2.16,5.62,2.73-6.11.27-6.19.84,5.81,1.85,5.75,2.42-6.09.59-6.13,1.17,5.9,1.54,5.87,2.12-6,.91-6.06,1.49S246,487.38,246,488Z"/><ellipse class="cls-6" cx="288.62" cy="526.14" rx="48.42" ry="39.74"/><path class="cls-8" d="M325.2,597.75c-3.15,1.63-7.45.45-12.14-2.87-6.8-4.82-14.41-14.13-20.52-25.91-10.33-19.89-12.46-39.27-4.75-43.27s22.33,8.88,32.66,28.78S332.91,593.75,325.2,597.75Z"/><rect class="cls-9" x="329.63" y="476.48" width="21.75" height="57.59" rx="10.87" ry="10.87" transform="translate(-186.93 200.22) rotate(-25.98)"/><path class="cls-10" d="M335.47,488.69c-1.75-1,1.1-4.22-.12-5.83s-3.53.51-5-.83.35-3.89-1.39-4.92-3.55,2-5.29,1,0-4.09-1.71-5.11-4.24,2.19-5.67.75,1.84-3.87.86-5.62-4.79-.29-5.24-2.24,3.64-2.18,3.78-4.1-3-1.83-3.26-3.73c-.26-2.07,2.84-2.74,2.22-4.73s-5.48-2.42-4.52-4.27c1-2,4.33,1.65,6.43.81s.68-3.51,2.54-4.79c1.36-.93,3.42,1.27,4.43,0s-1.79-3.74-.65-4.92c1.59-1.65,4.17,1,5.88-.5s-.57-5.14,1.54-6,3.18,3.24,5.55,3.07,1.9-3.33,4.22-3.85c1.62-.36,2.64,2.65,4.15,2s.28-4.42,1.9-4.75,2.06,3.55,3.8,3.58,2.07-3.75,3.79-3.47c1.88.3,1,4,2.87,4.54s3.56-3.16,5.15-2.1-1.11,4.12.14,5.63,5.31-.33,5.62,1.6-4.13,1.68-4.82,3.67,2,2.36,2.07,4.46-2.48,2.77-1.58,4.69,4.22.44,5.05,2.39-2.57,3.26-1.83,5.19,5.11,1.36,4.9,3.42c-.24,2.36-4.47,1-5.62,3.11s1.08,2.67,1,5-2.26,2.78-1.18,4.73,6,1.34,5.43,3.5-4.46-1-6.34.1-.12,4.1-2,5.19c-1.39.81-3.2-2.2-4.57-1.35s.52,3.84-.84,4.71-3.41-2-4.9-1-.12,5.09-1.88,5.2-.9-4.15-2.48-4.93-2.73,2.22-4.43,1.74c-1.85-.52-1.92-4.29-3.78-3.82C337.29,486.43,337.13,489.65,335.47,488.69Z"/><circle class="cls-7" cx="300.35" cy="381.36" r="53.24"/><path class="cls-11" d="M311.82,370.59c-2.79,11.71,14.9,17.17,24.89,13.77s15.05-15.09,11.3-26.1-20.64-24.71-24.89-13.77C322.15,347,312.73,366.79,311.82,370.59Z"/><ellipse class="cls-12" cx="337.09" cy="363.17" rx="12.15" ry="12.93" transform="translate(-39.41 41.04) rotate(-6.58)"/><ellipse class="cls-13" cx="340.5" cy="360.33" rx="6.75" ry="6.34" transform="translate(-39.06 41.41) rotate(-6.58)"/><path class="cls-14" d="M354.86,393.23l2.66-6.39a3.52,3.52,0,0,0-3.66-4.85l-6.71.77a3.52,3.52,0,0,0-2.45,5.56l4,5.62A3.52,3.52,0,0,0,354.86,393.23Z"/><circle class="cls-7" cx="343.38" cy="404.82" r="10.21"/><polygon class="cls-7" points="251.09 305.19 247.87 309.56 252.57 312.26 249.6 316.81 254.46 319.23 251.77 323.94 256.78 326.04 254.43 330.94 259.59 332.63 257.7 337.71 263 338.85 261.8 344.14 267.2 344.34 267.33 349.77 272.35 347.95 275.69 352.11 277.37 347.04 282.71 346.98 280.93 341.85 285.92 339.77 282.94 335.24 287.51 332.32 283.96 328.21 288.19 324.83 284.28 321.06 288.23 317.35 284.06 313.87 287.76 309.9 283.39 306.69 286.85 302.51 282.3 299.54 285.52 295.18 280.82 292.47 283.79 287.93 278.93 285.5 281.62 280.79 276.62 278.69 278.96 273.8 273.8 272.1 275.69 267.02 270.39 265.88 271.6 260.59 266.19 260.39 266.06 254.96 261.04 256.78 257.7 252.62 256.02 257.69 250.68 257.75 252.46 262.88 247.47 264.96 250.45 269.5 245.88 272.41 249.44 276.52 245.2 279.9 249.11 283.67 245.16 287.38 249.33 290.86 245.63 294.83 250 298.04 246.54 302.23 251.09 305.19"/><ellipse class="cls-2" cx="272.22" cy="302.16" rx="5.75" ry="26.78" transform="translate(-49.44 53.29) rotate(-10.25)"/><path class="cls-15" d="M344.77,414.62c-7.2,0-22.27,5.72-23.2-9.8"/><polygon class="cls-1" points="496.37 207.75 494.43 212.46 499.47 213.11 497.76 217.9 502.83 218.29 501.38 223.17 506.46 223.27 505.32 228.22 510.39 227.97 509.64 233 514.67 232.28 514.51 237.36 519.36 235.88 520.32 240.88 524.27 237.83 528.1 241 527.49 236.06 532.19 234.38 528.5 230.88 532.36 227.59 527.99 224.99 531.31 221.14 526.66 219.06 529.61 214.92 524.82 213.22 527.48 208.88 522.59 207.48 524.99 203 520.04 201.86 522.21 197.25 517.2 196.36 519.14 191.66 514.1 191 515.81 186.21 510.74 185.82 512.19 180.95 507.11 180.84 508.25 175.89 503.17 176.14 503.92 171.11 498.89 171.83 499.06 166.75 494.21 168.23 493.25 163.23 489.3 166.28 485.47 163.11 486.08 168.05 481.37 169.74 485.07 173.23 481.21 176.52 485.58 179.13 482.26 182.97 486.9 185.05 483.95 189.19 488.74 190.89 486.09 195.23 490.98 196.63 488.57 201.12 493.53 202.25 491.36 206.86 496.37 207.75"/><ellipse class="cls-2" cx="511.23" cy="196.1" rx="5.75" ry="26.78" transform="translate(-31.38 269.51) rotate(-28.69)"/><rect class="cls-3" x="540.3" y="314.76" width="4.43" height="8.11"/><path class="cls-4" d="M407.16,411.25c0,1.52-3.84,3.36-3.58,4.82s4.5,1.9,5,3.3-2.46,4.45-1.72,5.75,4.88.27,5.83,1.43-.9,5,.23,6,4.72-1.27,6-.45.64,5,2,5.65,4.14-2.61,5.6-2.18,2.05,4.63,3.56,4.84,3.23-3.67,4.76-3.67,3.3,3.87,4.76,3.67,2.14-4.43,3.56-4.84,4.25,2.8,5.6,2.18.78-4.85,2-5.65,4.88,1.44,6,.45-.72-4.84.23-6,5.09-.14,5.83-1.44-2.23-4.34-1.72-5.75,4.75-1.81,5-3.3-3.58-3.3-3.58-4.82,3.84-3.36,3.58-4.82-4.5-1.9-5-3.3,2.46-4.45,1.72-5.75-4.88-.27-5.83-1.43.9-5-.23-6-4.72,1.27-6,.45-.64-5-2-5.65-4.14,2.61-5.6,2.18-2.05-4.63-3.56-4.84-3.23,3.67-4.76,3.67-3.3-3.87-4.76-3.67-2.14,4.43-3.56,4.84-4.25-2.8-5.6-2.18-.78,4.85-2,5.65-4.88-1.44-6-.45.72,4.84-.23,6-5.09.14-5.83,1.44,2.23,4.34,1.72,5.75-4.75,1.81-5,3.3S407.16,409.73,407.16,411.25Z"/><path class="cls-5" d="M407.16,411.25c0,1.52-3.84,3.36-3.58,4.82s4.5,1.9,5,3.3-2.46,4.45-1.72,5.75,4.88.27,5.83,1.43-.9,5,.23,6,4.72-1.27,6-.45.64,5,2,5.65,4.14-2.61,5.6-2.18,2.05,4.63,3.56,4.84,3.23-3.67,4.76-3.67,3.3,3.87,4.76,3.67,2.14-4.43,3.56-4.84,4.25,2.8,5.6,2.18.78-4.85,2-5.65,4.88,1.44,6,.45-.72-4.84.23-6,5.09-.14,5.83-1.44-2.23-4.34-1.72-5.75,4.75-1.81,5-3.3-3.58-3.3-3.58-4.82,3.84-3.36,3.58-4.82-4.5-1.9-5-3.3,2.46-4.45,1.72-5.75-4.88-.27-5.83-1.43.9-5-.23-6-4.72,1.27-6,.45-.64-5-2-5.65-4.14,2.61-5.6,2.18-2.05-4.63-3.56-4.84-3.23,3.67-4.76,3.67-3.3-3.87-4.76-3.67-2.14,4.43-3.56,4.84-4.25-2.8-5.6-2.18-.78,4.85-2,5.65-4.88-1.44-6-.45.72,4.84-.23,6-5.09.14-5.83,1.44,2.23,4.34,1.72,5.75-4.75,1.81-5,3.3S407.16,409.73,407.16,411.25Z"/><rect class="cls-6" x="541.64" y="356.79" width="21.75" height="67.9" rx="10.87" ry="10.87" transform="translate(-124.18 396.45) rotate(-35.75)"/><path class="cls-7" d="M447.37,388.39c0,.58-6,1.23-6,1.81s6,.92,6.06,1.49-5.92,1.54-5.87,2.12,6.07.6,6.13,1.17-5.83,1.85-5.75,2.42,6.1.27,6.19.84-5.72,2.16-5.62,2.73,6.1-.05,6.22.51-5.6,2.47-5.46,3,6.09-.38,6.24.17-5.46,2.76-5.29,3.31,6.06-.71,6.24-.16-5.3,3.06-5.1,3.6,6-1,6.22-.5-5.13,3.34-4.9,3.87,5.95-1.36,6.19-.84-4.94,3.61-4.68,4.13,5.86-1.68,6.13-1.17-4.73,3.88-4.45,4.38,5.76-2,6.06-1.51-4.51,4.13-4.21,4.61,5.65-2.31,6-1.84-4.28,4.37-3.95,4.84,5.51-2.62,5.86-2.16-4,4.6-3.67,5,5.36-2.92,5.73-2.48-3.77,4.81-3.39,5.24,5.19-3.21,5.58-2.79-3.5,5-3.09,5.42,5-3.5,5.42-3.1-3.22,5.2-2.79,5.59,4.8-3.77,5.24-3.4-2.92,5.38-2.47,5.73,4.58-4,5-3.69-2.61,5.53-2.14,5.87,4.34-4.29,4.82-4-2.29,5.67-1.8,6,4.08-4.53,4.58-4.24-2,5.8-1.45,6.07,3.82-4.76,4.33-4.5-1.62,5.9-1.1,6.15,3.53-5,4.06-4.74-1.27,6-.74,6.2,3.23-5.17,3.77-5-.92,6-.37,6.23,2.92-5.35,3.47-5.19-.56,6.09,0,6.24,2.6-5.52,3.16-5.38-.19,6.11.37,6.23,2.27-5.66,2.84-5.56.17,6.11.74,6.2,1.93-5.79,2.5-5.72.53,6.09,1.1,6.14,1.58-5.89,2.16-5.86.89,6.05,1.46,6.07,1.24-6,1.81-6,1.24,6,1.81,6,.89-6,1.46-6.07,1.59,5.91,2.16,5.86.53-6.08,1.1-6.14,1.93,5.8,2.5,5.72.17-6.1.74-6.2,2.27,5.68,2.84,5.56-.19-6.1.37-6.23,2.61,5.53,3.16,5.38-.55-6.08,0-6.24,2.93,5.37,3.47,5.19-.91-6-.37-6.23,3.24,5.19,3.77,5-1.26-6-.74-6.2,3.54,5,4.06,4.74-1.61-5.88-1.1-6.15,3.82,4.77,4.33,4.5-1.95-5.78-1.45-6.07,4.09,4.54,4.58,4.24-2.28-5.66-1.8-6,4.35,4.3,4.82,4-2.6-5.52-2.14-5.87,4.59,4,5,3.69-2.91-5.36-2.47-5.73,4.81,3.78,5.24,3.4-3.21-5.19-2.79-5.59,5,3.51,5.42,3.1-3.49-5-3.09-5.42,5.2,3.22,5.58,2.79-3.76-4.8-3.39-5.24,5.37,2.93,5.73,2.48-4-4.59-3.68-5,5.52,2.63,5.86,2.16-4.27-4.36-3.95-4.84,5.66,2.32,6,1.83-4.5-4.12-4.21-4.61,5.78,2,6.06,1.51-4.72-3.87-4.45-4.38,5.88,1.69,6.13,1.17-4.92-3.6-4.68-4.13,6,1.37,6.19.84-5.11-3.33-4.9-3.87,6,1,6.22.5-5.29-3-5.1-3.59,6.07.71,6.24.16-5.44-2.76-5.29-3.31,6.1.39,6.24-.17-5.58-2.46-5.46-3,6.12.06,6.22-.51-5.71-2.16-5.62-2.73,6.11-.27,6.19-.84-5.81-1.85-5.75-2.42,6.09-.59,6.13-1.17-5.9-1.54-5.87-2.12,6-.91,6.06-1.49-6-1.23-6-1.81,6-1.23,6-1.81-6-.92-6.06-1.49,5.92-1.54,5.87-2.12-6.07-.6-6.13-1.17,5.83-1.85,5.75-2.42-6.1-.27-6.19-.84,5.72-2.16,5.62-2.73-6.1.05-6.22-.51,5.6-2.47,5.46-3-6.09.38-6.24-.17,5.46-2.76,5.29-3.31-6.06.71-6.24.16,5.3-3.06,5.1-3.6-6,1-6.22.5,5.13-3.34,4.9-3.87-5.95,1.36-6.19.84,4.94-3.61,4.68-4.13-5.86,1.68-6.13,1.17,4.73-3.88,4.45-4.38-5.76,2-6.06,1.51,4.51-4.13,4.21-4.61-5.65,2.31-6,1.84,4.28-4.37,3.95-4.84-5.51,2.62-5.86,2.16,4-4.6,3.67-5-5.36,2.92-5.73,2.48,3.77-4.81,3.39-5.24-5.19,3.21-5.58,2.79,3.5-5,3.09-5.42-5,3.5-5.42,3.1,3.22-5.2,2.79-5.59-4.8,3.77-5.24,3.4,2.92-5.38,2.47-5.73-4.58,4-5,3.69,2.61-5.53,2.14-5.87-4.34,4.29-4.82,4,2.29-5.67,1.8-6-4.08,4.53-4.58,4.24,2-5.8,1.45-6.07-3.82,4.76-4.33,4.5,1.62-5.9,1.1-6.15-3.53,5-4.06,4.74,1.27-6,.74-6.2-3.23,5.17-3.77,5,.92-6,.37-6.23-2.92,5.35-3.47,5.19.56-6.09,0-6.24-2.6,5.52-3.16,5.38.19-6.11-.37-6.23-2.27,5.66-2.84,5.56-.17-6.11-.74-6.2-1.93,5.79-2.5,5.72-.53-6.09-1.1-6.14-1.58,5.89-2.16,5.86-.89-6.05-1.46-6.07-1.24,6-1.81,6-1.24-6-1.81-6-.89,6-1.46,6.07-1.59-5.91-2.16-5.86-.53,6.08-1.1,6.14-1.93-5.8-2.5-5.72-.17,6.1-.74,6.2-2.27-5.68-2.84-5.56.19,6.1-.37,6.23-2.61-5.53-3.16-5.38.55,6.08,0,6.24-2.93-5.37-3.47-5.19.91,6,.37,6.23-3.24-5.19-3.77-5,1.26,6,.74,6.2-3.54-5-4.06-4.74,1.61,5.88,1.1,6.15-3.82-4.77-4.33-4.5,1.95,5.78,1.45,6.07-4.09-4.54-4.58-4.24,2.28,5.66,1.8,6-4.35-4.3-4.82-4,2.6,5.52,2.14,5.87-4.59-4-5-3.69,2.91,5.36,2.47,5.73-4.81-3.78-5.24-3.4,3.21,5.19,2.79,5.59-5-3.51-5.42-3.1,3.49,5,3.09,5.42-5.2-3.22-5.58-2.79,3.76,4.8,3.39,5.24-5.37-2.93-5.73-2.48,4,4.59,3.68,5-5.52-2.63-5.86-2.16,4.27,4.36,3.95,4.84-5.66-2.32-6-1.83,4.5,4.12,4.21,4.61-5.78-2-6.06-1.51,4.72,3.87,4.45,4.38-5.88-1.69-6.13-1.17,4.92,3.6,4.68,4.13-6-1.37-6.19-.84,5.11,3.33,4.9,3.87-6-1-6.22-.5,5.29,3,5.1,3.59-6.07-.71-6.24-.16,5.44,2.76,5.29,3.31-6.1-.39-6.24.17,5.58,2.46,5.46,3-6.12-.06-6.22.51,5.71,2.16,5.62,2.73-6.11.27-6.19.84,5.81,1.85,5.75,2.42-6.09.59-6.13,1.17,5.9,1.54,5.87,2.12-6,.91-6.06,1.49S447.37,387.82,447.37,388.39Z"/><ellipse class="cls-6" cx="489.98" cy="426.58" rx="48.42" ry="39.74"/><path class="cls-8" d="M495,500.68c-3.36-1.12-5.51-5-6.39-10.71-1.28-8.23.1-20.18,4.29-32.77,7.08-21.27,19.49-36.29,27.73-33.55s9.18,22.21,2.1,43.48S503.28,503.42,495,500.68Z"/><rect class="cls-9" x="530.99" y="376.92" width="21.75" height="57.59" rx="10.87" ry="10.87" transform="translate(-122.97 278.36) rotate(-25.98)"/><path class="cls-10" d="M536.33,389.36c-1.8-1.36,2-4.16,1.31-6.29s-2.8-.81-4.43-2.37-.38-3.64-2.51-4.26-4.09,3.29-5.85,1.94,1.63-4.13.6-5.95-4.23,0-5.22-1.89c-.75-1.4,2.5-3.07,1.8-4.5s-4.11.09-4.7-1.39,3-2.63,2.54-4.08-4-.52-4.35-2c-.37-1.67,3.27-2.37,3-4.05s-4.55-2-4-3.64,4.19.6,5.38-.61-1.37-3.74-.18-4.95,3.71,1.36,4.86.19-1.41-3.9-.17-5c1.71-1.46,4,1.46,5.84.11s-.34-4.59,1.61-5.7,3.62,2.38,5.66,1.54.89-4.71,3.06-5.12c1.73-.33,2,3.69,3.71,3.82s1.75-3.21,3.5-3.34,2.25,3.17,4,2.79,1.4-4.41,3.17-4.32,1.24,4.08,3.08,4.64,3.75-3.21,5.29-2.05-1.53,4-.47,5.67,4.56-.22,5.3,1.58-3.07,2.88-2.71,4.72,4.33,1.49,4.3,3.37c0,2.07-4,1.61-4.43,3.63s2.91,2.56,2.69,4.61-3.59,1.79-3.6,3.78,3.59,2,3.6,4-3.58,2-3.55,4,3.31,1.7,3.63,3.66-2.89,2.66-2.29,4.45,5.23,1.83,4.6,3.62-4.27-1.06-5.86,0,.37,3-.71,4.61c-1.28,1.85-3.83.64-4.45,2.79s3.33,5.29,1.37,6.38-2.4-3.94-4.47-4.6-3.13,2.76-5.21,2.13c-1.49-.45-.48-3.89-2-4.32s-2.15,2.83-3.7,2.66c-2-.23-2.57-4.12-4.48-3.43C538.2,387.15,538,390.59,536.33,389.36Z"/><circle class="cls-7" cx="501.71" cy="281.8" r="53.24"/><path class="cls-11" d="M513.18,271c-2.79,11.71,14.9,17.17,24.89,13.77s15.05-15.09,11.3-26.1S528.73,234,524.48,244.93C523.51,247.44,514.09,267.23,513.18,271Z"/><ellipse class="cls-16" cx="538.45" cy="263.61" rx="12.15" ry="12.93" transform="translate(-26.67 63.47) rotate(-6.58)"/><ellipse class="cls-13" cx="541.86" cy="260.76" rx="6.75" ry="6.34" transform="translate(-26.32 63.84) rotate(-6.58)"/><path class="cls-14" d="M556.22,293.67l2.66-6.39a3.52,3.52,0,0,0-3.66-4.85l-6.71.77a3.52,3.52,0,0,0-2.45,5.56l4,5.62A3.52,3.52,0,0,0,556.22,293.67Z"/><circle class="cls-7" cx="544.74" cy="305.26" r="10.21"/><polygon class="cls-7" points="454.25 210.61 452.65 215.8 457.99 216.8 456.68 222.07 462.06 222.76 461.08 228.09 466.5 228.42 465.9 233.82 471.32 233.72 471.22 239.14 476.59 238.46 477.2 243.85 482.37 242.26 484.29 247.34 488.43 243.97 492.95 246.8 492.87 241.46 497.89 239.64 494.51 235.39 498.54 231.78 494.23 228.48 497.58 224.22 492.87 221.52 495.75 216.92 490.82 214.66 493.33 209.84 488.25 207.94 490.43 202.97 485.24 201.38 487.13 196.29 481.85 194.99 483.46 189.81 478.12 188.8 479.43 183.54 474.05 182.85 475.03 177.51 469.61 177.18 470.21 171.79 464.79 171.89 464.89 166.47 459.51 167.15 458.9 161.75 453.74 163.34 451.82 158.26 447.68 161.63 443.15 158.81 443.24 164.15 438.22 165.97 441.6 170.22 437.57 173.83 441.88 177.13 438.53 181.39 443.24 184.09 440.36 188.69 445.29 190.95 442.78 195.76 447.86 197.67 445.68 202.64 450.87 204.23 448.98 209.32 454.25 210.61"/><ellipse class="cls-2" cx="473.2" cy="200.79" rx="5.75" ry="26.78" transform="translate(-37.52 259.13) rotate(-29.51)"/><path class="cls-15" d="M546.13,315.06c-7.2,0-22.27,5.72-23.2-9.8"/><polygon class="cls-1" points="679.55 136.15 679.47 141.23 684.4 139.99 684.57 145.07 689.43 143.57 689.87 148.64 694.63 146.87 695.39 151.9 700.02 149.8 701.17 154.75 705.58 152.23 707.3 157.02 711.27 153.87 713.99 158.16 716.54 153.87 721.27 155.42 718.89 151.04 722.65 147.75 717.92 145.85 720.3 141.38 715.28 140.56 716.96 135.77 711.88 135.54 713.1 130.6 708.02 130.78 708.9 125.77 703.84 126.26 704.42 121.21 699.4 121.97 699.72 116.89 694.74 117.9 694.82 112.81 689.88 114.05 689.72 108.97 684.86 110.47 684.42 105.4 679.65 107.17 678.9 102.14 674.27 104.24 673.12 99.29 668.71 101.81 666.99 97.02 663.02 100.17 660.29 95.88 657.74 100.17 653.01 98.63 655.39 103 651.64 106.29 656.36 108.19 653.98 112.67 659 113.48 657.33 118.28 662.4 118.5 661.18 123.44 666.26 123.26 665.39 128.27 670.45 127.78 669.86 132.83 674.89 132.07 674.56 137.15 679.55 136.15"/><ellipse class="cls-2" cx="689.09" cy="119.85" rx="5.75" ry="26.78" transform="translate(156.22 572.9) rotate(-50.24)"/><rect class="cls-3" x="736.99" y="231.97" width="4.43" height="8.11"/><path class="cls-4" d="M603.85,328.46c0,1.52-3.84,3.36-3.58,4.82s4.5,1.9,5,3.3-2.46,4.45-1.72,5.75,4.88.27,5.83,1.43-.9,5,.23,6,4.72-1.27,6-.45.64,5,2,5.65,4.14-2.61,5.6-2.18,2.05,4.63,3.56,4.84,3.23-3.67,4.76-3.67,3.3,3.87,4.76,3.67,2.14-4.43,3.56-4.84,4.25,2.8,5.6,2.18.78-4.85,2-5.65,4.88,1.44,6,.45-.72-4.84.23-6,5.09-.14,5.83-1.44-2.23-4.34-1.72-5.75,4.75-1.81,5-3.3-3.58-3.3-3.58-4.82,3.84-3.36,3.58-4.82-4.5-1.9-5-3.3,2.46-4.45,1.72-5.75-4.88-.27-5.83-1.43.9-5-.23-6-4.72,1.27-6,.45-.64-5-2-5.65-4.14,2.61-5.6,2.18-2.05-4.63-3.56-4.84-3.23,3.67-4.76,3.67-3.3-3.87-4.76-3.67-2.14,4.43-3.56,4.84-4.25-2.8-5.6-2.18-.78,4.85-2,5.65-4.88-1.44-6-.45.72,4.84-.23,6-5.09.14-5.83,1.44,2.23,4.34,1.72,5.75-4.75,1.81-5,3.3S603.85,326.93,603.85,328.46Z"/><path class="cls-5" d="M603.85,328.46c0,1.52-3.84,3.36-3.58,4.82s4.5,1.9,5,3.3-2.46,4.45-1.72,5.75,4.88.27,5.83,1.43-.9,5,.23,6,4.72-1.27,6-.45.64,5,2,5.65,4.14-2.61,5.6-2.18,2.05,4.63,3.56,4.84,3.23-3.67,4.76-3.67,3.3,3.87,4.76,3.67,2.14-4.43,3.56-4.84,4.25,2.8,5.6,2.18.78-4.85,2-5.65,4.88,1.44,6,.45-.72-4.84.23-6,5.09-.14,5.83-1.44-2.23-4.34-1.72-5.75,4.75-1.81,5-3.3-3.58-3.3-3.58-4.82,3.84-3.36,3.58-4.82-4.5-1.9-5-3.3,2.46-4.45,1.72-5.75-4.88-.27-5.83-1.43.9-5-.23-6-4.72,1.27-6,.45-.64-5-2-5.65-4.14,2.61-5.6,2.18-2.05-4.63-3.56-4.84-3.23,3.67-4.76,3.67-3.3-3.87-4.76-3.67-2.14,4.43-3.56,4.84-4.25-2.8-5.6-2.18-.78,4.85-2,5.65-4.88-1.44-6-.45.72,4.84-.23,6-5.09.14-5.83,1.44,2.23,4.34,1.72,5.75-4.75,1.81-5,3.3S603.85,326.93,603.85,328.46Z"/><rect class="cls-6" x="738.32" y="274" width="21.75" height="67.9" rx="10.87" ry="10.87" transform="translate(-38.75 495.76) rotate(-35.75)"/><path class="cls-7" d="M644.05,305.6c0,.58-6,1.23-6,1.81s6,.92,6.06,1.49-5.92,1.54-5.87,2.12,6.07.6,6.13,1.17-5.83,1.85-5.75,2.42,6.1.27,6.19.84-5.72,2.16-5.62,2.73,6.1-.05,6.22.51-5.6,2.47-5.46,3,6.09-.38,6.24.17-5.46,2.76-5.29,3.31,6.06-.71,6.24-.16-5.3,3.06-5.1,3.6,6-1,6.22-.5-5.13,3.34-4.9,3.87,5.95-1.36,6.19-.84-4.94,3.61-4.68,4.13,5.86-1.68,6.13-1.17-4.73,3.88-4.45,4.38,5.76-2,6.06-1.51-4.51,4.13-4.21,4.61,5.65-2.31,6-1.84-4.28,4.37-3.95,4.84,5.51-2.62,5.86-2.16-4,4.6-3.67,5,5.36-2.92,5.73-2.48-3.77,4.81-3.39,5.24,5.19-3.21,5.58-2.79-3.5,5-3.09,5.42,5-3.5,5.42-3.1-3.22,5.2-2.79,5.59,4.8-3.77,5.24-3.4-2.92,5.38-2.47,5.73,4.58-4,5-3.69-2.61,5.53-2.14,5.87,4.34-4.29,4.82-4-2.29,5.67-1.8,6,4.08-4.53,4.58-4.24-2,5.8-1.45,6.07,3.82-4.76,4.33-4.5-1.62,5.9-1.1,6.15,3.53-5,4.06-4.74-1.27,6-.74,6.2,3.23-5.17,3.77-5-.92,6-.37,6.23,2.92-5.35,3.47-5.19-.56,6.09,0,6.24,2.6-5.52,3.16-5.38-.19,6.11.37,6.23,2.27-5.66,2.84-5.56.17,6.11.74,6.2,1.93-5.79,2.5-5.72.53,6.09,1.1,6.14,1.58-5.89,2.16-5.86.89,6.05,1.46,6.07,1.24-6,1.81-6,1.24,6,1.81,6,.89-6,1.46-6.07,1.59,5.91,2.16,5.86.53-6.08,1.1-6.14,1.93,5.8,2.5,5.72.17-6.1.74-6.2,2.27,5.68,2.84,5.56-.19-6.1.37-6.23,2.61,5.53,3.16,5.38-.55-6.08,0-6.24,2.93,5.37,3.47,5.19-.91-6-.37-6.23,3.24,5.19,3.77,5-1.26-6-.74-6.2,3.54,5,4.06,4.74-1.61-5.88-1.1-6.15,3.82,4.77,4.33,4.5-1.95-5.78-1.45-6.07,4.09,4.54,4.58,4.24-2.28-5.66-1.8-6,4.35,4.3,4.82,4-2.6-5.52-2.14-5.87,4.59,4,5,3.69-2.91-5.36-2.47-5.73,4.81,3.78,5.24,3.4-3.21-5.19-2.79-5.59,5,3.51,5.42,3.1-3.49-5-3.09-5.42,5.2,3.22,5.58,2.79-3.76-4.8-3.39-5.24,5.37,2.93,5.73,2.48-4-4.59-3.68-5,5.52,2.63,5.86,2.16-4.27-4.36-3.95-4.84,5.66,2.32,6,1.83-4.5-4.12-4.21-4.61,5.78,2,6.06,1.51-4.72-3.87-4.45-4.38,5.88,1.69,6.13,1.17-4.92-3.6-4.68-4.13,6,1.37,6.19.84-5.11-3.33-4.9-3.87,6,1,6.22.5-5.29-3-5.1-3.59,6.07.71,6.24.16-5.44-2.76-5.29-3.31,6.1.39,6.24-.17-5.58-2.46-5.46-3,6.12.06,6.22-.51-5.71-2.16-5.62-2.73,6.11-.27,6.19-.84-5.81-1.85-5.75-2.42,6.09-.59,6.13-1.17-5.9-1.54-5.87-2.12,6-.91,6.06-1.49-6-1.23-6-1.81,6-1.23,6-1.81-6-.92-6.06-1.49,5.92-1.54,5.87-2.12-6.07-.6-6.13-1.17,5.83-1.85,5.75-2.42-6.1-.27-6.19-.84,5.72-2.16,5.62-2.73-6.1.05-6.22-.51,5.6-2.47,5.46-3-6.09.38-6.24-.17,5.46-2.76,5.29-3.31-6.06.71-6.24.16,5.3-3.06,5.1-3.6-6,1-6.22.5,5.13-3.34,4.9-3.87-5.95,1.36-6.19.84,4.94-3.61,4.68-4.13-5.86,1.68-6.13,1.17,4.73-3.88,4.45-4.38-5.76,2-6.06,1.51,4.51-4.13,4.21-4.61-5.65,2.31-6,1.84,4.28-4.37,3.95-4.84-5.51,2.62-5.86,2.16,4-4.6,3.67-5-5.36,2.92-5.73,2.48,3.77-4.81,3.39-5.24-5.19,3.21-5.58,2.79,3.5-5,3.09-5.42-5,3.5-5.42,3.1,3.22-5.2,2.79-5.59-4.8,3.77-5.24,3.4,2.92-5.38,2.47-5.73-4.58,4-5,3.69,2.61-5.53,2.14-5.87-4.34,4.29-4.82,4,2.29-5.67,1.8-6-4.08,4.53-4.58,4.24,2-5.8,1.45-6.07-3.82,4.76-4.33,4.5,1.62-5.9,1.1-6.15-3.53,5-4.06,4.74,1.27-6,.74-6.2-3.23,5.17-3.77,5,.92-6,.37-6.23-2.92,5.35-3.47,5.19.56-6.09,0-6.24-2.6,5.52-3.16,5.38.19-6.11-.37-6.23-2.27,5.66-2.84,5.56-.17-6.11-.74-6.2-1.93,5.79-2.5,5.72-.53-6.09-1.1-6.14-1.58,5.89-2.16,5.86-.89-6.05-1.46-6.07-1.24,6-1.81,6-1.24-6-1.81-6-.89,6-1.46,6.07-1.59-5.91-2.16-5.86-.53,6.08-1.1,6.14-1.93-5.8-2.5-5.72-.17,6.1-.74,6.2-2.27-5.68-2.84-5.56.19,6.1-.37,6.23-2.61-5.53-3.16-5.38.55,6.08,0,6.24-2.93-5.37-3.47-5.19.91,6,.37,6.23-3.24-5.19-3.77-5,1.26,6,.74,6.2-3.54-5-4.06-4.74,1.61,5.88,1.1,6.15-3.82-4.77-4.33-4.5,1.95,5.78,1.45,6.07-4.09-4.54-4.58-4.24,2.28,5.66,1.8,6-4.35-4.3-4.82-4,2.6,5.52,2.14,5.87-4.59-4-5-3.69,2.91,5.36,2.47,5.73-4.81-3.78-5.24-3.4,3.21,5.19,2.79,5.59-5-3.51-5.42-3.1,3.49,5,3.09,5.42-5.2-3.22-5.58-2.79,3.76,4.8,3.39,5.24-5.37-2.93-5.73-2.48,4,4.59,3.68,5-5.52-2.63-5.86-2.16,4.27,4.36,3.95,4.84-5.66-2.32-6-1.83,4.5,4.12,4.21,4.61-5.78-2-6.06-1.51,4.72,3.87,4.45,4.38-5.88-1.69-6.13-1.17,4.92,3.6,4.68,4.13-6-1.37-6.19-.84,5.11,3.33,4.9,3.87-6-1-6.22-.5,5.29,3,5.1,3.59-6.07-.71-6.24-.16,5.44,2.76,5.29,3.31-6.1-.39-6.24.17,5.58,2.46,5.46,3-6.12-.06-6.22.51,5.71,2.16,5.62,2.73-6.11.27-6.19.84,5.81,1.85,5.75,2.42-6.09.59-6.13,1.17,5.9,1.54,5.87,2.12-6,.91-6.06,1.49S644.05,305,644.05,305.6Z"/><ellipse class="cls-6" cx="686.66" cy="343.79" rx="48.42" ry="39.74"/><path class="cls-8" d="M712.61,419.15c-3.47.7-7.28-1.61-10.88-6.1-5.21-6.5-10-17.55-12.6-30.55-4.46-22-1.17-41.18,7.34-42.9s19,14.68,23.48,36.65S721.12,417.43,712.61,419.15Z"/><rect class="cls-9" x="727.67" y="294.12" width="21.75" height="57.59" rx="10.87" ry="10.87" transform="translate(-66.82 356.15) rotate(-25.98)"/><path class="cls-10" d="M732.13,307.56c-1.6-1.2,1.29-4.3,0-5.81s-4.16,1-5.5-.46,1.47-4.05.12-5.51-3.75,1.14-5.31-.1.38-4.18-1.38-5.19-5.14,2.36-6.15.6,3.52-3.2,3.45-5.39-3.55-1.82-3.94-4c-.28-1.58,3.07-2.54,2.48-4s-4.53-.31-4.86-1.88,3.74-2.18,3.67-3.9-4.4-2.32-3.87-4,4.4.39,5.45-1-2-3.62-1-5,4.21.6,5.27-1-2.19-4.41-.76-5.67c1.66-1.46,4.12,2.08,6.06,1s.27-4.94,2.37-5.62,3.15,3.41,5.45,3.09,1.67-3.95,3.94-4.42c1.66-.34,2.57,3.22,4.19,2.72s.48-4.15,2.1-4.66c2-.62,3.13,3,5.11,2.4s1.78-5.42,3.8-5-.33,4.65,1.12,6.06,4.35-1.34,5.67.18-1.92,3.88-.84,5.37,4.69-.62,5.46,1.05-3.18,3-2.76,4.79,4.29,1,4.61,2.75c.35,2-3.55,2.54-3.31,4.51s4.34,1.75,4.31,3.74-4.12,1.69-4.43,3.7,2.89,2,3.18,4-2.76,3-1.88,4.93,5,.61,5.4,2.69-3.94,2.24-4.08,4.24,4.17,3,3.43,4.85-4.54-.38-5.81,1.17,1.7,4.63.11,5.84-3.62-2.58-5.35-1.86-.14,4-1.77,4.89-3.66-2.09-5.28-.94.25,5.29-1.68,5.73-2.08-4.09-4-4.41-2.91,3.67-4.81,3.08-.9-5.26-2.92-5.46C734.66,305.58,733.76,308.78,732.13,307.56Z"/><circle class="cls-7" cx="698.39" cy="199" r="53.24"/><path class="cls-11" d="M709.86,188.23c-2.79,11.71,14.9,17.17,24.89,13.77s15.05-15.09,11.3-26.1-20.64-24.71-24.89-13.77C720.19,164.65,710.77,184.43,709.86,188.23Z"/><ellipse class="cls-17" cx="735.13" cy="180.82" rx="12.15" ry="12.93" transform="translate(-15.88 85.47) rotate(-6.58)"/><ellipse class="cls-13" cx="738.54" cy="177.97" rx="6.75" ry="6.34" transform="translate(-15.53 85.84) rotate(-6.58)"/><path class="cls-14" d="M752.9,210.87l2.66-6.39a3.52,3.52,0,0,0-3.66-4.85l-6.71.77a3.52,3.52,0,0,0-2.45,5.56l4,5.62A3.52,3.52,0,0,0,752.9,210.87Z"/><circle class="cls-7" cx="741.42" cy="222.46" r="10.21"/><polygon class="cls-7" points="649.11 139.79 649.77 145.18 655.05 143.91 656.01 149.26 661.2 147.68 662.49 152.95 667.57 151.03 669.23 156.2 674.14 153.89 676.26 158.88 680.89 156.06 683.65 160.73 687.72 157.17 691.54 161.02 693.94 156.25 699.23 156.97 696.96 152.14 700.8 148.43 695.98 145.93 698.17 140.98 692.89 139.74 694.21 134.48 688.81 133.94 689.55 128.57 684.13 128.52 684.44 123.1 679.03 123.44 678.99 118.02 673.6 118.69 673.24 113.27 667.9 114.25 667.24 108.86 661.96 110.13 661 104.79 655.8 106.36 654.52 101.09 649.44 103.01 647.78 97.84 642.87 100.15 640.75 95.16 636.12 97.98 633.36 93.31 629.29 96.88 625.47 93.02 623.07 97.79 617.78 97.07 620.05 101.9 616.21 105.62 621.03 108.12 618.83 113.06 624.11 114.31 622.8 119.56 628.2 120.1 627.45 125.47 632.88 125.52 632.56 130.94 637.98 130.6 638.02 136.02 643.41 135.35 643.77 140.77 649.11 139.79"/><ellipse class="cls-2" cx="662.38" cy="123.08" rx="5.75" ry="26.78" transform="translate(170.76 583.73) rotate(-53.66)"/><path class="cls-15" d="M742.81,232.26c-7.2,0-22.27,5.72-23.2-9.8"/><polygon class="cls-1" points="897.07 215.55 894.36 219.85 899.22 221.35 896.72 225.78 901.65 227.03 899.39 231.59 904.39 232.55 902.42 237.24 907.46 237.85 905.87 242.68 910.95 242.82 909.93 247.8 914.96 247.17 915.05 252.26 919.46 249.92 922.7 253.69 922.94 248.72 927.86 247.86 924.81 243.79 929.17 241.2 925.31 237.89 929.23 234.67 925.01 231.83 928.62 228.25 924.19 225.76 927.54 221.94 922.96 219.73 926.09 215.72 921.4 213.75 924.31 209.58 919.53 207.85 922.24 203.55 917.38 202.05 919.88 197.62 914.95 196.37 917.21 191.81 912.22 190.85 914.18 186.16 909.14 185.55 910.73 180.72 905.65 180.58 906.67 175.59 901.64 176.23 901.55 171.14 897.14 173.48 893.9 169.7 893.66 174.68 888.74 175.54 891.79 179.61 887.43 182.2 891.29 185.5 887.37 188.73 891.59 191.57 887.98 195.15 892.41 197.64 889.06 201.46 893.64 203.67 890.51 207.68 895.2 209.64 892.29 213.81 897.07 215.55"/><ellipse class="cls-2" cx="913.69" cy="206.58" rx="5.75" ry="26.78" transform="translate(-17.61 307.54) rotate(-18.93)"/><rect class="cls-3" x="941.82" y="324.41" width="4.43" height="8.11"/><path class="cls-4" d="M808.68,420.89c0,1.52-3.84,3.36-3.58,4.82s4.5,1.9,5,3.3-2.46,4.45-1.72,5.75,4.88.27,5.83,1.43-.9,5,.23,6,4.72-1.27,6-.45.64,5,2,5.65,4.14-2.61,5.6-2.18,2.05,4.63,3.56,4.84,3.23-3.67,4.76-3.67,3.3,3.87,4.76,3.67,2.14-4.43,3.56-4.84,4.25,2.8,5.6,2.18.78-4.85,2-5.65,4.88,1.44,6,.45-.72-4.84.23-6,5.09-.14,5.83-1.44-2.23-4.34-1.72-5.75,4.75-1.81,5-3.3-3.58-3.3-3.58-4.82,3.84-3.36,3.58-4.82-4.5-1.9-5-3.3,2.46-4.45,1.72-5.75-4.88-.27-5.83-1.43.9-5-.23-6-4.72,1.27-6,.45-.64-5-2-5.65-4.14,2.61-5.6,2.18-2.05-4.63-3.56-4.84-3.23,3.67-4.76,3.67-3.3-3.87-4.76-3.67-2.14,4.43-3.56,4.84-4.25-2.8-5.6-2.18-.78,4.85-2,5.65-4.88-1.44-6-.45.72,4.84-.23,6-5.09.14-5.83,1.44,2.23,4.34,1.72,5.75-4.75,1.81-5,3.3S808.68,419.37,808.68,420.89Z"/><path class="cls-5" d="M808.68,420.89c0,1.52-3.84,3.36-3.58,4.82s4.5,1.9,5,3.3-2.46,4.45-1.72,5.75,4.88.27,5.83,1.43-.9,5,.23,6,4.72-1.27,6-.45.64,5,2,5.65,4.14-2.61,5.6-2.18,2.05,4.63,3.56,4.84,3.23-3.67,4.76-3.67,3.3,3.87,4.76,3.67,2.14-4.43,3.56-4.84,4.25,2.8,5.6,2.18.78-4.85,2-5.65,4.88,1.44,6,.45-.72-4.84.23-6,5.09-.14,5.83-1.44-2.23-4.34-1.72-5.75,4.75-1.81,5-3.3-3.58-3.3-3.58-4.82,3.84-3.36,3.58-4.82-4.5-1.9-5-3.3,2.46-4.45,1.72-5.75-4.88-.27-5.83-1.43.9-5-.23-6-4.72,1.27-6,.45-.64-5-2-5.65-4.14,2.61-5.6,2.18-2.05-4.63-3.56-4.84-3.23,3.67-4.76,3.67-3.3-3.87-4.76-3.67-2.14,4.43-3.56,4.84-4.25-2.8-5.6-2.18-.78,4.85-2,5.65-4.88-1.44-6-.45.72,4.84-.23,6-5.09.14-5.83,1.44,2.23,4.34,1.72,5.75-4.75,1.81-5,3.3S808.68,419.37,808.68,420.89Z"/><rect class="cls-6" x="943.15" y="366.44" width="21.75" height="67.9" rx="10.87" ry="10.87" transform="translate(-54.16 632.86) rotate(-35.75)"/><path class="cls-7" d="M848.89,398c0,.58-6,1.23-6,1.81s6,.92,6.06,1.49-5.92,1.54-5.87,2.12,6.07.6,6.13,1.17-5.83,1.85-5.75,2.42,6.1.27,6.19.84-5.72,2.16-5.62,2.73,6.1-.05,6.22.51-5.6,2.47-5.46,3,6.09-.38,6.24.17-5.46,2.76-5.29,3.31,6.06-.71,6.24-.16-5.3,3.06-5.1,3.6,6-1,6.22-.5-5.13,3.34-4.9,3.87,5.95-1.36,6.19-.84-4.94,3.61-4.68,4.13,5.86-1.68,6.13-1.17-4.73,3.88-4.45,4.38,5.76-2,6.06-1.51-4.51,4.13-4.21,4.61,5.65-2.31,6-1.84-4.28,4.37-3.95,4.84,5.51-2.62,5.86-2.16-4,4.6-3.67,5,5.36-2.92,5.73-2.48-3.77,4.81-3.39,5.24,5.19-3.21,5.58-2.79-3.5,5-3.09,5.42,5-3.5,5.42-3.1-3.22,5.2-2.79,5.59,4.8-3.77,5.24-3.4-2.92,5.38-2.47,5.73,4.58-4,5-3.69-2.61,5.53-2.14,5.87,4.34-4.29,4.82-4-2.29,5.67-1.8,6,4.08-4.53,4.58-4.24-2,5.8-1.45,6.07,3.82-4.76,4.33-4.5-1.62,5.9-1.1,6.15,3.53-5,4.06-4.74-1.27,6-.74,6.2,3.23-5.17,3.77-5-.92,6-.37,6.23,2.92-5.35,3.47-5.19-.56,6.09,0,6.24,2.6-5.52,3.16-5.38-.19,6.11.37,6.23,2.27-5.66,2.84-5.56.17,6.11.74,6.2,1.93-5.79,2.5-5.72.53,6.09,1.1,6.14,1.58-5.89,2.16-5.86.89,6.05,1.46,6.07,1.24-6,1.81-6,1.24,6,1.81,6,.89-6,1.46-6.07,1.59,5.91,2.16,5.86.53-6.08,1.1-6.14,1.93,5.8,2.5,5.72.17-6.1.74-6.2,2.27,5.68,2.84,5.56-.19-6.1.37-6.23,2.61,5.53,3.16,5.38-.55-6.08,0-6.24,2.93,5.37,3.47,5.19-.91-6-.37-6.23,3.24,5.19,3.77,5-1.26-6-.74-6.2,3.54,5,4.06,4.74-1.61-5.88-1.1-6.15,3.82,4.77,4.33,4.5-1.95-5.78-1.45-6.07,4.09,4.54,4.58,4.24-2.28-5.66-1.8-6,4.35,4.3,4.82,4-2.6-5.52-2.14-5.87,4.59,4,5,3.69-2.91-5.36-2.47-5.73,4.81,3.78,5.24,3.4-3.21-5.19-2.79-5.59,5,3.51,5.42,3.1-3.49-5-3.09-5.42,5.2,3.22,5.58,2.79-3.76-4.8-3.39-5.24,5.37,2.93,5.73,2.48-4-4.59-3.68-5,5.52,2.63,5.86,2.16-4.27-4.36-3.95-4.84,5.66,2.32,6,1.83-4.5-4.12-4.21-4.61,5.78,2,6.06,1.51-4.72-3.87-4.45-4.38,5.88,1.69,6.13,1.17-4.92-3.6-4.68-4.13,6,1.37,6.19.84-5.11-3.33-4.9-3.87,6,1,6.22.5-5.29-3-5.1-3.59,6.07.71,6.24.16-5.44-2.76-5.29-3.31,6.1.39,6.24-.17-5.58-2.46-5.46-3,6.12.06,6.22-.51-5.71-2.16-5.62-2.73,6.11-.27,6.19-.84-5.81-1.85-5.75-2.42,6.09-.59,6.13-1.17-5.9-1.54-5.87-2.12,6-.91,6.06-1.49-6-1.23-6-1.81,6-1.23,6-1.81-6-.92-6.06-1.49,5.92-1.54,5.87-2.12-6.07-.6-6.13-1.17,5.83-1.85,5.75-2.42-6.1-.27-6.19-.84,5.72-2.16,5.62-2.73-6.1.05-6.22-.51,5.6-2.47,5.46-3-6.09.38-6.24-.17,5.46-2.76,5.29-3.31-6.06.71-6.24.16,5.3-3.06,5.1-3.6-6,1-6.22.5,5.13-3.34,4.9-3.87-5.95,1.36-6.19.84,4.94-3.61,4.68-4.13-5.86,1.68-6.13,1.17,4.73-3.88,4.45-4.38-5.76,2-6.06,1.51,4.51-4.13,4.21-4.61-5.65,2.31-6,1.84,4.28-4.37,3.95-4.84-5.51,2.62-5.86,2.16,4-4.6,3.67-5-5.36,2.92-5.73,2.48,3.77-4.81,3.39-5.24-5.19,3.21-5.58,2.79,3.5-5,3.09-5.42-5,3.5-5.42,3.1,3.22-5.2,2.79-5.59-4.8,3.77-5.24,3.4,2.92-5.38,2.47-5.73-4.58,4-5,3.69,2.61-5.53,2.14-5.87-4.34,4.29-4.82,4,2.29-5.67,1.8-6-4.08,4.53-4.58,4.24,2-5.8,1.45-6.07-3.82,4.76-4.33,4.5,1.62-5.9,1.1-6.15-3.53,5-4.06,4.74,1.27-6,.74-6.2-3.23,5.17-3.77,5,.92-6,.37-6.23-2.92,5.35-3.47,5.19.56-6.09,0-6.24-2.6,5.52-3.16,5.38.19-6.11-.37-6.23-2.27,5.66-2.84,5.56-.17-6.11-.74-6.2-1.93,5.79-2.5,5.72-.53-6.09-1.1-6.14-1.58,5.89-2.16,5.86-.89-6.05-1.46-6.07-1.24,6-1.81,6-1.24-6-1.81-6-.89,6-1.46,6.07-1.59-5.91-2.16-5.86-.53,6.08-1.1,6.14-1.93-5.8-2.5-5.72-.17,6.1-.74,6.2-2.27-5.68-2.84-5.56.19,6.1-.37,6.23-2.61-5.53-3.16-5.38.55,6.08,0,6.24-2.93-5.37-3.47-5.19.91,6,.37,6.23-3.24-5.19-3.77-5,1.26,6,.74,6.2-3.54-5-4.06-4.74,1.61,5.88,1.1,6.15-3.82-4.77-4.33-4.5,1.95,5.78,1.45,6.07-4.09-4.54-4.58-4.24,2.28,5.66,1.8,6-4.35-4.3-4.82-4,2.6,5.52,2.14,5.87-4.59-4-5-3.69,2.91,5.36,2.47,5.73-4.81-3.78-5.24-3.4,3.21,5.19,2.79,5.59-5-3.51-5.42-3.1,3.49,5,3.09,5.42-5.2-3.22-5.58-2.79,3.76,4.8,3.39,5.24-5.37-2.93-5.73-2.48,4,4.59,3.68,5-5.52-2.63-5.86-2.16,4.27,4.36,3.95,4.84-5.66-2.32-6-1.83,4.5,4.12,4.21,4.61-5.78-2-6.06-1.51,4.72,3.87,4.45,4.38-5.88-1.69-6.13-1.17,4.92,3.6,4.68,4.13-6-1.37-6.19-.84,5.11,3.33,4.9,3.87-6-1-6.22-.5,5.29,3,5.1,3.59-6.07-.71-6.24-.16,5.44,2.76,5.29,3.31-6.1-.39-6.24.17,5.58,2.46,5.46,3-6.12-.06-6.22.51,5.71,2.16,5.62,2.73-6.11.27-6.19.84,5.81,1.85,5.75,2.42-6.09.59-6.13,1.17,5.9,1.54,5.87,2.12-6,.91-6.06,1.49S848.89,397.46,848.89,398Z"/><ellipse class="cls-6" cx="891.49" cy="436.23" rx="48.42" ry="39.74"/><path class="cls-8" d="M922.08,510.36c-3.37,1.11-7.42-.74-11.52-4.77-5.94-5.84-12-16.25-16.12-28.85-7-21.29-6-40.75,2.22-43.47s20.62,12.34,27.64,33.62S930.33,507.64,922.08,510.36Z"/><rect class="cls-9" x="932.5" y="386.56" width="21.75" height="57.59" rx="10.87" ry="10.87" transform="translate(-86.62 455.22) rotate(-25.98)"/><path class="cls-10" d="M940.09,396.38c-1.69-1.44-.42-3.81-2.55-4.41s-3.84,3.32-5.74,2.17c-1.7-1,1-4.31-.28-5.81s-4.43.93-5.56-.71,2.17-3.79,1.17-5.64-3.41,0-4.92-1.49.27-3.88-1.55-4.75-5.35,2.53-6.14.68,4.08-2.15,4.68-4.12-2.78-2.79-2.41-4.8c.29-1.57,3.74-1.19,3.79-2.78s-3.8-1.91-3.59-3.49c.24-1.8,4-1.12,4.44-2.89s-3.58-3.48-2.57-5,4.09,1.54,5.59.51-.51-4.44,1.11-5.26c2-1,3.56,2.64,5.64,1.87s.69-3.91,2.66-4.93,3.74,1.93,5.58.68-.14-4.89,1.91-5.76c1.67-.7,2.8,3.27,4.59,3s1.41-4.17,3.22-4.25,1.73,3.84,3.52,4,2.38-3.82,4.13-3.41.63,4.23,2.38,4.93,3.61-2.91,5.19-1.89-.82,4.29.64,5.66,4.88-1.26,5.83.5-3.13,3.18-2.78,5.16,4.18,1.47,4.37,3.47-3.68,2.19-3.65,4.17,3.8,2,3.78,4-3.79,1.91-3.86,3.9,3.57,2.06,3.57,4.06-3.64,2.05-3.57,4,3.8,1.86,3.86,3.85-3.68,2-3.64,3.91,4.26,2.47,3.72,4.3-4.4.05-5.46,1.66,2.09,4.33.66,5.62-3.74-2.2-5.4-1.36,0,4.08-1.58,5-3.5-2.26-5.17-1.29-.06,4.85-1.93,5.35-2.56-3.63-4.63-3.6-3.41,4.6-5.12,3.46,1.9-4.69.71-6.57C943.67,396.29,941.78,397.82,940.09,396.38Z"/><circle class="cls-7" cx="903.22" cy="291.44" r="53.24"/><path class="cls-11" d="M914.7,280.67c-2.79,11.71,14.9,17.17,24.89,13.77s15.05-15.09,11.3-26.1S930.25,243.63,926,254.57C925,257.09,915.6,276.87,914.7,280.67Z"/><ellipse class="cls-18" cx="939.97" cy="273.26" rx="12.15" ry="12.93" transform="translate(-25.13 109.56) rotate(-6.58)"/><ellipse class="cls-13" cx="943.38" cy="270.41" rx="6.75" ry="6.34" transform="translate(-24.78 109.94) rotate(-6.58)"/><path class="cls-14" d="M957.73,303.31l2.66-6.39a3.52,3.52,0,0,0-3.66-4.85l-6.71.77a3.52,3.52,0,0,0-2.45,5.56l4,5.62A3.52,3.52,0,0,0,957.73,303.31Z"/><circle class="cls-7" cx="946.25" cy="314.9" r="10.21"/><polygon class="cls-7" points="855.38 219.53 853.51 224.62 858.78 225.9 857.2 231.09 862.54 232.06 861.28 237.34 866.67 237.95 865.8 243.31 871.22 243.49 870.83 248.9 876.23 248.5 876.56 253.92 881.8 252.6 883.45 257.78 887.76 254.63 892.14 257.69 892.33 252.35 897.43 250.79 894.29 246.37 898.5 242.98 894.37 239.46 897.94 235.38 893.38 232.43 896.49 227.99 891.69 225.48 894.44 220.8 889.47 218.63 891.91 213.79 886.81 211.93 888.96 206.94 883.76 205.37 885.63 200.27 880.36 198.99 881.94 193.8 876.6 192.83 877.86 187.56 872.47 186.94 873.35 181.59 867.92 181.41 868.31 175.99 862.91 176.39 862.58 170.97 857.34 172.29 855.69 167.12 851.38 170.27 847.01 167.21 846.82 172.55 841.71 174.1 844.85 178.52 840.64 181.92 844.77 185.44 841.21 189.52 845.76 192.46 842.65 196.9 847.46 199.42 844.7 204.09 849.67 206.26 847.24 211.11 852.34 212.97 850.18 217.95 855.38 219.53"/><ellipse class="cls-2" cx="874.82" cy="210.7" rx="5.75" ry="26.78" transform="translate(-2.07 412.62) rotate(-26.51)"/><path class="cls-15" d="M947.65,324.7c-7.2,0-22.27,5.72-23.2-9.8"/><polygon class="cls-1" points="1092.9 301.77 1090.42 306.21 1095.36 307.44 1093.11 312 1098.1 312.98 1096.1 317.65 1101.13 318.34 1099.43 323.13 1104.5 323.46 1103.18 328.37 1108.26 328.23 1107.51 333.26 1112.49 332.36 1112.87 337.43 1117.15 334.85 1120.59 338.44 1120.55 333.47 1125.42 332.33 1122.15 328.44 1126.36 325.61 1122.32 322.52 1126.06 319.09 1121.69 316.49 1125.09 312.71 1120.53 310.47 1123.67 306.47 1118.98 304.52 1121.88 300.34 1117.09 298.64 1119.77 294.31 1114.9 292.84 1117.37 288.4 1112.43 287.17 1114.68 282.61 1109.69 281.63 1111.7 276.96 1106.66 276.27 1108.37 271.48 1103.29 271.14 1104.62 266.24 1099.54 266.38 1100.29 261.35 1095.3 262.25 1094.92 257.18 1090.65 259.76 1087.21 256.17 1087.24 261.14 1082.38 262.27 1085.64 266.18 1081.43 269 1085.47 272.09 1081.73 275.52 1086.11 278.12 1082.7 281.89 1087.26 284.14 1084.12 288.14 1088.82 290.09 1085.92 294.27 1090.71 295.97 1088.03 300.3 1092.9 301.77"/><ellipse class="cls-2" cx="1109" cy="291.9" rx="5.75" ry="26.78" transform="translate(-28.39 438.3) rotate(-22.08)"/><rect class="cls-3" x="1137.42" y="410.01" width="4.43" height="8.11"/><path class="cls-4" d="M1004.28,506.5c0,1.52-3.84,3.36-3.58,4.82s4.5,1.9,5,3.3-2.46,4.45-1.72,5.75,4.88.27,5.83,1.43-.9,5,.23,6,4.72-1.27,6-.45.64,5,2,5.65,4.14-2.61,5.6-2.18,2.05,4.63,3.56,4.84,3.23-3.67,4.76-3.67,3.3,3.87,4.76,3.67,2.14-4.43,3.56-4.84,4.25,2.8,5.6,2.18.78-4.85,2-5.65,4.88,1.44,6,.45-.72-4.84.23-6,5.09-.14,5.83-1.44-2.23-4.34-1.72-5.75,4.75-1.81,5-3.3-3.58-3.3-3.58-4.82,3.84-3.36,3.58-4.82-4.5-1.9-5-3.3,2.46-4.45,1.72-5.75-4.88-.27-5.83-1.43.9-5-.23-6-4.72,1.27-6,.45-.64-5-2-5.65-4.14,2.61-5.6,2.18-2.05-4.63-3.56-4.84S1033.49,481,1032,481s-3.3-3.87-4.76-3.67-2.14,4.43-3.56,4.84-4.25-2.8-5.6-2.18-.78,4.85-2,5.65-4.88-1.44-6-.45.72,4.84-.23,6-5.09.14-5.83,1.44,2.23,4.34,1.72,5.75-4.75,1.81-5,3.3S1004.28,505,1004.28,506.5Z"/><path class="cls-5" d="M1004.28,506.5c0,1.52-3.84,3.36-3.58,4.82s4.5,1.9,5,3.3-2.46,4.45-1.72,5.75,4.88.27,5.83,1.43-.9,5,.23,6,4.72-1.27,6-.45.64,5,2,5.65,4.14-2.61,5.6-2.18,2.05,4.63,3.56,4.84,3.23-3.67,4.76-3.67,3.3,3.87,4.76,3.67,2.14-4.43,3.56-4.84,4.25,2.8,5.6,2.18.78-4.85,2-5.65,4.88,1.44,6,.45-.72-4.84.23-6,5.09-.14,5.83-1.44-2.23-4.34-1.72-5.75,4.75-1.81,5-3.3-3.58-3.3-3.58-4.82,3.84-3.36,3.58-4.82-4.5-1.9-5-3.3,2.46-4.45,1.72-5.75-4.88-.27-5.83-1.43.9-5-.23-6-4.72,1.27-6,.45-.64-5-2-5.65-4.14,2.61-5.6,2.18-2.05-4.63-3.56-4.84S1033.49,481,1032,481s-3.3-3.87-4.76-3.67-2.14,4.43-3.56,4.84-4.25-2.8-5.6-2.18-.78,4.85-2,5.65-4.88-1.44-6-.45.72,4.84-.23,6-5.09.14-5.83,1.44,2.23,4.34,1.72,5.75-4.75,1.81-5,3.3S1004.28,505,1004.28,506.5Z"/><rect class="cls-6" x="1138.75" y="452.04" width="21.75" height="67.9" rx="10.87" ry="10.87" transform="translate(-67.31 763.27) rotate(-35.75)"/><path class="cls-7" d="M1044.49,483.64c0,.58-6,1.23-6,1.81s6,.92,6.06,1.49-5.92,1.54-5.87,2.12,6.07.6,6.13,1.17-5.83,1.85-5.75,2.42,6.1.27,6.19.84-5.72,2.16-5.62,2.73,6.1-.05,6.22.51-5.6,2.47-5.46,3,6.09-.38,6.24.17-5.46,2.76-5.29,3.31,6.06-.71,6.24-.16-5.3,3.06-5.1,3.6,6-1,6.22-.5-5.13,3.34-4.9,3.87,5.95-1.36,6.19-.84-4.94,3.61-4.68,4.13,5.86-1.68,6.13-1.17-4.73,3.88-4.45,4.38,5.76-2,6.06-1.51-4.51,4.13-4.21,4.61,5.65-2.31,6-1.84-4.28,4.37-3.95,4.84,5.51-2.62,5.86-2.16-4,4.6-3.67,5,5.36-2.92,5.73-2.48-3.77,4.81-3.39,5.24,5.19-3.21,5.58-2.79-3.5,5-3.09,5.42,5-3.5,5.42-3.1-3.22,5.2-2.79,5.59,4.8-3.77,5.24-3.4-2.92,5.38-2.47,5.73,4.58-4,5-3.69-2.61,5.53-2.14,5.87,4.34-4.29,4.82-4-2.29,5.67-1.8,6,4.08-4.53,4.58-4.24-2,5.8-1.45,6.07,3.82-4.76,4.33-4.5-1.62,5.9-1.1,6.15,3.53-5,4.06-4.74-1.27,6-.74,6.2,3.23-5.17,3.77-5-.92,6-.37,6.23,2.92-5.35,3.47-5.19-.56,6.09,0,6.24,2.6-5.52,3.16-5.38-.19,6.11.37,6.23,2.27-5.66,2.84-5.56.17,6.11.74,6.2,1.93-5.79,2.5-5.72.53,6.09,1.1,6.14,1.58-5.89,2.16-5.86.89,6.05,1.46,6.07,1.24-6,1.81-6,1.24,6,1.81,6,.89-6,1.46-6.07,1.59,5.91,2.16,5.86.53-6.08,1.1-6.14,1.93,5.8,2.5,5.72.17-6.1.74-6.2,2.27,5.68,2.84,5.56-.19-6.1.37-6.23,2.61,5.53,3.16,5.38-.55-6.08,0-6.24,2.93,5.37,3.47,5.19-.91-6-.37-6.23,3.24,5.19,3.77,5-1.26-6-.74-6.2,3.54,5,4.06,4.74-1.61-5.88-1.1-6.15,3.82,4.77,4.33,4.5-1.95-5.78-1.45-6.07,4.09,4.54,4.58,4.24-2.28-5.66-1.8-6,4.35,4.3,4.82,4-2.6-5.52-2.14-5.87,4.59,4,5,3.69-2.91-5.36-2.47-5.73,4.81,3.78,5.24,3.4-3.21-5.19-2.79-5.59,5,3.51,5.42,3.1-3.49-5-3.09-5.42,5.2,3.22,5.58,2.79-3.76-4.8-3.39-5.24,5.37,2.93,5.73,2.48-4-4.59-3.68-5,5.52,2.63,5.86,2.16-4.27-4.36-3.95-4.84,5.66,2.32,6,1.83-4.5-4.12-4.21-4.61,5.78,2,6.06,1.51-4.72-3.87-4.45-4.38,5.88,1.69,6.13,1.17-4.92-3.6-4.68-4.13,6,1.37,6.19.84-5.11-3.33-4.9-3.87,6,1,6.22.5-5.29-3-5.1-3.59,6.07.71,6.24.16-5.44-2.76-5.29-3.31,6.1.39,6.24-.17-5.58-2.46-5.46-3,6.12.06,6.22-.51-5.71-2.16-5.62-2.73,6.11-.27,6.19-.84-5.81-1.85-5.75-2.42,6.09-.59,6.13-1.17-5.9-1.54-5.87-2.12,6-.91,6.06-1.49-6-1.23-6-1.81,6-1.23,6-1.81-6-.92-6.06-1.49,5.92-1.54,5.87-2.12-6.07-.6-6.13-1.17,5.83-1.85,5.75-2.42-6.1-.27-6.19-.84,5.72-2.16,5.62-2.73-6.1.05-6.22-.51,5.6-2.47,5.46-3-6.09.38-6.24-.17,5.46-2.76,5.29-3.31-6.06.71-6.24.16,5.3-3.06,5.1-3.6-6,1-6.22.5,5.13-3.34,4.9-3.87-5.95,1.36-6.19.84,4.94-3.61,4.68-4.13-5.86,1.68-6.13,1.17,4.73-3.88,4.45-4.38-5.76,2-6.06,1.51,4.51-4.13,4.21-4.61-5.65,2.31-6,1.84,4.28-4.37,3.95-4.84-5.51,2.62-5.86,2.16,4-4.6,3.67-5-5.36,2.92-5.73,2.48,3.77-4.81,3.39-5.24-5.19,3.21-5.58,2.79,3.5-5,3.09-5.42-5,3.5-5.42,3.1,3.22-5.2,2.79-5.59-4.8,3.77-5.24,3.4,2.92-5.38,2.47-5.73-4.58,4-5,3.69,2.61-5.53,2.14-5.87-4.34,4.29-4.82,4,2.29-5.67,1.8-6-4.08,4.53-4.58,4.24,2-5.8,1.45-6.07-3.82,4.76-4.33,4.5,1.62-5.9,1.1-6.15-3.53,5-4.06,4.74,1.27-6,.74-6.2-3.23,5.17-3.77,5,.92-6,.37-6.23-2.92,5.35-3.47,5.19.56-6.09,0-6.24-2.6,5.52-3.16,5.38.19-6.11-.37-6.23-2.27,5.66-2.84,5.56-.17-6.11-.74-6.2-1.93,5.79-2.5,5.72-.53-6.09-1.1-6.14-1.58,5.89-2.16,5.86-.89-6.05-1.46-6.07-1.24,6-1.81,6-1.24-6-1.81-6-.89,6-1.46,6.07-1.59-5.91-2.16-5.86-.53,6.08-1.1,6.14-1.93-5.8-2.5-5.72-.17,6.1-.74,6.2-2.27-5.68-2.84-5.56.19,6.1-.37,6.23-2.61-5.53-3.16-5.38.55,6.08,0,6.24-2.93-5.37-3.47-5.19.91,6,.37,6.23-3.24-5.19-3.77-5,1.26,6,.74,6.2-3.54-5-4.06-4.74,1.61,5.88,1.1,6.15-3.82-4.77-4.33-4.5,1.95,5.78,1.45,6.07-4.09-4.54-4.58-4.24,2.28,5.66,1.8,6-4.35-4.3-4.82-4,2.6,5.52,2.14,5.87-4.59-4-5-3.69,2.91,5.36,2.47,5.73-4.81-3.78-5.24-3.4,3.21,5.19,2.79,5.59-5-3.51-5.42-3.1,3.49,5,3.09,5.42-5.2-3.22-5.58-2.79,3.76,4.8,3.39,5.24-5.37-2.93-5.73-2.48,4,4.59,3.68,5-5.52-2.63-5.86-2.16,4.27,4.36,3.95,4.84-5.66-2.32-6-1.83,4.5,4.12,4.21,4.61-5.78-2-6.06-1.51,4.72,3.87,4.45,4.38-5.88-1.69-6.13-1.17,4.92,3.6,4.68,4.13-6-1.37-6.19-.84,5.11,3.33,4.9,3.87-6-1-6.22-.5,5.29,3,5.1,3.59-6.07-.71-6.24-.16,5.44,2.76,5.29,3.31-6.1-.39-6.24.17,5.58,2.46,5.46,3-6.12-.06-6.22.51,5.71,2.16,5.62,2.73-6.11.27-6.19.84,5.81,1.85,5.75,2.42-6.09.59-6.13,1.17,5.9,1.54,5.87,2.12-6,.91-6.06,1.49S1044.49,483.06,1044.49,483.64Z"/><ellipse class="cls-6" cx="1087.09" cy="521.83" rx="48.42" ry="39.74"/><path class="cls-8" d="M1143.46,570.29c-1.12,3.36-5,5.5-10.72,6.38-8.23,1.26-20.18-.13-32.76-4.34-21.26-7.11-36.26-19.55-33.51-27.78s22.22-9.15,43.48-2S1146.22,562.06,1143.46,570.29Z"/><rect class="cls-9" x="1128.1" y="472.16" width="21.75" height="57.59" rx="10.87" ry="10.87" transform="translate(-104.35 549.55) rotate(-25.98)"/><path class="cls-10" d="M1134.24,484.3c-1.82-.85.07-4.31-1.62-5.39s-4.27,2.13-5.69.7,1.75-4,.64-5.76-3.4.28-5-1,0-3.94-1.91-4.77-4.76,2.81-6,1.15,3-3.46,2.67-5.51-4.06-1.58-4.28-3.64c-.17-1.6,3.61-1.88,3.53-3.49s-3.69-1.35-3.83-3,3.44-2.08,3.21-3.73-4.55-2-4-3.62,4.24.62,5.39-.58-1.52-3.39-.56-4.75c1.08-1.53,4,.28,4.9-1.37s-2.49-4.2-1.15-5.5c1.59-1.54,4.11,1.87,6,.79s.17-4.47,2.16-5.43,3.54,2.54,5.59,1.7.63-4.2,2.66-5.08c1.78-.77,3.28,2.55,5,1.74s.87-5.22,2.82-5.15.81,4.4,2.54,5.33,3.14-2.18,5-1.5.83,3.94,2.69,4.35,3.77-3.62,5.27-2.44-2,4-1.16,5.67,4.43.22,5.06,2-3.18,2.72-2.81,4.44,4.08,1,4.37,2.75c.33,2-3.41,2.5-3.16,4.47s4.21,1.76,4.17,3.74-4,1.69-4.31,3.7,2.51,1.91,3,3.89c.52,2.21-2.1,3.33-.85,5.23s5.22.11,5.81,2.29c.55,2-3.78,2.42-3.94,4.49s4.25,3.74,3,5.4c-1.37,1.81-4.29-1.9-6.38-1s-.52,3.83-2.42,5.06c-1.37.88-3.46-1.66-4.59-.49s1.43,4.29.07,5.18-3.23-2.7-4.82-2.12-.7,4.6-2.39,4.74-1.49-4-3.17-4.27-2.47,3.4-4.12,3-1.34-4.8-3.17-4.7C1136.21,482,1135.91,485.08,1134.24,484.3Z"/><circle class="cls-7" cx="1098.82" cy="377.05" r="53.24"/><path class="cls-11" d="M1110.29,366.28c-2.79,11.71,14.9,17.17,24.89,13.77s15.05-15.09,11.3-26.1-20.64-24.71-24.89-13.77C1120.62,342.69,1111.2,362.48,1110.29,366.28Z"/><ellipse class="cls-19" cx="1135.56" cy="358.86" rx="12.15" ry="12.93" transform="translate(-33.65 132.55) rotate(-6.58)"/><ellipse class="cls-13" cx="1138.97" cy="356.01" rx="6.75" ry="6.34" transform="translate(-33.31 132.93) rotate(-6.58)"/><path class="cls-14" d="M1153.33,388.92l2.66-6.39a3.52,3.52,0,0,0-3.66-4.85l-6.71.77a3.52,3.52,0,0,0-2.45,5.56l4,5.62A3.52,3.52,0,0,0,1153.33,388.92Z"/><circle class="cls-7" cx="1141.85" cy="400.51" r="10.21"/><polygon class="cls-7" points="1051.1 305.37 1049.31 310.49 1054.61 311.68 1053.11 316.9 1058.47 317.78 1057.3 323.08 1062.69 323.6 1061.91 328.97 1067.33 329.06 1067.03 334.48 1072.43 333.99 1072.85 339.4 1078.07 338 1079.8 343.15 1084.06 339.92 1088.48 342.91 1088.58 337.57 1093.66 335.93 1090.45 331.56 1094.6 328.1 1090.41 324.65 1093.91 320.51 1089.3 317.64 1092.34 313.15 1087.5 310.71 1090.17 305.99 1085.16 303.91 1087.52 299.02 1082.39 297.25 1084.46 292.23 1079.24 290.74 1081.02 285.62 1075.73 284.42 1077.22 279.2 1071.87 278.33 1073.04 273.03 1067.64 272.5 1068.43 267.13 1063.01 267.04 1063.31 261.62 1057.91 262.11 1057.49 256.7 1052.27 258.11 1050.54 252.96 1046.28 256.18 1041.85 253.19 1041.75 258.54 1036.67 260.17 1039.89 264.54 1035.74 268.01 1039.93 271.46 1036.43 275.6 1041.03 278.47 1037.99 282.95 1042.84 285.39 1040.16 290.11 1045.17 292.2 1042.81 297.09 1047.94 298.86 1045.88 303.88 1051.1 305.37"/><ellipse class="cls-2" cx="1070.38" cy="296.22" rx="5.75" ry="26.78" transform="translate(-15.99 526.99) rotate(-27.46)"/><path class="cls-15" d="M1143.25,410.31c-7.2,0-22.27,5.72-23.2-9.8"/><polygon class="cls-1" points="91.77 415.87 88.44 419.71 93.02 421.93 89.88 425.93 94.57 427.91 91.65 432.07 96.44 433.78 93.79 438.12 98.68 439.48 96.38 444.02 101.38 444.92 99.61 449.69 104.68 449.82 104.01 454.87 108.72 453.22 111.36 457.44 112.34 452.56 117.34 452.45 114.94 447.97 119.64 446.06 116.31 442.21 120.68 439.62 116.94 436.18 121.04 433.18 117.04 430.05 120.93 426.78 116.73 423.9 120.43 420.41 116.09 417.76 119.6 414.08 115.13 411.64 118.47 407.8 113.89 405.58 117.02 401.58 112.34 399.6 115.26 395.44 110.47 393.74 113.12 389.39 108.22 388.03 110.53 383.49 105.53 382.59 107.29 377.82 102.22 377.69 102.89 372.64 98.18 374.29 95.55 370.07 94.56 374.95 89.57 375.06 91.97 379.55 87.27 381.45 90.59 385.3 86.22 387.89 89.97 391.33 85.86 394.33 89.87 397.46 85.98 400.73 90.17 403.61 86.48 407.1 90.82 409.75 87.31 413.43 91.77 415.87"/><ellipse class="cls-2" cx="109.55" cy="409.51" rx="5.75" ry="26.78" transform="translate(-71.15 26.04) rotate(-10.25)"/><rect class="cls-3" x="136.97" y="526.46" width="4.43" height="8.11"/><path class="cls-4" d="M3.83,622.95c0,1.52-3.84,3.36-3.58,4.82s4.5,1.9,5,3.3-2.46,4.45-1.72,5.75,4.88.27,5.83,1.43-.9,5,.23,6,4.72-1.27,6-.45.64,5,2,5.65,4.14-2.61,5.6-2.18,2.05,4.63,3.56,4.84,3.23-3.67,4.76-3.67,3.3,3.87,4.76,3.67,2.14-4.43,3.56-4.84,4.25,2.8,5.6,2.18.78-4.85,2-5.65,4.88,1.44,6,.45-.72-4.84.23-6,5.09-.14,5.83-1.44-2.23-4.34-1.72-5.75,4.75-1.81,5-3.3-3.58-3.3-3.58-4.82,3.84-3.36,3.58-4.82-4.5-1.9-5-3.3,2.46-4.45,1.72-5.75-4.88-.27-5.83-1.43.9-5-.23-6-4.72,1.27-6,.45-.64-5-2-5.65-4.14,2.61-5.6,2.18-2.05-4.63-3.56-4.84-3.23,3.67-4.76,3.67-3.3-3.87-4.76-3.67-2.14,4.43-3.56,4.84-4.25-2.8-5.6-2.18-.78,4.85-2,5.65-4.88-1.44-6-.45.72,4.84-.23,6-5.09.14-5.83,1.44,2.23,4.34,1.72,5.75-4.75,1.81-5,3.3S3.83,621.43,3.83,622.95Z"/><path class="cls-5" d="M3.83,622.95c0,1.52-3.84,3.36-3.58,4.82s4.5,1.9,5,3.3-2.46,4.45-1.72,5.75,4.88.27,5.83,1.43-.9,5,.23,6,4.72-1.27,6-.45.64,5,2,5.65,4.14-2.61,5.6-2.18,2.05,4.63,3.56,4.84,3.23-3.67,4.76-3.67,3.3,3.87,4.76,3.67,2.14-4.43,3.56-4.84,4.25,2.8,5.6,2.18.78-4.85,2-5.65,4.88,1.44,6,.45-.72-4.84.23-6,5.09-.14,5.83-1.44-2.23-4.34-1.72-5.75,4.75-1.81,5-3.3-3.58-3.3-3.58-4.82,3.84-3.36,3.58-4.82-4.5-1.9-5-3.3,2.46-4.45,1.72-5.75-4.88-.27-5.83-1.43.9-5-.23-6-4.72,1.27-6,.45-.64-5-2-5.65-4.14,2.61-5.6,2.18-2.05-4.63-3.56-4.84-3.23,3.67-4.76,3.67-3.3-3.87-4.76-3.67-2.14,4.43-3.56,4.84-4.25-2.8-5.6-2.18-.78,4.85-2,5.65-4.88-1.44-6-.45.72,4.84-.23,6-5.09.14-5.83,1.44,2.23,4.34,1.72,5.75-4.75,1.81-5,3.3S3.83,621.43,3.83,622.95Z"/><rect class="cls-6" x="138.31" y="568.49" width="21.75" height="67.9" rx="10.87" ry="10.87" transform="translate(-323.88 200.69) rotate(-35.75)"/><path class="cls-7" d="M44,600.09c0,.58-6,1.23-6,1.81s6,.92,6.06,1.49-5.92,1.54-5.87,2.12,6.07.6,6.13,1.17-5.83,1.85-5.75,2.42,6.1.27,6.19.84-5.72,2.16-5.62,2.73,6.1-.05,6.22.51-5.6,2.47-5.46,3,6.09-.38,6.24.17-5.46,2.76-5.29,3.31,6.06-.71,6.24-.16-5.3,3.06-5.1,3.6,6-1,6.22-.5-5.13,3.34-4.9,3.87,5.95-1.36,6.19-.84-4.94,3.61-4.68,4.13,5.86-1.68,6.13-1.17-4.73,3.88-4.45,4.38,5.76-2,6.06-1.51-4.51,4.13-4.21,4.61,5.65-2.31,6-1.84-4.28,4.37-3.95,4.84,5.51-2.62,5.86-2.16-4,4.6-3.67,5,5.36-2.92,5.73-2.48-3.77,4.81-3.39,5.24,5.19-3.21,5.58-2.79-3.5,5-3.09,5.42,5-3.5,5.42-3.1-3.22,5.2-2.79,5.59,4.8-3.77,5.24-3.4-2.92,5.38-2.47,5.73,4.58-4,5-3.69-2.61,5.53-2.14,5.87,4.34-4.29,4.82-4-2.29,5.67-1.8,6,4.08-4.53,4.58-4.24-2,5.8-1.45,6.07,3.82-4.76,4.33-4.5-1.62,5.9-1.1,6.15,3.53-5,4.06-4.74-1.27,6-.74,6.2,3.23-5.17,3.77-5-.92,6-.37,6.23,2.92-5.35,3.47-5.19-.56,6.09,0,6.24,2.6-5.52,3.16-5.38-.19,6.11.37,6.23,2.27-5.66,2.84-5.56.17,6.11.74,6.2,1.93-5.79,2.5-5.72.53,6.09,1.1,6.14,1.58-5.89,2.16-5.86.89,6.05,1.46,6.07,1.24-6,1.81-6,1.24,6,1.81,6,.89-6,1.46-6.07,1.59,5.91,2.16,5.86.53-6.08,1.1-6.14,1.93,5.8,2.5,5.72.17-6.1.74-6.2,2.27,5.68,2.84,5.56-.19-6.1.37-6.23,2.61,5.53,3.16,5.38-.55-6.08,0-6.24,2.93,5.37,3.47,5.19-.91-6-.37-6.23,3.24,5.19,3.77,5-1.26-6-.74-6.2,3.54,5,4.06,4.74-1.61-5.88-1.1-6.15,3.82,4.77,4.33,4.5-1.95-5.78-1.45-6.07,4.09,4.54,4.58,4.24-2.28-5.66-1.8-6,4.35,4.3,4.82,4-2.6-5.52-2.14-5.87,4.59,4,5,3.69-2.91-5.36-2.47-5.73,4.81,3.78,5.24,3.4-3.21-5.19-2.79-5.59,5,3.51,5.42,3.1-3.49-5-3.09-5.42,5.2,3.22,5.58,2.79-3.76-4.8-3.39-5.24,5.37,2.93,5.73,2.48-4-4.59-3.68-5,5.52,2.63,5.86,2.16-4.27-4.36-3.95-4.84,5.66,2.32,6,1.83-4.5-4.12-4.21-4.61,5.78,2,6.06,1.51-4.72-3.87-4.45-4.38,5.88,1.69,6.13,1.17-4.92-3.6-4.68-4.13,6,1.37,6.19.84-5.11-3.33-4.9-3.87,6,1,6.22.5-5.29-3-5.1-3.59,6.07.71,6.24.16-5.44-2.76-5.29-3.31,6.1.39,6.24-.17-5.58-2.46-5.46-3,6.12.06,6.22-.51-5.71-2.16-5.62-2.73,6.11-.27,6.19-.84-5.81-1.85-5.75-2.42,6.09-.59,6.13-1.17-5.9-1.54-5.87-2.12,6-.91,6.06-1.49-6-1.23-6-1.81,6-1.23,6-1.81-6-.92-6.06-1.49,5.92-1.54,5.87-2.12-6.07-.6-6.13-1.17,5.83-1.85,5.75-2.42-6.1-.27-6.19-.84,5.72-2.16,5.62-2.73-6.1.05-6.22-.51,5.6-2.47,5.46-3-6.09.38-6.24-.17,5.46-2.76,5.29-3.31-6.06.71-6.24.16,5.3-3.06,5.1-3.6-6,1-6.22.5,5.13-3.34,4.9-3.87-5.95,1.36-6.19.84,4.94-3.61,4.68-4.13-5.86,1.68-6.13,1.17,4.73-3.88,4.45-4.38-5.76,2-6.06,1.51,4.51-4.13,4.21-4.61-5.65,2.31-6,1.84,4.28-4.37,3.95-4.84-5.51,2.62-5.86,2.16,4-4.6,3.67-5-5.36,2.92-5.73,2.48,3.77-4.81,3.39-5.24-5.19,3.21-5.58,2.79,3.5-5,3.09-5.42-5,3.5-5.42,3.1,3.22-5.2,2.79-5.59-4.8,3.77-5.24,3.4,2.92-5.38,2.47-5.73-4.58,4-5,3.69,2.61-5.53,2.14-5.87-4.34,4.29-4.82,4,2.29-5.67,1.8-6-4.08,4.53-4.58,4.24,2-5.8,1.45-6.07-3.82,4.76-4.33,4.5,1.62-5.9,1.1-6.15-3.53,5-4.06,4.74,1.27-6,.74-6.2-3.23,5.17-3.77,5,.92-6,.37-6.23-2.92,5.35-3.47,5.19.56-6.09,0-6.24-2.6,5.52-3.16,5.38.19-6.11-.37-6.23-2.27,5.66-2.84,5.56-.17-6.11-.74-6.2-1.93,5.79-2.5,5.72-.53-6.09-1.1-6.14-1.58,5.89-2.16,5.86-.89-6.05-1.46-6.07-1.24,6-1.81,6-1.24-6-1.81-6-.89,6-1.46,6.07-1.59-5.91-2.16-5.86-.53,6.08-1.1,6.14-1.93-5.8-2.5-5.72-.17,6.1-.74,6.2-2.27-5.68-2.84-5.56.19,6.1-.37,6.23-2.61-5.53-3.16-5.38.55,6.08,0,6.24-2.93-5.37-3.47-5.19.91,6,.37,6.23-3.24-5.19-3.77-5,1.26,6,.74,6.2-3.54-5-4.06-4.74,1.61,5.88,1.1,6.15-3.82-4.77-4.33-4.5,1.95,5.78,1.45,6.07-4.09-4.54-4.58-4.24,2.28,5.66,1.8,6-4.35-4.3-4.82-4,2.6,5.52,2.14,5.87-4.59-4-5-3.69,2.91,5.36,2.47,5.73-4.81-3.78-5.24-3.4,3.21,5.19,2.79,5.59-5-3.51-5.42-3.1,3.49,5,3.09,5.42-5.2-3.22-5.58-2.79,3.76,4.8,3.39,5.24-5.37-2.93-5.73-2.48,4,4.59,3.68,5-5.52-2.63-5.86-2.16,4.27,4.36,3.95,4.84-5.66-2.32-6-1.83,4.5,4.12,4.21,4.61-5.78-2-6.06-1.51,4.72,3.87,4.45,4.38-5.88-1.69-6.13-1.17,4.92,3.6,4.68,4.13-6-1.37-6.19-.84,5.11,3.33,4.9,3.87-6-1-6.22-.5,5.29,3,5.1,3.59-6.07-.71-6.24-.16,5.44,2.76,5.29,3.31-6.1-.39-6.24.17,5.58,2.46,5.46,3-6.12-.06-6.22.51,5.71,2.16,5.62,2.73-6.11.27-6.19.84,5.81,1.85,5.75,2.42-6.09.59-6.13,1.17,5.9,1.54,5.87,2.12-6,.91-6.06,1.49S44,599.52,44,600.09Z"/><ellipse class="cls-6" cx="86.65" cy="638.28" rx="48.42" ry="39.74"/><path class="cls-8" d="M145.11,673.87c0,3.55-3,6.82-8.14,9.45-7.41,3.81-19.18,6.28-32.45,6.28-22.42,0-40.59-7-40.59-15.72s18.17-15.72,40.59-15.72S145.11,665.19,145.11,673.87Z"/><rect class="cls-9" x="127.66" y="588.61" width="21.75" height="57.59" rx="10.87" ry="10.87" transform="translate(-256.46 123.07) rotate(-25.98)"/><path class="cls-10" d="M135.83,597.92c-1.68-1.28-.23-3.81-2.18-4.61s-4.15,2.73-5.73,1.34,1.66-4,.64-5.82-3.16-.1-4.73-1.48-.13-3.74-2.08-4.54-4.08,2.72-5.7,1.36c-1.36-1.14,1.81-3.74,1-5.3s-3.88.14-4.76-1.4,2-3.41,1.06-5-4.73-.1-5.17-2,3.59-2.24,3.72-4.19-4-3.17-3-4.89,4.17,1.09,5.78-.08-.45-4,1.16-5.18c1.35-1,3.4,1.88,4.75.91s-.55-4.27,1-5c2-.92,3.35,2.67,5.51,2.06s1-3.18,2.89-4.39,3.84.87,5.42-.9-1-5.4,1.19-6.33c1.72-.73,2.22,3.66,4.06,4s2.33-3,4.18-2.82c1.56.18,1.3,3.56,2.87,3.62s1.82-3.52,3.39-3.36c1.85.18,1.41,3.75,3.25,4s3.67-3.72,5.08-2.51-2.27,3.62-1.72,5.39,3.82.7,4.42,2.46c.54,1.56-2.7,2.74-2.1,4.28s4,.32,4.48,1.88c.65,1.92-2.75,3-2.16,5s4.3,1.12,4.59,3.13-3.51,2.22-3.54,4.21,3.42,2,3.45,4-3.41,2.09-3.32,4.07,3.78,2,3.68,4c-.09,1.77-3.77,1.38-4.05,3.13s3.28,2.48,2.86,4.21-4,.81-4.54,2.59,3,3.77,1.85,5.22-3.85-1.71-5.48-.79-.13,4.56-1.94,5.06-2.26-3.43-4-3.41-1.64,3.4-3.42,3.53-2.14-3.24-3.92-3-2.4,4.55-4,3.82,1.13-4.66-.23-5.9S137.29,599,135.83,597.92Z"/><circle class="cls-7" cx="98.38" cy="493.5" r="53.24"/><path class="cls-11" d="M109.85,482.73c-2.79,11.71,14.9,17.17,24.89,13.77s15.05-15.09,11.3-26.1-20.64-24.71-24.89-13.77C120.17,459.14,110.76,478.93,109.85,482.73Z"/><ellipse class="cls-20" cx="135.12" cy="475.31" rx="12.15" ry="12.93" transform="translate(-53.6 18.62) rotate(-6.58)"/><ellipse class="cls-13" cx="138.53" cy="472.46" rx="6.75" ry="6.34" transform="translate(-53.25 19) rotate(-6.58)"/><path class="cls-14" d="M152.89,505.37l2.66-6.39a3.52,3.52,0,0,0-3.66-4.85l-6.71.77a3.52,3.52,0,0,0-2.45,5.56l4,5.62A3.52,3.52,0,0,0,152.89,505.37Z"/><circle class="cls-7" cx="141.41" cy="516.96" r="10.21"/><polygon class="cls-7" points="49.12 417.33 45.9 421.69 50.6 424.4 47.63 428.94 52.49 431.37 49.8 436.08 54.8 438.18 52.46 443.07 57.62 444.77 55.73 449.85 61.03 450.98 59.82 456.28 65.23 456.48 65.36 461.91 70.38 460.09 73.72 464.25 75.4 459.18 80.74 459.12 78.96 453.99 83.95 451.91 80.97 447.37 85.54 444.45 81.98 440.35 86.22 436.96 82.31 433.2 86.26 429.49 82.09 426.01 85.79 422.04 81.42 418.83 84.88 414.64 80.33 411.68 83.55 407.31 78.84 404.61 81.81 400.06 76.96 397.64 79.65 392.93 74.64 390.83 76.98 385.93 71.83 384.24 73.72 379.15 68.42 378.02 69.62 372.73 64.22 372.53 64.09 367.1 59.07 368.92 55.72 364.76 54.05 369.83 48.71 369.89 50.49 375.02 45.5 377.1 48.48 381.63 43.91 384.55 47.46 388.65 43.23 392.04 47.14 395.81 43.19 399.52 47.35 403 43.66 406.97 48.03 410.18 44.57 414.36 49.12 417.33"/><ellipse class="cls-2" cx="70.25" cy="414.3" rx="5.75" ry="26.78" transform="translate(-72.63 19.12) rotate(-10.25)"/><path class="cls-15" d="M142.8,526.76c-7.2,0-22.27,5.72-23.2-9.8"/><polygon class="cls-1" points="1297.41 417.28 1294.08 421.13 1298.66 423.34 1295.52 427.35 1300.21 429.32 1297.29 433.49 1302.08 435.19 1299.43 439.53 1304.32 440.9 1302.02 445.43 1307.02 446.33 1305.26 451.11 1310.33 451.24 1309.65 456.28 1314.37 454.63 1317 458.86 1317.98 453.98 1322.98 453.87 1320.58 449.38 1325.28 447.48 1321.96 443.63 1326.32 441.03 1322.58 437.59 1326.68 434.6 1322.68 431.46 1326.57 428.2 1322.38 425.32 1326.07 421.82 1321.73 419.18 1325.24 415.49 1320.78 413.06 1324.11 409.21 1319.53 407 1322.67 402.99 1317.98 401.02 1320.9 396.85 1316.11 395.15 1318.76 390.81 1313.87 389.44 1316.17 384.91 1311.17 384 1312.93 379.23 1307.86 379.1 1308.54 374.05 1303.82 375.7 1301.19 371.48 1300.2 376.36 1295.21 376.47 1297.61 380.96 1292.91 382.86 1296.23 386.71 1291.87 389.31 1295.61 392.75 1291.51 395.74 1295.51 398.88 1291.62 402.14 1295.81 405.02 1292.12 408.51 1296.46 411.16 1292.95 414.85 1297.41 417.28"/><ellipse class="cls-2" cx="1315.2" cy="410.92" rx="5.75" ry="26.78" transform="translate(-52.14 240.69) rotate(-10.25)"/><rect class="cls-3" x="1342.61" y="527.88" width="4.43" height="8.11"/><path class="cls-4" d="M1209.47,624.36c0,1.52-3.84,3.36-3.58,4.82s4.5,1.9,5,3.3-2.46,4.45-1.72,5.75,4.88.27,5.83,1.43-.9,5,.23,6,4.72-1.27,6-.45.64,5,2,5.65,4.14-2.61,5.6-2.18,2.05,4.63,3.56,4.84,3.23-3.67,4.76-3.67,3.3,3.87,4.76,3.67,2.14-4.43,3.56-4.84,4.25,2.8,5.6,2.18.78-4.85,2-5.65,4.88,1.44,6,.45-.72-4.84.23-6,5.09-.14,5.83-1.44-2.23-4.34-1.72-5.75,4.75-1.81,5-3.3-3.58-3.3-3.58-4.82,3.84-3.36,3.58-4.82-4.5-1.9-5-3.3,2.46-4.45,1.72-5.75-4.88-.27-5.83-1.43.9-5-.23-6-4.72,1.27-6,.45-.64-5-2-5.65-4.14,2.61-5.6,2.18-2.05-4.63-3.56-4.84-3.23,3.67-4.76,3.67-3.3-3.87-4.76-3.67-2.14,4.43-3.56,4.84-4.25-2.8-5.6-2.18-.78,4.85-2,5.65-4.88-1.44-6-.45.72,4.84-.23,6-5.09.14-5.83,1.44,2.23,4.34,1.72,5.75-4.75,1.81-5,3.3S1209.47,622.84,1209.47,624.36Z"/><path class="cls-5" d="M1209.47,624.36c0,1.52-3.84,3.36-3.58,4.82s4.5,1.9,5,3.3-2.46,4.45-1.72,5.75,4.88.27,5.83,1.43-.9,5,.23,6,4.72-1.27,6-.45.64,5,2,5.65,4.14-2.61,5.6-2.18,2.05,4.63,3.56,4.84,3.23-3.67,4.76-3.67,3.3,3.87,4.76,3.67,2.14-4.43,3.56-4.84,4.25,2.8,5.6,2.18.78-4.85,2-5.65,4.88,1.44,6,.45-.72-4.84.23-6,5.09-.14,5.83-1.44-2.23-4.34-1.72-5.75,4.75-1.81,5-3.3-3.58-3.3-3.58-4.82,3.84-3.36,3.58-4.82-4.5-1.9-5-3.3,2.46-4.45,1.72-5.75-4.88-.27-5.83-1.43.9-5-.23-6-4.72,1.27-6,.45-.64-5-2-5.65-4.14,2.61-5.6,2.18-2.05-4.63-3.56-4.84-3.23,3.67-4.76,3.67-3.3-3.87-4.76-3.67-2.14,4.43-3.56,4.84-4.25-2.8-5.6-2.18-.78,4.85-2,5.65-4.88-1.44-6-.45.72,4.84-.23,6-5.09.14-5.83,1.44,2.23,4.34,1.72,5.75-4.75,1.81-5,3.3S1209.47,622.84,1209.47,624.36Z"/><rect class="cls-6" x="1343.95" y="569.91" width="21.75" height="67.9" rx="10.87" ry="10.87" transform="translate(-97.51 905.37) rotate(-35.75)"/><path class="cls-7" d="M1249.68,601.51c0,.58-6,1.23-6,1.81s6,.92,6.06,1.49-5.92,1.54-5.87,2.12,6.07.6,6.13,1.17-5.83,1.85-5.75,2.42,6.1.27,6.19.84-5.72,2.16-5.62,2.73,6.1-.05,6.22.51-5.6,2.47-5.46,3,6.09-.38,6.24.17-5.46,2.76-5.29,3.31,6.06-.71,6.24-.16-5.3,3.06-5.1,3.6,6-1,6.22-.5-5.13,3.34-4.9,3.87,5.95-1.36,6.19-.84-4.94,3.61-4.68,4.13,5.86-1.68,6.13-1.17-4.73,3.88-4.45,4.38,5.76-2,6.06-1.51-4.51,4.13-4.21,4.61,5.65-2.31,6-1.84-4.28,4.37-3.95,4.84,5.51-2.62,5.86-2.16-4,4.6-3.67,5,5.36-2.92,5.73-2.48-3.77,4.81-3.39,5.24,5.19-3.21,5.58-2.79-3.5,5-3.09,5.42,5-3.5,5.42-3.1-3.22,5.2-2.79,5.59,4.8-3.77,5.24-3.4-2.92,5.38-2.47,5.73,4.58-4,5-3.69-2.61,5.53-2.14,5.87,4.34-4.29,4.82-4-2.29,5.67-1.8,6,4.08-4.53,4.58-4.24-2,5.8-1.45,6.07,3.82-4.76,4.33-4.5-1.62,5.9-1.1,6.15,3.53-5,4.06-4.74-1.27,6-.74,6.2,3.23-5.17,3.77-5-.92,6-.37,6.23,2.92-5.35,3.47-5.19-.56,6.09,0,6.24,2.6-5.52,3.16-5.38-.19,6.11.37,6.23,2.27-5.66,2.84-5.56.17,6.11.74,6.2,1.93-5.79,2.5-5.72.53,6.09,1.1,6.14,1.58-5.89,2.16-5.86.89,6.05,1.46,6.07,1.24-6,1.81-6,1.24,6,1.81,6,.89-6,1.46-6.07,1.59,5.91,2.16,5.86.53-6.08,1.1-6.14,1.93,5.8,2.5,5.72.17-6.1.74-6.2,2.27,5.68,2.84,5.56-.19-6.1.37-6.23,2.61,5.53,3.16,5.38-.55-6.08,0-6.24,2.93,5.37,3.47,5.19-.91-6-.37-6.23,3.24,5.19,3.77,5-1.26-6-.74-6.2,3.54,5,4.06,4.74-1.61-5.88-1.1-6.15,3.82,4.77,4.33,4.5-1.95-5.78-1.45-6.07,4.09,4.54,4.58,4.24-2.28-5.66-1.8-6,4.35,4.3,4.82,4-2.6-5.52-2.14-5.87,4.59,4,5,3.69-2.91-5.36-2.47-5.73,4.81,3.78,5.24,3.4-3.21-5.19-2.79-5.59,5,3.51,5.42,3.1-3.49-5-3.09-5.42,5.2,3.22,5.58,2.79-3.76-4.8-3.39-5.24,5.37,2.93,5.73,2.48-4-4.59-3.68-5,5.52,2.63,5.86,2.16-4.27-4.36-3.95-4.84,5.66,2.32,6,1.83-4.5-4.12-4.21-4.61,5.78,2,6.06,1.51-4.72-3.87-4.45-4.38,5.88,1.69,6.13,1.17-4.92-3.6-4.68-4.13,6,1.37,6.19.84-5.11-3.33-4.9-3.87,6,1,6.22.5-5.29-3-5.1-3.59,6.07.71,6.24.16-5.44-2.76-5.29-3.31,6.1.39,6.24-.17-5.58-2.46-5.46-3,6.12.06,6.22-.51-5.71-2.16-5.62-2.73,6.11-.27,6.19-.84-5.81-1.85-5.75-2.42,6.09-.59,6.13-1.17-5.9-1.54-5.87-2.12,6-.91,6.06-1.49-6-1.23-6-1.81,6-1.23,6-1.81-6-.92-6.06-1.49,5.92-1.54,5.87-2.12-6.07-.6-6.13-1.17,5.83-1.85,5.75-2.42-6.1-.27-6.19-.84,5.72-2.16,5.62-2.73-6.1.05-6.22-.51,5.6-2.47,5.46-3-6.09.38-6.24-.17,5.46-2.76,5.29-3.31-6.06.71-6.24.16,5.3-3.06,5.1-3.6-6,1-6.22.5,5.13-3.34,4.9-3.87-5.95,1.36-6.19.84,4.94-3.61,4.68-4.13-5.86,1.68-6.13,1.17,4.73-3.88,4.45-4.38-5.76,2-6.06,1.51,4.51-4.13,4.21-4.61-5.65,2.31-6,1.84,4.28-4.37,3.95-4.84-5.51,2.62-5.86,2.16,4-4.6,3.67-5-5.36,2.92-5.73,2.48,3.77-4.81,3.39-5.24-5.19,3.21-5.58,2.79,3.5-5,3.09-5.42-5,3.5-5.42,3.1,3.22-5.2,2.79-5.59-4.8,3.77-5.24,3.4,2.92-5.38,2.47-5.73-4.58,4-5,3.69,2.61-5.53,2.14-5.87-4.34,4.29-4.82,4,2.29-5.67,1.8-6-4.08,4.53-4.58,4.24,2-5.8,1.45-6.07-3.82,4.76-4.33,4.5,1.62-5.9,1.1-6.15-3.53,5-4.06,4.74,1.27-6,.74-6.2-3.23,5.17-3.77,5,.92-6,.37-6.23-2.92,5.35-3.47,5.19.56-6.09,0-6.24-2.6,5.52-3.16,5.38.19-6.11-.37-6.23-2.27,5.66-2.84,5.56-.17-6.11-.74-6.2-1.93,5.79-2.5,5.72-.53-6.09-1.1-6.14-1.58,5.89-2.16,5.86-.89-6.05-1.46-6.07-1.24,6-1.81,6-1.24-6-1.81-6-.89,6-1.46,6.07-1.59-5.91-2.16-5.86-.53,6.08-1.1,6.14-1.93-5.8-2.5-5.72-.17,6.1-.74,6.2-2.27-5.68-2.84-5.56.19,6.1-.37,6.23-2.61-5.53-3.16-5.38.55,6.08,0,6.24-2.93-5.37-3.47-5.19.91,6,.37,6.23-3.24-5.19-3.77-5,1.26,6,.74,6.2-3.54-5-4.06-4.74,1.61,5.88,1.1,6.15-3.82-4.77-4.33-4.5,1.95,5.78,1.45,6.07-4.09-4.54-4.58-4.24,2.28,5.66,1.8,6-4.35-4.3-4.82-4,2.6,5.52,2.14,5.87-4.59-4-5-3.69,2.91,5.36,2.47,5.73-4.81-3.78-5.24-3.4,3.21,5.19,2.79,5.59-5-3.51-5.42-3.1,3.49,5,3.09,5.42-5.2-3.22-5.58-2.79,3.76,4.8,3.39,5.24-5.37-2.93-5.73-2.48,4,4.59,3.68,5-5.52-2.63-5.86-2.16,4.27,4.36,3.95,4.84-5.66-2.32-6-1.83,4.5,4.12,4.21,4.61-5.78-2-6.06-1.51,4.72,3.87,4.45,4.38-5.88-1.69-6.13-1.17,4.92,3.6,4.68,4.13-6-1.37-6.19-.84,5.11,3.33,4.9,3.87-6-1-6.22-.5,5.29,3,5.1,3.59-6.07-.71-6.24-.16,5.44,2.76,5.29,3.31-6.1-.39-6.24.17,5.58,2.46,5.46,3-6.12-.06-6.22.51,5.71,2.16,5.62,2.73-6.11.27-6.19.84,5.81,1.85,5.75,2.42-6.09.59-6.13,1.17,5.9,1.54,5.87,2.12-6,.91-6.06,1.49S1249.68,600.93,1249.68,601.51Z"/><ellipse class="cls-6" cx="1292.29" cy="639.7" rx="48.42" ry="39.74"/><path class="cls-8" d="M1350.76,675.28c0,3.55-3,6.82-8.14,9.45-7.41,3.81-19.18,6.28-32.45,6.28-22.42,0-40.59-7-40.59-15.72s18.17-15.72,40.59-15.72S1350.76,666.6,1350.76,675.28Z"/><rect class="cls-9" x="1333.3" y="590.03" width="21.75" height="57.59" rx="10.87" ry="10.87" transform="translate(-135.25 651.35) rotate(-25.98)"/><path class="cls-10" d="M1339.14,602.25c-1.75-1,1.1-4.22-.12-5.83s-3.53.51-5-.83.35-3.89-1.39-4.92-3.55,2-5.29,1,0-4.09-1.71-5.11-4.24,2.19-5.67.75,1.84-3.87.86-5.62-4.79-.29-5.24-2.24,3.64-2.18,3.78-4.1-3-1.83-3.26-3.73c-.26-2.07,2.84-2.74,2.22-4.73s-5.48-2.42-4.52-4.27c1-2,4.33,1.65,6.43.81s.68-3.51,2.54-4.79c1.36-.93,3.42,1.27,4.43,0s-1.79-3.74-.65-4.92c1.59-1.65,4.17,1,5.88-.5s-.57-5.14,1.54-6,3.18,3.24,5.55,3.07,1.9-3.33,4.22-3.85c1.62-.36,2.64,2.65,4.15,2s.28-4.42,1.9-4.75,2.06,3.55,3.8,3.58,2.07-3.75,3.79-3.47c1.88.3,1,4,2.87,4.54s3.56-3.16,5.15-2.1-1.11,4.12.14,5.63,5.31-.33,5.62,1.6S1367,555,1366.31,557s2,2.36,2.07,4.46-2.48,2.77-1.58,4.69,4.22.44,5.05,2.39-2.57,3.26-1.83,5.19,5.11,1.36,4.9,3.42c-.24,2.36-4.47,1-5.62,3.11s1.08,2.67,1,5-2.26,2.78-1.18,4.73,6,1.34,5.43,3.5-4.46-1-6.34.1-.12,4.1-2,5.19c-1.39.81-3.2-2.2-4.57-1.35s.52,3.84-.84,4.71-3.41-2-4.9-1-.12,5.09-1.88,5.2-.9-4.15-2.48-4.93-2.73,2.22-4.43,1.74c-1.85-.52-1.92-4.29-3.78-3.82C1341,600,1340.8,603.21,1339.14,602.25Z"/><circle class="cls-7" cx="1304.02" cy="494.91" r="53.24"/><path class="cls-11" d="M1315.49,484.14c-2.79,11.71,14.9,17.17,24.89,13.77s15.05-15.09,11.3-26.1S1331,447.1,1326.79,458C1325.82,460.56,1316.4,480.34,1315.49,484.14Z"/><ellipse class="cls-21" cx="1340.76" cy="476.73" rx="12.15" ry="12.93" transform="translate(-45.81 156.86) rotate(-6.58)"/><ellipse class="cls-13" cx="1344.17" cy="473.88" rx="6.75" ry="6.34" transform="translate(-45.47 157.23) rotate(-6.58)"/><path class="cls-14" d="M1354,518.68l2.66-6.39a3.52,3.52,0,0,0-3.66-4.85l-6.71.77a3.52,3.52,0,0,0-2.45,5.56l4,5.62A3.52,3.52,0,0,0,1354,518.68Z"/><circle class="cls-7" cx="1347.05" cy="518.37" r="10.21"/><polygon class="cls-7" points="1254.76 418.74 1251.54 423.11 1256.24 425.81 1253.27 430.36 1258.13 432.78 1255.44 437.49 1260.45 439.59 1258.1 444.49 1263.26 446.18 1261.37 451.27 1266.67 452.4 1265.47 457.69 1270.87 457.89 1271 463.32 1276.02 461.5 1279.37 465.66 1281.04 460.59 1286.38 460.53 1284.6 455.4 1289.59 453.32 1286.61 448.79 1291.18 445.87 1287.63 441.77 1291.86 438.38 1287.95 434.62 1291.9 430.9 1287.73 427.43 1291.43 423.45 1287.06 420.24 1290.52 416.06 1285.97 413.1 1289.19 408.73 1284.49 406.02 1287.46 401.48 1282.6 399.06 1285.29 394.34 1280.29 392.24 1282.63 387.35 1277.47 385.65 1279.36 380.57 1274.06 379.44 1275.27 374.14 1269.86 373.94 1269.73 368.51 1264.71 370.33 1261.37 366.17 1259.69 371.24 1254.35 371.3 1256.13 376.43 1251.14 378.51 1254.12 383.05 1249.55 385.97 1253.11 390.07 1248.87 393.46 1252.78 397.22 1248.83 400.94 1253 404.41 1249.3 408.38 1253.67 411.59 1250.21 415.78 1254.76 418.74"/><ellipse class="cls-2" cx="1275.89" cy="415.71" rx="5.75" ry="26.78" transform="translate(-53.62 233.77) rotate(-10.25)"/><path class="cls-15" d="M1348.44,528.17c-7.2,0-22.27,5.72-23.2-9.8"/></g></svg>
