<svg id="Layer_1" data-name="Layer 1" xmlns="http://www.w3.org/2000/svg" xmlns:xlink="http://www.w3.org/1999/xlink" width="173.41" height="326.26" viewBox="0 0 173.41 326.26"><defs><style>.cls-1{fill:#a0a0a0;}.cls-2{fill:#e0b0e2;}.cls-11,.cls-2{stroke:#fff;}.cls-11,.cls-13,.cls-15,.cls-2,.cls-3,.cls-5{stroke-miterlimit:10;}.cls-3{fill:#f9f7f9;}.cls-13,.cls-3,.cls-5{stroke:#000;}.cls-15,.cls-3,.cls-5{stroke-width:0.25px;}.cls-4{fill:#f4f2f4;}.cls-15,.cls-5{fill:none;}.cls-6{fill:#9b9a9b;}.cls-7{fill:#bfbebf;}.cls-8{fill:#848384;}.cls-9{fill:#b2b2b2;}.cls-10{fill:#f8def9;}.cls-11{fill:#fff;}.cls-12{fill:url(#linear-gradient);}.cls-13{fill:#050101;}.cls-14{fill:#f23bc3;}.cls-15{stroke:#070607;}</style><linearGradient id="linear-gradient" x1="87.47" y1="97.62" x2="106.61" y2="79.51" gradientTransform="translate(-20.07 13.58) scale(1.23 0.91)" gradientUnits="userSpaceOnUse"><stop offset="0.3" stop-color="#3ddeed"/><stop offset="1" stop-color="#3ddeed" stop-opacity="0"/></linearGradient></defs><title>walkcyclebunny-01</title><polygon class="cls-1" points="42.04 50.7 41.96 55.79 46.89 54.55 47.06 59.63 51.92 58.13 52.36 63.2 57.13 61.43 57.88 66.46 62.51 64.36 63.66 69.31 68.07 66.79 69.79 71.58 73.76 68.43 76.49 72.72 79.03 68.43 83.76 69.97 81.38 65.6 85.14 62.31 80.42 60.41 82.8 55.94 77.78 55.12 79.45 50.32 74.37 50.09 75.59 45.16 70.51 45.34 71.39 40.33 66.33 40.82 66.92 35.77 61.89 36.53 62.22 31.45 57.23 32.45 57.31 27.37 52.38 28.61 52.21 23.53 47.35 25.02 46.91 19.96 42.14 21.73 41.39 16.7 36.76 18.8 35.61 13.85 31.2 16.37 29.48 11.58 25.51 14.73 22.78 10.44 20.23 14.73 15.51 13.18 17.89 17.56 14.13 20.85 18.85 22.75 16.47 27.22 21.49 28.04 19.82 32.83 24.9 33.06 23.67 38 28.76 37.82 27.88 42.83 32.94 42.34 32.35 47.39 37.38 46.63 37.05 51.71 42.04 50.7"/><ellipse class="cls-2" cx="51.58" cy="34.4" rx="5.75" ry="26.78" transform="translate(-7.86 52.05) rotate(-50.24)"/><rect class="cls-3" x="99.48" y="146.53" width="4.43" height="8.11"/><path class="cls-4" d="M-33.66,243c0,1.52-3.84,3.36-3.58,4.82s4.5,1.9,5,3.3-2.46,4.45-1.72,5.75,4.88.27,5.83,1.43-.9,5,.23,6,4.72-1.27,6-.45.64,5,2,5.65,4.14-2.61,5.6-2.18,2.05,4.63,3.56,4.84S-7.49,268.5-6,268.5s3.3,3.87,4.76,3.67,2.14-4.43,3.56-4.84,4.25,2.8,5.6,2.18.78-4.85,2-5.65,4.88,1.44,6,.45-.72-4.84.23-6,5.09-.14,5.83-1.44-2.23-4.34-1.72-5.75,4.75-1.81,5-3.3-3.58-3.3-3.58-4.82,3.84-3.36,3.58-4.82-4.5-1.9-5-3.3,2.46-4.45,1.72-5.75-4.88-.27-5.83-1.43.9-5-.23-6-4.72,1.27-6,.45-.64-5-2-5.65-4.14,2.61-5.6,2.18-2.05-4.63-3.56-4.84-3.23,3.67-4.76,3.67-3.3-3.87-4.76-3.67-2.14,4.43-3.56,4.84-4.25-2.8-5.6-2.18-.78,4.85-2,5.65-4.88-1.44-6-.45.72,4.84-.23,6-5.09.14-5.83,1.44,2.23,4.34,1.72,5.75-4.75,1.81-5,3.3S-33.66,241.49-33.66,243Z"/><path class="cls-5" d="M-33.66,243c0,1.52-3.84,3.36-3.58,4.82s4.5,1.9,5,3.3-2.46,4.45-1.72,5.75,4.88.27,5.83,1.43-.9,5,.23,6,4.72-1.27,6-.45.64,5,2,5.65,4.14-2.61,5.6-2.18,2.05,4.63,3.56,4.84S-7.49,268.5-6,268.5s3.3,3.87,4.76,3.67,2.14-4.43,3.56-4.84,4.25,2.8,5.6,2.18.78-4.85,2-5.65,4.88,1.44,6,.45-.72-4.84.23-6,5.09-.14,5.83-1.44-2.23-4.34-1.72-5.75,4.75-1.81,5-3.3-3.58-3.3-3.58-4.82,3.84-3.36,3.58-4.82-4.5-1.9-5-3.3,2.46-4.45,1.72-5.75-4.88-.27-5.83-1.43.9-5-.23-6-4.72,1.27-6,.45-.64-5-2-5.65-4.14,2.61-5.6,2.18-2.05-4.63-3.56-4.84-3.23,3.67-4.76,3.67-3.3-3.87-4.76-3.67-2.14,4.43-3.56,4.84-4.25-2.8-5.6-2.18-.78,4.85-2,5.65-4.88-1.44-6-.45.72,4.84-.23,6-5.09.14-5.83,1.44,2.23,4.34,1.72,5.75-4.75,1.81-5,3.3S-33.66,241.49-33.66,243Z"/><rect class="cls-6" x="100.81" y="188.56" width="21.75" height="67.9" rx="10.87" ry="10.87" transform="translate(-108.96 107.18) rotate(-35.75)"/><path class="cls-7" d="M6.55,220.16c0,.58-6,1.23-6,1.81s6,.92,6.06,1.49S.71,225,.76,225.57s6.07.6,6.13,1.17-5.83,1.85-5.75,2.42,6.1.27,6.19.84-5.72,2.16-5.62,2.73,6.1-.05,6.22.51-5.6,2.47-5.46,3,6.09-.38,6.24.17-5.46,2.76-5.29,3.31,6.06-.71,6.24-.16-5.3,3.06-5.1,3.6,6-1,6.22-.5-5.13,3.34-4.9,3.87,5.95-1.36,6.19-.84-4.94,3.61-4.68,4.13,5.86-1.68,6.13-1.17-4.73,3.88-4.45,4.38,5.76-2,6.06-1.51-4.51,4.13-4.21,4.61,5.65-2.31,6-1.84-4.28,4.37-3.95,4.84,5.51-2.62,5.86-2.16-4,4.6-3.67,5,5.36-2.92,5.73-2.48-3.77,4.81-3.39,5.24S22.64,261.6,23,262s-3.5,5-3.09,5.42,5-3.5,5.42-3.1-3.22,5.2-2.79,5.59,4.8-3.77,5.24-3.4-2.92,5.38-2.47,5.73,4.58-4,5-3.69-2.61,5.53-2.14,5.87,4.34-4.29,4.82-4-2.29,5.67-1.8,6,4.08-4.53,4.58-4.24-2,5.8-1.45,6.07,3.82-4.76,4.33-4.5-1.62,5.9-1.1,6.15,3.53-5,4.06-4.74-1.27,6-.74,6.2,3.23-5.17,3.77-5-.92,6-.37,6.23,2.92-5.35,3.47-5.19-.56,6.09,0,6.24,2.6-5.52,3.16-5.38-.19,6.11.37,6.23,2.27-5.66,2.84-5.56.17,6.11.74,6.2,1.93-5.79,2.5-5.72.53,6.09,1.1,6.14,1.58-5.89,2.16-5.86.89,6.05,1.46,6.07,1.24-6,1.81-6,1.24,6,1.81,6,.89-6,1.46-6.07,1.59,5.91,2.16,5.86.53-6.08,1.1-6.14,1.93,5.8,2.5,5.72.17-6.1.74-6.2,2.27,5.68,2.84,5.56-.19-6.1.37-6.23,2.61,5.53,3.16,5.38-.55-6.08,0-6.24,2.93,5.37,3.47,5.19-.91-6-.37-6.23,3.24,5.19,3.77,5-1.26-6-.74-6.2,3.54,5,4.06,4.74-1.61-5.88-1.1-6.15,3.82,4.77,4.33,4.5-1.95-5.78-1.45-6.07,4.09,4.54,4.58,4.24-2.28-5.66-1.8-6,4.35,4.3,4.82,4-2.6-5.52-2.14-5.87,4.59,4,5,3.69-2.91-5.36-2.47-5.73,4.81,3.78,5.24,3.4-3.21-5.19-2.79-5.59,5,3.51,5.42,3.1-3.49-5-3.09-5.42,5.2,3.22,5.58,2.79-3.76-4.8-3.39-5.24,5.37,2.93,5.73,2.48-4-4.59-3.68-5,5.52,2.63,5.86,2.16-4.27-4.36-3.95-4.84,5.66,2.32,6,1.83-4.5-4.12-4.21-4.61,5.78,2,6.06,1.51-4.72-3.87-4.45-4.38,5.88,1.69,6.13,1.17-4.92-3.6-4.68-4.13,6,1.37,6.19.84-5.11-3.33-4.9-3.87,6,1,6.22.5-5.29-3-5.1-3.59,6.07.71,6.24.16-5.44-2.76-5.29-3.31,6.1.39,6.24-.17-5.58-2.46-5.46-3,6.12.06,6.22-.51-5.71-2.16-5.62-2.73,6.11-.27,6.19-.84-5.81-1.85-5.75-2.42,6.09-.59,6.13-1.17-5.9-1.54-5.87-2.12,6-.91,6.06-1.49-6-1.23-6-1.81,6-1.23,6-1.81-6-.92-6.06-1.49,5.92-1.54,5.87-2.12-6.07-.6-6.13-1.17,5.83-1.85,5.75-2.42-6.1-.27-6.19-.84,5.72-2.16,5.62-2.73-6.1.05-6.22-.51,5.6-2.47,5.46-3-6.09.38-6.24-.17,5.46-2.76,5.29-3.31-6.06.71-6.24.16,5.3-3.06,5.1-3.6-6,1-6.22.5,5.13-3.34,4.9-3.87-5.95,1.36-6.19.84,4.94-3.61,4.68-4.13-5.86,1.68-6.13,1.17,4.73-3.88,4.45-4.38-5.76,2-6.06,1.51,4.51-4.13,4.21-4.61-5.65,2.31-6,1.84,4.28-4.37,3.95-4.84-5.51,2.62-5.86,2.16,4-4.6,3.67-5-5.36,2.92-5.73,2.48,3.77-4.81,3.39-5.24-5.19,3.21-5.58,2.79,3.5-5,3.09-5.42-5,3.5-5.42,3.1,3.22-5.2,2.79-5.59-4.8,3.77-5.24,3.4,2.92-5.38,2.47-5.73-4.58,4-5,3.69,2.61-5.53,2.14-5.87-4.34,4.29-4.82,4,2.29-5.67,1.8-6-4.08,4.53-4.58,4.24,2-5.8,1.45-6.07-3.82,4.76-4.33,4.5,1.62-5.9,1.1-6.15-3.53,5-4.06,4.74,1.27-6,.74-6.2-3.23,5.17-3.77,5,.92-6,.37-6.23-2.92,5.35-3.47,5.19.56-6.09,0-6.24S77.53,162.14,77,162s.19-6.11-.37-6.23-2.27,5.66-2.84,5.56-.17-6.11-.74-6.2-1.93,5.79-2.5,5.72-.53-6.09-1.1-6.14-1.58,5.89-2.16,5.86-.89-6.05-1.46-6.07-1.24,6-1.81,6-1.24-6-1.81-6-.89,6-1.46,6.07-1.59-5.91-2.16-5.86-.53,6.08-1.1,6.14-1.93-5.8-2.5-5.72-.17,6.1-.74,6.2-2.27-5.68-2.84-5.56.19,6.1-.37,6.23-2.61-5.53-3.16-5.38.55,6.08,0,6.24-2.93-5.37-3.47-5.19.91,6,.37,6.23-3.24-5.19-3.77-5,1.26,6,.74,6.2-3.54-5-4.06-4.74,1.61,5.88,1.1,6.15-3.82-4.77-4.33-4.5,1.95,5.78,1.45,6.07-4.09-4.54-4.58-4.24,2.28,5.66,1.8,6-4.35-4.3-4.82-4,2.6,5.52,2.14,5.87-4.59-4-5-3.69,2.91,5.36,2.47,5.73S23,170,22.57,170.39s3.21,5.19,2.79,5.59-5-3.51-5.42-3.1,3.49,5,3.09,5.42-5.2-3.22-5.58-2.79,3.76,4.8,3.39,5.24-5.37-2.93-5.73-2.48,4,4.59,3.68,5-5.52-2.63-5.86-2.16,4.27,4.36,3.95,4.84-5.66-2.32-6-1.83,4.5,4.12,4.21,4.61-5.78-2-6.06-1.51,4.72,3.87,4.45,4.38S7.63,190,7.38,190.47s4.92,3.6,4.68,4.13-6-1.37-6.19-.84,5.11,3.33,4.9,3.87-6-1-6.22-.5,5.29,3,5.1,3.59-6.07-.71-6.24-.16,5.44,2.76,5.29,3.31-6.1-.39-6.24.17,5.58,2.46,5.46,3-6.12-.06-6.22.51,5.71,2.16,5.62,2.73-6.11.27-6.19.84S7,213,6.89,213.57s-6.09.59-6.13,1.17,5.9,1.54,5.87,2.12-6,.91-6.06,1.49S6.55,219.58,6.55,220.16Z"/><ellipse class="cls-6" cx="49.15" cy="258.35" rx="48.42" ry="39.74"/><path class="cls-8" d="M75.1,333.71c-3.47.7-7.28-1.61-10.88-6.1-5.21-6.5-10-17.55-12.6-30.55-4.46-22-1.17-41.18,7.34-42.9s19,14.68,23.48,36.65S83.61,332,75.1,333.71Z"/><rect class="cls-9" x="90.16" y="208.68" width="21.75" height="57.59" rx="10.87" ry="10.87" transform="translate(-93.82 68.26) rotate(-25.98)"/><path class="cls-10" d="M94.62,222.12c-1.6-1.2,1.29-4.3,0-5.81s-4.16,1-5.5-.46,1.47-4.05.12-5.51-3.75,1.14-5.31-.1.38-4.18-1.38-5.19-5.14,2.36-6.15.6,3.52-3.2,3.45-5.39-3.55-1.82-3.94-4c-.28-1.58,3.07-2.54,2.48-4s-4.53-.31-4.86-1.88,3.74-2.18,3.67-3.9-4.4-2.32-3.87-4,4.4.39,5.45-1-2-3.62-1-5,4.21.6,5.27-1-2.19-4.41-.76-5.67c1.66-1.46,4.12,2.08,6.06,1s.27-4.94,2.37-5.62,3.15,3.41,5.45,3.09,1.67-3.95,3.94-4.42c1.66-.34,2.57,3.22,4.19,2.72s.48-4.15,2.1-4.66c2-.62,3.13,3,5.11,2.4s1.78-5.42,3.8-5-.33,4.65,1.12,6.06,4.35-1.34,5.67.18-1.92,3.88-.84,5.37,4.69-.62,5.46,1.05-3.18,3-2.76,4.79,4.29,1,4.61,2.75c.35,2-3.55,2.54-3.31,4.51s4.34,1.75,4.31,3.74-4.12,1.69-4.43,3.7,2.89,2,3.18,4-2.76,3-1.88,4.93,5,.61,5.4,2.69-3.94,2.24-4.08,4.24,4.17,3,3.43,4.85-4.54-.38-5.81,1.17,1.7,4.63.11,5.84-3.62-2.58-5.35-1.86-.14,4-1.77,4.89-3.66-2.09-5.28-.94.25,5.29-1.68,5.73-2.08-4.09-4-4.41-2.91,3.67-4.81,3.08-.9-5.26-2.92-5.46C97.16,220.14,96.25,223.33,94.62,222.12Z"/><circle class="cls-7" cx="60.88" cy="113.56" r="53.24"/><path class="cls-11" d="M72.36,102.79c-2.79,11.71,14.9,17.17,24.89,13.77s15.05-15.09,11.3-26.1S87.9,65.75,83.66,76.69C82.68,79.21,73.26,99,72.36,102.79Z"/><ellipse class="cls-12" cx="97.62" cy="95.38" rx="12.15" ry="12.93" transform="translate(-10.29 11.82) rotate(-6.58)"/><ellipse class="cls-13" cx="101.04" cy="92.53" rx="6.75" ry="6.34" transform="translate(-9.94 12.19) rotate(-6.58)"/><path class="cls-14" d="M115.39,125.43l2.66-6.39a3.52,3.52,0,0,0-3.66-4.85l-6.71.77a3.52,3.52,0,0,0-2.45,5.56l4,5.62A3.52,3.52,0,0,0,115.39,125.43Z"/><circle class="cls-7" cx="103.91" cy="137.02" r="10.21"/><polygon class="cls-7" points="11.6 54.35 12.26 59.74 17.54 58.47 18.5 63.81 23.69 62.24 24.98 67.51 30.06 65.59 31.72 70.76 36.63 68.45 38.75 73.44 43.38 70.62 46.14 75.29 50.21 71.72 54.03 75.58 56.43 70.81 61.72 71.53 59.45 66.7 63.29 62.98 58.47 60.48 60.67 55.54 55.38 54.3 56.7 49.03 51.3 48.5 52.05 43.13 46.62 43.08 46.94 37.66 41.52 38 41.48 32.58 36.09 33.25 35.73 27.83 30.39 28.81 29.73 23.42 24.45 24.69 23.49 19.34 18.3 20.92 17.01 15.65 11.93 17.57 10.27 12.4 5.36 14.71 3.24 9.72 -1.39 12.54 -4.15 7.87 -8.22 11.43 -12.04 7.58 -14.44 12.35 -19.73 11.63 -17.46 16.46 -21.3 20.18 -16.48 22.68 -18.68 27.62 -13.39 28.86 -14.71 34.12 -9.31 34.66 -10.05 40.03 -4.63 40.08 -4.94 45.5 0.47 45.16 0.51 50.58 5.9 49.91 6.26 55.33 11.6 54.35"/><ellipse class="cls-2" cx="24.87" cy="37.63" rx="5.75" ry="26.78" transform="translate(-20.18 35.37) rotate(-53.66)"/><path class="cls-15" d="M105.31,146.82c-7.2,0-22.27,5.72-23.2-9.8"/><path class="cls-4" d="M171.17,335.45c0,1.52-3.84,3.36-3.58,4.82s4.5,1.9,5,3.3-2.46,4.45-1.72,5.75,4.88.27,5.83,1.43-.9,5,.23,6,4.72-1.27,6-.45.64,5,2,5.65,4.14-2.61,5.6-2.18,2.05,4.63,3.56,4.84,3.23-3.67,4.76-3.67,3.3,3.87,4.76,3.67,2.14-4.43,3.56-4.84,4.25,2.8,5.6,2.18.78-4.85,2-5.65,4.88,1.44,6,.45-.72-4.84.23-6,5.09-.14,5.83-1.44-2.23-4.34-1.72-5.75,4.75-1.81,5-3.3-3.58-3.3-3.58-4.82,3.84-3.36,3.58-4.82-4.5-1.9-5-3.3,2.46-4.45,1.72-5.75-4.88-.27-5.83-1.43.9-5-.23-6-4.72,1.27-6,.45-.64-5-2-5.65-4.14,2.61-5.6,2.18-2.05-4.63-3.56-4.84-3.23,3.67-4.76,3.67-3.3-3.87-4.76-3.67-2.14,4.43-3.56,4.84-4.25-2.8-5.6-2.18-.78,4.85-2,5.65-4.88-1.44-6-.45.72,4.84-.23,6-5.09.14-5.83,1.44,2.23,4.34,1.72,5.75-4.75,1.81-5,3.3S171.17,333.93,171.17,335.45Z"/><path class="cls-5" d="M171.17,335.45c0,1.52-3.84,3.36-3.58,4.82s4.5,1.9,5,3.3-2.46,4.45-1.72,5.75,4.88.27,5.83,1.43-.9,5,.23,6,4.72-1.27,6-.45.64,5,2,5.65,4.14-2.61,5.6-2.18,2.05,4.63,3.56,4.84,3.23-3.67,4.76-3.67,3.3,3.87,4.76,3.67,2.14-4.43,3.56-4.84,4.25,2.8,5.6,2.18.78-4.85,2-5.65,4.88,1.44,6,.45-.72-4.84.23-6,5.09-.14,5.83-1.44-2.23-4.34-1.72-5.75,4.75-1.81,5-3.3-3.58-3.3-3.58-4.82,3.84-3.36,3.58-4.82-4.5-1.9-5-3.3,2.46-4.45,1.72-5.75-4.88-.27-5.83-1.43.9-5-.23-6-4.72,1.27-6,.45-.64-5-2-5.65-4.14,2.61-5.6,2.18-2.05-4.63-3.56-4.84-3.23,3.67-4.76,3.67-3.3-3.87-4.76-3.67-2.14,4.43-3.56,4.84-4.25-2.8-5.6-2.18-.78,4.85-2,5.65-4.88-1.44-6-.45.72,4.84-.23,6-5.09.14-5.83,1.44,2.23,4.34,1.72,5.75-4.75,1.81-5,3.3S171.17,333.93,171.17,335.45Z"/></svg>
