<svg id="Layer_1" data-name="Layer 1" xmlns="http://www.w3.org/2000/svg" xmlns:xlink="http://www.w3.org/1999/xlink" width="1400" height="900" viewBox="0 0 1400 900"><defs><style>.cls-1{fill:#a0a0a0;}.cls-2{fill:#e0b0e2;}.cls-11,.cls-2{stroke:#fff;}.cls-11,.cls-13,.cls-15,.cls-2,.cls-3,.cls-5{stroke-miterlimit:10;}.cls-3{fill:#f9f7f9;}.cls-13,.cls-3,.cls-5{stroke:#000;}.cls-15,.cls-3,.cls-5{stroke-width:0.25px;}.cls-4{fill:#f4f2f4;}.cls-15,.cls-5{fill:none;}.cls-6{fill:#9b9a9b;}.cls-7{fill:#bfbebf;}.cls-8{fill:#848384;}.cls-9{fill:#b2b2b2;}.cls-10{fill:#f8def9;}.cls-11{fill:#fff;}.cls-12{fill:url(#linear-gradient);}.cls-13{fill:#050101;}.cls-14{fill:#f23bc3;}.cls-15{stroke:#070607;}.cls-16{fill:url(#linear-gradient-2);}.cls-17{fill:url(#linear-gradient-3);}.cls-18{fill:url(#linear-gradient-4);}.cls-19{fill:url(#linear-gradient-5);}.cls-20{fill:url(#linear-gradient-6);}.cls-21{fill:url(#linear-gradient-7);}</style><linearGradient id="linear-gradient" x1="383.65" y1="393.75" x2="402.8" y2="375.63" gradientTransform="translate(-145.64 73.25) scale(1.23 0.91)" gradientUnits="userSpaceOnUse"><stop offset="0.3" stop-color="#3ddeed"/><stop offset="1" stop-color="#3ddeed" stop-opacity="0"/></linearGradient><linearGradient id="linear-gradient-2" x1="556.08" y1="310.71" x2="575.22" y2="292.6" gradientTransform="translate(-155.73 49.51) scale(1.23 0.91)" xlink:href="#linear-gradient"/><linearGradient id="linear-gradient-3" x1="723.14" y1="245.33" x2="742.29" y2="227.21" gradientTransform="translate(-163.93 26.42) scale(1.23 0.91)" xlink:href="#linear-gradient"/><linearGradient id="linear-gradient-4" x1="880.43" y1="371.61" x2="899.58" y2="353.5" gradientTransform="translate(-151.98 3.54) scale(1.23 0.91)" xlink:href="#linear-gradient"/><linearGradient id="linear-gradient-5" x1="1030.88" y1="489.31" x2="1050.03" y2="471.2" gradientTransform="translate(-140.87 -18.32) scale(1.23 0.91)" xlink:href="#linear-gradient"/><linearGradient id="linear-gradient-6" x1="209.56" y1="490.39" x2="228.7" y2="472.28" gradientTransform="translate(-134.12 97.15) scale(1.23 0.91)" xlink:href="#linear-gradient"/><linearGradient id="linear-gradient-7" x1="1186.09" y1="643.3" x2="1205.23" y2="625.19" gradientTransform="translate(-126.01 -41.06) scale(1.23 0.91)" xlink:href="#linear-gradient"/></defs><title>walkcyclebunny-01</title><polygon class="cls-1" points="291.91 365.99 288.58 369.83 293.16 372.05 290.02 376.05 294.71 378.03 291.79 382.19 296.58 383.9 293.93 388.24 298.82 389.61 296.52 394.14 301.52 395.04 299.76 399.81 304.82 399.95 304.15 404.99 308.87 403.34 311.5 407.56 312.48 402.69 317.48 402.57 315.08 398.09 319.78 396.19 316.45 392.34 320.82 389.74 317.08 386.3 321.18 383.3 317.18 380.17 321.07 376.9 316.88 374.03 320.57 370.53 316.23 367.88 319.74 364.2 315.27 361.76 318.61 357.92 314.03 355.7 317.16 351.7 312.48 349.72 315.4 345.56 310.61 343.86 313.26 339.52 308.36 338.15 310.67 333.62 305.67 332.71 307.43 327.94 302.36 327.81 303.03 322.76 298.32 324.41 295.69 320.19 294.7 325.07 289.71 325.18 292.11 329.67 287.41 331.57 290.73 335.42 286.37 338.02 290.11 341.46 286 344.45 290.01 347.58 286.12 350.85 290.31 353.73 286.62 357.22 290.96 359.87 287.44 363.55 291.91 365.99"/><ellipse class="cls-2" cx="309.7" cy="359.63" rx="5.75" ry="26.78" transform="translate(-59.07 60.87) rotate(-10.25)"/><rect class="cls-3" x="337.11" y="476.59" width="4.43" height="8.11"/><path class="cls-4" d="M204,573.07c0,1.52-3.84,3.36-3.58,4.82s4.5,1.9,5,3.3-2.46,4.45-1.72,5.75,4.88.27,5.83,1.43-.9,5,.23,6,4.72-1.27,6-.45.64,5,2,5.65,4.14-2.61,5.6-2.18,2.05,4.63,3.56,4.84,3.23-3.67,4.76-3.67,3.3,3.87,4.76,3.67,2.14-4.43,3.56-4.84,4.25,2.8,5.6,2.18.78-4.85,2-5.65,4.88,1.44,6,.45-.72-4.84.23-6,5.09-.14,5.83-1.44-2.23-4.34-1.72-5.75,4.75-1.81,5-3.3-3.58-3.3-3.58-4.82,3.84-3.36,3.58-4.82-4.5-1.9-5-3.3,2.46-4.45,1.72-5.75-4.88-.27-5.83-1.43.9-5-.23-6-4.72,1.27-6,.45-.64-5-2-5.65-4.14,2.61-5.6,2.18-2.05-4.63-3.56-4.84-3.23,3.67-4.76,3.67-3.3-3.87-4.76-3.67-2.14,4.43-3.56,4.84-4.25-2.8-5.6-2.18-.78,4.85-2,5.65-4.88-1.44-6-.45.72,4.84-.23,6-5.09.14-5.83,1.44,2.23,4.34,1.72,5.75-4.75,1.81-5,3.3S204,571.55,204,573.07Z"/><path class="cls-5" d="M204,573.07c0,1.52-3.84,3.36-3.58,4.82s4.5,1.9,5,3.3-2.46,4.45-1.72,5.75,4.88.27,5.83,1.43-.9,5,.23,6,4.72-1.27,6-.45.64,5,2,5.65,4.14-2.61,5.6-2.18,2.05,4.63,3.56,4.84,3.23-3.67,4.76-3.67,3.3,3.87,4.76,3.67,2.14-4.43,3.56-4.84,4.25,2.8,5.6,2.18.78-4.85,2-5.65,4.88,1.44,6,.45-.72-4.84.23-6,5.09-.14,5.83-1.44-2.23-4.34-1.72-5.75,4.75-1.81,5-3.3-3.58-3.3-3.58-4.82,3.84-3.36,3.58-4.82-4.5-1.9-5-3.3,2.46-4.45,1.72-5.75-4.88-.27-5.83-1.43.9-5-.23-6-4.72,1.27-6,.45-.64-5-2-5.65-4.14,2.61-5.6,2.18-2.05-4.63-3.56-4.84-3.23,3.67-4.76,3.67-3.3-3.87-4.76-3.67-2.14,4.43-3.56,4.84-4.25-2.8-5.6-2.18-.78,4.85-2,5.65-4.88-1.44-6-.45.72,4.84-.23,6-5.09.14-5.83,1.44,2.23,4.34,1.72,5.75-4.75,1.81-5,3.3S204,571.55,204,573.07Z"/><rect class="cls-6" x="338.45" y="518.61" width="21.75" height="67.9" rx="10.87" ry="10.87" transform="translate(-257.02 308.22) rotate(-35.75)"/><path class="cls-7" d="M244.18,550.21c0,.58-6,1.23-6,1.81s6,.92,6.06,1.49-5.92,1.54-5.87,2.12,6.07.6,6.13,1.17-5.83,1.85-5.75,2.42,6.1.27,6.19.84-5.72,2.16-5.62,2.73,6.1-.05,6.22.51-5.6,2.47-5.46,3,6.09-.38,6.24.17-5.46,2.76-5.29,3.31,6.06-.71,6.24-.16-5.3,3.06-5.1,3.6,6-1,6.22-.5-5.13,3.34-4.9,3.87,5.95-1.36,6.19-.84-4.94,3.61-4.68,4.13,5.86-1.68,6.13-1.17-4.73,3.88-4.45,4.38,5.76-2,6.06-1.51-4.51,4.13-4.21,4.61,5.65-2.31,6-1.84-4.28,4.37-3.95,4.84,5.51-2.62,5.86-2.16-4,4.6-3.67,5,5.36-2.92,5.73-2.48-3.77,4.81-3.39,5.24,5.19-3.21,5.58-2.79-3.5,5-3.09,5.42,5-3.5,5.42-3.1-3.22,5.2-2.79,5.59,4.8-3.77,5.24-3.4-2.92,5.38-2.47,5.73,4.58-4,5-3.69-2.61,5.53-2.14,5.87,4.34-4.29,4.82-4-2.29,5.67-1.8,6,4.08-4.53,4.58-4.24-2,5.8-1.45,6.07,3.82-4.76,4.33-4.5-1.62,5.9-1.1,6.15,3.53-5,4.06-4.74-1.27,6-.74,6.2,3.23-5.17,3.77-5-.92,6-.37,6.23,2.92-5.35,3.47-5.19-.56,6.09,0,6.24,2.6-5.52,3.16-5.38-.19,6.11.37,6.23,2.27-5.66,2.84-5.56.17,6.11.74,6.2,1.93-5.79,2.5-5.72.53,6.09,1.1,6.14,1.58-5.89,2.16-5.86.89,6.05,1.46,6.07,1.24-6,1.81-6,1.24,6,1.81,6,.89-6,1.46-6.07,1.59,5.91,2.16,5.86.53-6.08,1.1-6.14,1.93,5.8,2.5,5.72.17-6.1.74-6.2,2.27,5.68,2.84,5.56-.19-6.1.37-6.23,2.61,5.53,3.16,5.38-.55-6.08,0-6.24,2.93,5.37,3.47,5.19-.91-6-.37-6.23,3.24,5.19,3.77,5-1.26-6-.74-6.2,3.54,5,4.06,4.74-1.61-5.88-1.1-6.15,3.82,4.77,4.33,4.5-1.95-5.78-1.45-6.07,4.09,4.54,4.58,4.24-2.28-5.66-1.8-6,4.35,4.3,4.82,4-2.6-5.52-2.14-5.87,4.59,4,5,3.69-2.91-5.36-2.47-5.73,4.81,3.78,5.24,3.4-3.21-5.19-2.79-5.59,5,3.51,5.42,3.1-3.49-5-3.09-5.42,5.2,3.22,5.58,2.79-3.76-4.8-3.39-5.24,5.37,2.93,5.73,2.48-4-4.59-3.68-5,5.52,2.63,5.86,2.16-4.27-4.36-3.95-4.84,5.66,2.32,6,1.83-4.5-4.12-4.21-4.61,5.78,2,6.06,1.51-4.72-3.87-4.45-4.38,5.88,1.69,6.13,1.17-4.92-3.6-4.68-4.13,6,1.37,6.19.84-5.11-3.33-4.9-3.87,6,1,6.22.5-5.29-3-5.1-3.59,6.07.71,6.24.16-5.44-2.76-5.29-3.31,6.1.39,6.24-.17-5.58-2.46-5.46-3,6.12.06,6.22-.51-5.71-2.16-5.62-2.73,6.11-.27,6.19-.84-5.81-1.85-5.75-2.42,6.09-.59,6.13-1.17-5.9-1.54-5.87-2.12,6-.91,6.06-1.49-6-1.23-6-1.81,6-1.23,6-1.81-6-.92-6.06-1.49,5.92-1.54,5.87-2.12-6.07-.6-6.13-1.17,5.83-1.85,5.75-2.42-6.1-.27-6.19-.84,5.72-2.16,5.62-2.73-6.1.05-6.22-.51,5.6-2.47,5.46-3-6.09.38-6.24-.17,5.46-2.76,5.29-3.31-6.06.71-6.24.16,5.3-3.06,5.1-3.6-6,1-6.22.5,5.13-3.34,4.9-3.87-5.95,1.36-6.19.84,4.94-3.61,4.68-4.13-5.86,1.68-6.13,1.17,4.73-3.88,4.45-4.38-5.76,2-6.06,1.51,4.51-4.13,4.21-4.61-5.65,2.31-6,1.84,4.28-4.37,3.95-4.84-5.51,2.62-5.86,2.16,4-4.6,3.67-5-5.36,2.92-5.73,2.48,3.77-4.81,3.39-5.24-5.19,3.21-5.58,2.79,3.5-5,3.09-5.42-5,3.5-5.42,3.1,3.22-5.2,2.79-5.59-4.8,3.77-5.24,3.4,2.92-5.38,2.47-5.73-4.58,4-5,3.69,2.61-5.53,2.14-5.87-4.34,4.29-4.82,4,2.29-5.67,1.8-6-4.08,4.53-4.58,4.24,2-5.8,1.45-6.07-3.82,4.76-4.33,4.5,1.62-5.9,1.1-6.15-3.53,5-4.06,4.74,1.27-6,.74-6.2-3.23,5.17-3.77,5,.92-6,.37-6.23-2.92,5.35-3.47,5.19.56-6.09,0-6.24-2.6,5.52-3.16,5.38.19-6.11-.37-6.23-2.27,5.66-2.84,5.56-.17-6.11-.74-6.2-1.93,5.79-2.5,5.72-.53-6.09-1.1-6.14-1.58,5.89-2.16,5.86-.89-6.05-1.46-6.07-1.24,6-1.81,6-1.24-6-1.81-6-.89,6-1.46,6.07-1.59-5.91-2.16-5.86-.53,6.08-1.1,6.14-1.93-5.8-2.5-5.72-.17,6.1-.74,6.2-2.27-5.68-2.84-5.56.19,6.1-.37,6.23-2.61-5.53-3.16-5.38.55,6.08,0,6.24-2.93-5.37-3.47-5.19.91,6,.37,6.23-3.24-5.19-3.77-5,1.26,6,.74,6.2-3.54-5-4.06-4.74,1.61,5.88,1.1,6.15-3.82-4.77-4.33-4.5,1.95,5.78,1.45,6.07-4.09-4.54-4.58-4.24,2.28,5.66,1.8,6-4.35-4.3-4.82-4,2.6,5.52,2.14,5.87-4.59-4-5-3.69,2.91,5.36,2.47,5.73-4.81-3.78-5.24-3.4,3.21,5.19,2.79,5.59-5-3.51-5.42-3.1,3.49,5,3.09,5.42-5.2-3.22-5.58-2.79,3.76,4.8,3.39,5.24-5.37-2.93-5.73-2.48,4,4.59,3.68,5-5.52-2.63-5.86-2.16,4.27,4.36,3.95,4.84-5.66-2.32-6-1.83,4.5,4.12,4.21,4.61-5.78-2-6.06-1.51,4.72,3.87,4.45,4.38-5.88-1.69-6.13-1.17,4.92,3.6,4.68,4.13-6-1.37-6.19-.84,5.11,3.33,4.9,3.87-6-1-6.22-.5,5.29,3,5.1,3.59-6.07-.71-6.24-.16,5.44,2.76,5.29,3.31-6.1-.39-6.24.17,5.58,2.46,5.46,3-6.12-.06-6.22.51,5.71,2.16,5.62,2.73-6.11.27-6.19.84,5.81,1.85,5.75,2.42-6.09.59-6.13,1.17,5.9,1.54,5.87,2.12-6,.91-6.06,1.49S244.18,549.64,244.18,550.21Z"/><ellipse class="cls-6" cx="286.79" cy="588.4" rx="48.42" ry="39.74"/><path class="cls-8" d="M323.37,660c-3.15,1.63-7.45.45-12.14-2.87-6.8-4.82-14.41-14.13-20.52-25.91C280.38,611.34,278.26,592,286,588s22.33,8.88,32.66,28.78S331.08,656,323.37,660Z"/><rect class="cls-9" x="327.8" y="538.74" width="21.75" height="57.59" rx="10.87" ry="10.87" transform="translate(-214.39 205.71) rotate(-25.98)"/><path class="cls-10" d="M333.63,551c-1.75-1,1.1-4.22-.12-5.83s-3.53.51-5-.83.35-3.89-1.39-4.92-3.55,2-5.29,1,0-4.09-1.71-5.11-4.24,2.19-5.67.75,1.84-3.87.86-5.62-4.79-.29-5.24-2.24,3.64-2.18,3.78-4.1-3-1.83-3.26-3.73c-.26-2.07,2.84-2.74,2.22-4.73s-5.48-2.42-4.52-4.27c1-2,4.33,1.65,6.43.81s.68-3.51,2.54-4.79c1.36-.93,3.42,1.27,4.43,0s-1.79-3.74-.65-4.92c1.59-1.65,4.17,1,5.88-.5s-.57-5.14,1.54-6,3.18,3.24,5.55,3.07,1.9-3.33,4.22-3.85c1.62-.36,2.64,2.65,4.15,2s.28-4.42,1.9-4.75,2.06,3.55,3.8,3.58,2.07-3.75,3.79-3.47c1.88.3,1,4,2.87,4.54s3.56-3.16,5.15-2.1-1.11,4.12.14,5.63,5.31-.33,5.62,1.6-4.13,1.68-4.82,3.67,2,2.36,2.07,4.46-2.48,2.77-1.58,4.69,4.22.44,5.05,2.39-2.57,3.26-1.83,5.19,5.11,1.36,4.9,3.42c-.24,2.36-4.47,1-5.62,3.11s1.08,2.67,1,5-2.26,2.78-1.18,4.73,6,1.34,5.43,3.5-4.46-1-6.34.1-.12,4.1-2,5.19c-1.39.81-3.2-2.2-4.57-1.35s.52,3.84-.84,4.71-3.41-2-4.9-1-.12,5.09-1.88,5.2-.9-4.15-2.48-4.93-2.73,2.22-4.43,1.74c-1.85-.52-1.92-4.29-3.78-3.82C335.45,548.69,335.3,551.91,333.63,551Z"/><circle class="cls-7" cx="298.52" cy="443.62" r="53.24"/><path class="cls-11" d="M310,432.85c-2.79,11.71,14.9,17.17,24.89,13.77s15.05-15.09,11.3-26.1-20.64-24.71-24.89-13.77C320.31,409.26,310.9,429,310,432.85Z"/><ellipse class="cls-12" cx="335.26" cy="425.43" rx="12.15" ry="12.93" transform="translate(-46.56 41.24) rotate(-6.58)"/><ellipse class="cls-13" cx="338.67" cy="422.59" rx="6.75" ry="6.34" transform="translate(-46.21 41.61) rotate(-6.58)"/><path class="cls-14" d="M353,455.49l2.66-6.39a3.52,3.52,0,0,0-3.66-4.85l-6.71.77a3.52,3.52,0,0,0-2.45,5.56l4,5.62A3.52,3.52,0,0,0,353,455.49Z"/><circle class="cls-7" cx="341.55" cy="467.08" r="10.21"/><polygon class="cls-7" points="249.26 367.45 246.04 371.82 250.74 374.52 247.77 379.06 252.63 381.49 249.94 386.2 254.94 388.3 252.6 393.19 257.75 394.89 255.87 399.98 261.17 401.11 259.96 406.4 265.37 406.6 265.5 412.03 270.52 410.21 273.86 414.37 275.54 409.3 280.88 409.24 279.1 404.11 284.09 402.03 281.11 397.5 285.68 394.58 282.13 390.48 286.36 387.09 282.45 383.32 286.4 379.61 282.23 376.13 285.93 372.16 281.56 368.95 285.02 364.76 280.47 361.8 283.69 357.44 278.98 354.73 281.96 350.19 277.1 347.76 279.79 343.05 274.78 340.95 277.13 336.06 271.97 334.36 273.86 329.28 268.56 328.14 269.76 322.85 264.36 322.65 264.23 317.22 259.21 319.04 255.86 314.88 254.19 319.95 248.85 320.01 250.63 325.14 245.64 327.22 248.62 331.76 244.05 334.67 247.6 338.78 243.37 342.16 247.28 345.93 243.33 349.64 247.5 353.12 243.8 357.09 248.17 360.3 244.71 364.49 249.26 367.45"/><ellipse class="cls-2" cx="270.39" cy="364.42" rx="5.75" ry="26.78" transform="translate(-60.55 53.95) rotate(-10.25)"/><path class="cls-15" d="M342.94,476.88c-7.2,0-22.27,5.72-23.2-9.8"/><polygon class="cls-1" points="494.54 270.01 492.6 274.71 497.64 275.37 495.93 280.16 501 280.55 499.55 285.43 504.63 285.53 503.49 290.48 508.56 290.23 507.81 295.26 512.84 294.54 512.68 299.62 517.53 298.14 518.49 303.14 522.43 300.09 526.27 303.26 525.66 298.32 530.36 296.64 526.67 293.14 530.52 289.85 526.15 287.25 529.47 283.4 524.83 281.32 527.78 277.18 522.99 275.48 525.65 271.14 520.76 269.74 523.16 265.26 518.21 264.12 520.37 259.51 515.37 258.62 517.31 253.92 512.26 253.26 513.98 248.47 508.9 248.08 510.36 243.21 505.27 243.1 506.42 238.15 501.34 238.4 502.09 233.37 497.06 234.09 497.23 229.01 492.38 230.49 491.42 225.49 487.47 228.54 483.64 225.37 484.24 230.31 479.54 232 483.24 235.49 479.38 238.78 483.75 241.38 480.43 245.23 485.07 247.31 482.12 251.45 486.91 253.15 484.26 257.49 489.14 258.89 486.74 263.38 491.7 264.51 489.53 269.12 494.54 270.01"/><ellipse class="cls-2" cx="509.4" cy="258.36" rx="5.75" ry="26.78" transform="translate(-61.49 276.27) rotate(-28.69)"/><rect class="cls-3" x="538.47" y="377.02" width="4.43" height="8.11"/><path class="cls-4" d="M405.33,473.51c0,1.52-3.84,3.36-3.58,4.82s4.5,1.9,5,3.3-2.46,4.45-1.72,5.75,4.88.27,5.83,1.43-.9,5,.23,6,4.72-1.27,6-.45.64,5,2,5.65,4.14-2.61,5.6-2.18,2.05,4.63,3.56,4.84S431.5,499,433,499s3.3,3.87,4.76,3.67,2.14-4.43,3.56-4.84,4.25,2.8,5.6,2.18.78-4.85,2-5.65,4.88,1.44,6,.45-.72-4.84.23-6,5.09-.14,5.83-1.44-2.23-4.34-1.72-5.75,4.75-1.81,5-3.3-3.58-3.3-3.58-4.82,3.84-3.36,3.58-4.82-4.5-1.9-5-3.3,2.46-4.45,1.72-5.75-4.88-.27-5.83-1.43.9-5-.23-6-4.72,1.27-6,.45-.64-5-2-5.65-4.14,2.61-5.6,2.18-2.05-4.63-3.56-4.84S434.55,448,433,448s-3.3-3.87-4.76-3.67-2.14,4.43-3.56,4.84-4.25-2.8-5.6-2.18-.78,4.85-2,5.65-4.88-1.44-6-.45.72,4.84-.23,6-5.09.14-5.83,1.44,2.23,4.34,1.72,5.75-4.75,1.81-5,3.3S405.33,472,405.33,473.51Z"/><path class="cls-5" d="M405.33,473.51c0,1.52-3.84,3.36-3.58,4.82s4.5,1.9,5,3.3-2.46,4.45-1.72,5.75,4.88.27,5.83,1.43-.9,5,.23,6,4.72-1.27,6-.45.64,5,2,5.65,4.14-2.61,5.6-2.18,2.05,4.63,3.56,4.84S431.5,499,433,499s3.3,3.87,4.76,3.67,2.14-4.43,3.56-4.84,4.25,2.8,5.6,2.18.78-4.85,2-5.65,4.88,1.44,6,.45-.72-4.84.23-6,5.09-.14,5.83-1.44-2.23-4.34-1.72-5.75,4.75-1.81,5-3.3-3.58-3.3-3.58-4.82,3.84-3.36,3.58-4.82-4.5-1.9-5-3.3,2.46-4.45,1.72-5.75-4.88-.27-5.83-1.43.9-5-.23-6-4.72,1.27-6,.45-.64-5-2-5.65-4.14,2.61-5.6,2.18-2.05-4.63-3.56-4.84S434.55,448,433,448s-3.3-3.87-4.76-3.67-2.14,4.43-3.56,4.84-4.25-2.8-5.6-2.18-.78,4.85-2,5.65-4.88-1.44-6-.45.72,4.84-.23,6-5.09.14-5.83,1.44,2.23,4.34,1.72,5.75-4.75,1.81-5,3.3S405.33,472,405.33,473.51Z"/><rect class="cls-6" x="539.81" y="419.05" width="21.75" height="67.9" rx="10.87" ry="10.87" transform="translate(-160.91 407.11) rotate(-35.75)"/><path class="cls-7" d="M445.54,450.65c0,.58-6,1.23-6,1.81s6,.92,6.06,1.49-5.92,1.54-5.87,2.12,6.07.6,6.13,1.17-5.83,1.85-5.75,2.42,6.1.27,6.19.84-5.72,2.16-5.62,2.73,6.1-.05,6.22.51-5.6,2.47-5.46,3,6.09-.38,6.24.17-5.46,2.76-5.29,3.31,6.06-.71,6.24-.16-5.3,3.06-5.1,3.6,6-1,6.22-.5-5.13,3.34-4.9,3.87,5.95-1.36,6.19-.84-4.94,3.61-4.68,4.13,5.86-1.68,6.13-1.17-4.73,3.88-4.45,4.38,5.76-2,6.06-1.51-4.51,4.13-4.21,4.61,5.65-2.31,6-1.84-4.28,4.37-3.95,4.84,5.51-2.62,5.86-2.16-4,4.6-3.67,5,5.36-2.92,5.73-2.48-3.77,4.81-3.39,5.24,5.19-3.21,5.58-2.79-3.5,5-3.09,5.42,5-3.5,5.42-3.1-3.22,5.2-2.79,5.59,4.8-3.77,5.24-3.4-2.92,5.38-2.47,5.73,4.58-4,5-3.69-2.61,5.53-2.14,5.87,4.34-4.29,4.82-4-2.29,5.67-1.8,6,4.08-4.53,4.58-4.24-2,5.8-1.45,6.07,3.82-4.76,4.33-4.5-1.62,5.9-1.1,6.15,3.53-5,4.06-4.74-1.27,6-.74,6.2,3.23-5.17,3.77-5-.92,6-.37,6.23,2.92-5.35,3.47-5.19-.56,6.09,0,6.24,2.6-5.52,3.16-5.38-.19,6.11.37,6.23,2.27-5.66,2.84-5.56.17,6.11.74,6.2,1.93-5.79,2.5-5.72.53,6.09,1.1,6.14,1.58-5.89,2.16-5.86.89,6.05,1.46,6.07,1.24-6,1.81-6,1.24,6,1.81,6,.89-6,1.46-6.07,1.59,5.91,2.16,5.86.53-6.08,1.1-6.14,1.93,5.8,2.5,5.72.17-6.1.74-6.2,2.27,5.68,2.84,5.56-.19-6.1.37-6.23,2.61,5.53,3.16,5.38-.55-6.08,0-6.24,2.93,5.37,3.47,5.19-.91-6-.37-6.23,3.24,5.19,3.77,5-1.26-6-.74-6.2,3.54,5,4.06,4.74-1.61-5.88-1.1-6.15,3.82,4.77,4.33,4.5-1.95-5.78-1.45-6.07,4.09,4.54,4.58,4.24-2.28-5.66-1.8-6,4.35,4.3,4.82,4-2.6-5.52-2.14-5.87,4.59,4,5,3.69-2.91-5.36-2.47-5.73,4.81,3.78,5.24,3.4-3.21-5.19-2.79-5.59,5,3.51,5.42,3.1-3.49-5-3.09-5.42,5.2,3.22,5.58,2.79-3.76-4.8-3.39-5.24,5.37,2.93,5.73,2.48-4-4.59-3.68-5,5.52,2.63,5.86,2.16-4.27-4.36-3.95-4.84,5.66,2.32,6,1.83-4.5-4.12-4.21-4.61,5.78,2,6.06,1.51-4.72-3.87-4.45-4.38,5.88,1.69,6.13,1.17-4.92-3.6-4.68-4.13,6,1.37,6.19.84-5.11-3.33-4.9-3.87,6,1,6.22.5-5.29-3-5.1-3.59,6.07.71,6.24.16-5.44-2.76-5.29-3.31,6.1.39,6.24-.17-5.58-2.46-5.46-3,6.12.06,6.22-.51-5.71-2.16-5.62-2.73,6.11-.27,6.19-.84-5.81-1.85-5.75-2.42,6.09-.59,6.13-1.17-5.9-1.54-5.87-2.12,6-.91,6.06-1.49-6-1.23-6-1.81,6-1.23,6-1.81-6-.92-6.06-1.49,5.92-1.54,5.87-2.12-6.07-.6-6.13-1.17,5.83-1.85,5.75-2.42-6.1-.27-6.19-.84,5.72-2.16,5.62-2.73-6.1.05-6.22-.51,5.6-2.47,5.46-3-6.09.38-6.24-.17,5.46-2.76,5.29-3.31-6.06.71-6.24.16,5.3-3.06,5.1-3.6-6,1-6.22.5,5.13-3.34,4.9-3.87-5.95,1.36-6.19.84,4.94-3.61,4.68-4.13-5.86,1.68-6.13,1.17,4.73-3.88,4.45-4.38-5.76,2-6.06,1.51,4.51-4.13,4.21-4.61-5.65,2.31-6,1.84,4.28-4.37,3.95-4.84-5.51,2.62-5.86,2.16,4-4.6,3.67-5-5.36,2.92-5.73,2.48,3.77-4.81,3.39-5.24-5.19,3.21-5.58,2.79,3.5-5,3.09-5.42-5,3.5-5.42,3.1,3.22-5.2,2.79-5.59-4.8,3.77-5.24,3.4,2.92-5.38,2.47-5.73-4.58,4-5,3.69,2.61-5.53,2.14-5.87-4.34,4.29-4.82,4,2.29-5.67,1.8-6-4.08,4.53-4.58,4.24,2-5.8,1.45-6.07-3.82,4.76-4.33,4.5,1.62-5.9,1.1-6.15-3.53,5-4.06,4.74,1.27-6,.74-6.2-3.23,5.17-3.77,5,.92-6,.37-6.23-2.92,5.35-3.47,5.19.56-6.09,0-6.24-2.6,5.52-3.16,5.38.19-6.11-.37-6.23-2.27,5.66-2.84,5.56-.17-6.11-.74-6.2-1.93,5.79-2.5,5.72-.53-6.09-1.1-6.14-1.58,5.89-2.16,5.86-.89-6.05-1.46-6.07-1.24,6-1.81,6-1.24-6-1.81-6-.89,6-1.46,6.07-1.59-5.91-2.16-5.86-.53,6.08-1.1,6.14-1.93-5.8-2.5-5.72-.17,6.1-.74,6.2-2.27-5.68-2.84-5.56.19,6.1-.37,6.23-2.61-5.53-3.16-5.38.55,6.08,0,6.24-2.93-5.37-3.47-5.19.91,6,.37,6.23-3.24-5.19-3.77-5,1.26,6,.74,6.2-3.54-5-4.06-4.74,1.61,5.88,1.1,6.15-3.82-4.77-4.33-4.5,1.95,5.78,1.45,6.07-4.09-4.54-4.58-4.24,2.28,5.66,1.8,6-4.35-4.3-4.82-4,2.6,5.52,2.14,5.87-4.59-4-5-3.69,2.91,5.36,2.47,5.73-4.81-3.78-5.24-3.4,3.21,5.19,2.79,5.59-5-3.51-5.42-3.1,3.49,5,3.09,5.42-5.2-3.22-5.58-2.79,3.76,4.8,3.39,5.24-5.37-2.93-5.73-2.48,4,4.59,3.68,5-5.52-2.63-5.86-2.16,4.27,4.36,3.95,4.84-5.66-2.32-6-1.83,4.5,4.12,4.21,4.61-5.78-2-6.06-1.51,4.72,3.87,4.45,4.38-5.88-1.69-6.13-1.17,4.92,3.6,4.68,4.13-6-1.37-6.19-.84,5.11,3.33,4.9,3.87-6-1-6.22-.5,5.29,3,5.1,3.59-6.07-.71-6.24-.16,5.44,2.76,5.29,3.31-6.1-.39-6.24.17,5.58,2.46,5.46,3-6.12-.06-6.22.51,5.71,2.16,5.62,2.73-6.11.27-6.19.84,5.81,1.85,5.75,2.42-6.09.59-6.13,1.17,5.9,1.54,5.87,2.12-6,.91-6.06,1.49S445.54,450.08,445.54,450.65Z"/><ellipse class="cls-6" cx="488.15" cy="488.84" rx="48.42" ry="39.74"/><path class="cls-8" d="M493.21,562.94c-3.36-1.12-5.51-5-6.39-10.71-1.28-8.23.1-20.18,4.29-32.77,7.08-21.27,19.49-36.29,27.73-33.55s9.18,22.21,2.1,43.48S501.45,565.68,493.21,562.94Z"/><rect class="cls-9" x="529.16" y="439.18" width="21.75" height="57.59" rx="10.87" ry="10.87" transform="translate(-150.43 283.85) rotate(-25.98)"/><path class="cls-10" d="M534.5,451.62c-1.8-1.36,2-4.16,1.31-6.29s-2.8-.81-4.43-2.37-.38-3.64-2.51-4.26-4.09,3.29-5.85,1.94,1.63-4.13.6-5.95-4.23,0-5.22-1.89c-.75-1.4,2.5-3.07,1.8-4.5s-4.11.09-4.7-1.39,3-2.63,2.54-4.08-4-.52-4.35-2c-.37-1.67,3.27-2.37,3-4.05s-4.55-2-4-3.64,4.19.6,5.38-.61-1.37-3.74-.18-4.95,3.71,1.36,4.86.19-1.41-3.9-.17-5c1.71-1.46,4,1.46,5.84.11s-.34-4.59,1.61-5.7,3.62,2.38,5.66,1.54.89-4.71,3.06-5.12c1.73-.33,2,3.69,3.71,3.82s1.75-3.21,3.5-3.34,2.25,3.17,4,2.79,1.4-4.41,3.17-4.32,1.24,4.08,3.08,4.64,3.75-3.21,5.29-2.05-1.53,4-.47,5.67,4.56-.22,5.3,1.58-3.07,2.88-2.71,4.72,4.33,1.49,4.3,3.37c0,2.07-4,1.61-4.43,3.63s2.91,2.56,2.69,4.61-3.59,1.79-3.6,3.78,3.59,2,3.6,4-3.58,2-3.55,4,3.31,1.7,3.63,3.66-2.89,2.66-2.29,4.45,5.23,1.83,4.6,3.62-4.27-1.06-5.86,0,.37,3-.71,4.61c-1.28,1.85-3.83.64-4.45,2.79s3.33,5.29,1.37,6.38-2.4-3.94-4.47-4.6-3.13,2.76-5.21,2.13c-1.49-.45-.48-3.89-2-4.32s-2.15,2.83-3.7,2.66c-2-.23-2.57-4.12-4.48-3.43C536.37,449.41,536.12,452.85,534.5,451.62Z"/><circle class="cls-7" cx="499.88" cy="344.06" r="53.24"/><path class="cls-11" d="M511.35,333.29c-2.79,11.71,14.9,17.17,24.89,13.77S551.29,332,547.54,321s-20.64-24.71-24.89-13.77C521.67,309.7,512.26,329.49,511.35,333.29Z"/><ellipse class="cls-16" cx="536.62" cy="325.87" rx="12.15" ry="12.93" transform="translate(-33.82 63.67) rotate(-6.58)"/><ellipse class="cls-13" cx="540.03" cy="323.02" rx="6.75" ry="6.34" transform="translate(-33.47 64.04) rotate(-6.58)"/><path class="cls-14" d="M554.39,355.93l2.66-6.39a3.52,3.52,0,0,0-3.66-4.85l-6.71.77a3.52,3.52,0,0,0-2.45,5.56l4,5.62A3.52,3.52,0,0,0,554.39,355.93Z"/><circle class="cls-7" cx="542.91" cy="367.52" r="10.21"/><polygon class="cls-7" points="452.42 272.87 450.82 278.06 456.15 279.06 454.85 284.33 460.23 285.02 459.25 290.35 464.66 290.68 464.07 296.08 469.49 295.98 469.38 301.4 474.76 300.72 475.37 306.12 480.54 304.52 482.45 309.61 486.59 306.23 491.12 309.06 491.03 303.72 496.06 301.9 492.68 297.65 496.71 294.04 492.4 290.74 495.75 286.48 491.04 283.78 493.92 279.18 488.99 276.92 491.49 272.11 486.42 270.2 488.6 265.23 483.41 263.64 485.29 258.55 480.02 257.25 481.62 252.07 476.29 251.06 477.6 245.8 472.21 245.11 473.2 239.77 467.78 239.44 468.38 234.05 462.95 234.15 463.06 228.72 457.68 229.41 457.07 224.01 451.9 225.6 449.99 220.52 445.85 223.9 441.32 221.07 441.41 226.41 436.39 228.23 439.76 232.48 435.74 236.09 440.05 239.39 436.7 243.65 441.4 246.35 438.52 250.95 443.45 253.21 440.95 258.02 446.03 259.93 443.85 264.9 449.04 266.49 447.15 271.58 452.42 272.87"/><ellipse class="cls-2" cx="471.37" cy="263.05" rx="5.75" ry="26.78" transform="translate(-68.42 266.3) rotate(-29.51)"/><path class="cls-15" d="M544.3,377.32c-7.2,0-22.27,5.72-23.2-9.8"/><polygon class="cls-1" points="677.72 198.41 677.64 203.49 682.57 202.25 682.74 207.33 687.6 205.84 688.04 210.9 692.8 209.13 693.56 214.16 698.19 212.06 699.34 217.01 703.75 214.49 705.47 219.28 709.43 216.13 712.16 220.42 714.71 216.13 719.44 217.68 717.06 213.3 720.81 210.01 716.09 208.11 718.47 203.64 713.45 202.82 715.13 198.03 710.05 197.8 711.27 192.86 706.19 193.04 707.07 188.03 702 188.52 702.59 183.47 697.57 184.23 697.89 179.15 692.9 180.16 692.98 175.07 688.05 176.31 687.88 171.23 683.02 172.73 682.59 167.66 677.82 169.43 677.06 164.4 672.43 166.5 671.28 161.55 666.87 164.07 665.15 159.28 661.19 162.43 658.46 158.14 655.91 162.43 651.18 160.88 653.56 165.26 649.81 168.55 654.53 170.45 652.15 174.93 657.17 175.74 655.49 180.54 660.57 180.76 659.35 185.7 664.43 185.52 663.55 190.53 668.62 190.04 668.03 195.09 673.05 194.33 672.73 199.41 677.72 198.41"/><ellipse class="cls-2" cx="687.26" cy="182.11" rx="5.75" ry="26.78" transform="translate(107.7 593.93) rotate(-50.24)"/><rect class="cls-3" x="735.15" y="294.23" width="4.43" height="8.11"/><path class="cls-4" d="M602,390.72c0,1.52-3.84,3.36-3.58,4.82s4.5,1.9,5,3.3-2.46,4.45-1.72,5.75,4.88.27,5.83,1.43-.9,5,.23,6,4.72-1.27,6-.45.64,5,2,5.65,4.14-2.61,5.6-2.18,2.05,4.63,3.56,4.84,3.23-3.67,4.76-3.67,3.3,3.87,4.76,3.67,2.14-4.43,3.56-4.84,4.25,2.8,5.6,2.18.78-4.85,2-5.65,4.88,1.44,6,.45-.72-4.84.23-6,5.09-.14,5.83-1.44-2.23-4.34-1.72-5.75,4.75-1.81,5-3.3-3.58-3.3-3.58-4.82,3.84-3.36,3.58-4.82-4.5-1.9-5-3.3,2.46-4.45,1.72-5.75-4.88-.27-5.83-1.43.9-5-.23-6-4.72,1.27-6,.45-.64-5-2-5.65-4.14,2.61-5.6,2.18-2.05-4.63-3.56-4.84-3.23,3.67-4.76,3.67-3.3-3.87-4.76-3.67-2.14,4.43-3.56,4.84-4.25-2.8-5.6-2.18-.78,4.85-2,5.65-4.88-1.44-6-.45.72,4.84-.23,6-5.09.14-5.83,1.44,2.23,4.34,1.72,5.75-4.75,1.81-5,3.3S602,389.19,602,390.72Z"/><path class="cls-5" d="M602,390.72c0,1.52-3.84,3.36-3.58,4.82s4.5,1.9,5,3.3-2.46,4.45-1.72,5.75,4.88.27,5.83,1.43-.9,5,.23,6,4.72-1.27,6-.45.64,5,2,5.65,4.14-2.61,5.6-2.18,2.05,4.63,3.56,4.84,3.23-3.67,4.76-3.67,3.3,3.87,4.76,3.67,2.14-4.43,3.56-4.84,4.25,2.8,5.6,2.18.78-4.85,2-5.65,4.88,1.44,6,.45-.72-4.84.23-6,5.09-.14,5.83-1.44-2.23-4.34-1.72-5.75,4.75-1.81,5-3.3-3.58-3.3-3.58-4.82,3.84-3.36,3.58-4.82-4.5-1.9-5-3.3,2.46-4.45,1.72-5.75-4.88-.27-5.83-1.43.9-5-.23-6-4.72,1.27-6,.45-.64-5-2-5.65-4.14,2.61-5.6,2.18-2.05-4.63-3.56-4.84-3.23,3.67-4.76,3.67-3.3-3.87-4.76-3.67-2.14,4.43-3.56,4.84-4.25-2.8-5.6-2.18-.78,4.85-2,5.65-4.88-1.44-6-.45.72,4.84-.23,6-5.09.14-5.83,1.44,2.23,4.34,1.72,5.75-4.75,1.81-5,3.3S602,389.19,602,390.72Z"/><rect class="cls-6" x="736.49" y="336.26" width="21.75" height="67.9" rx="10.87" ry="10.87" transform="translate(-75.47 506.42) rotate(-35.75)"/><path class="cls-7" d="M642.22,367.86c0,.58-6,1.23-6,1.81s6,.92,6.06,1.49-5.92,1.54-5.87,2.12,6.07.6,6.13,1.17-5.83,1.85-5.75,2.42,6.1.27,6.19.84-5.72,2.16-5.62,2.73,6.1-.05,6.22.51-5.6,2.47-5.46,3,6.09-.38,6.24.17-5.46,2.76-5.29,3.31,6.06-.71,6.24-.16-5.3,3.06-5.1,3.6,6-1,6.22-.5-5.13,3.34-4.9,3.87,5.95-1.36,6.19-.84-4.94,3.61-4.68,4.13,5.86-1.68,6.13-1.17-4.73,3.88-4.45,4.38,5.76-2,6.06-1.51-4.51,4.13-4.21,4.61,5.65-2.31,6-1.84-4.28,4.37-3.95,4.84,5.51-2.62,5.86-2.16-4,4.6-3.67,5,5.36-2.92,5.73-2.48-3.77,4.81-3.39,5.24,5.19-3.21,5.58-2.79-3.5,5-3.09,5.42,5-3.5,5.42-3.1-3.22,5.2-2.79,5.59,4.8-3.77,5.24-3.4S660.57,419.6,661,420s4.58-4,5-3.69-2.61,5.53-2.14,5.87,4.34-4.29,4.82-4-2.29,5.67-1.8,6,4.08-4.53,4.58-4.24-2,5.8-1.45,6.07,3.82-4.76,4.33-4.5-1.62,5.9-1.1,6.15,3.53-5,4.06-4.74-1.27,6-.74,6.2,3.23-5.17,3.77-5-.92,6-.37,6.23,2.92-5.35,3.47-5.19-.56,6.09,0,6.24,2.6-5.52,3.16-5.38-.19,6.11.37,6.23,2.27-5.66,2.84-5.56.17,6.11.74,6.2,1.93-5.79,2.5-5.72.53,6.09,1.1,6.14,1.58-5.89,2.16-5.86.89,6.05,1.46,6.07,1.24-6,1.81-6,1.24,6,1.81,6,.89-6,1.46-6.07,1.59,5.91,2.16,5.86.53-6.08,1.1-6.14,1.93,5.8,2.5,5.72.17-6.1.74-6.2,2.27,5.68,2.84,5.56-.19-6.1.37-6.23,2.61,5.53,3.16,5.38-.55-6.08,0-6.24,2.93,5.37,3.47,5.19-.91-6-.37-6.23,3.24,5.19,3.77,5-1.26-6-.74-6.2,3.54,5,4.06,4.74-1.61-5.88-1.1-6.15,3.82,4.77,4.33,4.5-1.95-5.78-1.45-6.07,4.09,4.54,4.58,4.24-2.28-5.66-1.8-6,4.35,4.3,4.82,4-2.6-5.52-2.14-5.87,4.59,4,5,3.69-2.91-5.36-2.47-5.73,4.81,3.78,5.24,3.4-3.21-5.19-2.79-5.59,5,3.51,5.42,3.1-3.49-5-3.09-5.42,5.2,3.22,5.58,2.79-3.76-4.8-3.39-5.24,5.37,2.93,5.73,2.48-4-4.59-3.68-5,5.52,2.63,5.86,2.16-4.27-4.36-3.95-4.84,5.66,2.32,6,1.83-4.5-4.12-4.21-4.61,5.78,2,6.06,1.51-4.72-3.87-4.45-4.38,5.88,1.69,6.13,1.17-4.92-3.6-4.68-4.13,6,1.37,6.19.84-5.11-3.33-4.9-3.87,6,1,6.22.5-5.29-3-5.1-3.59,6.07.71,6.24.16-5.44-2.76-5.29-3.31,6.1.39,6.24-.17-5.58-2.46-5.46-3,6.12.06,6.22-.51-5.71-2.16-5.62-2.73,6.11-.27,6.19-.84-5.81-1.85-5.75-2.42,6.09-.59,6.13-1.17-5.9-1.54-5.87-2.12,6-.91,6.06-1.49-6-1.23-6-1.81,6-1.23,6-1.81-6-.92-6.06-1.49,5.92-1.54,5.87-2.12-6.07-.6-6.13-1.17,5.83-1.85,5.75-2.42-6.1-.27-6.19-.84,5.72-2.16,5.62-2.73-6.1.05-6.22-.51,5.6-2.47,5.46-3-6.09.38-6.24-.17,5.46-2.76,5.29-3.31-6.06.71-6.24.16,5.3-3.06,5.1-3.6-6,1-6.22.5,5.13-3.34,4.9-3.87-5.95,1.36-6.19.84,4.94-3.61,4.68-4.13-5.86,1.68-6.13,1.17,4.73-3.88,4.45-4.38-5.76,2-6.06,1.51,4.51-4.13,4.21-4.61-5.65,2.31-6,1.84,4.28-4.37,3.95-4.84-5.51,2.62-5.86,2.16,4-4.6,3.67-5-5.36,2.92-5.73,2.48,3.77-4.81,3.39-5.24-5.19,3.21-5.58,2.79,3.5-5,3.09-5.42-5,3.5-5.42,3.1,3.22-5.2,2.79-5.59-4.8,3.77-5.24,3.4,2.92-5.38,2.47-5.73-4.58,4-5,3.69,2.61-5.53,2.14-5.87-4.34,4.29-4.82,4,2.29-5.67,1.8-6-4.08,4.53-4.58,4.24,2-5.8,1.45-6.07-3.82,4.76-4.33,4.5,1.62-5.9,1.1-6.15-3.53,5-4.06,4.74,1.27-6,.74-6.2-3.23,5.17-3.77,5,.92-6,.37-6.23-2.92,5.35-3.47,5.19.56-6.09,0-6.24-2.6,5.52-3.16,5.38.19-6.11-.37-6.23-2.27,5.66-2.84,5.56-.17-6.11-.74-6.2-1.93,5.79-2.5,5.72-.53-6.09-1.1-6.14-1.58,5.89-2.16,5.86-.89-6.05-1.46-6.07-1.24,6-1.81,6-1.24-6-1.81-6-.89,6-1.46,6.07-1.59-5.91-2.16-5.86-.53,6.08-1.1,6.14-1.93-5.8-2.5-5.72-.17,6.1-.74,6.2-2.27-5.68-2.84-5.56.19,6.1-.37,6.23-2.61-5.53-3.16-5.38.55,6.08,0,6.24-2.93-5.37-3.47-5.19.91,6,.37,6.23-3.24-5.19-3.77-5,1.26,6,.74,6.2-3.54-5-4.06-4.74,1.61,5.88,1.1,6.15-3.82-4.77-4.33-4.5,1.95,5.78,1.45,6.07-4.09-4.54-4.58-4.24,2.28,5.66,1.8,6-4.35-4.3-4.82-4,2.6,5.52,2.14,5.87-4.59-4-5-3.69,2.91,5.36,2.47,5.73-4.81-3.78-5.24-3.4,3.21,5.19,2.79,5.59-5-3.51-5.42-3.1,3.49,5,3.09,5.42-5.2-3.22-5.58-2.79,3.76,4.8,3.39,5.24-5.37-2.93-5.73-2.48,4,4.59,3.68,5-5.52-2.63-5.86-2.16,4.27,4.36,3.95,4.84-5.66-2.32-6-1.83,4.5,4.12,4.21,4.61-5.78-2-6.06-1.51,4.72,3.87,4.45,4.38-5.88-1.69-6.13-1.17,4.92,3.6,4.68,4.13-6-1.37-6.19-.84,5.11,3.33,4.9,3.87-6-1-6.22-.5,5.29,3,5.1,3.59-6.07-.71-6.24-.16,5.44,2.76,5.29,3.31-6.1-.39-6.24.17,5.58,2.46,5.46,3-6.12-.06-6.22.51,5.71,2.16,5.62,2.73-6.11.27-6.19.84,5.81,1.85,5.75,2.42-6.09.59-6.13,1.17,5.9,1.54,5.87,2.12-6,.91-6.06,1.49S642.22,367.28,642.22,367.86Z"/><ellipse class="cls-6" cx="684.83" cy="406.05" rx="48.42" ry="39.74"/><path class="cls-8" d="M710.78,481.41c-3.47.7-7.28-1.61-10.88-6.1-5.21-6.5-10-17.55-12.6-30.55-4.46-22-1.17-41.18,7.34-42.9s19,14.68,23.48,36.65S719.29,479.69,710.78,481.41Z"/><rect class="cls-9" x="725.84" y="356.38" width="21.75" height="57.59" rx="10.87" ry="10.87" transform="translate(-94.28 361.64) rotate(-25.98)"/><path class="cls-10" d="M730.3,369.82c-1.6-1.2,1.29-4.3,0-5.81s-4.16,1-5.5-.46,1.47-4.05.12-5.51-3.75,1.14-5.31-.1.38-4.18-1.38-5.19-5.14,2.36-6.15.6,3.52-3.2,3.45-5.39-3.55-1.82-3.94-4c-.28-1.58,3.07-2.54,2.48-4s-4.53-.31-4.86-1.88,3.74-2.18,3.67-3.9-4.4-2.32-3.87-4,4.4.39,5.45-1-2-3.62-1-5,4.21.6,5.27-1-2.19-4.41-.76-5.67c1.66-1.46,4.12,2.08,6.06,1s.27-4.94,2.37-5.62,3.15,3.41,5.45,3.09,1.67-3.95,3.94-4.42c1.66-.34,2.57,3.22,4.19,2.72s.48-4.15,2.1-4.66c2-.62,3.13,3,5.11,2.4s1.78-5.42,3.8-5-.33,4.65,1.12,6.06,4.35-1.34,5.67.18-1.92,3.88-.84,5.37,4.69-.62,5.46,1.05-3.18,3-2.76,4.79,4.29,1,4.61,2.75c.35,2-3.55,2.54-3.31,4.51s4.34,1.75,4.31,3.74-4.12,1.69-4.43,3.7,2.89,2,3.18,4-2.76,3-1.88,4.93,5,.61,5.4,2.69-3.94,2.24-4.08,4.24,4.17,3,3.43,4.85-4.54-.38-5.81,1.17,1.7,4.63.11,5.84-3.62-2.58-5.35-1.86-.14,4-1.77,4.89-3.66-2.09-5.28-.94.25,5.29-1.68,5.73-2.08-4.09-4-4.41-2.91,3.67-4.81,3.08-.9-5.26-2.92-5.46C732.83,367.84,731.92,371,730.3,369.82Z"/><circle class="cls-7" cx="696.56" cy="261.26" r="53.24"/><path class="cls-11" d="M708,250.49c-2.79,11.71,14.9,17.17,24.89,13.77s15.05-15.09,11.3-26.1-20.64-24.71-24.89-13.77C718.36,226.91,708.94,246.69,708,250.49Z"/><ellipse class="cls-17" cx="733.3" cy="243.08" rx="12.15" ry="12.93" transform="translate(-23.03 85.67) rotate(-6.58)"/><ellipse class="cls-13" cx="736.71" cy="240.23" rx="6.75" ry="6.34" transform="translate(-22.68 86.04) rotate(-6.58)"/><path class="cls-14" d="M751.07,273.13l2.66-6.39a3.52,3.52,0,0,0-3.66-4.85l-6.71.77a3.52,3.52,0,0,0-2.45,5.56l4,5.62A3.52,3.52,0,0,0,751.07,273.13Z"/><circle class="cls-7" cx="739.59" cy="284.72" r="10.21"/><polygon class="cls-7" points="647.28 202.05 647.94 207.44 653.22 206.17 654.18 211.52 659.37 209.94 660.66 215.21 665.73 213.29 667.4 218.46 672.3 216.15 674.43 221.14 679.05 218.32 681.82 222.99 685.88 219.43 689.71 223.28 692.11 218.51 697.4 219.24 695.13 214.4 698.97 210.68 694.15 208.19 696.34 203.24 691.06 202 692.37 196.74 686.97 196.2 687.72 190.83 682.3 190.78 682.61 185.36 677.2 185.71 677.15 180.28 671.77 180.95 671.41 175.53 666.07 176.51 665.41 171.12 660.13 172.39 659.17 167.05 653.97 168.62 652.69 163.35 647.61 165.27 645.95 160.1 641.04 162.41 638.92 157.42 634.29 160.24 631.52 155.57 627.46 159.13 623.63 155.28 621.24 160.05 615.95 159.33 618.22 164.16 614.38 167.88 619.2 170.38 617 175.32 622.28 176.56 620.97 181.82 626.37 182.36 625.62 187.74 631.05 187.78 630.73 193.2 636.15 192.86 636.19 198.28 641.57 197.61 641.94 203.03 647.28 202.05"/><ellipse class="cls-2" cx="660.54" cy="185.34" rx="5.75" ry="26.78" transform="translate(119.86 607.62) rotate(-53.66)"/><path class="cls-15" d="M741,294.52c-7.2,0-22.27,5.72-23.2-9.8"/><polygon class="cls-1" points="895.24 277.81 892.53 282.11 897.39 283.61 894.89 288.04 899.82 289.29 897.56 293.85 902.55 294.81 900.59 299.5 905.63 300.11 904.04 304.94 909.12 305.08 908.09 310.06 913.13 309.43 913.22 314.52 917.63 312.18 920.87 315.95 921.11 310.98 926.03 310.12 922.98 306.05 927.34 303.46 923.48 300.15 927.4 296.93 923.18 294.09 926.78 290.51 922.35 288.02 925.71 284.2 921.13 281.99 924.25 277.98 919.57 276.01 922.48 271.84 917.7 270.11 920.41 265.81 915.55 264.31 918.05 259.88 913.12 258.63 915.38 254.07 910.38 253.11 912.35 248.42 907.3 247.81 908.9 242.98 903.82 242.84 904.84 237.85 899.81 238.49 899.72 233.4 895.3 235.74 892.07 231.96 891.83 236.94 886.91 237.8 889.96 241.87 885.6 244.46 889.46 247.76 885.54 250.99 889.76 253.83 886.15 257.41 890.58 259.9 887.23 263.72 891.81 265.93 888.68 269.94 893.37 271.9 890.46 276.07 895.24 277.81"/><ellipse class="cls-2" cx="911.86" cy="268.84" rx="5.75" ry="26.78" transform="translate(-37.9 310.32) rotate(-18.93)"/><rect class="cls-3" x="939.99" y="386.67" width="4.43" height="8.11"/><path class="cls-4" d="M806.85,483.15c0,1.52-3.84,3.36-3.58,4.82s4.5,1.9,5,3.3-2.46,4.45-1.72,5.75,4.88.27,5.83,1.43-.9,5,.23,6,4.72-1.27,6-.45.64,5,2,5.65,4.14-2.61,5.6-2.18,2.05,4.63,3.56,4.84,3.23-3.67,4.76-3.67,3.3,3.87,4.76,3.67,2.14-4.43,3.56-4.84,4.25,2.8,5.6,2.18.78-4.85,2-5.65,4.88,1.44,6,.45-.72-4.84.23-6,5.09-.14,5.83-1.44-2.23-4.34-1.72-5.75,4.75-1.81,5-3.3-3.58-3.3-3.58-4.82,3.84-3.36,3.58-4.82-4.5-1.9-5-3.3,2.46-4.45,1.72-5.75-4.88-.27-5.83-1.43.9-5-.23-6-4.72,1.27-6,.45-.64-5-2-5.65-4.14,2.61-5.6,2.18-2.05-4.63-3.56-4.84-3.23,3.67-4.76,3.67-3.3-3.87-4.76-3.67-2.14,4.43-3.56,4.84-4.25-2.8-5.6-2.18-.78,4.85-2,5.65-4.88-1.44-6-.45.72,4.84-.23,6-5.09.14-5.83,1.44,2.23,4.34,1.72,5.75-4.75,1.81-5,3.3S806.85,481.63,806.85,483.15Z"/><path class="cls-5" d="M806.85,483.15c0,1.52-3.84,3.36-3.58,4.82s4.5,1.9,5,3.3-2.46,4.45-1.72,5.75,4.88.27,5.83,1.43-.9,5,.23,6,4.72-1.27,6-.45.64,5,2,5.65,4.14-2.61,5.6-2.18,2.05,4.63,3.56,4.84,3.23-3.67,4.76-3.67,3.3,3.87,4.76,3.67,2.14-4.43,3.56-4.84,4.25,2.8,5.6,2.18.78-4.85,2-5.65,4.88,1.44,6,.45-.72-4.84.23-6,5.09-.14,5.83-1.44-2.23-4.34-1.72-5.75,4.75-1.81,5-3.3-3.58-3.3-3.58-4.82,3.84-3.36,3.58-4.82-4.5-1.9-5-3.3,2.46-4.45,1.72-5.75-4.88-.27-5.83-1.43.9-5-.23-6-4.72,1.27-6,.45-.64-5-2-5.65-4.14,2.61-5.6,2.18-2.05-4.63-3.56-4.84-3.23,3.67-4.76,3.67-3.3-3.87-4.76-3.67-2.14,4.43-3.56,4.84-4.25-2.8-5.6-2.18-.78,4.85-2,5.65-4.88-1.44-6-.45.72,4.84-.23,6-5.09.14-5.83,1.44,2.23,4.34,1.72,5.75-4.75,1.81-5,3.3S806.85,481.63,806.85,483.15Z"/><rect class="cls-6" x="941.32" y="428.7" width="21.75" height="67.9" rx="10.87" ry="10.87" transform="translate(-90.88 643.52) rotate(-35.75)"/><path class="cls-7" d="M847.06,460.3c0,.58-6,1.23-6,1.81s6,.92,6.06,1.49-5.92,1.54-5.87,2.12,6.07.6,6.13,1.17-5.83,1.85-5.75,2.42,6.1.27,6.19.84-5.72,2.16-5.62,2.73,6.1-.05,6.22.51-5.6,2.47-5.46,3,6.09-.38,6.24.17-5.46,2.76-5.29,3.31,6.06-.71,6.24-.16-5.3,3.06-5.1,3.6,6-1,6.22-.5-5.13,3.34-4.9,3.87,5.95-1.36,6.19-.84-4.94,3.61-4.68,4.13,5.86-1.68,6.13-1.17-4.73,3.88-4.45,4.38,5.76-2,6.06-1.51-4.51,4.13-4.21,4.61,5.65-2.31,6-1.84-4.28,4.37-3.95,4.84,5.51-2.62,5.86-2.16-4,4.6-3.67,5,5.36-2.92,5.73-2.48-3.77,4.81-3.39,5.24,5.19-3.21,5.58-2.79-3.5,5-3.09,5.42,5-3.5,5.42-3.1-3.22,5.2-2.79,5.59,4.8-3.77,5.24-3.4-2.92,5.38-2.47,5.73,4.58-4,5-3.69-2.61,5.53-2.14,5.87,4.34-4.29,4.82-4-2.29,5.67-1.8,6,4.08-4.53,4.58-4.24-2,5.8-1.45,6.07,3.82-4.76,4.33-4.5-1.62,5.9-1.1,6.15,3.53-5,4.06-4.74-1.27,6-.74,6.2,3.23-5.17,3.77-5-.92,6-.37,6.23,2.92-5.35,3.47-5.19-.56,6.09,0,6.24,2.6-5.52,3.16-5.38-.19,6.11.37,6.23,2.27-5.66,2.84-5.56.17,6.11.74,6.2,1.93-5.79,2.5-5.72.53,6.09,1.1,6.14,1.58-5.89,2.16-5.86.89,6.05,1.46,6.07,1.24-6,1.81-6,1.24,6,1.81,6,.89-6,1.46-6.07,1.59,5.91,2.16,5.86.53-6.08,1.1-6.14,1.93,5.8,2.5,5.72.17-6.1.74-6.2,2.27,5.68,2.84,5.56-.19-6.1.37-6.23,2.61,5.53,3.16,5.38-.55-6.08,0-6.24,2.93,5.37,3.47,5.19-.91-6-.37-6.23,3.24,5.19,3.77,5-1.26-6-.74-6.2,3.54,5,4.06,4.74-1.61-5.88-1.1-6.15,3.82,4.77,4.33,4.5-1.95-5.78-1.45-6.07,4.09,4.54,4.58,4.24-2.28-5.66-1.8-6,4.35,4.3,4.82,4-2.6-5.52-2.14-5.87,4.59,4,5,3.69-2.91-5.36-2.47-5.73,4.81,3.78,5.24,3.4-3.21-5.19-2.79-5.59,5,3.51,5.42,3.1-3.49-5-3.09-5.42,5.2,3.22,5.58,2.79-3.76-4.8-3.39-5.24,5.37,2.93,5.73,2.48-4-4.59-3.68-5,5.52,2.63,5.86,2.16-4.27-4.36-3.95-4.84,5.66,2.32,6,1.83-4.5-4.12-4.21-4.61,5.78,2,6.06,1.51-4.72-3.87-4.45-4.38,5.88,1.69,6.13,1.17-4.92-3.6-4.68-4.13,6,1.37,6.19.84-5.11-3.33-4.9-3.87,6,1,6.22.5-5.29-3-5.1-3.59,6.07.71,6.24.16-5.44-2.76-5.29-3.31,6.1.39,6.24-.17-5.58-2.46-5.46-3,6.12.06,6.22-.51-5.71-2.16-5.62-2.73,6.11-.27,6.19-.84-5.81-1.85-5.75-2.42,6.09-.59,6.13-1.17-5.9-1.54-5.87-2.12,6-.91,6.06-1.49-6-1.23-6-1.81,6-1.23,6-1.81-6-.92-6.06-1.49,5.92-1.54,5.87-2.12-6.07-.6-6.13-1.17,5.83-1.85,5.75-2.42-6.1-.27-6.19-.84,5.72-2.16,5.62-2.73-6.1.05-6.22-.51,5.6-2.47,5.46-3-6.09.38-6.24-.17,5.46-2.76,5.29-3.31-6.06.71-6.24.16,5.3-3.06,5.1-3.6-6,1-6.22.5,5.13-3.34,4.9-3.87-5.95,1.36-6.19.84,4.94-3.61,4.68-4.13-5.86,1.68-6.13,1.17,4.73-3.88,4.45-4.38-5.76,2-6.06,1.51,4.51-4.13,4.21-4.61-5.65,2.31-6,1.84,4.28-4.37,3.95-4.84-5.51,2.62-5.86,2.16,4-4.6,3.67-5-5.36,2.92-5.73,2.48,3.77-4.81,3.39-5.24-5.19,3.21-5.58,2.79,3.5-5,3.09-5.42-5,3.5-5.42,3.1,3.22-5.2,2.79-5.59-4.8,3.77-5.24,3.4,2.92-5.38,2.47-5.73-4.58,4-5,3.69,2.61-5.53,2.14-5.87-4.34,4.29-4.82,4,2.29-5.67,1.8-6-4.08,4.53-4.58,4.24,2-5.8,1.45-6.07-3.82,4.76-4.33,4.5,1.62-5.9,1.1-6.15-3.53,5-4.06,4.74,1.27-6,.74-6.2-3.23,5.17-3.77,5,.92-6,.37-6.23-2.92,5.35-3.47,5.19.56-6.09,0-6.24-2.6,5.52-3.16,5.38.19-6.11-.37-6.23-2.27,5.66-2.84,5.56-.17-6.11-.74-6.2-1.93,5.79-2.5,5.72-.53-6.09-1.1-6.14-1.58,5.89-2.16,5.86-.89-6.05-1.46-6.07-1.24,6-1.81,6-1.24-6-1.81-6-.89,6-1.46,6.07-1.59-5.91-2.16-5.86-.53,6.08-1.1,6.14-1.93-5.8-2.5-5.72-.17,6.1-.74,6.2-2.27-5.68-2.84-5.56.19,6.1-.37,6.23-2.61-5.53-3.16-5.38.55,6.08,0,6.24-2.93-5.37-3.47-5.19.91,6,.37,6.23-3.24-5.19-3.77-5,1.26,6,.74,6.2-3.54-5-4.06-4.74,1.61,5.88,1.1,6.15-3.82-4.77-4.33-4.5,1.95,5.78,1.45,6.07-4.09-4.54-4.58-4.24,2.28,5.66,1.8,6-4.35-4.3-4.82-4,2.6,5.52,2.14,5.87-4.59-4-5-3.69,2.91,5.36,2.47,5.73-4.81-3.78-5.24-3.4,3.21,5.19,2.79,5.59-5-3.51-5.42-3.1,3.49,5,3.09,5.42-5.2-3.22-5.58-2.79,3.76,4.8,3.39,5.24-5.37-2.93-5.73-2.48,4,4.59,3.68,5-5.52-2.63-5.86-2.16,4.27,4.36,3.95,4.84-5.66-2.32-6-1.83,4.5,4.12,4.21,4.61-5.78-2-6.06-1.51,4.72,3.87,4.45,4.38-5.88-1.69-6.13-1.17,4.92,3.6,4.68,4.13-6-1.37-6.19-.84,5.11,3.33,4.9,3.87-6-1-6.22-.5,5.29,3,5.1,3.59-6.07-.71-6.24-.16,5.44,2.76,5.29,3.31-6.1-.39-6.24.17,5.58,2.46,5.46,3-6.12-.06-6.22.51,5.71,2.16,5.62,2.73-6.11.27-6.19.84,5.81,1.85,5.75,2.42-6.09.59-6.13,1.17,5.9,1.54,5.87,2.12-6,.91-6.06,1.49S847.06,459.72,847.06,460.3Z"/><ellipse class="cls-6" cx="889.66" cy="498.48" rx="48.42" ry="39.74"/><path class="cls-8" d="M920.25,572.62c-3.37,1.11-7.42-.74-11.52-4.77-5.94-5.84-12-16.25-16.12-28.85-7-21.29-6-40.75,2.22-43.47s20.62,12.34,27.64,33.62S928.5,569.9,920.25,572.62Z"/><rect class="cls-9" x="930.67" y="448.82" width="21.75" height="57.59" rx="10.87" ry="10.87" transform="translate(-114.08 460.71) rotate(-25.98)"/><path class="cls-10" d="M938.26,458.64c-1.69-1.44-.42-3.81-2.55-4.41s-3.84,3.32-5.74,2.17c-1.7-1,1-4.31-.28-5.81s-4.43.93-5.56-.71,2.17-3.79,1.17-5.64-3.41,0-4.92-1.49.27-3.88-1.55-4.75-5.35,2.53-6.14.68,4.08-2.15,4.68-4.12-2.78-2.79-2.41-4.8c.29-1.57,3.74-1.19,3.79-2.78s-3.8-1.91-3.59-3.49c.24-1.8,4-1.12,4.44-2.89s-3.58-3.48-2.57-5,4.09,1.54,5.59.51-.51-4.44,1.11-5.26c2-1,3.56,2.64,5.64,1.87s.69-3.91,2.66-4.93,3.74,1.93,5.58.68-.14-4.89,1.91-5.76c1.67-.7,2.8,3.27,4.59,3s1.41-4.17,3.22-4.25,1.73,3.84,3.52,4,2.38-3.82,4.13-3.41.63,4.23,2.38,4.93,3.61-2.91,5.19-1.89-.82,4.29.64,5.66,4.88-1.26,5.83.5-3.13,3.18-2.78,5.16,4.18,1.47,4.37,3.47S966.95,422,967,424s3.8,2,3.78,4-3.79,1.91-3.86,3.9,3.57,2.06,3.57,4.06-3.64,2.05-3.57,4,3.8,1.86,3.86,3.85-3.68,2-3.64,3.91,4.26,2.47,3.72,4.3-4.4.05-5.46,1.66,2.09,4.33.66,5.62-3.74-2.2-5.4-1.36,0,4.08-1.58,5-3.5-2.26-5.17-1.29-.06,4.85-1.93,5.35-2.56-3.63-4.63-3.6-3.41,4.6-5.12,3.46,1.9-4.69.71-6.57C941.84,458.55,940,460.08,938.26,458.64Z"/><circle class="cls-7" cx="901.39" cy="353.7" r="53.24"/><path class="cls-11" d="M912.87,342.93c-2.79,11.71,14.9,17.17,24.89,13.77s15.05-15.09,11.3-26.1-20.64-24.71-24.89-13.77C923.19,319.35,913.77,339.13,912.87,342.93Z"/><ellipse class="cls-18" cx="938.13" cy="335.51" rx="12.15" ry="12.93" transform="translate(-32.28 109.76) rotate(-6.58)"/><ellipse class="cls-13" cx="941.55" cy="332.67" rx="6.75" ry="6.34" transform="translate(-31.93 110.14) rotate(-6.58)"/><path class="cls-14" d="M955.9,365.57l2.66-6.39a3.52,3.52,0,0,0-3.66-4.85l-6.71.77a3.52,3.52,0,0,0-2.45,5.56l4,5.62A3.52,3.52,0,0,0,955.9,365.57Z"/><circle class="cls-7" cx="944.42" cy="377.16" r="10.21"/><polygon class="cls-7" points="853.55 281.79 851.68 286.88 856.95 288.16 855.37 293.35 860.71 294.32 859.45 299.6 864.84 300.21 863.97 305.57 869.39 305.75 869 311.16 874.4 310.76 874.73 316.18 879.97 314.86 881.62 320.04 885.93 316.88 890.3 319.95 890.49 314.61 895.6 313.05 892.46 308.63 896.67 305.24 892.53 301.72 896.1 297.64 891.55 294.69 894.66 290.25 889.86 287.74 892.61 283.06 887.63 280.89 890.07 276.05 884.98 274.19 887.13 269.2 881.93 267.63 883.8 262.53 878.52 261.25 880.11 256.06 874.77 255.09 876.03 249.82 870.64 249.2 871.51 243.85 866.09 243.66 866.48 238.25 861.08 238.65 860.75 233.23 855.5 234.55 853.86 229.38 849.55 232.53 845.17 229.47 844.99 234.81 839.88 236.36 843.02 240.78 838.81 244.18 842.94 247.7 839.37 251.78 843.93 254.72 840.82 259.16 845.62 261.68 842.87 266.35 847.84 268.52 845.4 273.37 850.5 275.23 848.35 280.21 853.55 281.79"/><ellipse class="cls-2" cx="872.99" cy="272.96" rx="5.75" ry="26.78" transform="translate(-30.05 418.35) rotate(-26.51)"/><path class="cls-15" d="M945.82,387c-7.2,0-22.27,5.72-23.2-9.8"/><polygon class="cls-1" points="1091.07 364.03 1088.59 368.47 1093.53 369.7 1091.28 374.26 1096.27 375.24 1094.27 379.91 1099.3 380.6 1097.6 385.39 1102.67 385.72 1101.35 390.63 1106.42 390.49 1105.67 395.52 1110.66 394.62 1111.04 399.69 1115.32 397.11 1118.76 400.7 1118.72 395.73 1123.59 394.6 1120.32 390.69 1124.53 387.87 1120.49 384.78 1124.23 381.35 1119.86 378.75 1123.26 374.98 1118.7 372.73 1121.84 368.73 1117.14 366.78 1120.05 362.6 1115.26 360.9 1117.94 356.57 1113.07 355.1 1115.54 350.66 1110.6 349.43 1112.85 344.87 1107.86 343.89 1109.87 339.22 1104.83 338.53 1106.53 333.74 1101.46 333.4 1102.79 328.5 1097.71 328.64 1098.46 323.61 1093.47 324.51 1093.09 319.44 1088.82 322.02 1085.38 318.43 1085.41 323.4 1080.55 324.53 1083.81 328.44 1079.6 331.26 1083.64 334.35 1079.9 337.78 1084.27 340.38 1080.87 344.15 1085.43 346.4 1082.29 350.4 1086.98 352.35 1084.08 356.53 1088.88 358.23 1086.19 362.56 1091.07 364.03"/><ellipse class="cls-2" cx="1107.17" cy="354.16" rx="5.75" ry="26.78" transform="translate(-51.93 442.18) rotate(-22.08)"/><rect class="cls-3" x="1135.58" y="472.27" width="4.43" height="8.11"/><path class="cls-4" d="M1002.44,568.76c0,1.52-3.84,3.36-3.58,4.82s4.5,1.9,5,3.3-2.46,4.45-1.72,5.75,4.88.27,5.83,1.43-.9,5,.23,6,4.72-1.27,6-.45.64,5,2,5.65,4.14-2.61,5.6-2.18,2.05,4.63,3.56,4.84,3.23-3.67,4.76-3.67,3.3,3.87,4.76,3.67,2.14-4.43,3.56-4.84,4.25,2.8,5.6,2.18.78-4.85,2-5.65,4.88,1.44,6,.45-.72-4.84.23-6,5.09-.14,5.83-1.44-2.23-4.34-1.72-5.75,4.75-1.81,5-3.3-3.58-3.3-3.58-4.82,3.84-3.36,3.58-4.82-4.5-1.9-5-3.3,2.46-4.45,1.72-5.75-4.88-.27-5.83-1.43.9-5-.23-6-4.72,1.27-6,.45-.64-5-2-5.65-4.14,2.61-5.6,2.18-2.05-4.63-3.56-4.84-3.23,3.67-4.76,3.67-3.3-3.87-4.76-3.67-2.14,4.43-3.56,4.84-4.25-2.8-5.6-2.18-.78,4.85-2,5.65-4.88-1.44-6-.45.72,4.84-.23,6-5.09.14-5.83,1.44,2.23,4.34,1.72,5.75-4.75,1.81-5,3.3S1002.44,567.24,1002.44,568.76Z"/><path class="cls-5" d="M1002.44,568.76c0,1.52-3.84,3.36-3.58,4.82s4.5,1.9,5,3.3-2.46,4.45-1.72,5.75,4.88.27,5.83,1.43-.9,5,.23,6,4.72-1.27,6-.45.64,5,2,5.65,4.14-2.61,5.6-2.18,2.05,4.63,3.56,4.84,3.23-3.67,4.76-3.67,3.3,3.87,4.76,3.67,2.14-4.43,3.56-4.84,4.25,2.8,5.6,2.18.78-4.85,2-5.65,4.88,1.44,6,.45-.72-4.84.23-6,5.09-.14,5.83-1.44-2.23-4.34-1.72-5.75,4.75-1.81,5-3.3-3.58-3.3-3.58-4.82,3.84-3.36,3.58-4.82-4.5-1.9-5-3.3,2.46-4.45,1.72-5.75-4.88-.27-5.83-1.43.9-5-.23-6-4.72,1.27-6,.45-.64-5-2-5.65-4.14,2.61-5.6,2.18-2.05-4.63-3.56-4.84-3.23,3.67-4.76,3.67-3.3-3.87-4.76-3.67-2.14,4.43-3.56,4.84-4.25-2.8-5.6-2.18-.78,4.85-2,5.65-4.88-1.44-6-.45.72,4.84-.23,6-5.09.14-5.83,1.44,2.23,4.34,1.72,5.75-4.75,1.81-5,3.3S1002.44,567.24,1002.44,568.76Z"/><rect class="cls-6" x="1136.92" y="514.3" width="21.75" height="67.9" rx="10.87" ry="10.87" transform="translate(-104.04 773.93) rotate(-35.75)"/><path class="cls-7" d="M1042.65,545.9c0,.58-6,1.23-6,1.81s6,.92,6.06,1.49-5.92,1.54-5.87,2.12,6.07.6,6.13,1.17-5.83,1.85-5.75,2.42,6.1.27,6.19.84-5.72,2.16-5.62,2.73,6.1-.05,6.22.51-5.6,2.47-5.46,3,6.09-.38,6.24.17-5.46,2.76-5.29,3.31,6.06-.71,6.24-.16-5.3,3.06-5.1,3.6,6-1,6.22-.5-5.13,3.34-4.9,3.87,5.95-1.36,6.19-.84-4.94,3.61-4.68,4.13,5.86-1.68,6.13-1.17-4.73,3.88-4.45,4.38,5.76-2,6.06-1.51-4.51,4.13-4.21,4.61,5.65-2.31,6-1.84-4.28,4.37-3.95,4.84,5.51-2.62,5.86-2.16-4,4.6-3.67,5,5.36-2.92,5.73-2.48-3.77,4.81-3.39,5.24,5.19-3.21,5.58-2.79-3.5,5-3.09,5.42,5-3.5,5.42-3.1-3.22,5.2-2.79,5.59,4.8-3.77,5.24-3.4-2.92,5.38-2.47,5.73,4.58-4,5-3.69-2.61,5.53-2.14,5.87,4.34-4.29,4.82-4-2.29,5.67-1.8,6,4.08-4.53,4.58-4.24-2,5.8-1.45,6.07,3.82-4.76,4.33-4.5-1.62,5.9-1.1,6.15,3.53-5,4.06-4.74-1.27,6-.74,6.2,3.23-5.17,3.77-5-.92,6-.37,6.23,2.92-5.35,3.47-5.19-.56,6.09,0,6.24,2.6-5.52,3.16-5.38-.19,6.11.37,6.23,2.27-5.66,2.84-5.56.17,6.11.74,6.2,1.93-5.79,2.5-5.72.53,6.09,1.1,6.14,1.58-5.89,2.16-5.86.89,6.05,1.46,6.07,1.24-6,1.81-6,1.24,6,1.81,6,.89-6,1.46-6.07,1.59,5.91,2.16,5.86.53-6.08,1.1-6.14,1.93,5.8,2.5,5.72.17-6.1.74-6.2,2.27,5.68,2.84,5.56-.19-6.1.37-6.23,2.61,5.53,3.16,5.38-.55-6.08,0-6.24,2.93,5.37,3.47,5.19-.91-6-.37-6.23,3.24,5.19,3.77,5-1.26-6-.74-6.2,3.54,5,4.06,4.74-1.61-5.88-1.1-6.15,3.82,4.77,4.33,4.5-1.95-5.78-1.45-6.07,4.09,4.54,4.58,4.24-2.28-5.66-1.8-6,4.35,4.3,4.82,4-2.6-5.52-2.14-5.87,4.59,4,5,3.69-2.91-5.36-2.47-5.73,4.81,3.78,5.24,3.4-3.21-5.19-2.79-5.59,5,3.51,5.42,3.1-3.49-5-3.09-5.42,5.2,3.22,5.58,2.79-3.76-4.8-3.39-5.24,5.37,2.93,5.73,2.48-4-4.59-3.68-5,5.52,2.63,5.86,2.16-4.27-4.36-3.95-4.84,5.66,2.32,6,1.83-4.5-4.12-4.21-4.61,5.78,2,6.06,1.51-4.72-3.87-4.45-4.38,5.88,1.69,6.13,1.17-4.92-3.6-4.68-4.13,6,1.37,6.19.84-5.11-3.33-4.9-3.87,6,1,6.22.5-5.29-3-5.1-3.59,6.07.71,6.24.16-5.44-2.76-5.29-3.31,6.1.39,6.24-.17-5.58-2.46-5.46-3,6.12.06,6.22-.51-5.71-2.16-5.62-2.73,6.11-.27,6.19-.84-5.81-1.85-5.75-2.42,6.09-.59,6.13-1.17-5.9-1.54-5.87-2.12,6-.91,6.06-1.49-6-1.23-6-1.81,6-1.23,6-1.81-6-.92-6.06-1.49,5.92-1.54,5.87-2.12-6.07-.6-6.13-1.17,5.83-1.85,5.75-2.42-6.1-.27-6.19-.84,5.72-2.16,5.62-2.73-6.1.05-6.22-.51,5.6-2.47,5.46-3-6.09.38-6.24-.17,5.46-2.76,5.29-3.31-6.06.71-6.24.16,5.3-3.06,5.1-3.6-6,1-6.22.5,5.13-3.34,4.9-3.87-5.95,1.36-6.19.84,4.94-3.61,4.68-4.13-5.86,1.68-6.13,1.17,4.73-3.88,4.45-4.38-5.76,2-6.06,1.51,4.51-4.13,4.21-4.61-5.65,2.31-6,1.84,4.28-4.37,3.95-4.84-5.51,2.62-5.86,2.16,4-4.6,3.67-5-5.36,2.92-5.73,2.48,3.77-4.81,3.39-5.24-5.19,3.21-5.58,2.79,3.5-5,3.09-5.42-5,3.5-5.42,3.1,3.22-5.2,2.79-5.59-4.8,3.77-5.24,3.4,2.92-5.38,2.47-5.73-4.58,4-5,3.69,2.61-5.53,2.14-5.87-4.34,4.29-4.82,4,2.29-5.67,1.8-6-4.08,4.53-4.58,4.24,2-5.8,1.45-6.07-3.82,4.76-4.33,4.5,1.62-5.9,1.1-6.15-3.53,5-4.06,4.74,1.27-6,.74-6.2-3.23,5.17-3.77,5,.92-6,.37-6.23-2.92,5.35-3.47,5.19.56-6.09,0-6.24-2.6,5.52-3.16,5.38.19-6.11-.37-6.23-2.27,5.66-2.84,5.56-.17-6.11-.74-6.2-1.93,5.79-2.5,5.72-.53-6.09-1.1-6.14-1.58,5.89-2.16,5.86-.89-6.05-1.46-6.07-1.24,6-1.81,6-1.24-6-1.81-6-.89,6-1.46,6.07-1.59-5.91-2.16-5.86-.53,6.08-1.1,6.14-1.93-5.8-2.5-5.72-.17,6.1-.74,6.2-2.27-5.68-2.84-5.56.19,6.1-.37,6.23-2.61-5.53-3.16-5.38.55,6.08,0,6.24-2.93-5.37-3.47-5.19.91,6,.37,6.23-3.24-5.19-3.77-5,1.26,6,.74,6.2-3.54-5-4.06-4.74,1.61,5.88,1.1,6.15-3.82-4.77-4.33-4.5,1.95,5.78,1.45,6.07-4.09-4.54-4.58-4.24,2.28,5.66,1.8,6-4.35-4.3-4.82-4,2.6,5.52,2.14,5.87-4.59-4-5-3.69,2.91,5.36,2.47,5.73-4.81-3.78-5.24-3.4,3.21,5.19,2.79,5.59-5-3.51-5.42-3.1,3.49,5,3.09,5.42-5.2-3.22-5.58-2.79,3.76,4.8,3.39,5.24-5.37-2.93-5.73-2.48,4,4.59,3.68,5-5.52-2.63-5.86-2.16,4.27,4.36,3.95,4.84-5.66-2.32-6-1.83,4.5,4.12,4.21,4.61-5.78-2-6.06-1.51,4.72,3.87,4.45,4.38-5.88-1.69-6.13-1.17,4.92,3.6,4.68,4.13-6-1.37-6.19-.84,5.11,3.33,4.9,3.87-6-1-6.22-.5,5.29,3,5.1,3.59-6.07-.71-6.24-.16,5.44,2.76,5.29,3.31-6.1-.39-6.24.17,5.58,2.46,5.46,3-6.12-.06-6.22.51,5.71,2.16,5.62,2.73-6.11.27-6.19.84,5.81,1.85,5.75,2.42-6.09.59-6.13,1.17,5.9,1.54,5.87,2.12-6,.91-6.06,1.49S1042.65,545.32,1042.65,545.9Z"/><ellipse class="cls-6" cx="1085.26" cy="584.09" rx="48.42" ry="39.74"/><path class="cls-8" d="M1141.63,632.55c-1.12,3.36-5,5.5-10.72,6.38-8.23,1.26-20.18-.13-32.76-4.34-21.26-7.11-36.26-19.55-33.51-27.78s22.22-9.15,43.48-2S1144.39,624.32,1141.63,632.55Z"/><rect class="cls-9" x="1126.27" y="534.42" width="21.75" height="57.59" rx="10.87" ry="10.87" transform="translate(-131.81 555.04) rotate(-25.98)"/><path class="cls-10" d="M1132.41,546.56c-1.82-.85.07-4.31-1.62-5.39s-4.27,2.13-5.69.7,1.75-4,.64-5.76-3.4.28-5-1,0-3.94-1.91-4.77-4.76,2.81-6,1.15,3-3.46,2.67-5.51-4.06-1.58-4.28-3.64c-.17-1.6,3.61-1.88,3.53-3.49s-3.69-1.35-3.83-3,3.44-2.08,3.21-3.73-4.55-2-4-3.62,4.24.62,5.39-.58-1.52-3.39-.56-4.75c1.08-1.53,4,.28,4.9-1.37s-2.49-4.2-1.15-5.5c1.59-1.54,4.11,1.87,6,.79s.17-4.47,2.16-5.43,3.54,2.54,5.59,1.7.63-4.2,2.66-5.08c1.78-.77,3.28,2.55,5,1.74s.87-5.22,2.82-5.15.81,4.4,2.54,5.33,3.14-2.18,5-1.5.83,3.94,2.69,4.35,3.77-3.62,5.27-2.44-2,4-1.16,5.67,4.43.22,5.06,2-3.18,2.72-2.81,4.44,4.08,1,4.37,2.75c.33,2-3.41,2.5-3.16,4.47s4.21,1.76,4.17,3.74-4,1.69-4.31,3.7,2.51,1.91,3,3.89c.52,2.21-2.1,3.33-.85,5.23s5.22.11,5.81,2.29c.55,2-3.78,2.42-3.94,4.49s4.25,3.74,3,5.4c-1.37,1.81-4.29-1.9-6.38-1s-.52,3.83-2.42,5.06c-1.37.88-3.46-1.66-4.59-.49s1.43,4.29.07,5.18-3.23-2.7-4.82-2.12-.7,4.6-2.39,4.74-1.49-4-3.17-4.27-2.47,3.4-4.12,3-1.34-4.8-3.17-4.7C1134.38,544.22,1134.08,547.34,1132.41,546.56Z"/><circle class="cls-7" cx="1096.99" cy="439.31" r="53.24"/><path class="cls-11" d="M1108.46,428.54c-2.79,11.71,14.9,17.17,24.89,13.77s15.05-15.09,11.3-26.1-20.64-24.71-24.89-13.77C1118.79,405,1109.37,424.74,1108.46,428.54Z"/><ellipse class="cls-19" cx="1133.73" cy="421.12" rx="12.15" ry="12.93" transform="translate(-40.8 132.75) rotate(-6.58)"/><ellipse class="cls-13" cx="1137.14" cy="418.27" rx="6.75" ry="6.34" transform="translate(-40.46 133.13) rotate(-6.58)"/><path class="cls-14" d="M1151.5,451.18l2.66-6.39a3.52,3.52,0,0,0-3.66-4.85l-6.71.77a3.52,3.52,0,0,0-2.45,5.56l4,5.62A3.52,3.52,0,0,0,1151.5,451.18Z"/><circle class="cls-7" cx="1140.02" cy="462.77" r="10.21"/><polygon class="cls-7" points="1049.27 367.63 1047.48 372.75 1052.78 373.94 1051.28 379.16 1056.63 380.04 1055.46 385.34 1060.86 385.86 1060.08 391.23 1065.5 391.32 1065.2 396.74 1070.6 396.25 1071.01 401.67 1076.23 400.26 1077.97 405.41 1082.22 402.18 1086.65 405.17 1086.75 399.83 1091.83 398.19 1088.61 393.82 1092.77 390.36 1088.58 386.91 1092.08 382.77 1087.47 379.9 1090.51 375.41 1085.66 372.97 1088.34 368.25 1083.33 366.17 1085.69 361.28 1080.56 359.5 1082.63 354.49 1077.4 353 1079.19 347.88 1073.9 346.68 1075.39 341.46 1070.04 340.59 1071.21 335.29 1065.81 334.76 1066.6 329.39 1061.17 329.3 1061.47 323.88 1056.08 324.37 1055.66 318.96 1050.44 320.37 1048.7 315.22 1044.45 318.44 1040.02 315.45 1039.92 320.8 1034.84 322.43 1038.06 326.8 1033.91 330.27 1038.1 333.72 1034.59 337.86 1039.2 340.73 1036.16 345.21 1041.01 347.65 1038.33 352.37 1043.34 354.46 1040.98 359.35 1046.11 361.12 1044.04 366.14 1049.27 367.63"/><ellipse class="cls-2" cx="1068.55" cy="358.48" rx="5.75" ry="26.78" transform="translate(-44.91 533.16) rotate(-27.46)"/><path class="cls-15" d="M1141.41,472.57c-7.2,0-22.27,5.72-23.2-9.8"/><polygon class="cls-1" points="89.94 478.13 86.61 481.97 91.19 484.19 88.05 488.19 92.73 490.17 89.82 494.33 94.61 496.04 91.95 500.38 96.85 501.74 94.55 506.28 99.55 507.18 97.78 511.95 102.85 512.09 102.18 517.13 106.89 515.48 109.52 519.7 110.51 514.82 115.5 514.71 113.11 510.23 117.81 508.32 114.48 504.48 118.85 501.88 115.1 498.44 119.21 495.44 115.2 492.31 119.09 489.04 114.9 486.16 118.6 482.67 114.26 480.02 117.77 476.34 113.3 473.9 116.63 470.06 112.05 467.84 115.19 463.84 110.51 461.86 113.42 457.7 108.64 456 111.29 451.65 106.39 450.29 108.69 445.75 103.69 444.85 105.46 440.08 100.39 439.95 101.06 434.9 96.35 436.55 93.72 432.33 92.73 437.21 87.74 437.32 90.14 441.81 85.44 443.71 88.76 447.56 84.39 450.15 88.14 453.6 84.03 456.59 88.04 459.72 84.15 462.99 88.34 465.87 84.64 469.36 88.98 472.01 85.47 475.69 89.94 478.13"/><ellipse class="cls-2" cx="107.72" cy="471.77" rx="5.75" ry="26.78" transform="translate(-82.26 26.71) rotate(-10.25)"/><rect class="cls-3" x="135.14" y="588.72" width="4.43" height="8.11"/><path class="cls-4" d="M2,685.21c0,1.52-3.84,3.36-3.58,4.82s4.5,1.9,5,3.3S1,697.78,1.72,699.08s4.88.27,5.83,1.43-.9,5,.23,6,4.72-1.27,6-.45.64,5,2,5.65,4.14-2.61,5.6-2.18,2.05,4.63,3.56,4.84,3.23-3.67,4.76-3.67,3.3,3.87,4.76,3.67,2.14-4.43,3.56-4.84,4.25,2.8,5.6,2.18.78-4.85,2-5.65,4.88,1.44,6,.45-.72-4.84.23-6,5.09-.14,5.83-1.44-2.23-4.34-1.72-5.75,4.75-1.81,5-3.3-3.58-3.3-3.58-4.82,3.84-3.36,3.58-4.82-4.5-1.9-5-3.3,2.46-4.45,1.72-5.75-4.88-.27-5.83-1.43.9-5-.23-6-4.72,1.27-6,.45-.64-5-2-5.65-4.14,2.61-5.6,2.18S36,656.26,34.45,656s-3.23,3.67-4.76,3.67-3.3-3.87-4.76-3.67-2.14,4.43-3.56,4.84-4.25-2.8-5.6-2.18-.78,4.85-2,5.65-4.88-1.44-6-.45.72,4.84-.23,6-5.09.14-5.83,1.44,2.23,4.34,1.72,5.75-4.75,1.81-5,3.3S2,683.69,2,685.21Z"/><path class="cls-5" d="M2,685.21c0,1.52-3.84,3.36-3.58,4.82s4.5,1.9,5,3.3S1,697.78,1.72,699.08s4.88.27,5.83,1.43-.9,5,.23,6,4.72-1.27,6-.45.64,5,2,5.65,4.14-2.61,5.6-2.18,2.05,4.63,3.56,4.84,3.23-3.67,4.76-3.67,3.3,3.87,4.76,3.67,2.14-4.43,3.56-4.84,4.25,2.8,5.6,2.18.78-4.85,2-5.65,4.88,1.44,6,.45-.72-4.84.23-6,5.09-.14,5.83-1.44-2.23-4.34-1.72-5.75,4.75-1.81,5-3.3-3.58-3.3-3.58-4.82,3.84-3.36,3.58-4.82-4.5-1.9-5-3.3,2.46-4.45,1.72-5.75-4.88-.27-5.83-1.43.9-5-.23-6-4.72,1.27-6,.45-.64-5-2-5.65-4.14,2.61-5.6,2.18S36,656.26,34.45,656s-3.23,3.67-4.76,3.67-3.3-3.87-4.76-3.67-2.14,4.43-3.56,4.84-4.25-2.8-5.6-2.18-.78,4.85-2,5.65-4.88-1.44-6-.45.72,4.84-.23,6-5.09.14-5.83,1.44,2.23,4.34,1.72,5.75-4.75,1.81-5,3.3S2,683.69,2,685.21Z"/><rect class="cls-6" x="136.47" y="630.75" width="21.75" height="67.9" rx="10.87" ry="10.87" transform="translate(-360.6 211.35) rotate(-35.75)"/><path class="cls-7" d="M42.21,662.35c0,.58-6,1.23-6,1.81s6,.92,6.06,1.49-5.92,1.54-5.87,2.12,6.07.6,6.13,1.17-5.83,1.85-5.75,2.42,6.1.27,6.19.84-5.72,2.16-5.62,2.73,6.1-.05,6.22.51-5.6,2.47-5.46,3,6.09-.38,6.24.17-5.46,2.76-5.29,3.31,6.06-.71,6.24-.16-5.3,3.06-5.1,3.6,6-1,6.22-.5-5.13,3.34-4.9,3.87,5.95-1.36,6.19-.84S42.79,691.53,43,692s5.86-1.68,6.13-1.17-4.73,3.88-4.45,4.38,5.76-2,6.06-1.51-4.51,4.13-4.21,4.61,5.65-2.31,6-1.84-4.28,4.37-3.95,4.84,5.51-2.62,5.86-2.16-4,4.6-3.67,5,5.36-2.92,5.73-2.48-3.77,4.81-3.39,5.24,5.19-3.21,5.58-2.79-3.5,5-3.09,5.42,5-3.5,5.42-3.1-3.22,5.2-2.79,5.59,4.8-3.77,5.24-3.4-2.92,5.38-2.47,5.73,4.58-4,5-3.69-2.61,5.53-2.14,5.87,4.34-4.29,4.82-4-2.29,5.67-1.8,6,4.08-4.53,4.58-4.24-2,5.8-1.45,6.07,3.82-4.76,4.33-4.5-1.62,5.9-1.1,6.15,3.53-5,4.06-4.74-1.27,6-.74,6.2,3.23-5.17,3.77-5-.92,6-.37,6.23,2.92-5.35,3.47-5.19-.56,6.09,0,6.24,2.6-5.52,3.16-5.38-.19,6.11.37,6.23,2.27-5.66,2.84-5.56.17,6.11.74,6.2,1.93-5.79,2.5-5.72.53,6.09,1.1,6.14,1.58-5.89,2.16-5.86.89,6.05,1.46,6.07,1.24-6,1.81-6,1.24,6,1.81,6,.89-6,1.46-6.07,1.59,5.91,2.16,5.86.53-6.08,1.1-6.14,1.93,5.8,2.5,5.72.17-6.1.74-6.2,2.27,5.68,2.84,5.56-.19-6.1.37-6.23,2.61,5.53,3.16,5.38-.55-6.08,0-6.24,2.93,5.37,3.47,5.19-.91-6-.37-6.23,3.24,5.19,3.77,5-1.26-6-.74-6.2,3.54,5,4.06,4.74-1.61-5.88-1.1-6.15,3.82,4.77,4.33,4.5-1.95-5.78-1.45-6.07,4.09,4.54,4.58,4.24-2.28-5.66-1.8-6,4.35,4.3,4.82,4-2.6-5.52-2.14-5.87,4.59,4,5,3.69-2.91-5.36-2.47-5.73,4.81,3.78,5.24,3.4-3.21-5.19-2.79-5.59,5,3.51,5.42,3.1-3.49-5-3.09-5.42,5.2,3.22,5.58,2.79-3.76-4.8-3.39-5.24,5.37,2.93,5.73,2.48-4-4.59-3.68-5,5.52,2.63,5.86,2.16-4.27-4.36-3.95-4.84,5.66,2.32,6,1.83-4.5-4.12-4.21-4.61,5.78,2,6.06,1.51-4.72-3.87-4.45-4.38,5.88,1.69,6.13,1.17-4.92-3.6-4.68-4.13,6,1.37,6.19.84-5.11-3.33-4.9-3.87,6,1,6.22.5-5.29-3-5.1-3.59,6.07.71,6.24.16-5.44-2.76-5.29-3.31,6.1.39,6.24-.17-5.58-2.46-5.46-3,6.12.06,6.22-.51-5.71-2.16-5.62-2.73,6.11-.27,6.19-.84-5.81-1.85-5.75-2.42,6.09-.59,6.13-1.17-5.9-1.54-5.87-2.12,6-.91,6.06-1.49-6-1.23-6-1.81,6-1.23,6-1.81-6-.92-6.06-1.49,5.92-1.54,5.87-2.12-6.07-.6-6.13-1.17,5.83-1.85,5.75-2.42-6.1-.27-6.19-.84,5.72-2.16,5.62-2.73-6.1.05-6.22-.51,5.6-2.47,5.46-3-6.09.38-6.24-.17,5.46-2.76,5.29-3.31-6.06.71-6.24.16,5.3-3.06,5.1-3.6-6,1-6.22.5,5.13-3.34,4.9-3.87-5.95,1.36-6.19.84,4.94-3.61,4.68-4.13-5.86,1.68-6.13,1.17,4.73-3.88,4.45-4.38-5.76,2-6.06,1.51,4.51-4.13,4.21-4.61-5.65,2.31-6,1.84,4.28-4.37,3.95-4.84-5.51,2.62-5.86,2.16,4-4.6,3.67-5-5.36,2.92-5.73,2.48,3.77-4.81,3.39-5.24-5.19,3.21-5.58,2.79,3.5-5,3.09-5.42-5,3.5-5.42,3.1,3.22-5.2,2.79-5.59-4.8,3.77-5.24,3.4,2.92-5.38,2.47-5.73-4.58,4-5,3.69,2.61-5.53,2.14-5.87-4.34,4.29-4.82,4,2.29-5.67,1.8-6-4.08,4.53-4.58,4.24,2-5.8,1.45-6.07-3.82,4.76-4.33,4.5,1.62-5.9,1.1-6.15-3.53,5-4.06,4.74,1.27-6,.74-6.2-3.23,5.17-3.77,5,.92-6,.37-6.23-2.92,5.35-3.47,5.19.56-6.09,0-6.24-2.6,5.52-3.16,5.38.19-6.11-.37-6.23-2.27,5.66-2.84,5.56-.17-6.11-.74-6.2-1.93,5.79-2.5,5.72-.53-6.09-1.1-6.14-1.58,5.89-2.16,5.86-.89-6.05-1.46-6.07-1.24,6-1.81,6-1.24-6-1.81-6-.89,6-1.46,6.07-1.59-5.91-2.16-5.86-.53,6.08-1.1,6.14-1.93-5.8-2.5-5.72-.17,6.1-.74,6.2S87.58,597.85,87,598s.19,6.1-.37,6.23-2.61-5.53-3.16-5.38.55,6.08,0,6.24-2.93-5.37-3.47-5.19.91,6,.37,6.23-3.24-5.19-3.77-5,1.26,6,.74,6.2-3.54-5-4.06-4.74,1.61,5.88,1.1,6.15S70.55,604,70,604.24,72,610,71.5,610.31s-4.09-4.54-4.58-4.24,2.28,5.66,1.8,6-4.35-4.3-4.82-4,2.6,5.52,2.14,5.87-4.59-4-5-3.69,2.91,5.36,2.47,5.73-4.81-3.78-5.24-3.4,3.21,5.19,2.79,5.59-5-3.51-5.42-3.1,3.49,5,3.09,5.42-5.2-3.22-5.58-2.79,3.76,4.8,3.39,5.24-5.37-2.93-5.73-2.48,4,4.59,3.68,5-5.52-2.63-5.86-2.16,4.27,4.36,3.95,4.84-5.66-2.32-6-1.83,4.5,4.12,4.21,4.61-5.78-2-6.06-1.51,4.72,3.87,4.45,4.38-5.88-1.69-6.13-1.17,4.92,3.6,4.68,4.13-6-1.37-6.19-.84,5.11,3.33,4.9,3.87-6-1-6.22-.5,5.29,3,5.1,3.59-6.07-.71-6.24-.16,5.44,2.76,5.29,3.31-6.1-.39-6.24.17,5.58,2.46,5.46,3-6.12-.06-6.22.51,5.71,2.16,5.62,2.73-6.11.27-6.19.84,5.81,1.85,5.75,2.42-6.09.59-6.13,1.17,5.9,1.54,5.87,2.12-6,.91-6.06,1.49S42.21,661.77,42.21,662.35Z"/><ellipse class="cls-6" cx="84.81" cy="700.54" rx="48.42" ry="39.74"/><path class="cls-8" d="M143.28,736.13c0,3.55-3,6.82-8.14,9.45-7.41,3.81-19.18,6.28-32.45,6.28-22.42,0-40.59-7-40.59-15.72s18.17-15.72,40.59-15.72S143.28,727.45,143.28,736.13Z"/><rect class="cls-9" x="125.82" y="650.87" width="21.75" height="57.59" rx="10.87" ry="10.87" transform="translate(-283.92 128.56) rotate(-25.98)"/><path class="cls-10" d="M134,660.18c-1.68-1.28-.23-3.81-2.18-4.61s-4.15,2.73-5.73,1.34,1.66-4,.64-5.82-3.16-.1-4.73-1.48-.13-3.74-2.08-4.54-4.08,2.72-5.7,1.36c-1.36-1.14,1.81-3.74,1-5.3s-3.88.14-4.76-1.4,2-3.41,1.06-5-4.73-.1-5.17-2,3.59-2.24,3.72-4.19-4-3.17-3-4.89,4.17,1.09,5.78-.08-.45-4,1.16-5.18c1.35-1,3.4,1.88,4.75.91s-.55-4.27,1-5c2-.92,3.35,2.67,5.51,2.06s1-3.18,2.89-4.39,3.84.87,5.42-.9-1-5.4,1.19-6.33c1.72-.73,2.22,3.66,4.06,4s2.33-3,4.18-2.82c1.56.18,1.3,3.56,2.87,3.62s1.82-3.52,3.39-3.36c1.85.18,1.41,3.75,3.25,4s3.67-3.72,5.08-2.51-2.27,3.62-1.72,5.39,3.82.7,4.42,2.46c.54,1.56-2.7,2.74-2.1,4.28s4,.32,4.48,1.88c.65,1.92-2.75,3-2.16,5s4.3,1.12,4.59,3.13S161.52,632,161.5,634s3.42,2,3.45,4-3.41,2.09-3.32,4.07,3.78,2,3.68,4c-.09,1.77-3.77,1.38-4.05,3.13s3.28,2.48,2.86,4.21-4,.81-4.54,2.59,3,3.77,1.85,5.22-3.85-1.71-5.48-.79-.13,4.56-1.94,5.06-2.26-3.43-4-3.41-1.64,3.4-3.42,3.53-2.14-3.24-3.92-3-2.4,4.55-4,3.82,1.13-4.66-.23-5.9S135.46,661.3,134,660.18Z"/><circle class="cls-7" cx="96.54" cy="555.76" r="53.24"/><path class="cls-11" d="M108,545c-2.79,11.71,14.9,17.17,24.89,13.77s15.05-15.09,11.3-26.1-20.64-24.71-24.89-13.77C118.34,521.4,108.93,541.19,108,545Z"/><ellipse class="cls-20" cx="133.29" cy="537.57" rx="12.15" ry="12.93" transform="translate(-60.75 18.83) rotate(-6.58)"/><ellipse class="cls-13" cx="136.7" cy="534.72" rx="6.75" ry="6.34" transform="translate(-60.4 19.2) rotate(-6.58)"/><path class="cls-14" d="M151.05,567.63l2.66-6.39a3.52,3.52,0,0,0-3.66-4.85l-6.71.77a3.52,3.52,0,0,0-2.45,5.56l4,5.62A3.52,3.52,0,0,0,151.05,567.63Z"/><circle class="cls-7" cx="139.58" cy="579.22" r="10.21"/><polygon class="cls-7" points="47.29 479.59 44.07 483.95 48.77 486.66 45.8 491.2 50.66 493.63 47.97 498.34 52.97 500.44 50.63 505.33 55.78 507.03 53.89 512.11 59.19 513.24 57.99 518.54 63.4 518.74 63.53 524.17 68.55 522.35 71.89 526.51 73.57 521.44 78.91 521.38 77.13 516.25 82.12 514.17 79.14 509.63 83.7 506.71 80.15 502.61 84.39 499.23 80.48 495.46 84.43 491.75 80.26 488.27 83.96 484.3 79.58 481.09 83.04 476.9 78.49 473.94 81.72 469.57 77.01 466.87 79.98 462.32 75.13 459.9 77.81 455.19 72.81 453.09 75.15 448.19 70 446.5 71.89 441.41 66.59 440.28 67.79 434.99 62.39 434.79 62.26 429.36 57.24 431.18 53.89 427.02 52.22 432.09 46.88 432.15 48.66 437.28 43.67 439.36 46.65 443.89 42.08 446.81 45.63 450.91 41.4 454.3 45.31 458.06 41.35 461.78 45.52 465.25 41.82 469.23 46.2 472.44 42.74 476.62 47.29 479.59"/><ellipse class="cls-2" cx="68.42" cy="476.56" rx="5.75" ry="26.78" transform="translate(-83.74 19.79) rotate(-10.25)"/><path class="cls-15" d="M141,589c-7.2,0-22.27,5.72-23.2-9.8"/><polygon class="cls-1" points="1295.58 479.54 1292.25 483.39 1296.83 485.6 1293.69 489.61 1298.38 491.58 1295.46 495.75 1300.25 497.45 1297.6 501.79 1302.49 503.16 1300.19 507.69 1305.19 508.6 1303.43 513.37 1308.49 513.5 1307.82 518.54 1312.54 516.89 1315.17 521.12 1316.15 516.24 1321.15 516.13 1318.75 511.64 1323.45 509.74 1320.13 505.89 1324.49 503.29 1320.75 499.85 1324.85 496.86 1320.85 493.72 1324.74 490.46 1320.55 487.58 1324.24 484.08 1319.9 481.44 1323.41 477.75 1318.94 475.32 1322.28 471.47 1317.7 469.26 1320.83 465.25 1316.15 463.28 1319.07 459.11 1314.28 457.41 1316.93 453.07 1312.03 451.7 1314.34 447.17 1309.34 446.26 1311.1 441.49 1306.03 441.36 1306.7 436.31 1301.99 437.96 1299.36 433.74 1298.37 438.62 1293.38 438.73 1295.78 443.22 1291.08 445.12 1294.4 448.97 1290.04 451.57 1293.78 455.01 1289.67 458 1293.68 461.13 1289.79 464.4 1293.98 467.28 1290.29 470.77 1294.63 473.42 1291.12 477.11 1295.58 479.54"/><ellipse class="cls-2" cx="1313.37" cy="473.18" rx="5.75" ry="26.78" transform="translate(-63.26 241.36) rotate(-10.25)"/><rect class="cls-3" x="1340.78" y="590.14" width="4.43" height="8.11"/><path class="cls-4" d="M1207.64,686.62c0,1.52-3.84,3.36-3.58,4.82s4.5,1.9,5,3.3-2.46,4.45-1.72,5.75,4.88.27,5.83,1.43-.9,5,.23,6,4.72-1.27,6-.45.64,5,2,5.65,4.14-2.61,5.6-2.18,2.05,4.63,3.56,4.84,3.23-3.67,4.76-3.67,3.3,3.87,4.76,3.67,2.14-4.43,3.56-4.84,4.25,2.8,5.6,2.18.78-4.85,2-5.65,4.88,1.44,6,.45-.72-4.84.23-6,5.09-.14,5.83-1.44-2.23-4.34-1.72-5.75,4.75-1.81,5-3.3-3.58-3.3-3.58-4.82,3.84-3.36,3.58-4.82-4.5-1.9-5-3.3,2.46-4.45,1.72-5.75-4.88-.27-5.83-1.43.9-5-.23-6-4.72,1.27-6,.45-.64-5-2-5.65-4.14,2.61-5.6,2.18-2.05-4.63-3.56-4.84-3.23,3.67-4.76,3.67-3.3-3.87-4.76-3.67-2.14,4.43-3.56,4.84-4.25-2.8-5.6-2.18-.78,4.85-2,5.65-4.88-1.44-6-.45.72,4.84-.23,6-5.09.14-5.83,1.44,2.23,4.34,1.72,5.75-4.75,1.81-5,3.3S1207.64,685.1,1207.64,686.62Z"/><path class="cls-5" d="M1207.64,686.62c0,1.52-3.84,3.36-3.58,4.82s4.5,1.9,5,3.3-2.46,4.45-1.72,5.75,4.88.27,5.83,1.43-.9,5,.23,6,4.72-1.27,6-.45.64,5,2,5.65,4.14-2.61,5.6-2.18,2.05,4.63,3.56,4.84,3.23-3.67,4.76-3.67,3.3,3.87,4.76,3.67,2.14-4.43,3.56-4.84,4.25,2.8,5.6,2.18.78-4.85,2-5.65,4.88,1.44,6,.45-.72-4.84.23-6,5.09-.14,5.83-1.44-2.23-4.34-1.72-5.75,4.75-1.81,5-3.3-3.58-3.3-3.58-4.82,3.84-3.36,3.58-4.82-4.5-1.9-5-3.3,2.46-4.45,1.72-5.75-4.88-.27-5.83-1.43.9-5-.23-6-4.72,1.27-6,.45-.64-5-2-5.65-4.14,2.61-5.6,2.18-2.05-4.63-3.56-4.84-3.23,3.67-4.76,3.67-3.3-3.87-4.76-3.67-2.14,4.43-3.56,4.84-4.25-2.8-5.6-2.18-.78,4.85-2,5.65-4.88-1.44-6-.45.72,4.84-.23,6-5.09.14-5.83,1.44,2.23,4.34,1.72,5.75-4.75,1.81-5,3.3S1207.64,685.1,1207.64,686.62Z"/><rect class="cls-6" x="1342.12" y="632.17" width="21.75" height="67.9" rx="10.87" ry="10.87" transform="matrix(0.81, -0.58, 0.58, 0.81, -134.23, 916.03)"/><path class="cls-7" d="M1247.85,663.77c0,.58-6,1.23-6,1.81s6,.92,6.06,1.49-5.92,1.54-5.87,2.12,6.07.6,6.13,1.17-5.83,1.85-5.75,2.42,6.1.27,6.19.84-5.72,2.16-5.62,2.73,6.1-.05,6.22.51-5.6,2.47-5.46,3,6.09-.38,6.24.17-5.46,2.76-5.29,3.31,6.06-.71,6.24-.16-5.3,3.06-5.1,3.6,6-1,6.22-.5-5.13,3.34-4.9,3.87,5.95-1.36,6.19-.84-4.94,3.61-4.68,4.13,5.86-1.68,6.13-1.17-4.73,3.88-4.45,4.38,5.76-2,6.06-1.51-4.51,4.13-4.21,4.61,5.65-2.31,6-1.84-4.28,4.37-3.95,4.84,5.51-2.62,5.86-2.16-4,4.6-3.67,5,5.36-2.92,5.73-2.48-3.77,4.81-3.39,5.24,5.19-3.21,5.58-2.79-3.5,5-3.09,5.42,5-3.5,5.42-3.1-3.22,5.2-2.79,5.59,4.8-3.77,5.24-3.4-2.92,5.38-2.47,5.73,4.58-4,5-3.69-2.61,5.53-2.14,5.87,4.34-4.29,4.82-4-2.29,5.67-1.8,6,4.08-4.53,4.58-4.24-2,5.8-1.45,6.07,3.82-4.76,4.33-4.5-1.62,5.9-1.1,6.15,3.53-5,4.06-4.74-1.27,6-.74,6.2,3.23-5.17,3.77-5-.92,6-.37,6.23,2.92-5.35,3.47-5.19-.56,6.09,0,6.24,2.6-5.52,3.16-5.38-.19,6.11.37,6.23,2.27-5.66,2.84-5.56.17,6.11.74,6.2,1.93-5.79,2.5-5.72.53,6.09,1.1,6.14,1.58-5.89,2.16-5.86.89,6.05,1.46,6.07,1.24-6,1.81-6,1.24,6,1.81,6,.89-6,1.46-6.07,1.59,5.91,2.16,5.86.53-6.08,1.1-6.14,1.93,5.8,2.5,5.72.17-6.1.74-6.2,2.27,5.68,2.84,5.56-.19-6.1.37-6.23,2.61,5.53,3.16,5.38-.55-6.08,0-6.24,2.93,5.37,3.47,5.19-.91-6-.37-6.23,3.24,5.19,3.77,5-1.26-6-.74-6.2,3.54,5,4.06,4.74-1.61-5.88-1.1-6.15,3.82,4.77,4.33,4.5-1.95-5.78-1.45-6.07,4.09,4.54,4.58,4.24-2.28-5.66-1.8-6,4.35,4.3,4.82,4-2.6-5.52-2.14-5.87,4.59,4,5,3.69-2.91-5.36-2.47-5.73,4.81,3.78,5.24,3.4-3.21-5.19-2.79-5.59,5,3.51,5.42,3.1-3.49-5-3.09-5.42,5.2,3.22,5.58,2.79-3.76-4.8-3.39-5.24,5.37,2.93,5.73,2.48-4-4.59-3.68-5,5.52,2.63,5.86,2.16-4.27-4.36-3.95-4.84,5.66,2.32,6,1.83-4.5-4.12-4.21-4.61,5.78,2,6.06,1.51-4.72-3.87-4.45-4.38,5.88,1.69,6.13,1.17-4.92-3.6-4.68-4.13,6,1.37,6.19.84-5.11-3.33-4.9-3.87,6,1,6.22.5-5.29-3-5.1-3.59,6.07.71,6.24.16-5.44-2.76-5.29-3.31,6.1.39,6.24-.17-5.58-2.46-5.46-3,6.12.06,6.22-.51-5.71-2.16-5.62-2.73,6.11-.27,6.19-.84-5.81-1.85-5.75-2.42,6.09-.59,6.13-1.17-5.9-1.54-5.87-2.12,6-.91,6.06-1.49-6-1.23-6-1.81,6-1.23,6-1.81-6-.92-6.06-1.49,5.92-1.54,5.87-2.12-6.07-.6-6.13-1.17,5.83-1.85,5.75-2.42-6.1-.27-6.19-.84,5.72-2.16,5.62-2.73-6.1.05-6.22-.51,5.6-2.47,5.46-3-6.09.38-6.24-.17,5.46-2.76,5.29-3.31-6.06.71-6.24.16,5.3-3.06,5.1-3.6-6,1-6.22.5,5.13-3.34,4.9-3.87-5.95,1.36-6.19.84,4.94-3.61,4.68-4.13-5.86,1.68-6.13,1.17,4.73-3.88,4.45-4.38-5.76,2-6.06,1.51,4.51-4.13,4.21-4.61-5.65,2.31-6,1.84,4.28-4.37,3.95-4.84-5.51,2.62-5.86,2.16,4-4.6,3.67-5-5.36,2.92-5.73,2.48,3.77-4.81,3.39-5.24-5.19,3.21-5.58,2.79,3.5-5,3.09-5.42-5,3.5-5.42,3.1,3.22-5.2,2.79-5.59-4.8,3.77-5.24,3.4,2.92-5.38,2.47-5.73-4.58,4-5,3.69,2.61-5.53,2.14-5.87-4.34,4.29-4.82,4,2.29-5.67,1.8-6-4.08,4.53-4.58,4.24,2-5.8,1.45-6.07-3.82,4.76-4.33,4.5,1.62-5.9,1.1-6.15-3.53,5-4.06,4.74,1.27-6,.74-6.2-3.23,5.17-3.77,5,.92-6,.37-6.23-2.92,5.35-3.47,5.19.56-6.09,0-6.24-2.6,5.52-3.16,5.38.19-6.11-.37-6.23-2.27,5.66-2.84,5.56-.17-6.11-.74-6.2-1.93,5.79-2.5,5.72-.53-6.09-1.1-6.14-1.58,5.89-2.16,5.86-.89-6.05-1.46-6.07-1.24,6-1.81,6-1.24-6-1.81-6-.89,6-1.46,6.07-1.59-5.91-2.16-5.86-.53,6.08-1.1,6.14-1.93-5.8-2.5-5.72-.17,6.1-.74,6.2-2.27-5.68-2.84-5.56.19,6.1-.37,6.23-2.61-5.53-3.16-5.38.55,6.08,0,6.24-2.93-5.37-3.47-5.19.91,6,.37,6.23-3.24-5.19-3.77-5,1.26,6,.74,6.2-3.54-5-4.06-4.74,1.61,5.88,1.1,6.15-3.82-4.77-4.33-4.5,1.95,5.78,1.45,6.07-4.09-4.54-4.58-4.24,2.28,5.66,1.8,6-4.35-4.3-4.82-4,2.6,5.52,2.14,5.87-4.59-4-5-3.69,2.91,5.36,2.47,5.73-4.81-3.78-5.24-3.4,3.21,5.19,2.79,5.59-5-3.51-5.42-3.1,3.49,5,3.09,5.42-5.2-3.22-5.58-2.79,3.76,4.8,3.39,5.24-5.37-2.93-5.73-2.48,4,4.59,3.68,5-5.52-2.63-5.86-2.16,4.27,4.36,3.95,4.84-5.66-2.32-6-1.83,4.5,4.12,4.21,4.61-5.78-2-6.06-1.51,4.72,3.87,4.45,4.38-5.88-1.69-6.13-1.17,4.92,3.6,4.68,4.13-6-1.37-6.19-.84,5.11,3.33,4.9,3.87-6-1-6.22-.5,5.29,3,5.1,3.59-6.07-.71-6.24-.16,5.44,2.76,5.29,3.31-6.1-.39-6.24.17,5.58,2.46,5.46,3-6.12-.06-6.22.51,5.71,2.16,5.62,2.73-6.11.27-6.19.84,5.81,1.85,5.75,2.42-6.09.59-6.13,1.17,5.9,1.54,5.87,2.12-6,.91-6.06,1.49S1247.85,663.19,1247.85,663.77Z"/><ellipse class="cls-6" cx="1290.46" cy="701.96" rx="48.42" ry="39.74"/><path class="cls-8" d="M1348.93,737.54c0,3.55-3,6.82-8.14,9.45-7.41,3.81-19.18,6.28-32.45,6.28-22.42,0-40.59-7-40.59-15.72s18.17-15.72,40.59-15.72S1348.93,728.86,1348.93,737.54Z"/><rect class="cls-9" x="1331.47" y="652.29" width="21.75" height="57.59" rx="10.87" ry="10.87" transform="translate(-162.71 656.84) rotate(-25.98)"/><path class="cls-10" d="M1337.3,664.51c-1.75-1,1.1-4.22-.12-5.83s-3.53.51-5-.83.35-3.89-1.39-4.92-3.55,2-5.29,1,0-4.09-1.71-5.11-4.24,2.19-5.67.75,1.84-3.87.86-5.62-4.79-.29-5.24-2.24,3.64-2.18,3.78-4.1-3-1.83-3.26-3.73c-.26-2.07,2.84-2.74,2.22-4.73s-5.48-2.42-4.52-4.27c1-2,4.33,1.65,6.43.81s.68-3.51,2.54-4.79c1.36-.93,3.42,1.27,4.43,0s-1.79-3.74-.65-4.92c1.59-1.65,4.17,1,5.88-.5s-.57-5.14,1.54-6,3.18,3.24,5.55,3.07,1.9-3.33,4.22-3.85c1.62-.36,2.64,2.65,4.15,2s.28-4.42,1.9-4.75,2.06,3.55,3.8,3.58,2.07-3.75,3.79-3.47c1.88.3,1,4,2.87,4.54s3.56-3.16,5.15-2.1-1.11,4.12.14,5.63,5.31-.33,5.62,1.6-4.13,1.68-4.82,3.67,2,2.36,2.07,4.46-2.48,2.77-1.58,4.69,4.22.44,5.05,2.39-2.57,3.26-1.83,5.19,5.11,1.36,4.9,3.42c-.24,2.36-4.47,1-5.62,3.11s1.08,2.67,1,5-2.26,2.78-1.18,4.73,6,1.34,5.43,3.5-4.46-1-6.34.1-.12,4.1-2,5.19c-1.39.81-3.2-2.2-4.57-1.35s.52,3.84-.84,4.71-3.41-2-4.9-1-.12,5.09-1.88,5.2-.9-4.15-2.48-4.93-2.73,2.22-4.43,1.74c-1.85-.52-1.92-4.29-3.78-3.82C1339.12,662.24,1339,665.47,1337.3,664.51Z"/><circle class="cls-7" cx="1302.19" cy="557.17" r="53.24"/><path class="cls-11" d="M1313.66,546.4c-2.79,11.71,14.9,17.17,24.89,13.77s15.05-15.09,11.3-26.1-20.64-24.71-24.89-13.77C1324,522.82,1314.57,542.6,1313.66,546.4Z"/><ellipse class="cls-21" cx="1338.93" cy="538.99" rx="12.15" ry="12.93" transform="translate(-52.96 157.06) rotate(-6.58)"/><ellipse class="cls-13" cx="1342.34" cy="536.14" rx="6.75" ry="6.34" transform="translate(-52.62 157.43) rotate(-6.58)"/><path class="cls-14" d="M1359,570.47l2.66-6.39a3.52,3.52,0,0,0-3.66-4.85l-6.71.77a3.52,3.52,0,0,0-2.45,5.56l4,5.62A3.52,3.52,0,0,0,1359,570.47Z"/><circle class="cls-7" cx="1345.22" cy="580.63" r="10.21"/><polygon class="cls-7" points="1252.93 481 1249.71 485.37 1254.41 488.07 1251.44 492.62 1256.3 495.04 1253.61 499.75 1258.61 501.85 1256.27 506.75 1261.42 508.44 1259.54 513.53 1264.84 514.66 1263.63 519.95 1269.04 520.15 1269.17 525.58 1274.19 523.76 1277.53 527.92 1279.21 522.85 1284.55 522.79 1282.77 517.66 1287.76 515.58 1284.78 511.05 1289.35 508.13 1285.8 504.03 1290.03 500.64 1286.12 496.88 1290.07 493.16 1285.9 489.69 1289.6 485.71 1285.23 482.5 1288.69 478.32 1284.14 475.36 1287.36 470.99 1282.65 468.28 1285.63 463.74 1280.77 461.32 1283.46 456.6 1278.45 454.5 1280.8 449.61 1275.64 447.92 1277.53 442.83 1272.23 441.7 1273.43 436.4 1268.03 436.2 1267.9 430.77 1262.88 432.59 1259.53 428.43 1257.86 433.5 1252.52 433.56 1254.3 438.69 1249.31 440.77 1252.29 445.31 1247.72 448.23 1251.27 452.33 1247.04 455.72 1250.95 459.48 1247 463.2 1251.16 466.67 1247.47 470.64 1251.84 473.85 1248.38 478.04 1252.93 481"/><ellipse class="cls-2" cx="1274.06" cy="477.97" rx="5.75" ry="26.78" transform="translate(-64.74 234.44) rotate(-10.25)"/><path class="cls-15" d="M1346.61,590.43c-7.2,0-22.27,5.72-23.2-9.8"/></svg>
